<svg width="140" height="92" viewBox="0 0 140 92" fill="none" xmlns="http://www.w3.org/2000/svg">
<path d="M10.6761 83.1534C9.38115 82.213 8.02945 81.3146 6.82898 80.2818C6.27128 79.8032 5.75139 79.2827 5.35439 78.6865C5.14643 78.3842 4.97629 78.0568 4.85341 77.7209C4.74943 77.4438 4.64545 77.0156 5.09917 76.9736C5.26932 76.9568 5.44891 76.9904 5.60961 77.0324C5.7892 77.0744 5.86482 76.8309 5.68523 76.7889C5.14643 76.6714 4.37133 76.7049 4.4564 77.3767C4.56038 78.1323 5.11808 78.9048 5.62851 79.4842C6.95186 80.9955 8.82346 82.1291 10.4776 83.3298C10.6194 83.4305 10.8179 83.2542 10.6761 83.1534Z" fill="#F3F3F3"/>
<path d="M5.73304 76.8309C5.18479 76.2516 4.75943 75.5798 4.51367 74.8493C4.40023 74.5219 4.35297 74.186 4.23954 73.867C4.16392 73.6654 4.02213 73.4807 4.23009 73.3044C4.32462 73.2288 4.4664 73.1784 4.57038 73.1113C4.89177 72.9181 5.07136 72.6914 4.67436 72.448C4.4475 72.3136 4.16392 72.2884 3.91816 72.1793C3.58732 72.0197 3.3321 71.7594 3.14305 71.4824C2.74605 70.9114 2.52864 70.2397 2.29232 69.6099C2.00875 68.8627 1.73463 68.0986 1.48886 67.3429C0.997331 65.8147 0.590873 64.2698 0.260035 62.7164C0.231678 62.7668 0.193868 62.8172 0.16551 62.8676C1.94258 62.347 3.7102 63.682 4.97684 64.6308C6.28128 65.6048 7.4534 66.7216 8.48372 67.9306C10.6105 70.4496 12.0946 73.3548 13.0209 76.3859C13.5881 78.2415 13.9473 80.1475 14.1458 82.0619C14.1647 82.2214 14.4483 82.2214 14.4293 82.0619C13.7393 75.4539 10.9981 68.7619 5.12808 64.4041C3.78582 63.4133 1.97094 62.0783 0.0993428 62.6241C0.0237227 62.6493 -0.0140874 62.708 0.00481764 62.7752C0.354561 64.4377 0.798828 66.0834 1.33762 67.7123C1.59284 68.4764 1.85751 69.2321 2.15054 69.9794C2.38685 70.5839 2.60426 71.2305 3.02017 71.7594C3.18086 71.961 3.36046 72.1457 3.58732 72.2884C3.86144 72.4647 4.18283 72.4815 4.45695 72.6327C4.81615 72.8258 4.29626 72.9769 4.10721 73.0945C3.96542 73.1868 3.83308 73.296 3.80473 73.4639C3.76692 73.7158 4.01268 74.0097 4.07885 74.2448C4.17337 74.6058 4.25845 74.9585 4.40969 75.3111C4.68381 75.9325 5.07136 76.5034 5.55344 77.0156C5.64797 77.1332 5.84647 76.9569 5.73304 76.8309Z" fill="#F3F3F3"/>
<path d="M1.68407 64.0688C5.63522 68.032 8.70728 72.6584 10.7112 77.6459C11.2689 79.0313 11.7321 80.442 12.1196 81.8694C12.1669 82.0289 12.4316 81.9617 12.3938 81.8022C10.9948 76.63 8.48043 71.7012 5.0019 67.3602C4.03775 66.1512 2.99797 64.9924 1.89203 63.8841C1.75969 63.775 1.56119 63.9513 1.68407 64.0688Z" fill="#F3F3F3"/>
<path d="M2.32662 69.5923C2.78034 69.6931 3.22461 69.8274 3.65942 69.987C3.82957 70.0458 3.90519 69.8023 3.73504 69.7435C3.30023 69.5839 2.85596 69.4496 2.40224 69.3488C2.2321 69.3069 2.15647 69.5504 2.32662 69.5923Z" fill="#F3F3F3"/>
<path d="M5.65995 75.1685C6.27436 75.1517 6.7848 75.4372 7.28578 75.7059C7.7395 75.9494 8.18377 76.1929 8.61858 76.4616C9.51657 77.0158 10.3295 77.6707 10.8683 78.5271C10.9534 78.6699 11.1991 78.5439 11.114 78.4012C10.5469 77.5112 9.69617 76.8226 8.76037 76.2517C8.26884 75.9494 7.74895 75.6639 7.22907 75.3952C6.73754 75.1349 6.23655 74.9166 5.6505 74.925C5.48035 74.9166 5.48035 75.1685 5.65995 75.1685Z" fill="#F3F3F3"/>
<path d="M9.41744 73.6574C9.16222 72.2972 9.17168 70.9201 9.4458 69.5683C9.47415 69.4088 9.20003 69.3416 9.17167 69.5011C8.8881 70.9033 8.87865 72.3224 9.14332 73.7246C9.17168 73.8841 9.4458 73.8169 9.41744 73.6574Z" fill="#F3F3F3"/>
<path d="M8.9392 67.9056C9.1377 66.2431 9.53471 64.5806 10.1964 63.0189C10.7541 61.7006 11.5859 60.4076 13.0132 59.7023C12.9376 59.6687 12.8714 59.6267 12.7958 59.5931C12.9471 61.9273 14.4878 64.0012 14.554 66.3439C14.5918 66.3019 14.6202 66.2599 14.658 66.2263C14.2988 66.3103 13.9396 66.3942 13.5804 66.4782C13.4764 66.5034 13.4386 66.6209 13.5142 66.6881C13.949 67.0576 14.0341 67.5781 14.053 68.0903C14.0625 68.359 14.2232 69.6605 13.8734 69.7444C13.7883 69.7696 13.7411 69.862 13.7883 69.9292C14.8376 71.4237 14.3555 73.1954 14.0625 74.8075C13.76 76.47 13.7222 78.1493 13.9396 79.8118C13.9585 79.9713 14.2421 79.9713 14.2232 79.8118C13.9774 77.9394 14.1003 76.1006 14.4595 74.2533C14.7525 72.7588 14.9888 71.155 14.0436 69.7948C14.0152 69.8536 13.9868 69.9208 13.9585 69.9795C14.2137 69.9208 14.2988 69.7444 14.3366 69.5261C14.4027 69.1231 14.3555 68.6781 14.346 68.2751C14.3366 67.6369 14.261 66.9736 13.7127 66.5118C13.6938 66.579 13.6749 66.6545 13.6465 66.7217C14.0057 66.6377 14.3649 66.5538 14.7241 66.4698C14.7809 66.453 14.8281 66.4026 14.8281 66.3523C14.7619 64.0012 13.2306 61.9357 13.0699 59.6015C13.0605 59.5091 12.9565 59.442 12.8525 59.4923C11.4441 60.1892 10.5934 61.4235 10.0073 62.725C9.26058 64.3791 8.84467 66.1507 8.63672 67.9224C8.63672 68.0651 8.92029 68.0651 8.9392 67.9056Z" fill="#F3F3F3"/>
<path d="M12.3684 60.852C11.357 64.2525 10.8371 67.7623 10.8276 71.2804C10.8276 71.4399 11.1112 71.4399 11.1112 71.2804C11.1207 67.7791 11.6311 64.3029 12.6331 60.9191C12.6898 60.7596 12.4157 60.6924 12.3684 60.852Z" fill="#F3F3F3"/>
<path d="M123.351 55.8242C123.956 57.5538 124.41 59.3171 124.693 61.1139C124.835 62.0208 124.939 62.9444 124.986 63.8596C125.005 64.0947 125.015 64.3382 125.024 64.5733C125.033 64.716 124.986 64.9511 125.043 65.0855C125.1 65.2114 125.298 65.2954 125.412 65.3793C125.61 65.5221 125.809 65.6648 125.998 65.8076C126.007 65.7404 126.017 65.6732 126.026 65.6061C125.761 65.7488 125.506 65.816 125.194 65.8244C125.128 65.8244 125.081 65.8663 125.062 65.9167C124.788 66.6724 124.986 67.4701 125.601 68.0578C125.638 67.9823 125.667 67.9151 125.705 67.8395C124.722 67.8059 124.703 68.8135 124.797 69.4348C124.929 70.2997 125.119 71.1645 125.393 72.0042C125.941 73.6499 126.858 75.2116 128.361 76.3367C128.503 76.4375 128.701 76.2612 128.559 76.1604C127.293 75.2116 126.442 73.9354 125.894 72.5499C125.638 71.895 125.44 71.2233 125.289 70.5516C125.166 69.989 124.551 68.0578 125.705 68.0914C125.837 68.0998 125.884 67.9571 125.809 67.8731C125.27 67.3525 125.1 66.6472 125.345 65.9839C125.298 66.0175 125.251 66.0427 125.213 66.0763C125.572 66.0763 125.875 66.0007 126.187 65.8244C126.253 65.7824 126.291 65.6816 126.215 65.6228C125.865 65.371 125.383 65.1526 125.326 64.7328C125.27 64.2878 125.289 63.826 125.251 63.381C125.185 62.5497 125.09 61.7185 124.948 60.8872C124.665 59.1492 124.221 57.4363 123.635 55.757C123.568 55.5975 123.294 55.6646 123.351 55.8242Z" fill="#F3F3F3"/>
<path d="M123.813 56.2014C123.425 55.748 124.153 55.4121 124.578 55.5045C125.004 55.6052 125.353 55.9075 125.647 56.1762C126.185 56.6632 126.611 57.2341 126.979 57.8303C127.745 59.0562 128.388 60.366 128.955 61.6675C130.118 64.346 130.921 67.1504 131.346 69.9884C131.583 71.6005 131.706 73.221 131.706 74.8415C131.706 75.0011 131.989 75.0011 131.989 74.8415C131.989 71.4662 131.469 68.0992 130.448 64.8581C129.947 63.2796 129.333 61.7347 128.605 60.2233C127.934 58.8295 127.216 57.3349 126.062 56.193C125.599 55.7312 124.815 55.0175 124.04 55.261C123.567 55.4037 123.255 55.9411 123.576 56.3273C123.68 56.4533 123.926 56.3357 123.813 56.2014Z" fill="#F3F3F3"/>
<path d="M130.618 65.4282C131.1 63.9924 131.657 62.5902 132.291 61.2048C132.622 60.4911 132.971 59.7774 133.349 59.0804C133.529 58.753 133.709 58.4171 133.898 58.0897C134.021 57.8797 134.389 56.9561 134.777 57.0401C134.89 57.0653 134.966 56.9813 134.947 56.889C134.852 56.3684 135.514 55.9234 135.864 55.5791C136.176 55.2768 136.478 54.9746 136.79 54.6723C137.433 54.051 138.066 53.4296 138.709 52.7999C138.633 52.7831 138.548 52.7663 138.473 52.7411C139.446 54.8822 139.191 57.2248 138.624 59.4247C138.331 60.5498 137.962 61.6666 137.65 62.7917C137.433 63.5726 137.197 64.7565 136.119 64.9244C136.043 64.9328 136.006 65.0168 136.024 65.0755C136.299 66.0747 135.542 66.9983 135.041 67.838C134.569 68.6272 134.134 69.4417 133.737 70.2729C132.962 71.8935 132.347 73.5644 131.884 75.2688C131.837 75.4284 132.111 75.4956 132.158 75.336C132.669 73.4468 133.368 71.608 134.266 69.8363C134.692 68.9967 135.164 68.1738 135.665 67.3678C136.119 66.6373 136.535 65.8648 136.308 65.0168C136.28 65.0671 136.242 65.1175 136.214 65.1679C137.13 65.0251 137.527 64.2023 137.764 63.4802C138.151 62.2711 138.501 61.0284 138.832 59.8025C139.465 57.4683 139.805 54.9578 138.766 52.6739C138.728 52.59 138.605 52.5396 138.529 52.6152C137.726 53.396 136.922 54.1853 136.119 54.9662C135.741 55.3356 135.334 55.6883 134.985 56.0829C134.758 56.3516 134.635 56.6035 134.692 56.9393C134.748 56.889 134.805 56.8386 134.862 56.7882C134.181 56.6371 133.85 57.6279 133.624 58.0225C133.17 58.8202 132.744 59.6262 132.357 60.4407C131.582 62.036 130.92 63.6817 130.362 65.3442C130.287 65.5121 130.561 65.5793 130.618 65.4282Z" fill="#F3F3F3"/>
<path d="M138.013 54.9749C135.063 59.8616 132.057 64.8995 131.349 70.4832C131.33 70.6427 131.613 70.6427 131.632 70.4832C132.341 64.9415 135.338 59.9372 138.258 55.1008C138.353 54.9581 138.107 54.8322 138.013 54.9749Z" fill="#F3F3F3"/>
<path d="M125.711 58.3338C128.008 63.7327 129.379 69.4255 129.785 75.1855C129.795 75.345 130.078 75.345 130.069 75.1855C129.662 69.4003 128.292 63.6907 125.985 58.2666C125.919 58.1239 125.645 58.1826 125.711 58.3338Z" fill="#F3F3F3"/>
<path d="M6.27047 55.6302C12.0364 54.715 17.9914 54.7654 23.7385 55.7814C26.5837 56.2852 29.3721 57.0157 32.0566 57.9729C34.864 58.972 37.5579 60.1727 40.3086 61.2811C50.6873 65.4625 61.7939 68.1998 73.1084 69.3921C79.5266 70.0722 86.0109 70.2485 92.4575 69.9294C92.637 69.921 92.637 69.6692 92.4575 69.6776C80.8877 70.2569 69.2329 69.2073 58.0224 66.596C52.3982 65.2862 46.8874 63.5817 41.5657 61.5078C38.8056 60.433 36.1117 59.2239 33.3421 58.1744C30.6955 57.1752 27.9637 56.3691 25.1658 55.7982C18.9556 54.5387 12.4712 54.396 6.19485 55.3951C6.01526 55.4119 6.09088 55.6554 6.27047 55.6302Z" fill="#F3F3F3"/>
<path d="M57.6925 66.4113C63.071 66.6548 68.2603 64.9336 73.3174 63.5565C78.6107 62.1207 83.923 60.7269 89.2447 59.3667C94.538 58.0149 99.8313 56.5958 105.21 55.5127C110.569 54.438 116.033 53.9258 121.525 53.783C127.64 53.6151 133.756 53.8586 139.862 54.1105C140.042 54.1189 140.042 53.867 139.862 53.8586C129.077 53.422 118.15 52.9938 107.488 54.8326C102.081 55.7646 96.7877 57.192 91.4943 58.527C86.1726 59.8789 80.8604 61.2643 75.5576 62.6833C72.6179 63.4726 69.6876 64.329 66.729 65.0511C63.7799 65.7732 60.7551 66.2938 57.6831 66.1594C57.5129 66.151 57.5129 66.4029 57.6925 66.4113Z" fill="#F3F3F3"/>
<path d="M34.7411 57.7957C38.4749 58.7529 42.3504 58.0896 46.0747 57.4515C50.0636 56.7714 54.0904 56.3096 58.155 56.1668C66.2085 55.8981 74.2148 56.9225 82.24 57.208C86.6826 57.3675 91.1442 57.2752 95.5302 56.6286C95.7098 56.6034 95.6342 56.3599 95.4546 56.3851C87.5617 57.5522 79.546 56.8553 71.6248 56.3263C67.6642 56.0577 63.6941 55.831 59.7146 55.8897C55.7729 55.9485 51.8312 56.2844 47.9368 56.8973C43.6265 57.569 39.146 58.6774 34.8073 57.5606C34.6371 57.5103 34.5615 57.7538 34.7411 57.7957Z" fill="#F3F3F3"/>
<path d="M51.471 73.9772C52.6809 73.5322 53.9853 73.3055 55.2992 73.3391C56.5186 73.3727 57.6151 73.7253 58.7967 73.9437C59.6757 74.1116 60.5548 74.1116 61.2638 73.5574C61.5379 73.3475 61.7742 73.1292 62.1712 73.2384C62.4642 73.3139 62.71 73.4902 62.9841 73.5994C63.3055 73.7337 63.6363 73.7841 63.9766 73.7253C64.7895 73.5826 65.404 72.9865 66.1129 72.6422C67.3134 72.0712 68.4666 72.8353 69.6387 73.1124C72.0774 73.6918 74.6863 73.5154 77.1818 73.4902C80.2539 73.4651 83.3354 73.4818 86.3885 73.146C86.5681 73.1292 86.5681 72.8773 86.3885 72.8941C83.6473 73.188 80.8777 73.2048 78.1176 73.23C75.4898 73.2551 72.7108 73.4735 70.1208 72.9529C69.5158 72.8353 68.9487 72.659 68.372 72.4491C67.8711 72.2644 67.3512 72.088 66.8029 72.1552C65.9428 72.256 65.3 72.8605 64.5721 73.23C64.194 73.4231 63.7781 73.5574 63.3433 73.4483C62.8707 73.3223 62.4831 72.9529 61.9633 72.9361C61.4717 72.9277 61.2354 73.2803 60.8762 73.507C60.3752 73.8177 59.7419 73.8261 59.1559 73.7421C57.9081 73.5658 56.7455 73.1376 55.4694 73.0872C54.0799 73.0284 52.6903 73.2551 51.3953 73.7337C51.2252 73.7925 51.3008 74.036 51.471 73.9772Z" fill="#F3F3F3"/>
<path d="M57.4998 66.4868C57.6699 66.512 57.8306 66.5456 58.0008 66.5707C58.1804 66.6043 58.2465 66.386 58.0764 66.3272C57.9724 66.2937 57.8684 66.2601 57.755 66.2265C57.6038 66.1761 57.4998 66.3944 57.6416 66.4532C58.5112 66.8562 59.4186 67.1753 60.3639 67.402C60.5435 67.444 60.6191 67.2005 60.4395 67.1585C59.5132 66.9402 58.6341 66.6295 57.7834 66.2349C57.7456 66.3104 57.7077 66.386 57.6699 66.4616C57.7739 66.4952 57.8779 66.5288 57.9913 66.5623C58.0197 66.4784 58.0386 66.4028 58.0669 66.3188C57.8968 66.2937 57.7361 66.2601 57.566 66.2349C57.3958 66.2097 57.3202 66.4532 57.4998 66.4868Z" fill="#F3F3F3"/>
<path d="M44.7979 78.1252C44.5899 77.9069 44.4009 77.6802 44.2402 77.4283C44.1646 77.3023 44.07 77.168 44.0228 77.0252C43.9566 76.9329 43.9472 76.8237 43.985 76.7146C43.9566 76.597 43.9944 76.5046 44.0889 76.4375C44.2307 76.0932 44.0606 75.7322 43.9661 75.3795C43.8243 74.8253 43.6825 74.2712 43.5407 73.717C43.4651 73.4231 43.3895 73.1377 43.3233 72.8438C43.2855 72.7094 43.2571 72.5835 43.2193 72.4491C43.1626 72.214 43.1059 72.1049 43.3044 71.9118C43.3989 71.7354 43.5407 71.7019 43.7298 71.8362C43.8148 71.9118 43.8999 71.9873 43.985 72.0629C44.0795 72.1721 44.1457 72.298 44.2213 72.4156C44.3536 72.6339 44.4859 72.8522 44.6088 73.0705C44.9019 73.5911 45.1571 74.1284 45.3745 74.6742C45.7904 75.6986 46.074 76.7565 46.2441 77.8397C46.2914 77.7893 46.3386 77.7305 46.3765 77.6802C46.3954 77.6969 46.4048 77.7221 46.4237 77.7389C46.471 77.5794 46.1969 77.5122 46.1496 77.6718C46.1118 77.8229 46.1969 77.932 46.3765 77.932C46.4804 77.932 46.5277 77.8565 46.5088 77.7725C46.2914 76.3871 45.8849 75.0353 45.2611 73.7506C44.968 73.1461 44.6561 72.4743 44.2213 71.937C43.985 71.6431 43.5596 71.3744 43.1532 71.5843C42.69 71.8194 42.9074 72.3988 43.0019 72.7598C43.191 73.4987 43.38 74.2376 43.5596 74.9765C43.6447 75.3291 43.8243 75.7238 43.8432 76.0848C43.8526 76.3787 43.5785 76.513 43.6258 76.8069C43.7203 77.3527 44.1835 77.9069 44.571 78.3099C44.7128 78.419 44.9113 78.2427 44.7979 78.1252Z" fill="#F3F3F3"/>
<path d="M45.6656 74.5145C45.5238 73.7588 45.5427 72.9863 45.7412 72.239C45.7885 72.0459 45.8546 71.8612 45.9303 71.6765C46.0626 71.3574 46.2517 71.391 46.4407 71.6261C46.6865 71.9368 46.8755 72.281 47.0173 72.6337C47.5939 74.0947 47.3387 75.6648 47.0929 77.151C47.0646 77.3105 47.3387 77.3777 47.367 77.2182C47.679 75.3457 48.0004 73.2214 46.7243 71.5505C46.5825 71.3658 46.3934 71.0551 46.1004 71.0971C45.7885 71.1475 45.6845 71.5253 45.5994 71.7436C45.2591 72.6589 45.2024 73.6329 45.382 74.5733C45.4293 74.7412 45.7034 74.674 45.6656 74.5145Z" fill="#F3F3F3"/>
<path d="M46.1794 72.5812C46.4629 73.8911 46.5669 75.2093 46.5197 76.536C46.5102 76.6955 46.7938 76.6955 46.8032 76.536C46.8599 75.1842 46.7371 73.8407 46.4535 72.5141C46.4157 72.3545 46.151 72.4217 46.1794 72.5812Z" fill="#F3F3F3"/>
<path d="M11.4174 54.6817C11.1432 54.1443 10.5288 53.7664 10.1413 53.2962C9.7159 52.7757 9.35671 52.2131 9.00697 51.6589C8.97861 51.7177 8.95025 51.7849 8.92189 51.8436C10.8218 51.5414 11.9183 53.2039 12.287 54.6061C12.3248 54.7656 12.5989 54.6984 12.5611 54.5389C12.1546 52.9856 10.9069 51.2811 8.84627 51.6002C8.75175 51.6169 8.72339 51.7177 8.7612 51.7849C9.11094 52.3474 9.46069 52.91 9.8955 53.4222C10.2831 53.8924 10.9069 54.287 11.1716 54.8076C11.2472 54.9587 11.493 54.8328 11.4174 54.6817Z" fill="#F3F3F3"/>
<path d="M12.2376 53.3293C12.3794 52.011 13.7973 51.1882 14.3455 50.021C14.2793 50.0462 14.2037 50.0714 14.1376 50.0966C14.7709 50.4577 14.2983 51.7675 14.1187 52.2713C13.854 53.0102 13.4192 53.6819 12.8615 54.2697C12.748 54.3956 12.9465 54.5719 13.06 54.446C13.7595 53.7155 14.2604 52.8675 14.5157 51.9354C14.6764 51.3477 14.9788 50.2813 14.2793 49.8783C14.1943 49.8279 14.0997 49.8867 14.0714 49.9539C13.5042 51.163 12.1053 51.9522 11.954 53.3293C11.9351 53.4888 12.2187 53.4888 12.2376 53.3293Z" fill="#F3F3F3"/>
<path d="M96.1703 57.1417C96.0852 56.9486 96.0001 56.7555 95.9151 56.5624C95.8678 56.47 95.83 56.3692 95.7827 56.2769C95.726 56.2097 95.726 56.1341 95.7733 56.0586C95.8583 56.1258 96.0285 56.0838 96.019 55.9662C95.9718 55.5464 95.9245 55.1182 95.8772 54.6983C95.8678 54.5976 95.7544 54.203 95.8205 54.1274C96.1136 53.7663 96.3121 54.3625 96.3404 54.4549C96.5956 55.2273 96.5862 56.1174 96.5767 56.915C96.5767 57.0746 96.8603 57.0746 96.8603 56.915C96.8698 56.2601 96.832 55.6136 96.728 54.967C96.6618 54.5556 96.5862 53.9595 96.1325 53.716C95.8394 53.5564 95.5937 53.7244 95.537 54.0014C95.4802 54.2701 95.5748 54.5892 95.6031 54.8495C95.6409 55.2189 95.6882 55.5884 95.726 55.9578C95.8111 55.9242 95.8867 55.899 95.9718 55.8655C95.8111 55.7311 95.5653 55.7563 95.4708 55.941C95.4046 56.067 95.4613 56.2013 95.5086 56.3273C95.622 56.6211 95.7733 56.9066 95.8962 57.2005C95.9623 57.36 96.2365 57.2929 96.1703 57.1417Z" fill="#F3F3F3"/>
<path d="M96.8095 55.7733C96.7716 54.5978 97.0458 53.4475 97.6224 52.3812C97.5468 52.3896 97.4711 52.398 97.3955 52.4064C98.0099 52.8598 97.6035 54.0857 97.4995 54.6734C97.3577 55.4627 97.1781 56.2519 96.9512 57.0244C96.904 57.184 97.1781 57.2511 97.2254 57.0916C97.4995 56.1512 97.7074 55.194 97.8587 54.2284C97.9532 53.6071 98.2273 52.6918 97.594 52.2216C97.5279 52.1713 97.4144 52.1713 97.3672 52.2468C96.7716 53.3468 96.4786 54.5391 96.5164 55.765C96.5353 55.9329 96.8189 55.9329 96.8095 55.7733Z" fill="#F3F3F3"/>
<path d="M47.2026 81.4753C47.7981 80.9379 48.7244 81.6601 49.4145 81.6265C49.7453 81.6097 50.0478 81.5005 50.3503 81.4082C50.7567 81.2906 51.1443 81.2486 51.5696 81.2822C53.2522 81.4082 54.8875 81.5173 56.5795 81.4165C56.7591 81.4082 56.7591 81.1563 56.5795 81.1647C55.6626 81.215 54.7551 81.2318 53.8382 81.1982C52.9119 81.1647 51.9477 80.9631 51.0308 81.0219C50.6622 81.0471 50.3219 81.1563 49.9722 81.257C49.4617 81.3998 49.0742 81.3746 48.5826 81.215C48.0438 81.0387 47.4389 80.896 46.9946 81.299C46.8717 81.4165 47.0702 81.5929 47.2026 81.4753Z" fill="#F3F3F3"/>
<path d="M29.3451 83.5154C30.0068 82.8772 31.1694 82.8353 31.8689 83.4398C31.8784 83.3726 31.8878 83.3054 31.8973 83.2383C31.4057 83.4482 30.9047 83.5405 30.366 83.5154C30.1864 83.507 30.1864 83.7588 30.366 83.7672C30.9615 83.7924 31.5097 83.6917 32.0485 83.4566C32.1336 83.423 32.143 83.3138 32.0769 83.2551C31.2639 82.5582 29.9122 82.5918 29.1466 83.3306C29.0237 83.4566 29.2222 83.6329 29.3451 83.5154Z" fill="#F3F3F3"/>
<path d="M3.00091 85.7824C2.51883 85.7488 2.03675 85.8748 1.66811 86.1686C1.44124 86.3534 1.11986 86.6976 1.41289 86.9411C1.74373 87.2098 2.53774 87.0335 2.92529 86.9999C3.63423 86.9327 4.32426 86.8152 5.01429 86.6556C5.19389 86.6136 5.11827 86.3701 4.93867 86.4121C4.10685 86.6052 3.26558 86.7312 2.4054 86.7816C2.23526 86.79 2.05566 86.8068 1.88551 86.8068C1.46015 86.79 1.65865 86.5045 1.86661 86.345C2.17854 86.0931 2.585 86.0007 3.00091 86.0343C3.18996 86.0427 3.18051 85.7908 3.00091 85.7824Z" fill="#F3F3F3"/>
<path d="M16.5087 78.855C16.5276 78.7878 16.5843 78.7458 16.66 78.7458C16.7261 78.7374 16.7923 78.729 16.849 78.7206C17.0003 78.7038 17.142 78.7122 17.2933 78.729C17.5863 78.7626 17.851 78.855 18.1062 78.9977C18.1156 78.9221 18.1251 78.8466 18.144 78.771C17.7943 78.8802 17.4445 78.9053 17.0759 78.855C16.8963 78.8298 16.8207 79.0733 17.0003 79.0985C17.4162 79.1572 17.8132 79.1321 18.2196 79.0145C18.3331 78.9809 18.3614 78.8466 18.2574 78.7878C17.7659 78.5107 17.1231 78.3764 16.5465 78.5191C16.2346 78.5947 15.9888 79.0229 16.4331 79.1069C16.6127 79.132 16.6883 78.8886 16.5087 78.855Z" fill="#F3F3F3"/>
<path d="M24.3367 21.1125C22.087 20.4072 20.4801 18.4676 20.2344 16.3685C19.9791 14.2022 21.3498 12.1366 23.4104 11.0283C25.6317 9.836 28.7889 9.8276 30.6132 11.6328C31.549 12.5481 32.1256 13.7991 32.4659 14.983C32.8156 16.2005 32.8724 17.5524 32.0878 18.6523C31.2938 19.7522 29.8759 20.3652 28.5431 20.827C27.1347 21.3224 25.4427 21.7086 24.0626 20.9361C23.9114 20.8522 23.7696 21.0705 23.9208 21.1544C25.1591 21.843 26.6526 21.6666 27.976 21.2804C29.271 20.9025 30.6416 20.3736 31.6435 19.5171C33.8838 17.6111 32.9669 14.4625 31.5679 12.3717C30.8306 11.2634 29.7247 10.4489 28.3163 10.1131C26.974 9.79401 25.5372 9.90317 24.2611 10.365C21.9169 11.2214 20.0831 13.2198 19.9319 15.5036C19.7617 18.0226 21.5861 20.5163 24.2611 21.356C24.4313 21.4147 24.5069 21.1712 24.3367 21.1125Z" fill="#F3F3F3"/>
<path d="M95.4114 69.8541C101.858 69.493 108.267 68.7206 114.581 67.5367C116.405 67.1924 118.22 66.8146 120.026 66.4031C120.205 66.3611 120.13 66.1176 119.95 66.1596C113.693 67.5786 107.322 68.603 100.894 69.1991C99.0695 69.3671 97.2452 69.5014 95.4208 69.6022C95.2318 69.6106 95.2318 69.8625 95.4114 69.8541Z" fill="#F3F3F3"/>
<path d="M80.6325 75.9169C81.4643 76.0429 82.315 76.0345 83.1374 75.8582C83.6478 75.749 84.0165 75.5727 84.5458 75.7238C84.8767 75.8162 85.1886 75.8498 85.5289 75.791C85.907 75.7238 86.2567 75.5559 86.5781 75.3712C86.9279 75.1613 87.2776 74.8674 87.703 74.7918C88.1945 74.7078 88.6388 75.0521 89.1114 75.1445C89.4517 75.2116 89.8014 75.2032 90.1417 75.1529C90.3213 75.1277 90.2457 74.8842 90.0661 74.9094C89.4706 75.0017 89.0074 74.8674 88.4686 74.6575C88.2418 74.5651 88.0244 74.5147 87.7691 74.5315C87.0035 74.6071 86.4741 75.2452 85.7652 75.4719C85.3115 75.6147 84.9428 75.5643 84.4986 75.4383C84.1583 75.346 83.9125 75.3964 83.5817 75.4887C82.6459 75.749 81.6912 75.8246 80.727 75.6818C80.538 75.6482 80.4529 75.8917 80.6325 75.9169Z" fill="#F3F3F3"/>
<path d="M33.796 86.8397C41.1406 86.8397 48.4852 86.8397 55.8298 86.8397C56.1985 86.8397 56.1985 86.3359 55.8298 86.3359C48.4852 86.3359 41.1406 86.3359 33.796 86.3359C33.4274 86.3359 33.4274 86.8397 33.796 86.8397Z" fill="#2D2D2D"/>
<path d="M57.4115 86.6884C58.2717 86.6884 59.1319 86.6884 59.992 86.6884C60.3607 86.6884 60.3607 86.1846 59.992 86.1846C59.1319 86.1846 58.2717 86.1846 57.4115 86.1846C57.0428 86.1846 57.0428 86.6884 57.4115 86.6884Z" fill="#2D2D2D"/>
<path d="M61.8981 86.6127C62.1722 86.6127 62.4558 86.6127 62.7299 86.6127C63.0985 86.6127 63.0985 86.1089 62.7299 86.1089C62.4558 86.1089 62.1722 86.1089 61.8981 86.1089C61.5294 86.1089 61.5294 86.6127 61.8981 86.6127Z" fill="#2D2D2D"/>
<path d="M10.1017 88.6874C15.5369 88.6874 20.9626 88.6874 26.3978 88.6874C26.7664 88.6874 26.7664 88.1836 26.3978 88.1836C20.9626 88.1836 15.5369 88.1836 10.1017 88.1836C9.74248 88.1836 9.74248 88.6874 10.1017 88.6874Z" fill="#2D2D2D"/>
<path d="M27.9752 88.6871C29.3931 88.6871 30.8015 88.6871 32.2194 88.6871C32.588 88.6871 32.588 88.1833 32.2194 88.1833C30.8015 88.1833 29.3931 88.1833 27.9752 88.1833C27.616 88.1833 27.616 88.6871 27.9752 88.6871Z" fill="#2D2D2D"/>
<path d="M34.627 88.5367C34.7121 88.5367 34.7972 88.5367 34.8728 88.5367C35.0241 88.5367 35.1658 88.4192 35.1564 88.2849C35.1469 88.1505 35.0335 88.033 34.8728 88.033C34.7877 88.033 34.7027 88.033 34.627 88.033C34.4758 88.033 34.334 88.1505 34.3435 88.2849C34.3529 88.4192 34.4663 88.5367 34.627 88.5367Z" fill="#2D2D2D"/>
<path d="M7.11413 88.7548C7.31263 88.7548 7.50168 88.7548 7.70019 88.7548C8.06883 88.7548 8.06883 88.251 7.70019 88.251C7.50168 88.251 7.31263 88.251 7.11413 88.251C6.74548 88.251 6.74548 88.7548 7.11413 88.7548Z" fill="#2D2D2D"/>
<path d="M82.0104 79.5275C89.6291 79.5275 97.2478 79.5275 104.876 79.5275C105.245 79.5275 105.245 79.0237 104.876 79.0237C97.2573 79.0237 89.6385 79.0237 82.0104 79.0237C81.6417 79.0237 81.6417 79.5275 82.0104 79.5275Z" fill="#2D2D2D"/>
<path d="M107.868 79.2335C114.769 79.2335 121.669 79.2335 128.569 79.2335C128.938 79.2335 128.938 78.7297 128.569 78.7297C121.669 78.7297 114.769 78.7297 107.868 78.7297C107.509 78.7297 107.509 79.2335 107.868 79.2335Z" fill="#2D2D2D"/>
<path d="M130.399 79.0812C130.956 79.0812 131.505 79.0812 132.062 79.0812C132.431 79.0812 132.431 78.5774 132.062 78.5774C131.505 78.5774 130.956 78.5774 130.399 78.5774C130.03 78.5774 130.03 79.0812 130.399 79.0812Z" fill="#2D2D2D"/>
<path d="M123.086 76.278C124.665 76.278 126.243 76.278 127.822 76.278C128.19 76.278 128.19 75.7742 127.822 75.7742C126.243 75.7742 124.665 75.7742 123.086 75.7742C122.717 75.7742 122.717 76.278 123.086 76.278Z" fill="#2D2D2D"/>
<path d="M129.4 76.2021C129.787 76.2021 130.175 76.2021 130.562 76.2021C130.931 76.2021 130.931 75.6982 130.562 75.6982C130.175 75.6982 129.787 75.6982 129.4 75.6982C129.041 75.6982 129.041 76.2021 129.4 76.2021Z" fill="#2D2D2D"/>
<path d="M77.4403 81.0053C79.4631 81.0053 81.486 81.0053 83.5088 81.0053C83.8774 81.0053 83.8774 80.5015 83.5088 80.5015C81.486 80.5015 79.4631 80.5015 77.4403 80.5015C77.0811 80.5015 77.0811 81.0053 77.4403 81.0053Z" fill="#2D2D2D"/>
<path d="M85.672 80.9286C86.5322 80.9286 87.3924 80.9286 88.2525 80.9286C88.6212 80.9286 88.6212 80.4248 88.2525 80.4248C87.3924 80.4248 86.5322 80.4248 85.672 80.4248C85.3033 80.4248 85.3033 80.9286 85.672 80.9286Z" fill="#2D2D2D"/>
<path d="M89.4167 82.1884C90.0028 82.1884 90.5794 82.1884 91.1655 82.1884C91.5341 82.1884 91.5341 81.6846 91.1655 81.6846C90.5794 81.6846 90.0028 81.6846 89.4167 81.6846C89.0481 81.6846 89.0481 82.1884 89.4167 82.1884Z" fill="#2D2D2D"/>
<path d="M49.1567 40.0889C48.8164 39.711 50.1019 39.4759 50.3099 39.4004C50.7163 39.2408 50.9716 38.947 51.0661 38.5607C51.1606 38.1661 51.0661 37.7463 51.1984 37.36C51.3969 36.7891 52.1342 36.8226 52.6825 36.8478C53.0511 36.8646 53.0417 36.3608 52.6825 36.344C52.0586 36.3105 51.3402 36.3273 50.9054 36.7807C50.5179 37.1837 50.5935 37.7295 50.5462 38.2249C50.5084 38.6699 50.3193 38.8882 49.8278 39.0141C49.5442 39.0897 49.2607 39.1317 49.0244 39.2912C48.5895 39.5683 48.4099 40.0553 48.7597 40.4415C48.9771 40.7018 49.3836 40.3408 49.1567 40.0889Z" fill="#2D2D2D"/>
<path d="M51.1711 40.508C50.9159 40.2393 51.502 39.9706 51.691 39.8699C51.9462 39.7355 52.1637 39.6096 52.3527 39.4081C52.7403 38.9966 52.9955 38.2158 53.695 38.1822C54.0542 38.1654 54.0636 37.6616 53.695 37.6784C52.5323 37.7288 52.4378 38.8035 51.6438 39.3073C51.3035 39.5172 50.897 39.6348 50.6796 39.9706C50.4811 40.2729 50.5189 40.6004 50.7647 40.8607C51.001 41.1125 51.4075 40.7515 51.1711 40.508Z" fill="#2D2D2D"/>
<path d="M95.4649 13.3269C95.4271 13.8643 94.9544 14.5108 95.5216 14.9642C96.0131 15.3504 96.6275 15.065 97.1852 15.0986C97.7996 15.1405 97.535 15.6443 97.4593 16.0138C97.4026 16.2909 97.3743 16.5931 97.5161 16.8618C97.7429 17.2816 98.3573 17.5503 98.811 17.2481C99.0946 17.0549 98.811 16.6183 98.5275 16.8114C98.0643 17.1221 97.9698 16.3748 98.017 16.1481C98.0643 15.9046 98.1588 15.6611 98.1683 15.4092C98.1777 15.0566 97.9698 14.7795 97.6011 14.6619C97.1474 14.5192 96.7409 14.6787 96.2872 14.6703C95.4649 14.6535 96.0131 13.7635 96.0415 13.3269C96.0604 12.9994 95.4932 12.9994 95.4649 13.3269Z" fill="#2D2D2D"/>
<path d="M98.7189 13.9088C98.4826 14.3622 98.2557 14.8996 98.6338 15.353C98.7756 15.521 98.9646 15.6217 99.1915 15.6553C99.3427 15.6721 99.5413 15.6133 99.6736 15.6637C99.891 15.7393 100.014 15.966 99.9099 16.1675C99.7492 16.4614 100.241 16.7133 100.401 16.4194C100.6 16.0415 100.524 15.6049 100.146 15.3278C99.9383 15.1767 99.7492 15.1767 99.494 15.1515C98.804 15.0927 98.993 14.5806 99.2104 14.1691C99.3617 13.8752 98.8701 13.615 98.7189 13.9088Z" fill="#2D2D2D"/>
<path d="M128.842 31.3223C128.634 30.8437 129.135 30.1551 129.768 30.3315C130.251 30.4742 130.468 31.1123 130.147 31.465C129.92 31.7169 130.317 32.0695 130.544 31.8176C131.13 31.1879 130.837 30.088 129.92 29.8445C128.908 29.5758 127.935 30.6002 128.303 31.4482C128.426 31.7589 128.974 31.6245 128.842 31.3223Z" fill="#2D2D2D"/>
<path d="M18.4962 51.2557C18.4395 50.6596 19.2902 50.3237 19.6494 50.8863C19.9519 51.3733 19.3564 51.8015 18.8365 51.642C18.4962 51.5328 18.3449 52.0198 18.6852 52.129C19.7345 52.4648 20.727 51.4069 20.0937 50.5672C19.4131 49.6688 17.8345 50.1978 17.9385 51.2557C17.9574 51.5748 18.5245 51.5832 18.4962 51.2557Z" fill="#2D2D2D"/>
<path d="M21.7845 27.721C21.5671 28.0401 21.5482 28.4515 21.8318 28.7454C21.9736 28.8881 22.1721 28.9805 22.38 29.0141C22.673 29.056 22.8905 28.9133 23.1457 29.0224C23.4009 29.14 23.3442 29.2827 23.3725 29.5178C23.382 29.6606 23.3914 29.7949 23.4103 29.9377C23.4292 30.0888 23.4482 30.2399 23.571 30.3575C23.6845 30.4666 23.8263 30.5086 23.9869 30.5338C24.1004 30.5506 24.2138 30.5422 24.3367 30.5422C24.4312 30.5422 24.5352 30.5422 24.6297 30.559C24.8093 30.601 24.8849 30.7101 24.866 30.8697C24.7242 30.962 24.8566 31.1803 25.0078 31.088C25.2914 30.9033 25.1969 30.6178 24.9511 30.4331C24.8377 30.3491 24.7148 30.3071 24.5636 30.2903C24.072 30.2315 23.7884 30.3995 23.675 29.7865C23.6183 29.4843 23.7412 28.8545 23.3914 28.653C23.2307 28.5606 23.089 28.6026 22.9283 28.6614C22.673 28.7538 22.4651 28.8293 22.2004 28.6866C21.8412 28.4935 21.8318 28.1156 22.0303 27.8301C22.1248 27.7126 21.879 27.5867 21.7845 27.721Z" fill="#FF6871"/>
<path d="M25.6011 28.72C25.412 29.0139 25.1852 29.4589 25.4782 29.7612C25.6672 29.9627 25.9886 29.9375 26.2344 30.0635C26.6219 30.2566 26.8015 30.6596 26.7259 31.0374C26.6976 31.197 26.9717 31.2641 27.0001 31.1046C27.0757 30.7268 26.9811 30.3573 26.6881 30.0719C26.5652 29.9459 26.4045 29.8535 26.2344 29.7864C26.0359 29.7108 25.6956 29.6184 25.6294 29.4001C25.5822 29.2406 25.7712 28.9719 25.8468 28.846C25.9319 28.7032 25.6862 28.5773 25.6011 28.72Z" fill="#FF6871"/>
<path d="M78.8082 55.2367C78.4868 54.6489 79.0918 53.9604 79.8102 54.1871C80.5569 54.4222 80.5286 55.329 79.8196 55.5809C79.6495 55.6397 79.7251 55.8832 79.8952 55.8244C80.8121 55.497 80.935 54.3299 79.9803 53.9772C78.9973 53.6078 78.1276 54.5566 78.5719 55.371C78.6475 55.5138 78.8933 55.3794 78.8082 55.2367Z" fill="#FF6871"/>
<path d="M43.9958 53.2461C43.3908 53.137 44.3644 52.5576 44.4684 52.4988C44.6196 52.4065 44.7614 52.3057 44.837 52.1462C45.0923 51.634 44.6291 50.6096 45.65 50.5592C45.8296 50.5508 45.8296 50.2989 45.65 50.3073C45.253 50.3241 44.9599 50.5172 44.7803 50.8195C44.4873 51.3065 44.837 51.9698 44.2699 52.3057C43.9485 52.4988 43.6082 52.6248 43.5704 53.0026C43.5515 53.2293 43.6555 53.4308 43.9201 53.4812C44.0997 53.5232 44.1754 53.2797 43.9958 53.2461Z" fill="#FF6871"/>
<path d="M45.8089 52.5147C45.5442 52.1873 45.6955 51.7255 46.1397 51.5995C46.4422 51.5156 46.6691 51.5575 46.8392 51.2804C47.0094 50.995 46.981 50.6591 47.1701 50.3652C47.4064 49.9874 47.8034 49.7271 48.2571 49.6011C48.4272 49.5508 48.3611 49.3073 48.1815 49.3577C47.7561 49.4752 47.3875 49.6851 47.1133 49.9958C46.9716 50.1553 46.8487 50.34 46.7731 50.5416C46.6691 50.8102 46.7163 51.1713 46.3761 51.314C46.1681 51.4064 45.9601 51.356 45.7616 51.4904C45.6293 51.5743 45.5348 51.7003 45.4781 51.8262C45.3457 52.1033 45.3741 52.3972 45.5726 52.6407C45.6671 52.775 45.9129 52.6491 45.8089 52.5147Z" fill="#FF6871"/>
<path d="M36.198 13.8995C36.0279 13.5972 36.7557 13.7064 36.7841 13.7148C36.888 13.7484 36.992 13.8239 37.0865 13.8743C37.2378 13.9499 37.4079 14.0254 37.5875 14.0338C37.8238 14.0422 38.0223 13.9499 38.1736 13.7987C38.6084 13.3285 38.4477 12.1111 39.4686 12.4721C39.7711 12.5813 40.1114 12.7408 40.4422 12.6064C40.7069 12.4973 40.7636 12.2622 40.7258 12.0271C40.7069 11.9095 40.5556 11.6744 40.5934 11.5569C40.6691 11.3302 40.9054 11.3134 41.085 11.389C41.17 11.4225 41.2457 11.4729 41.3402 11.4981C41.6238 11.5905 41.8979 11.5737 42.068 11.3386C42.1626 11.2042 41.9168 11.0783 41.8223 11.2126C41.6332 11.4813 40.877 10.9271 40.5367 11.0951C40.2626 11.221 40.272 11.4729 40.3382 11.708C40.4138 11.9851 40.6029 12.3881 40.0263 12.3797C39.7711 12.3797 39.5348 12.1866 39.289 12.1446C38.996 12.0943 38.7313 12.1614 38.5422 12.3629C38.0696 12.8583 38.2492 14.1514 37.1527 13.6224C36.8313 13.4713 36.5667 13.3201 36.2075 13.4629C35.9333 13.572 35.801 13.7819 35.9428 14.0254C36.0373 14.1682 36.2736 14.0422 36.198 13.8995Z" fill="#0071BC"/>
<path d="M47.4553 20.7514C47.0299 20.6591 46.9732 20.1721 47.1811 19.8866C47.4742 19.4836 48.1642 19.5088 48.6274 19.5843C49.4025 19.7103 50.1209 19.979 50.9054 19.7187C51.6616 19.4668 52.2288 18.921 53.0795 18.9042C53.968 18.8874 54.8093 19.2317 55.7073 19.2065C57.2764 19.1645 58.7037 18.476 60.2067 18.1569C61.0952 17.9638 61.9649 17.947 62.8534 18.1485C63.7041 18.3416 64.4981 18.6523 65.3489 18.837C66.2374 19.0386 67.1165 19.005 68.0145 18.9378C68.9975 18.8706 70.009 18.8035 70.8975 19.2569C70.8786 19.2065 70.8502 19.1645 70.8313 19.1141C70.3587 20.3484 68.8274 20.8522 67.4757 20.9194C65.7837 21.0033 64.1389 20.4576 62.4375 20.5163C60.7171 20.5751 59.2614 21.5071 57.5695 21.6499C55.8396 21.801 54.2044 21.0705 52.484 21.1125C50.7353 21.1545 48.4572 22.0025 47.0772 20.6171C46.9543 20.4995 46.7558 20.6759 46.8787 20.7934C47.9657 21.8766 49.6861 21.6834 51.1323 21.4903C52.2004 21.3476 53.174 21.3392 54.2422 21.5239C55.1496 21.6834 56.057 21.9017 56.9834 21.9185C58.855 21.9605 60.4336 20.8858 62.2768 20.7766C64.1389 20.6675 65.9444 21.3308 67.8065 21.1461C69.196 21.0117 70.6423 20.4324 71.1149 19.1729C71.1338 19.1225 71.1054 19.0553 71.0487 19.0302C69.3851 18.1653 67.3811 18.9798 65.5946 18.6187C64.6116 18.4172 63.6947 18.031 62.7022 17.8463C61.842 17.6783 60.9913 17.7203 60.1405 17.905C59.2331 18.0981 58.3729 18.4172 57.4844 18.6607C56.4635 18.9378 55.4899 19.0218 54.4312 18.8286C53.5899 18.6691 52.8148 18.5432 52.0208 18.8958C51.6522 19.0637 51.3119 19.2904 50.9338 19.4416C50.291 19.6935 49.6766 19.5423 49.0244 19.3996C48.3343 19.2569 47.2946 19.1561 46.907 19.8362C46.6613 20.2644 46.8314 20.8774 47.3985 20.9949C47.5592 21.0285 47.6349 20.785 47.4553 20.7514Z" fill="#F3F3F3"/>
<path d="M8.09691 33.6902C9.38245 33.5391 10.6018 34.1268 11.8779 33.9841C12.3978 33.9253 12.8799 33.7238 13.362 33.5475C13.5888 33.4635 13.8251 33.388 14.0709 33.3376C14.5341 33.2452 14.95 33.3544 15.4037 33.4383C16.6703 33.6818 18.0882 33.4131 19.3548 33.2536C19.9787 33.178 20.5931 33.0941 21.217 33.0017C21.9259 32.8926 22.6349 32.7246 23.3438 32.6575C24.0906 32.5903 24.9696 32.8842 24.6672 33.6986C24.4119 34.3955 23.4572 34.597 22.7388 34.6474C21.4911 34.7314 20.2528 34.4123 19.0051 34.6222C17.8424 34.8154 16.8027 35.3527 15.6778 35.6466C15.054 35.8145 14.4301 35.8817 13.7873 35.8061C13.1446 35.7222 12.5396 35.5794 11.8779 35.6214C10.5357 35.697 9.10833 36.3939 7.76607 36.1168C6.94371 35.9489 6.51834 35.2772 6.91535 34.5803C7.3029 33.9085 8.19144 33.7322 8.96654 33.7322C9.14614 33.7322 9.14614 33.4803 8.96654 33.4803C7.8795 33.4803 6.59396 33.9001 6.48053 35.0085C6.37655 36.0328 7.51086 36.4527 8.48446 36.4191C9.1934 36.3939 9.89289 36.2092 10.5829 36.0664C11.4809 35.8817 12.3033 35.8145 13.2107 35.9657C13.8818 36.0748 14.5057 36.1336 15.1863 36.0161C15.8858 35.8985 16.5475 35.6466 17.1997 35.4115C17.8614 35.1764 18.5325 34.9329 19.2414 34.8405C20.0732 34.7314 20.9051 34.8489 21.7369 34.8909C22.8239 34.9497 24.5537 34.9077 24.9507 33.7658C25.0925 33.3544 24.9885 32.8758 24.5821 32.6071C24.1851 32.3468 23.6463 32.3636 23.1831 32.414C21.4817 32.6239 19.8086 32.9681 18.0882 33.1361C17.1241 33.2284 16.1977 33.3376 15.2525 33.1361C14.4868 32.9681 13.8818 33.0857 13.1635 33.346C12.7854 33.4803 12.4167 33.6315 12.0197 33.6986C11.5282 33.7826 11.0177 33.7238 10.5262 33.6482C9.72274 33.5139 8.93818 33.3292 8.12527 33.4215C7.91731 33.4551 7.91731 33.707 8.09691 33.6902Z" fill="#F3F3F3"/>
<path d="M123.277 43.673C121.49 44.2272 119.401 42.9173 118.116 41.9265C118.097 41.9937 118.078 42.0693 118.05 42.1365C118.957 41.809 119.912 41.7922 120.876 41.8426C121.831 41.8846 122.785 41.9433 123.74 41.9685C125.772 42.0189 127.814 41.9769 129.837 41.8426C130.886 41.7754 131.926 41.683 132.966 41.5739C133.476 41.5151 134.091 41.406 134.573 41.6159C135.244 41.9181 135.187 42.5731 134.544 42.825C134.214 42.9509 133.854 42.9929 133.505 43.0517C132.956 43.1356 132.408 43.228 131.86 43.312C130.858 43.4715 129.856 43.631 128.845 43.7906C128.268 43.8829 127.691 43.9753 127.115 44.0676C126.576 44.1516 126.018 44.2776 125.461 44.2859C124.515 44.2943 123.806 43.5555 122.861 43.6478C122.681 43.6646 122.681 43.9165 122.861 43.8997C123.4 43.8409 123.825 44.1012 124.288 44.2943C124.667 44.4539 125.035 44.5378 125.451 44.5378C126.538 44.5294 127.663 44.2356 128.731 44.0592C129.884 43.8745 131.047 43.6898 132.2 43.5051C132.748 43.4211 133.297 43.3288 133.845 43.2448C134.214 43.186 134.601 43.1104 134.923 42.9173C135.461 42.5899 135.48 41.9853 135.026 41.5907C134.318 40.9693 133.098 41.2968 132.238 41.3808C129.913 41.6075 127.568 41.725 125.224 41.7166C123.939 41.7166 122.653 41.6746 121.368 41.5991C120.224 41.5403 119.061 41.4899 117.984 41.8762C117.899 41.9097 117.832 42.0189 117.917 42.0861C119.279 43.1356 121.453 44.4875 123.353 43.8997C123.523 43.8661 123.457 43.6226 123.277 43.673Z" fill="#F3F3F3"/>
<path d="M79.9294 88.0333C79.8443 87.5547 80.61 87.6302 80.9125 87.7226C81.1488 87.7897 81.3756 87.8737 81.6214 87.8989C82.2075 87.9661 82.7841 87.7898 83.3323 87.6302C83.8616 87.4707 84.4193 87.2944 84.9865 87.3447C85.6671 87.4035 86.2153 87.8989 86.1113 88.537C85.9979 89.2004 85.2323 89.511 84.5517 89.3263C84.0885 89.2004 83.682 88.9401 83.2 88.8729C82.1791 88.7386 81.111 89.5278 80.1279 89.108C79.9672 89.0408 79.816 89.2507 79.9861 89.3263C80.5722 89.5782 81.1582 89.4606 81.7537 89.3095C82.1318 89.2171 82.5288 89.0996 82.9258 89.108C83.389 89.1164 83.7671 89.3179 84.1736 89.469C84.7502 89.6874 85.3551 89.7293 85.8656 89.3599C86.3004 89.0492 86.4894 88.5538 86.3571 88.0752C85.9601 86.6898 84.1641 87.118 83.0865 87.4371C82.5761 87.5882 82.0373 87.731 81.4891 87.6302C81.1393 87.563 80.8085 87.3699 80.4304 87.3783C79.9767 87.3867 79.5702 87.6806 79.6458 88.1004C79.6836 88.26 79.9578 88.1928 79.9294 88.0333Z" fill="#F3F3F3"/>
<path d="M69.0244 85.2358C69.4781 84.858 70.102 84.6985 70.7164 84.816C70.9716 84.8664 71.6805 85.0343 71.2363 85.3366C70.9999 85.4961 70.4801 85.4794 70.1965 85.4794C70.0169 85.4794 70.0169 85.7312 70.1965 85.7312C70.6124 85.7312 71.3402 85.7144 71.6522 85.4206C71.9168 85.1687 71.6144 84.8916 71.3591 84.7656C70.5462 84.3458 69.497 84.5054 68.8259 85.0595C68.6935 85.1687 68.892 85.345 69.0244 85.2358Z" fill="#F3F3F3"/>
<path d="M63.7712 90.8032C63.6956 90.778 63.6295 90.7528 63.5538 90.7276C63.5444 90.7948 63.5349 90.862 63.5255 90.9292C64.1021 90.5597 64.7543 90.8284 65.3687 90.9543C65.8886 91.0635 66.3423 91.0131 66.8528 90.904C67.4861 90.7696 68.1289 90.6857 68.7811 90.6521C69.0836 90.6353 69.386 90.6269 69.6885 90.6185C69.9721 90.6101 70.681 90.4841 70.4353 90.9124C70.1422 91.4245 69.2915 91.4413 68.7716 91.2902C68.3274 91.1643 67.9114 90.9795 67.4388 91.0803C66.9473 91.181 66.5314 91.4581 66.0209 91.5505C65.3404 91.6764 64.6692 91.6177 64.017 91.4077C63.8469 91.3574 63.7712 91.5925 63.9414 91.6512C64.5842 91.8528 65.2553 91.9199 65.9359 91.8192C66.7015 91.7016 67.3821 91.1727 68.1761 91.3658C68.7433 91.5085 69.2064 91.7352 69.8114 91.5757C70.199 91.4749 70.7472 91.1726 70.8228 90.7864C70.9174 90.333 70.284 90.3498 69.9532 90.3582C69.1875 90.375 68.4124 90.4086 67.6468 90.5093C67.2309 90.5681 66.8339 90.6689 66.4274 90.736C65.9264 90.82 65.52 90.736 65.0379 90.6185C64.4707 90.4757 63.8847 90.3918 63.3742 90.7108C63.2986 90.7612 63.2797 90.8452 63.3459 90.9124C63.4877 91.0551 63.6389 91.0887 63.8374 91.0551C64.0265 91.0215 63.9508 90.778 63.7712 90.8032Z" fill="#F3F3F3"/>
<path d="M102.81 85.9917C103.358 85.7902 103.935 85.681 104.53 85.6894C105.145 85.6978 105.664 85.9077 106.251 86.0253C107.111 86.21 107.753 85.7398 108.453 85.3787C109.559 84.7993 110.655 85.1772 111.809 85.3871C112.631 85.5383 113.51 85.5634 114.219 85.1184C114.37 85.0261 114.228 84.8078 114.077 84.9001C113.189 85.4711 112.092 85.194 111.119 84.9841C110.202 84.791 109.294 84.6818 108.434 85.1016C108.056 85.2864 107.706 85.5299 107.309 85.6894C106.704 85.9329 106.213 85.7398 105.627 85.5886C104.672 85.3451 103.661 85.4123 102.744 85.7482C102.564 85.8069 102.64 86.0504 102.81 85.9917Z" fill="#F3F3F3"/>
<path d="M37.0835 34.6923C37.9248 34.3466 39.3994 36.2071 40.1272 37.4271C41.2426 39.2673 41.4222 40.8736 41.9704 44.5946C42.1784 46.0382 42.5187 48.3257 42.9819 51.2131C43.8137 52.0874 44.1256 52.9414 44.2485 53.4701C44.4186 54.1512 44.4659 55.0256 44.2485 55.1069C44.0122 55.1984 43.5963 54.3444 43.4261 54.4257C43.1993 54.5376 43.9366 55.9101 43.4923 56.5404C43.0386 57.1809 41.3371 57.0792 40.4486 56.1337C39.6168 55.2492 39.9476 54.1207 39.8153 51.4266C39.768 50.5116 39.6357 48.0207 38.9267 45.5604C38.0571 42.5612 37.1497 42.4088 36.6392 39.7553C36.28 37.8846 36.1761 35.0684 37.0835 34.6923Z" fill="white" stroke="#2D2D2D" stroke-width="0.905968" stroke-miterlimit="10"/>
<path opacity="0.15" d="M38.3318 37.3146C38.8517 37.1926 39.7591 39.7241 39.8158 39.8664C40.6477 42.2047 40.2507 43.2011 40.6193 46.6476C40.9218 49.4536 41.0919 51.0497 41.9332 53.0221C42.7461 54.9131 43.6914 56.0212 43.3322 56.5296C42.973 57.0481 41.5646 56.5499 40.4586 56.0721C40.3546 55.8179 40.2034 55.4214 40.0805 54.9334C39.7686 53.7439 39.7875 52.7984 39.7875 52.3409C39.7875 52.0867 39.778 49.1384 39.2392 46.5662C38.9462 45.1937 38.8139 45.3971 38.4736 43.9737C37.7268 40.8831 37.7552 37.4467 38.3318 37.3146Z" fill="#2D2D2D"/>
<path opacity="0.17" d="M39.6062 42.2346C39.7102 43.292 39.8425 44.8678 39.8992 46.7893C39.9843 49.7478 39.852 52.2081 39.7763 52.2081C39.7102 52.2081 39.7952 50.4391 39.4361 48.0194C39.1997 46.4131 38.85 45.1118 38.5853 44.2476C38.7649 44.0544 38.9823 43.7901 39.1808 43.4241C39.4266 42.9565 39.5495 42.5295 39.6062 42.2346Z" fill="#2D2D2D"/>
<path d="M38.9555 78.2984C38.7097 78.7864 38.6719 79.3151 39.2391 83.9206C39.3052 84.49 39.3714 84.9576 39.4092 85.2829C40.8554 85.5269 42.8972 85.7201 45.317 85.4659C46.7821 85.3134 48.4931 85.1406 48.5876 84.5408C48.6632 84.0528 47.6707 83.1784 43.1335 81.5111C42.9255 79.8844 42.7081 78.2578 42.5002 76.6311C39.844 76.8243 39.154 77.9223 38.9555 78.2984Z" fill="#2D2D2D"/>
<path d="M33.2568 49.3128C34.1453 50.6141 35.4119 52.4848 36.896 54.7723C40.4123 60.1809 42.1705 62.8853 42.7849 64.6949C44.5998 70.0528 44.1272 75.2581 43.9476 77.0271C43.8436 78.0438 43.7112 78.8774 43.6073 79.4468C42.8889 79.7416 41.8586 80.0669 40.6014 80.1788C39.4765 80.2804 38.5124 80.1686 37.8034 80.0364C37.586 78.6538 37.4064 77.0983 37.3213 75.4106C37.1985 72.8994 37.3119 70.6526 37.5293 68.7311C35.1 66.7283 33.5309 64.6644 32.5762 63.2309C30.024 59.3574 29.3434 56.0025 28.937 53.8471C28.3604 50.8581 28.7574 50.0448 29.126 49.6178C30.3548 48.2453 33.0205 49.2315 33.2568 49.3128Z" fill="white" stroke="#2D2D2D" stroke-width="0.905968" stroke-miterlimit="10"/>
<path opacity="0.19" d="M33.5308 57.895C34.5044 58.7795 35.7711 60.091 36.9999 61.8905C37.3402 62.3989 38.7486 64.5644 39.9869 68.0414C41.6883 72.8604 41.8301 77.354 41.7545 79.8957C41.3386 80.0584 40.7525 80.2312 40.053 80.2922C39.1172 80.3634 38.3516 80.1905 37.8601 80.0279C37.5576 78.0454 37.3307 75.7579 37.3118 73.2162C37.3024 71.5692 37.3685 70.034 37.4914 68.631C37.2551 68.4887 32.6895 65.7234 32.7463 61.0975C32.7557 59.8064 33.1338 58.7084 33.5308 57.895Z" fill="#2D2D2D"/>
<path opacity="0.15" d="M34.7493 65.6824C34.9572 65.3774 37.5567 66.2314 38.587 68.3054C39.3621 69.8609 38.7382 71.0605 38.7666 73.2769C38.7855 74.934 39.1825 77.2927 40.8934 80.1495C39.9009 80.1292 38.9084 80.1089 37.9064 80.0885C37.6323 78.1975 37.4149 76.0422 37.3582 73.6734C37.3109 71.8027 37.3676 70.0744 37.481 68.4985C37.1124 68.2952 36.6398 67.98 36.1388 67.5124C35.5811 66.9837 34.598 65.906 34.7493 65.6824Z" fill="#2D2D2D"/>
<path d="M22.2569 77.4933C21.5385 77.9915 21.4156 78.6828 20.7634 80.2078C20.3096 81.2651 19.6291 82.6783 18.5798 84.2846C19.1753 85.0065 20.1679 86.0129 21.6235 86.7551C23.618 87.7718 26.416 88.2598 26.8508 87.3753C27.3139 86.4196 24.8847 84.1525 24.1568 83.4815C24.3553 83.0036 24.6767 82.2411 25.0737 81.316C26.1229 78.8963 26.3309 78.5405 26.1607 78.1033C25.7637 77.0663 23.5613 76.5986 22.2569 77.4933Z" fill="#2D2D2D"/>
<path d="M25.2912 47.0132C24.724 48.6907 24.1474 50.3682 23.5803 52.0355C22.6445 54.9432 23.0509 56.9562 23.3534 57.922C23.6842 58.9895 24.2609 59.9045 25.4046 61.7244C26.2931 63.1274 27.0966 64.2558 27.6827 65.0387C26.5106 66.3502 25.1777 68.048 23.9206 70.183C22.2286 73.0704 21.2266 75.7849 20.6122 77.9097C21.1699 78.3672 22.0112 78.9467 23.1171 79.3839C24.3554 79.8719 25.4519 79.9837 26.1986 79.9939C27.5125 78.906 29.3085 77.2082 30.9816 74.7174C32.2955 72.7755 34.0631 70.1627 34.6303 66.5027C35.5944 60.2705 32.4467 55.1974 31.3219 53.3877C29.2896 50.1039 26.8508 48.1112 25.2912 47.0132Z" fill="white" stroke="#2D2D2D" stroke-width="0.905968" stroke-miterlimit="10"/>
<path d="M29.274 50.673C30.0019 51.7608 30.7203 52.8589 31.4103 53.967C31.4954 53.9162 31.571 53.8654 31.6561 53.8145C31.0417 52.93 30.4934 51.9845 30.0208 50.9983C29.9546 51.0695 29.8885 51.1407 29.8223 51.2118C30.2098 51.4965 30.4272 51.9235 30.6636 52.3404C30.9377 52.8284 31.2213 53.3163 31.4954 53.8043C32.0342 54.7499 32.573 55.7055 33.1118 56.651C33.1968 56.6002 33.2725 56.5494 33.3575 56.4985C32.5352 55.1159 31.7128 53.7332 30.881 52.3505C30.7864 52.1878 30.5407 52.3403 30.6352 52.503C31.6561 54.333 32.6864 56.1529 33.7073 57.9829C33.8018 58.1557 34.0476 58.0032 33.953 57.8304C33.2063 56.468 32.469 55.0955 31.7222 53.7332C31.6466 53.7942 31.571 53.8552 31.4954 53.9162C32.5635 55.187 32.7526 57.0374 33.9152 58.2269C34.0476 58.359 34.2461 58.1455 34.1137 58.0134C32.9511 56.834 32.762 54.9735 31.6939 53.7027C31.5805 53.5705 31.3914 53.7434 31.467 53.8857C32.2138 55.248 32.9511 56.6205 33.6978 57.9829C33.7829 57.932 33.8585 57.8812 33.9436 57.8304C32.9227 56.0004 31.8924 54.1805 30.8715 52.3505C30.7864 52.4013 30.7108 52.4522 30.6257 52.503C31.4481 53.8857 32.2705 55.2684 33.1023 56.651C33.1968 56.8137 33.4426 56.6612 33.3481 56.4985C32.7431 55.431 32.1381 54.3635 31.5332 53.3062C31.0889 52.5132 30.6825 51.4863 29.9452 50.9475C29.8223 50.856 29.6899 51.0288 29.7467 51.161C30.2193 52.1472 30.7581 53.0825 31.3819 53.9772C31.4859 54.1297 31.7317 53.9874 31.6277 53.8247C30.9377 52.7063 30.2287 51.6084 29.4914 50.5307C29.4158 50.3579 29.1701 50.5103 29.274 50.673Z" fill="white"/>
<path opacity="0.2" d="M29.8655 51.1213C29.374 51.8838 28.6934 53.1445 28.4004 54.8016C27.5024 59.824 31.2834 62.0505 30.4421 66.4526C29.9979 68.7706 28.873 68.5571 26.3587 73.3761C25.0826 75.8263 24.2697 77.9816 23.7876 79.4456C23.1732 79.2423 22.502 78.978 21.7931 78.6323C21.3772 78.429 20.9896 78.2256 20.6399 78.0121C21.1976 76.1415 22.0389 73.8845 23.3055 71.4648C24.7423 68.73 26.3209 66.595 27.6537 65.0191C27.285 64.5108 26.7368 63.7381 26.1034 62.7723C24.3547 60.1086 23.4662 58.7463 23.1732 57.1806C22.8423 55.4523 23.1164 53.9781 23.3055 52.9818C23.5891 51.4771 24.0712 50.2978 24.4587 49.4946C26.2547 50.0335 28.0601 50.5825 29.8655 51.1213Z" fill="#2D2D2D"/>
<path opacity="0.17" d="M27.6433 50.501C26.5752 51.8125 25.1762 53.9678 25.2896 56.5705C25.4598 60.6473 29.203 62.2028 28.6642 65.5476C28.5129 66.4728 27.3219 67.9571 24.9304 70.8953C23.6165 72.5118 22.5011 73.803 21.7355 74.6671C22.3215 73.1218 23.1723 71.2715 24.4011 69.3195C25.4881 67.5911 26.6035 66.2085 27.596 65.1206C27.303 64.6428 26.7831 63.7888 26.1309 62.7315C23.8528 59.0511 23.4086 58.4716 23.1533 57.1906C22.8509 55.686 23.0494 54.4151 23.2006 53.4696C23.4747 51.7108 24.0513 50.3586 24.4862 49.5046C25.5354 49.83 26.5941 50.1655 27.6433 50.501Z" fill="#2D2D2D"/>
<path d="M32.5289 32.8118C31.1866 33.6658 28.6345 35.5466 26.6873 39.0033C24.2107 43.4055 24.2107 47.706 24.2958 49.3733C24.7589 49.536 25.2316 49.6986 25.7136 49.8511C28.9369 50.8881 32.0563 51.5896 35.0055 52.037C35.2512 51.1321 35.5159 50.2171 35.7995 49.2716C36.2248 47.8788 36.6691 46.547 37.1228 45.2761C38.6919 44.4018 39.2402 43.2733 39.4198 42.8056C40.1476 40.9756 39.4576 39.0643 38.7108 37.0005C38.2949 35.8415 38.0775 35.2518 37.5576 34.6215C35.9318 32.639 33.2473 32.761 32.5289 32.8118Z" fill="#FF6871"/>
<path opacity="0.27" d="M35.7145 35.2196C33.1339 35.5856 31.7539 36.8462 31.1962 37.4359C28.0485 40.7807 29.1355 46.4232 29.4285 47.9482C29.6932 49.3207 30.0902 50.4187 30.4022 51.1609C28.4077 50.5814 26.4226 49.9917 24.4282 49.4122C24.3053 47.8567 24.1824 43.8612 26.3281 39.6014C28.3226 35.6567 31.1867 33.6336 32.4628 32.8406C32.6424 32.8507 32.822 32.8711 33.0016 32.8812C33.2757 33.2269 33.6066 33.5929 34.013 33.9691C34.618 34.5384 35.2135 34.9349 35.7145 35.2196Z" fill="#2D2D2D"/>
<path opacity="0.2" d="M27.4437 37.772C27.179 39.2665 26.9616 41.432 27.2452 43.994C27.5855 47.0033 28.4835 49.3315 29.183 50.7955C27.5571 50.3481 25.9218 49.9008 24.296 49.4636C24.2204 48.0606 24.2582 45.9561 24.8821 43.5365C25.5626 40.8931 26.6591 38.9615 27.4437 37.772Z" fill="#2D2D2D"/>
<path d="M107.353 71.3642C106.757 72.7977 106.871 74.1397 106.965 74.7701C108.828 75.6546 110.482 76.0612 111.748 76.2646C112.164 76.3357 117.306 77.1186 117.807 75.6037C117.93 75.2276 117.732 74.8412 117.533 74.4651C116.427 72.3809 113.629 72.2589 113.251 72.2487C113.147 70.0832 111.852 68.4769 110.529 68.3651C108.657 68.2126 107.485 71.0491 107.353 71.3642Z" fill="#2D2D2D"/>
<path d="M109.811 36.3911C111.04 38.2923 112.694 41.2508 113.895 45.1751C115.851 51.5699 115.53 56.9379 115.313 59.9778C115.124 62.6821 114.613 66.5251 113.186 70.9578C112.798 71.2221 111.087 72.3201 108.923 71.8219C107.637 71.5271 106.768 70.7951 106.352 70.3884C107.117 68.5788 108.044 65.8541 108.393 62.4584C108.781 58.7578 108.308 55.8603 107.684 52.1393C106.267 43.7314 104.31 40.5391 106.002 38.1906C106.815 37.0519 108.204 36.5436 109.811 36.3911Z" fill="white" stroke="#2D2D2D" stroke-width="0.905968" stroke-miterlimit="10"/>
<path opacity="0.16" d="M110.483 41.0369C111.125 44.402 111.636 48.2654 111.834 52.5557C112.175 60.1705 111.409 66.7382 110.416 71.852C109.991 71.913 108.961 71.9842 107.864 71.3945C107.212 71.0387 106.768 70.571 106.513 70.2457C107.694 67.3177 108.119 64.8269 108.29 63.1494C108.554 60.5162 108.337 58.4015 107.93 54.4569C107.694 52.149 107.42 50.258 107.221 48.9669C108.308 46.3337 109.396 43.6802 110.483 41.0369Z" fill="#2D2D2D"/>
<path opacity="0.22" d="M108.412 46.0999C109.225 48.3772 110.444 52.7184 110.028 58.2389C109.631 63.556 107.892 67.5109 106.786 69.6052C108.639 63.8509 108.733 60.323 108.45 58.1372C108.374 57.578 108.053 55.3617 107.684 52.0982C107.533 50.746 107.419 49.6379 107.353 48.9262C107.712 47.9807 108.062 47.0352 108.412 46.0999Z" fill="#2D2D2D"/>
<path d="M93.6814 66.9602C92.8968 67.3771 92.6605 68.0582 91.5829 70.2644C90.8645 71.7284 90.2596 72.8975 89.8625 73.6499C91.0725 74.5852 92.9913 75.8154 95.553 76.466C97.0654 76.8524 100.213 77.3912 100.572 76.466C100.969 75.4392 97.7365 73.0704 96.3753 72.1147C97.7743 70.6507 97.8405 68.5259 96.8952 67.4381C96.0918 66.5129 94.6361 66.4519 93.6814 66.9602Z" fill="#2D2D2D"/>
<path d="M107.388 36.1758C110.508 39.1343 106.859 48.996 103.863 56.8853C102.568 60.2911 100.545 65.222 97.5672 70.9865C97.0473 71.0678 95.4877 71.2305 93.824 70.2646C92.1509 69.2988 91.4231 67.784 91.2057 67.2858C92.0753 65.6693 93.1245 63.4936 94.1265 60.8401C94.5235 59.793 96.2344 55.1163 97.1986 48.508C97.5767 45.8952 97.917 42.4487 97.8697 38.3515C98.4274 37.7415 101.537 34.4577 105.214 35.21C105.772 35.3218 106.689 35.515 107.388 36.1758Z" fill="white" stroke="#2D2D2D" stroke-width="0.905968" stroke-miterlimit="10"/>
<path d="M108.399 40.2431C108.389 40.5989 108.38 40.9547 108.38 41.3106C108.474 41.3106 108.569 41.3106 108.663 41.3106C108.616 40.7412 108.644 40.2024 108.748 39.6432C108.654 39.6331 108.559 39.6127 108.474 39.6026C108.531 40.8022 108.276 42.0629 108.077 43.2422C107.879 44.4317 107.614 45.6111 107.302 46.7701C107.397 46.8006 107.482 46.8209 107.576 46.8514C108.096 44.7367 108.531 42.6119 108.89 40.4566C108.918 40.2634 108.644 40.1821 108.616 40.3752C108.257 42.5204 107.822 44.6554 107.302 46.7701C107.255 46.9632 107.529 47.0446 107.576 46.8514C107.907 45.6314 108.172 44.3809 108.38 43.1304C108.569 41.9917 108.814 40.7616 108.758 39.6026C108.748 39.4399 108.512 39.3891 108.484 39.5619C108.37 40.1414 108.342 40.7209 108.389 41.3106C108.408 41.5037 108.673 41.5139 108.673 41.3106C108.682 40.9547 108.692 40.5989 108.692 40.2431C108.692 40.0499 108.408 40.0499 108.399 40.2431Z" fill="white"/>
<path d="M107.197 46.1291C107.206 46.9119 107.225 47.6947 107.235 48.4776C107.235 48.6707 107.518 48.6707 107.518 48.4776C107.509 47.6947 107.49 46.9119 107.48 46.1291C107.471 45.9257 107.187 45.9257 107.197 46.1291Z" fill="white"/>
<path opacity="0.19" d="M103.264 39.3384C103.293 41.3819 103.189 44.1675 102.631 47.4005C102.035 50.8267 101.128 53.4802 99.8045 57.4757C98.7269 60.7494 98.2071 61.7254 97.1106 65.3549C96.4394 67.561 95.9668 69.4114 95.6643 70.6517C95.1444 70.5805 94.0668 70.3467 92.9893 69.4825C91.9873 68.6794 91.4769 67.7237 91.25 67.2255C92.9893 63.9417 94.0952 61.0645 94.7947 58.9702C96.9593 52.494 97.4698 46.8617 97.7628 43.3949C97.8857 41.9512 97.9518 40.7515 97.9802 39.9687C99.7384 39.7552 101.506 39.5519 103.264 39.3384Z" fill="#2D2D2D"/>
<path opacity="0.24" d="M102.294 39.6311C101.556 43.1183 100.706 45.8633 100.035 47.7848C99.4864 49.3708 98.6451 51.5058 96.972 55.7656C96.3576 57.3414 96.0457 58.1243 95.8944 58.4801C94.9681 60.7168 93.484 63.8583 91.1115 67.5589C93.2383 63.4516 95.677 57.5956 96.972 50.2146C97.6242 46.4936 97.8605 43.0979 97.8889 40.1598C97.8794 40.1496 97.8794 40.1496 102.294 39.6311Z" fill="#2D2D2D"/>
<path d="M105.276 14.6335C105.428 15.03 105.692 15.6095 106.174 16.1991C106.524 16.6261 106.968 17.1751 107.63 17.3886C108.916 17.8156 110.163 16.7176 110.334 16.5651C111.581 17.3581 112.829 18.1511 114.067 18.9441C114.181 20.6013 114.19 23.1023 113.585 26.0201C113.009 28.7956 112.451 29.1311 111.997 31.8253C111.307 35.8716 111.818 39.4808 111.647 39.491C111.619 39.491 111.581 39.4096 111.506 38.9725C106.638 39.369 101.77 39.7655 96.9016 40.162C96.7598 37.0205 96.7787 34.3771 96.8354 32.4251C96.911 29.3751 97.1379 25.6846 98.0831 21.4045C98.7543 18.3443 99.2836 17.3073 100.087 16.494C101.826 14.7148 104.208 14.603 105.276 14.6335Z" fill="#0071BC"/>
<path opacity="0.3" d="M110.912 16.9312C110.751 18.7917 110.449 21.557 109.872 24.8713C109.702 25.8677 109.22 28.6126 108.832 29.9546C108.36 31.6016 106.516 36.3088 97.4988 40.1315C100.249 39.7858 103.085 39.4808 105.987 39.2266C107.802 39.064 109.598 38.9216 111.366 38.8098C111.989 36.4206 112.566 33.7163 112.982 30.7273C113.615 26.2031 113.738 22.1162 113.634 18.6697C112.727 18.0902 111.819 17.5107 110.912 16.9312Z" fill="#32198E"/>
<path d="M107.016 8.51486C106.685 10.3347 106.534 12.3477 105.163 14.5742C104.974 14.8792 104.813 15.113 104.7 15.2655C104.813 15.5095 106.014 18.0105 108.566 18.3867C110.022 18.6002 111.165 18.0004 111.6 17.7462C111.534 17.1362 111.496 16.4042 111.553 15.5807C111.629 14.3709 111.865 13.3644 112.101 12.6019C113.198 12.4494 114.285 12.2969 115.381 12.1444C115.599 11.6259 115.807 11.1074 116.024 10.5787C116.326 10.5685 116.62 10.5584 116.922 10.5482C116.695 9.83653 116.355 8.70802 115.958 7.31519C115.221 4.69219 115.23 4.31603 114.833 3.72636C113.736 2.10986 111.279 1.08303 109.662 1.9472C108.103 2.7707 107.63 5.1192 107.016 8.51486Z" fill="white" stroke="#2D2D2D" stroke-width="0.905968" stroke-miterlimit="10"/>
<path d="M116.877 10.4058C116.338 10.416 115.809 10.3753 115.28 10.294C115.1 10.2635 115.024 10.5583 115.204 10.5888C115.762 10.6803 116.31 10.721 116.877 10.7108C117.066 10.7108 117.066 10.4058 116.877 10.4058Z" fill="#2D2D2D"/>
<path d="M117.254 5.74006C116.772 5.4554 116.195 5.61806 115.883 6.09589C115.779 6.25856 116.025 6.41106 116.129 6.24839C116.346 5.91289 116.781 5.81123 117.112 6.00439C117.273 6.09589 117.415 5.83156 117.254 5.74006Z" fill="#2D2D2D"/>
<path d="M117.004 7.56764C117.051 7.33381 117.042 7.09998 116.938 6.88648C116.862 6.73398 116.701 6.55098 116.522 6.63232C116.333 6.71365 116.342 6.99831 116.38 7.17114C116.418 7.38464 116.522 7.57781 116.673 7.72014C116.758 7.80147 116.919 7.75064 116.919 7.60831C116.919 7.35415 116.862 7.13048 116.758 6.89665C116.682 6.72382 116.437 6.87631 116.512 7.04915C116.588 7.22198 116.626 7.40498 116.635 7.59814C116.72 7.55748 116.796 7.52698 116.881 7.48631C116.72 7.34398 116.664 7.16098 116.654 6.94748C116.664 6.92715 116.654 6.90681 116.626 6.90681C116.645 6.91698 116.664 6.93731 116.673 6.95765C116.701 6.99831 116.73 7.05931 116.739 7.11014C116.777 7.23214 116.777 7.34398 116.749 7.46598C116.682 7.67947 116.957 7.76081 117.004 7.56764Z" fill="#2D2D2D"/>
<path d="M114.511 6.14536C113.963 5.95219 113.387 6.19619 113.065 6.70452C112.961 6.86719 113.207 7.01969 113.311 6.85702C113.557 6.46052 114.01 6.29786 114.436 6.44019C114.606 6.49103 114.682 6.20636 114.511 6.14536Z" fill="#2D2D2D"/>
<path d="M114.66 7.84151C114.679 7.567 114.575 7.14 114.311 7.02817C113.961 6.87567 113.961 7.40434 113.999 7.628C114.046 7.85167 114.216 8.26851 114.5 8.09567C114.613 8.02451 114.632 7.89234 114.594 7.77034C114.528 7.57717 114.424 7.40434 114.348 7.22134C114.273 7.28234 114.197 7.34334 114.122 7.40434C114.159 7.445 114.188 7.48567 114.197 7.54667C114.245 7.73984 114.519 7.6585 114.471 7.46534C114.443 7.3535 114.396 7.27217 114.32 7.19084C114.197 7.06884 114.027 7.22134 114.093 7.37384C114.131 7.445 114.159 7.51617 114.197 7.5975C114.226 7.65851 114.254 7.77034 114.301 7.82117C114.32 7.89234 114.339 7.89234 114.367 7.82117C114.358 7.80084 114.339 7.77034 114.33 7.75001C114.301 7.68901 114.282 7.62801 114.273 7.55684C114.263 7.49584 114.273 7.4145 114.254 7.3535C114.263 7.31284 114.254 7.30267 114.245 7.3535C114.263 7.384 114.292 7.4145 114.301 7.445C114.367 7.567 114.386 7.70934 114.377 7.85167C114.358 8.03467 114.642 8.03467 114.66 7.84151Z" fill="#2D2D2D"/>
<path d="M115.211 4.37622C115.136 3.83739 114.937 2.96305 114.408 2.05822C114.219 1.74306 113.812 1.06189 113.169 0.604389C111.941 -0.269944 110.05 -0.198778 108.67 0.868721C107.328 1.91589 106.657 3.79672 106.95 5.65722C109.71 5.23022 112.461 4.80322 115.211 4.37622Z" fill="#FF6871"/>
<path d="M119.73 3.39896C115.486 3.97846 111.251 4.55796 107.007 5.13746C106.468 5.20863 106.468 6.12362 107.007 6.05246C111.251 5.47296 115.486 4.89346 119.73 4.31396C120.26 4.24279 120.269 3.3278 119.73 3.39896Z" fill="#2D2D2D"/>
<path d="M109.702 5.5356C110.448 5.83043 110.883 6.3896 111.394 7.0606C112.462 8.4636 112.14 8.9821 112.897 9.85643C114.088 11.2493 115.298 10.4258 116.366 11.7881C117.273 12.9471 117.15 14.5128 117.113 14.8584C117.075 15.2041 116.914 16.5969 115.865 17.5526C114.957 18.3761 113.719 18.5693 113.643 18.3863C113.615 18.3151 113.719 18.1524 114.39 17.6644C114.192 17.8169 113.889 17.9999 113.483 18.0813C113.02 18.1728 112.585 18.0813 112.575 18.0101C112.575 17.9593 112.821 17.9593 113.01 17.7356C113.124 17.6034 113.171 17.4509 113.199 17.3188C112.831 17.5831 112.358 17.8068 111.914 17.6644C110.704 17.2679 110.486 14.3501 110.411 13.3843C110.184 10.2529 111.016 8.54493 110.004 7.44693C109.919 7.35543 109.513 6.9081 109.068 6.9996C108.501 7.11143 108.066 8.0671 108.256 8.69743C108.416 9.23626 108.983 9.38877 108.946 9.49043C108.889 9.6226 107.934 9.41927 107.131 8.72793C106.838 8.47377 106.601 8.27043 106.478 7.89427C106.261 7.2436 106.516 6.50143 106.857 6.06427C107.565 5.14927 108.889 5.21027 109.702 5.5356Z" fill="#2D2D2D" stroke="#2D2D2D" stroke-width="0.905968" stroke-miterlimit="10"/>
<path opacity="0.22" d="M108.576 9.57259C108.756 9.59292 109.011 9.60309 109.03 9.53193C109.039 9.50143 108.973 9.45059 108.973 9.45059C108.973 9.45059 109.19 9.74542 109.455 9.78609C109.587 9.80642 109.691 9.75559 109.767 9.71492C109.285 10.8028 108.793 12.1244 108.387 13.6494C107.962 15.2253 107.725 16.6689 107.602 17.8991C107.186 17.7568 106.43 17.4314 105.731 16.6994C105.22 16.1708 104.927 15.6116 104.757 15.2354C105.324 14.3204 105.655 13.5173 105.854 12.9683C106.033 12.4599 106.099 12.1244 106.421 10.9654C106.685 10.0301 106.893 9.25743 107.035 8.72876C107.111 8.79993 107.224 8.91176 107.375 9.02359C107.593 9.18626 108.018 9.50142 108.576 9.57259Z" fill="#2D2D2D"/>
<path d="M111.629 0.0563063C110.523 0.290139 109.701 1.24581 109.578 2.3743C109.427 3.7163 110.344 4.6313 110.429 4.71264C109.257 4.86514 108.085 5.0278 106.912 5.1803C106.894 4.88547 106.884 4.4788 106.95 4.01114C107.177 2.50647 107.99 1.58131 108.16 1.38814C108.434 1.08314 109.398 0.096973 110.826 0.00547304C111.157 -0.0148603 111.431 0.0258064 111.629 0.0563063Z" fill="#FF6871"/>
<path d="M113.782 18.8441C114.538 18.7221 115.313 20.1353 115.672 20.7859C117.752 24.5883 116.882 28.9803 116.617 30.2613C116.409 31.2678 116.022 33.0469 114.812 35.0091C113.659 36.9001 112.298 38.0693 111.428 38.7098C109.972 39.3096 107.326 40.1331 104.14 39.5739C103.034 39.3808 102.07 39.0554 101.267 38.7098C99.9054 38.8013 98.5443 38.8826 97.1831 38.9741C96.9657 38.9334 96.6632 38.8724 96.304 38.7301C95.8692 38.5573 95.4533 38.3844 95.4533 38.2218C95.4533 38.0388 95.9259 37.7541 98.2323 37.3678C98.1189 37.3881 96.6065 37.7033 95.5951 36.5646C94.6498 35.5073 94.5931 33.6976 95.3115 32.9859C95.9165 32.3861 96.8995 32.6504 98.6955 33.1689C100.473 33.6773 101.9 34.3686 102.94 34.9583C103.337 35.1514 106.428 36.5849 109.254 34.8363C111.409 33.5044 112.128 31.1153 112.298 30.4544C112.978 27.8314 111.74 26.9063 112.184 23.1141C112.241 22.4634 112.647 19.0169 113.782 18.8441Z" fill="white" stroke="#2D2D2D" stroke-width="0.905968" stroke-miterlimit="10"/>
<path d="M94.9513 35.2534C96.0478 35.3449 97.097 35.6296 98.099 36.1176C98.2597 36.1989 98.4109 35.9346 98.2408 35.8532C97.1916 35.3347 96.0951 35.0297 94.9513 34.9382C94.7718 34.9382 94.7718 35.2432 94.9513 35.2534Z" fill="#2D2D2D"/>
<path d="M94.8899 34.0132C96.147 33.9726 97.2152 34.7961 98.3873 35.1824C98.5574 35.2434 98.633 34.9486 98.4629 34.8876C97.2719 34.4911 96.1848 33.6676 94.8899 33.7082C94.7103 33.7184 94.7008 34.0234 94.8899 34.0132Z" fill="#2D2D2D"/>
<path d="M96.0921 32.9339C97.1224 33.0254 98.0299 33.5541 98.9184 34.0929C99.0791 34.1844 99.2209 33.9302 99.0602 33.8286C98.1244 33.2694 97.1792 32.7306 96.0921 32.6289C95.9031 32.6086 95.9031 32.9136 96.0921 32.9339Z" fill="#2D2D2D"/>
<path opacity="0.18" d="M112.628 20.7145C112.071 23.124 113.555 24.7507 114.056 27.5058C114.141 27.9938 114.812 31.9487 112.846 34.7547C110.653 37.886 106.305 37.9978 105.454 38.0283C103.233 38.0893 102.391 37.3878 98.9128 37.581C98.5819 37.6013 95.5571 37.7843 95.5288 38.2418C95.5193 38.4858 96.3606 38.7603 96.9939 38.8518C97.8257 38.9738 98.2605 38.7705 99.3192 38.679C99.7729 38.6383 100.425 38.6078 101.229 38.679C102.193 39.106 103.441 39.5228 104.934 39.6855C105.34 39.7262 106.607 39.8482 108.233 39.594C108.233 39.594 109.594 39.3907 110.672 38.984C113.347 37.9877 115.993 33.7888 116.74 29.2138C117.581 24.0593 115.71 20.1757 114.661 19.3115C114.519 19.1895 114.112 18.854 113.687 18.9658C112.997 19.1285 112.713 20.3383 112.628 20.7145Z" fill="#2D2D2D"/>
<path opacity="0.17" d="M116.617 23.7754C116.466 23.7754 116.466 25.7172 116.05 28.1572C115.795 29.6416 115.275 32.6611 114.017 34.7656C111.777 38.5171 107.202 39.3609 105.463 39.5846C106.956 39.8082 109.253 39.8591 111.494 38.5781C116.352 35.7924 116.825 29.0722 116.91 27.8522C117.042 25.7986 116.768 23.7754 116.617 23.7754Z" fill="#2D2D2D"/>
<path d="M34.907 62.498C38.8384 58.7559 42.7889 55.0342 46.7583 51.3429C54.2414 44.3773 61.7909 37.5033 69.4164 30.7106C68.8181 28.809 68.0489 25.5143 68.5047 21.5079C68.6472 20.2368 69.8627 10.8714 77.8775 6.03105C78.5423 5.6243 87.7441 0.295886 96.3667 6.17341C102.055 10.0477 104.999 17.115 104.306 24.0195C103.28 34.2798 94.7714 38.8252 94.2776 39.0794C88.143 42.2114 80.7644 41.286 75.2661 36.7101C67.0043 43.9909 58.7616 51.2819 50.5283 58.5932C46.9197 61.7964 43.3207 64.9995 39.7216 68.2128C38.9714 67.8264 37.7274 67.0536 36.6068 65.6402C35.6667 64.4606 35.1729 63.281 34.907 62.498Z" fill="#2D2D2D"/>
<path d="M86.4468 37.519C94.7264 37.519 101.438 30.6003 101.438 22.0656C101.438 13.531 94.7264 6.6123 86.4468 6.6123C78.1671 6.6123 71.4551 13.531 71.4551 22.0656C71.4551 30.6003 78.1671 37.519 86.4468 37.519Z" fill="white" stroke="#2D2D2D" stroke-width="0.905968" stroke-miterlimit="10"/>
<path d="M87.6692 7.46745C84.9279 13.7098 82.0449 19.8911 79.0296 25.9911C78.1788 27.7093 77.3187 29.4275 76.449 31.1355C76.364 31.3083 76.6097 31.4608 76.6948 31.288C79.7858 25.2286 82.7444 19.0981 85.5613 12.8863C86.3553 11.1376 87.1398 9.37879 87.9244 7.60979C88 7.44712 87.7542 7.29462 87.6692 7.46745Z" fill="#F3F3F3"/>
<path d="M92.292 8.98019C89.2861 14.0839 86.4314 19.279 83.7186 24.5657C83.6335 24.7385 83.8793 24.891 83.9643 24.7182C86.6772 19.4315 89.5319 14.2364 92.5378 9.13269C92.6323 8.97002 92.3865 8.81752 92.292 8.98019Z" fill="#F3F3F3"/>
<path d="M83.2167 26.3569C81.969 28.9697 80.6362 31.5419 79.2089 34.0531C79.1144 34.2259 79.3601 34.3784 79.4546 34.2056C80.8725 31.6944 82.2148 29.1222 83.4625 26.5094C83.5476 26.3366 83.3018 26.1739 83.2167 26.3569Z" fill="#F3F3F3"/>
<path d="M88.4683 18.7311C86.8803 21.9437 85.3017 25.1564 83.7137 28.3691C83.6286 28.5419 83.8744 28.6944 83.9594 28.5216C85.5475 25.3089 87.126 22.0962 88.7141 18.8836C88.7991 18.7107 88.5534 18.5582 88.4683 18.7311Z" fill="#F3F3F3"/>
<path opacity="0.08" d="M86.0022 6.56104C84.9529 6.9677 78.0431 9.75337 75.8313 17.2157C75.576 18.0799 74.782 20.8655 75.3775 24.0884C76.5213 30.229 82.2306 35.2005 89.6981 36.8679C89.1309 37.0712 88.3369 37.3152 87.3539 37.4474C81.4177 38.2505 76.8143 33.8992 76.2755 33.3807C75.1034 32.2319 71.4831 28.3279 71.4169 22.1465C71.4075 21.6077 71.4358 15.5077 75.7367 11.1055C78.2416 8.54354 81.1719 7.6082 82.4008 7.23204C83.8375 6.79487 85.0947 6.6322 86.0022 6.56104Z" fill="#2D2D2D"/>
<path d="M30.688 37.9276C31.3685 37.8361 32.3894 37.8259 33.1362 38.4766C34.7431 39.8796 33.5048 42.9296 34.2988 46.1524C34.7242 47.8807 35.849 50.2089 39.1196 52.5167C40.4146 53.2182 41.4922 53.7469 42.2389 54.1129C43.3071 54.6314 43.9876 54.9262 43.9782 55.3227C43.9687 55.7192 43.2976 56.0141 42.8155 56.1869C43.3921 56.7664 43.6852 57.4984 43.4867 58.0576C43.3354 58.4947 42.9195 58.7082 42.4563 58.9522C41.927 59.2369 41.4827 59.2979 40.9723 59.3691C40.0176 59.5012 39.545 59.5622 39.1102 59.3691C38.439 59.0641 38.1365 58.3931 37.6923 57.4272C37.4465 56.8986 37.144 56.0751 36.9833 55.0076C35.9152 54.4789 34.3839 53.5639 32.862 52.0287C32.2665 51.4289 26.7463 45.7356 28.4855 40.8149C28.7502 40.1236 29.3079 39.0052 30.688 37.9276Z" fill="white" stroke="#2D2D2D" stroke-width="0.905968" stroke-miterlimit="10"/>
<path d="M39.1383 58.1077C39.3746 58.6669 39.7338 59.1345 40.197 59.5107C40.3388 59.6327 40.4806 59.3684 40.3388 59.2463C39.9229 58.9108 39.6015 58.4635 39.3841 57.9552C39.3084 57.7823 39.0627 57.9348 39.1383 58.1077Z" fill="#2D2D2D"/>
<path d="M40.2688 57.9446C40.5523 58.5343 40.9777 59.0223 41.4976 59.3883C41.6488 59.4899 41.7906 59.2256 41.6394 59.1239C41.1573 58.7986 40.7697 58.3411 40.5051 57.7921C40.4295 57.6193 40.1837 57.7718 40.2688 57.9446Z" fill="#2D2D2D"/>
<path d="M41.4645 57.2539C41.7292 57.8537 42.1829 58.3316 42.7406 58.6163C42.9013 58.6976 43.0526 58.4332 42.8824 58.3519C42.3625 58.0876 41.9561 57.6606 41.7103 57.1014C41.6252 56.9184 41.3889 57.0709 41.4645 57.2539Z" fill="#2D2D2D"/>
<path opacity="0.2" d="M30.9239 37.9468C30.7159 38.9533 30.4891 40.5393 30.6876 42.4506C31.2074 47.29 34.1188 50.4823 34.6009 51.0008C37.0018 53.5628 38.5709 53.2171 39.5257 55.5046C39.7809 56.1146 40.2346 57.4973 41.4634 58.2191C41.9455 58.4936 42.3992 58.5953 42.7017 58.636C42.541 58.7783 42.2763 58.9715 41.9266 59.1341C41.3405 59.4086 40.8301 59.4188 40.0266 59.429C39.4311 59.4391 39.1286 59.4391 38.864 59.307C38.3063 59.0325 38.0416 58.4631 37.9376 58.1785C37.5595 57.0805 37.1909 55.9825 36.8128 54.8845C34.9695 53.8678 32.3607 52.0581 30.3 48.9573C29.4398 47.6661 28.003 45.4498 28.1259 42.7861C28.1826 41.5763 28.5418 40.7324 28.6269 40.5291C29.298 39.0346 30.4134 38.2619 30.9239 37.9468Z" fill="#2D2D2D"/>
<path opacity="0.32" d="M28.2468 43.4067C28.3036 43.3864 28.6628 44.6064 29.3717 46.0297C31.1015 49.5474 33.597 51.7028 35.3835 53.2074C36.1964 53.8886 36.8864 54.3969 37.3213 54.7121C37.8506 55.6678 38.1531 56.4913 38.3327 57.0911C38.4839 57.5893 38.569 58.0366 38.9187 58.5043C39.2779 59.0126 39.7411 59.2973 40.0814 59.4599C39.8262 59.4701 39.4386 59.4498 39.0322 59.2464C38.2571 58.8601 37.9168 58.0569 37.5576 57.2029C37.3496 56.7149 37.1038 55.9829 36.9715 55.0374C32.0373 52.3534 30.1846 48.9679 29.4851 47.3616C28.7667 45.7146 28.1712 43.4474 28.2468 43.4067Z" fill="#2D2D2D"/>
<path d="M36.0748 28.643C35.4036 28.9276 35.8007 30.351 34.7231 31.6421C34.1937 32.2826 33.551 32.5876 33.1067 32.7605C33.3903 33.218 33.948 33.9601 34.8649 34.5498C35.5171 34.9768 36.1409 35.1801 36.5758 35.2716C36.7175 34.9971 36.9539 34.5701 37.2469 34.0618C38.2961 32.2826 38.6742 32.0895 38.7309 31.4998C38.8727 30.0561 36.935 28.277 36.0748 28.643Z" fill="white" stroke="#2D2D2D" stroke-width="0.905968" stroke-miterlimit="10"/>
<path d="M35.9498 31.3882C36.3373 32.2219 36.7438 33.0454 37.3865 33.6859C37.5189 33.818 37.7174 33.6045 37.585 33.4724C36.9612 32.8522 36.5736 32.0389 36.1955 31.2357C36.1105 31.0629 35.8647 31.2154 35.9498 31.3882Z" fill="#2D2D2D"/>
<path d="M35.6697 30.839C36.1045 31.754 36.5771 32.6588 37.4089 33.218C37.5507 33.3095 37.6925 33.1061 37.5791 32.974C37.305 32.6588 37.0214 32.3436 36.7567 32.0285C36.6906 32.0996 36.6244 32.1708 36.5582 32.242C36.7189 32.425 36.8891 32.5978 37.0781 32.7401C37.1443 32.791 37.3522 32.8926 37.39 32.9536C37.4468 33.0553 37.39 33.218 37.3617 33.3196C37.4562 33.3501 37.5413 33.3705 37.6358 33.401C37.6453 33.3501 37.6453 33.2993 37.6547 33.2586C37.6736 33.1265 37.5224 32.9841 37.4184 33.1061C37.4184 32.9943 37.39 32.8825 37.3239 32.791C37.2388 32.8418 37.1632 32.8926 37.0781 32.9435C37.1821 33.096 37.2861 33.2485 37.39 33.401C37.4657 33.34 37.5413 33.279 37.6169 33.218C37.5318 33.1163 37.4657 33.0146 37.3995 32.9028C37.3144 32.7706 37.0781 32.852 37.1443 33.0248C37.201 33.157 37.2199 33.2078 37.305 33.3196C37.4184 33.4721 37.6169 33.2586 37.5035 33.1061C37.4751 33.0553 37.4468 33.0045 37.4184 32.9435C37.3333 32.9841 37.2483 33.0248 37.1632 33.0655C37.2483 33.1976 37.3333 33.3196 37.4278 33.4416C37.5318 33.5738 37.7492 33.401 37.6547 33.2586C37.5507 33.1061 37.4468 32.9536 37.3428 32.8011C37.2388 32.6385 37.0214 32.7808 37.097 32.9536C37.1915 33.157 37.3806 33.6348 37.6358 33.3298C37.5602 33.279 37.4751 33.2281 37.3995 33.1773C37.39 33.2281 37.39 33.279 37.3806 33.3196C37.3522 33.5128 37.6074 33.5941 37.6547 33.401C37.7209 33.157 37.8816 33.0451 37.6925 32.8011C37.6074 32.6893 37.4657 32.6385 37.3617 32.5673C37.1443 32.4148 36.9552 32.2318 36.7756 32.0285C36.6527 31.8861 36.4542 32.0996 36.5771 32.242C36.8512 32.5571 37.1254 32.8723 37.3995 33.1875C37.4562 33.1061 37.5129 33.0248 37.5696 32.9435C36.7851 32.4148 36.3503 31.5405 35.9344 30.6763C35.8304 30.5035 35.5846 30.6661 35.6697 30.839Z" fill="#2D2D2D"/>
<path d="M44.7721 25.9486C44.583 26.8535 44.1955 28.1955 43.3069 29.5781C41.7473 32.008 39.6299 33.0348 38.7225 33.411C38.2026 33.1975 37.522 32.8213 36.8792 32.1808C35.1211 30.422 34.9887 28.0125 34.9698 27.3923C34.7808 27.3415 34.5067 27.2296 34.2703 26.9856C33.6654 26.3553 33.5236 25.1048 34.0813 24.5863C34.7146 23.9966 35.9245 24.7185 36.0569 24.7896C36.3499 24.9625 36.5578 25.176 36.6902 25.3386C37.2101 23.651 38.4578 22.3801 39.9418 22.1158C41.9647 21.76 44.1766 23.346 44.7721 25.9486Z" fill="white" stroke="#2D2D2D" stroke-width="0.905968" stroke-miterlimit="10"/>
<path d="M42.4837 28.3785C42.1056 29.2935 41.5479 30.0763 40.8295 30.7168C40.6878 30.8388 40.8863 31.0523 41.028 30.9303C41.7748 30.2797 42.3419 29.4765 42.7295 28.531C42.8051 28.348 42.5594 28.1955 42.4837 28.3785Z" fill="#2D2D2D"/>
<path d="M40.4696 30.035C40.4318 30.3807 40.5452 30.7162 40.7626 30.9703C40.8855 31.1127 41.084 30.8992 40.9611 30.7568C40.791 30.5535 40.7248 30.3095 40.7532 30.035C40.7721 29.8418 40.4885 29.8418 40.4696 30.035Z" fill="#2D2D2D"/>
<path d="M39.8907 28.2972C40.1365 27.9312 40.4295 27.6059 40.7603 27.311C40.6847 27.2602 40.5996 27.2093 40.524 27.1585C40.4011 27.5652 40.1365 27.8905 39.7867 28.0939C39.8434 28.1752 39.9001 28.2565 39.9569 28.3379C40.1743 28.0532 40.3917 27.7787 40.6091 27.494C40.7225 27.3415 40.524 27.128 40.4106 27.2805C40.1932 27.5652 39.9758 27.8397 39.7584 28.1244C39.6544 28.2565 39.7867 28.4497 39.9285 28.3684C40.3444 28.1244 40.6469 27.7278 40.7981 27.25C40.8454 27.0873 40.6658 27.0162 40.5618 27.0975C40.2121 27.4025 39.9096 27.7482 39.6544 28.1447C39.541 28.3074 39.7867 28.4599 39.8907 28.2972Z" fill="#2D2D2D"/>
<path d="M43.0325 29.1937C43.1553 28.97 43.316 28.7768 43.4956 28.604C43.42 28.5532 43.3349 28.5023 43.2593 28.4515C43.1743 28.7565 43.0041 29.031 42.7583 29.2242C42.8245 29.2852 42.9001 29.336 42.9663 29.397C43.023 29.2343 43.1081 29.0818 43.2121 28.9497C43.3255 28.7972 43.127 28.5837 43.0136 28.7362C42.8812 28.9192 42.7772 29.1022 42.7016 29.3157C42.6544 29.4377 42.8151 29.5698 42.9096 29.4885C43.2121 29.2445 43.4295 28.9293 43.5335 28.543C43.5807 28.3905 43.4011 28.299 43.2971 28.3905C43.0986 28.5735 42.9285 28.7972 42.7867 29.0412C42.6827 29.2038 42.9285 29.3563 43.0325 29.1937Z" fill="#2D2D2D"/>
<path d="M38.9153 27.5453C39.0571 27.9011 39.1328 28.2671 39.1328 28.6433C39.1328 28.7449 39.2745 28.7449 39.2745 28.6433C39.2745 28.2366 39.1895 27.8401 39.0382 27.4639C39.0004 27.3724 38.8775 27.4538 38.9153 27.5453Z" fill="#2D2D2D"/>
<path d="M38.5241 27.2803C38.6186 27.443 38.6848 27.6056 38.7415 27.7785C38.7698 27.87 38.9022 27.8293 38.8738 27.7378C38.8171 27.5446 38.7415 27.3718 38.6469 27.199C38.5997 27.1176 38.4768 27.199 38.5241 27.2803Z" fill="#2D2D2D"/>
<path d="M40.7077 26.446C41.0575 26.3341 41.3883 26.5883 41.3977 26.9848C41.3977 27.1271 41.6152 27.1373 41.6152 26.9848C41.5963 26.446 41.1425 26.08 40.651 26.2223C40.5187 26.263 40.5754 26.4866 40.7077 26.446Z" fill="#2D2D2D"/>
<path d="M43.2415 27.9412C43.3927 27.8395 43.5723 27.8293 43.733 27.931C43.8465 28.0123 43.9599 27.809 43.837 27.7378C43.6196 27.5955 43.3455 27.5955 43.1375 27.748C43.0241 27.8293 43.1281 28.0225 43.2415 27.9412Z" fill="#2D2D2D"/>
<path d="M38.6243 30.5549C38.8511 30.9921 39.2387 31.3073 39.6924 31.4394C39.872 31.4903 39.9476 31.1954 39.768 31.1446C39.3805 31.0328 39.0686 30.7786 38.8701 30.4024C38.7755 30.2296 38.5298 30.3821 38.6243 30.5549Z" fill="#2D2D2D"/>
<path d="M36.6787 25.7457C36.8867 25.3593 37.3877 24.5358 38.3518 23.9665C39.0135 23.57 39.6374 23.4582 40.0155 23.4175C40.2234 23.7123 40.5637 24.0987 41.0647 24.3427C42.2463 24.9222 43.201 24.1597 43.9004 24.668C44.2691 24.9323 44.6377 25.5728 44.496 27.3215C45.1198 28.0128 45.5357 28.0535 45.7626 28.0027C46.7078 27.7993 47.3884 25.5118 46.7929 23.8445C46.6133 23.3463 46.377 23.0617 44.3731 21.3435C41.5468 18.9238 41.197 18.7815 40.8284 18.69C38.8812 18.202 37.1608 19.2593 36.8678 19.4423C36.4897 19.6762 36.4046 19.788 34.24 22.2382C32.5574 24.1393 32.3967 24.3122 32.2455 24.7798C31.8485 25.9592 31.9241 27.6672 32.9355 28.9177C33.8902 30.0868 35.1758 30.2597 35.5066 30.3003C35.3648 29.9547 35.2136 29.4667 35.138 28.8668C35.0434 28.0942 35.138 27.4537 35.223 27.0368C35.1569 26.986 34.7788 26.6505 34.7504 26.0812C34.7315 25.6643 34.9111 25.1357 35.327 24.9628C35.7902 24.7697 36.4235 25.0645 36.6787 25.7457Z" fill="#0071BC"/>
<path d="M36.2742 20.6323C35.8866 19.8088 34.7523 19.6868 34.5538 19.6664C32.9752 19.4936 31.7086 21.0084 30.9619 21.8929C29.6385 23.4688 30.0166 23.9364 28.7311 25.8376C27.0296 28.3589 25.7535 28.4708 25.4889 30.2093C25.47 30.3414 25.2336 32.0901 26.3112 33.1474C27.2376 34.0624 28.7311 34.0726 29.7141 33.5236C31.0469 32.7814 30.9335 31.2869 31.8977 28.7758C33.7882 23.8754 37.0209 22.2183 36.2742 20.6323Z" fill="#0071BC"/>
<path opacity="0.12" d="M37.7953 24.3318C37.4929 25.1451 37.1337 26.4363 37.1526 28.0528C37.1809 30.6351 38.164 32.5261 38.6555 33.3394C38.1167 33.0955 37.2187 32.577 36.4342 31.5603C36.1128 31.1435 35.3566 30.1573 35.1581 28.6425C35.0636 27.9613 35.1203 27.392 35.177 27.0056C35.1203 26.9548 34.7327 26.5786 34.7516 25.989C34.7611 25.6026 34.9501 25.0841 35.3566 24.9316C35.8103 24.7588 36.4342 25.074 36.68 25.7551C36.7745 25.5518 36.9068 25.2976 37.1053 25.0333C37.3511 24.7181 37.5968 24.4945 37.7953 24.3318Z" fill="#2D2D2D"/>
<path opacity="0.13" d="M36.1314 31.7742C36.0558 31.9572 35.9707 32.1402 35.8667 32.3232C35.3941 33.1772 34.7797 33.7466 34.2976 34.0922C34.1275 33.9804 33.9006 33.8075 33.6737 33.5432C33.428 33.2585 33.2767 32.9739 33.1917 32.7705C33.5603 32.6485 34.4772 32.2724 35.1011 31.2862C35.3185 30.9304 35.4508 30.5847 35.5264 30.3C35.7249 30.7982 35.9234 31.2862 36.1314 31.7742Z" fill="#2D2D2D"/>
<path opacity="0.18" d="M35.2997 26.8333C35.347 27.5348 35.4698 28.4498 35.7912 29.4766C36.2355 30.8694 36.8783 31.8963 37.3698 32.5469C36.8783 32.1199 36.2922 31.4794 35.8196 30.5848C35.5076 29.9849 35.0445 29.1208 35.1012 27.9414C35.1201 27.4839 35.2146 27.0976 35.2997 26.8333Z" fill="#2D2D2D"/>
<path opacity="0.32" d="M36.7484 19.6975C36.3514 20.1143 33.8748 22.7983 34.2151 26.6108C34.3569 28.2375 34.9618 29.4677 35.3967 30.1895C35.0942 30.1692 34.5081 30.098 33.8748 29.7015C33.2415 29.305 32.8823 28.7865 32.7216 28.5222C32.5987 28.3087 32.4475 27.963 32.353 27.5258C32.353 27.5258 32.1828 26.6718 32.4947 25.6145C32.8256 24.4555 34.3191 22.1985 36.7484 19.6975Z" fill="#32198E"/>
<path opacity="0.33" d="M31.634 21.3435C31.8514 21.496 30.6509 24.2105 29.3276 26.5793C28.1366 28.7041 27.5505 29.2938 27.4654 30.5951C27.3804 31.9473 27.9097 33.1063 28.3823 33.8891C28.146 33.9095 27.2575 33.94 26.4824 33.2791C26.057 32.9131 25.8302 32.4861 25.7262 32.2218C25.4993 31.5101 25.3008 30.4731 25.6978 29.4971C25.9625 28.8363 26.2744 28.7855 27.248 27.7281C28.1082 26.7928 28.9589 25.8676 29.5828 24.4951C29.9042 23.7936 30.0176 23.2853 30.5659 22.4923C30.9251 21.9636 31.5111 21.252 31.634 21.3435Z" fill="#32198E"/>
</svg>
