<svg width="50" height="50" viewBox="0 0 50 50" fill="none" xmlns="http://www.w3.org/2000/svg">
<path d="M21.8972 6.2334C21.8972 6.40486 21.8972 6.51548 21.8972 6.62057C21.8972 8.68362 21.8917 10.7522 21.9027 12.8153C21.9027 13.1361 21.7866 13.2522 21.4658 13.2965C21.0565 13.3518 20.6583 13.4956 20.2656 13.6283C19.9503 13.7334 19.6461 13.8661 19.3474 14.0044C18.9769 14.1759 18.6118 14.3473 18.2523 14.5409C17.8928 14.7345 17.5333 14.9447 17.1959 15.1715C16.2943 15.7743 15.4204 16.427 14.6959 17.24C14.0985 17.9093 13.5399 18.6062 13.0089 19.3307C12.6771 19.7843 12.4005 20.2821 12.1516 20.7909C11.947 21.2168 11.8032 21.6703 11.6649 22.1239C11.51 22.6217 11.3718 23.1305 11.2611 23.6394C11.2114 23.8772 11.2501 24.1316 11.2501 24.3916C11.5543 24.2865 11.853 24.1703 12.1627 24.0874C12.5222 23.9878 12.8817 23.8827 13.2468 23.8495C13.6782 23.8108 14.1151 23.8108 14.5465 23.8551C14.9669 23.8993 15.3872 23.9989 15.8021 24.0984C16.1616 24.1814 16.5211 24.2644 16.864 24.4026C17.2622 24.563 17.6328 24.7898 18.02 24.9613C18.5897 25.2157 19.0598 25.6084 19.4912 26.0398C20.1494 26.7035 20.7025 27.4502 21.0565 28.3296C21.2501 28.8108 21.4492 29.292 21.5985 29.7898C21.7036 30.1327 21.7368 30.5033 21.7811 30.8628C21.8308 31.2334 21.8696 31.6095 21.8861 31.9856C21.9249 32.677 21.8419 33.3573 21.6483 34.021C21.4934 34.5575 21.3828 35.1106 21.1561 35.6139C20.8242 36.3495 20.3762 37.0243 19.8342 37.6327C19.1428 38.4071 18.3408 39.0265 17.4226 39.5188C16.8253 39.8396 16.2003 40.0608 15.5532 40.2544C14.5853 40.542 13.6007 40.6692 12.6052 40.6305C12.0631 40.6084 11.5211 40.4978 10.9846 40.3982C10.5421 40.3153 10.083 40.2434 9.67375 40.0719C9.04322 39.8119 8.43481 39.4911 7.843 39.1482C7.01889 38.667 6.34411 37.9978 5.7357 37.2677C5.17707 36.5984 4.71247 35.8518 4.35849 35.0498C4.1649 34.6073 3.95473 34.1759 3.79986 33.7168C3.65605 33.2909 3.56756 32.8429 3.47353 32.4004C3.37397 31.9414 3.29654 31.4712 3.21911 31.0066C3.19145 30.8352 3.17486 30.6582 3.17486 30.4812C3.17486 29.3584 3.15827 28.2301 3.18592 27.1073C3.20251 26.4823 3.26889 25.8628 3.34632 25.2434C3.41822 24.6847 3.52331 24.1261 3.63393 23.573C3.76114 22.9646 3.89389 22.3507 4.07088 21.7533C4.22574 21.2113 4.43039 20.6803 4.62397 20.1493C4.77884 19.7124 4.92265 19.2644 5.10517 18.8385C5.30428 18.3849 5.53658 17.948 5.76889 17.5111C6.00672 17.0575 6.24455 16.5984 6.5211 16.1726C6.96911 15.4812 7.43924 14.7953 7.9315 14.1316C8.56756 13.2688 9.29212 12.4779 10.0941 11.7644C10.8574 11.0896 11.6151 10.4093 12.489 9.87278C13.0642 9.52433 13.6007 9.11504 14.176 8.77211C14.6627 8.4845 15.1771 8.24667 15.697 8.01437C16.3828 7.71017 17.0797 7.42256 17.7822 7.15707C18.1583 7.01327 18.562 6.9303 18.9547 6.83074C19.4746 6.69247 19.9946 6.54313 20.5255 6.43251C20.9514 6.34402 21.3994 6.3053 21.8972 6.2334Z" fill="#C4C4C4"/>
<path d="M46.8363 6.25C46.8418 6.39934 46.8529 6.50996 46.8529 6.61504C46.8529 8.68916 46.8529 10.7633 46.8529 12.8374C46.8529 13.2522 46.8474 13.219 46.4492 13.2909C46.0509 13.3628 45.6638 13.49 45.2766 13.6228C44.9668 13.7279 44.6626 13.8662 44.364 14.0044C44.01 14.1593 43.656 14.3086 43.3186 14.4967C42.8706 14.7511 42.4171 15.0111 42.0078 15.3208C41.2998 15.8573 40.6084 16.4159 39.9392 17.0022C39.5465 17.3451 39.2036 17.7544 38.8662 18.1527C38.208 18.9325 37.6383 19.7732 37.2014 20.6914C36.9303 21.2666 36.7589 21.8971 36.5487 22.5055C36.3662 23.0254 36.25 23.5564 36.2666 24.1095C36.2666 24.198 36.2666 24.2865 36.2666 24.3695C36.8031 24.198 37.3009 24.0321 37.8098 23.8883C37.9646 23.844 38.1361 23.844 38.302 23.8385C38.6726 23.833 39.0432 23.8053 39.4082 23.8496C39.8784 23.8993 40.343 23.9934 40.802 24.0985C41.1726 24.1814 41.5376 24.281 41.8916 24.4082C42.2677 24.5465 42.6494 24.6903 42.9812 24.906C43.4348 25.1936 43.8717 25.5144 44.2699 25.8794C44.6682 26.2445 45.0388 26.6482 45.3485 27.0852C45.6803 27.5553 45.9569 28.0752 46.2003 28.6007C46.3662 28.9657 46.4326 29.375 46.5542 29.7622C46.8861 30.8518 46.9082 31.969 46.8253 33.0808C46.7699 33.8274 46.6261 34.5686 46.2722 35.2489C46.1118 35.5586 46.0067 35.9071 45.8186 36.2002C45.4978 36.7035 45.1549 37.2013 44.7788 37.6659C44.4635 38.0476 44.104 38.4071 43.7169 38.7168C43.3407 39.0155 42.9093 39.2533 42.489 39.4856C41.875 39.8285 41.2224 40.0719 40.5365 40.2544C39.9779 40.4038 39.4303 40.5365 38.8496 40.5531C38.4292 40.5642 38.0089 40.6527 37.5885 40.625C37.052 40.5918 36.5211 40.4923 35.9956 40.3927C35.5365 40.3042 35.0664 40.2212 34.635 40.0553C34.1095 39.8562 33.6007 39.6018 33.1084 39.3197C32.4558 38.9491 31.8695 38.479 31.3496 37.937C30.6859 37.2511 30.0885 36.5044 29.6737 35.6361C29.3916 35.0387 29.093 34.4469 28.8551 33.833C28.6947 33.4237 28.6173 32.9812 28.5122 32.5553C28.3131 31.7533 28.1914 30.9403 28.1914 30.1162C28.1914 29.3473 28.1914 28.5785 28.1914 27.8097C28.1914 27.6715 28.1969 27.5332 28.208 27.3949C28.2688 26.5708 28.2965 25.7467 28.4016 24.9281C28.479 24.3086 28.6615 23.7058 28.7888 23.0918C28.8496 22.8153 28.8772 22.5332 28.9547 22.2677C29.1261 21.6593 29.3142 21.0564 29.5078 20.4591C29.6571 19.9889 29.8064 19.5188 29.9945 19.0653C30.177 18.6117 30.3817 18.1637 30.614 17.7323C30.9182 17.1571 31.2445 16.5874 31.5874 16.0343C32.0963 15.2102 32.6715 14.4358 33.291 13.6836C33.9879 12.8374 34.7511 12.0741 35.5642 11.3551C36.3662 10.6471 37.2014 9.98341 38.1361 9.44137C38.7666 9.07633 39.3695 8.6615 40.0166 8.32965C40.5974 8.03097 41.2224 7.80973 41.8308 7.56084C42.2954 7.37279 42.7545 7.16814 43.2301 7.00774C43.6505 6.86947 44.0874 6.7865 44.5188 6.68142C44.7567 6.62611 44.9945 6.5708 45.2323 6.52102C45.6029 6.43805 45.9735 6.34956 46.3496 6.27765C46.4823 6.25553 46.6427 6.26106 46.8363 6.25Z" fill="#C4C4C4"/>
</svg>
