<svg width="158" height="141" viewBox="0 0 158 141" fill="none" xmlns="http://www.w3.org/2000/svg">
<path d="M29.5156 36.716C30.7433 36.9393 32.529 37.2741 34.7612 37.5531C45.4198 39.1155 53.0092 39.0597 62.3843 39.1713C68.0205 39.2271 76.3353 39.3945 86.7707 39.7851C97.8757 39.0039 109.037 38.2227 120.142 37.3857C104.795 35.8232 89.4493 34.205 74.1032 32.6426C59.2034 33.9818 44.3595 35.321 29.5156 36.716Z" fill="#0071BC"/>
<path d="M62.3281 71.3717C65.509 72.0413 68.6898 72.711 71.8706 73.3806C82.9199 72.711 95.0294 71.0368 107.809 67.6886C110.264 67.0748 112.664 66.4051 114.952 65.6797C97.429 67.577 79.9065 69.4743 62.3281 71.3717Z" fill="#0071BC"/>
<path d="M30.2422 115.398C30.298 120.085 30.3538 124.828 30.4096 129.516C56.1911 132.808 82.0285 136.101 107.81 139.393C107.81 134.706 107.81 129.962 107.81 125.275C123.603 118.244 139.339 111.212 155.132 104.181C150.724 103.511 146.315 102.842 141.906 102.172C141.404 102.953 140.902 103.734 140.456 104.571C121.315 110.487 102.174 116.458 83.033 122.373C65.4546 120.029 47.8205 117.686 30.2422 115.398Z" fill="#0071BC"/>
<path d="M1.5625 51.6101C20.8707 53.954 40.2348 56.2978 59.543 58.6417C81.0834 57.1349 102.624 55.5724 124.164 54.0656C119.477 52.5588 114.789 51.1078 110.102 49.6011C100.392 50.3266 90.6259 51.0521 80.916 51.7775C62.5564 50.494 44.2527 49.1546 25.8931 47.8711C17.8015 49.0988 9.6541 50.3266 1.5625 51.6101Z" fill="#FF6871"/>
<path d="M74.0469 85.8208C80.0179 86.7137 86.0448 87.6066 92.0159 88.4995C108.534 84.2025 124.996 79.9613 141.514 75.6644C136.045 74.8273 130.632 74.0461 125.164 73.209C108.087 77.4501 91.0672 81.6355 74.0469 85.8208Z" fill="#FF6871"/>
<path d="M5.35938 99.9979C30.8061 103.625 56.197 107.308 81.6437 110.936C89.5121 109.261 97.7154 107.308 106.253 104.964C117.972 101.784 128.854 98.268 138.955 94.6965C135.16 94.0268 131.365 93.3572 127.571 92.6875C115.684 95.98 103.798 99.2724 91.8559 102.565C70.7619 99.6631 49.6679 96.817 28.5739 93.9152C20.8729 95.98 13.1162 97.9889 5.35938 99.9979Z" fill="#FF6871"/>
<path d="M26.0078 38.3343C26.0078 41.6827 26.0078 45.0868 26.0078 48.4352C26.0078 49.4955 27.6819 49.4955 27.6819 48.4352C27.6819 45.0868 27.6819 41.6827 27.6819 38.3343C27.6819 37.274 26.0078 37.274 26.0078 38.3343Z" fill="#161616"/>
<path d="M27.1183 38.6655C46.8729 39.3351 66.6834 39.9489 86.438 40.6185C87.4983 40.6743 87.4983 39.0003 86.438 38.9445C66.6834 38.275 46.8729 37.6612 27.1183 36.9916C26.0022 36.9358 26.0022 38.6098 27.1183 38.6655Z" fill="#161616"/>
<path d="M27.1183 49.7112C45.0872 50.046 63.0561 50.883 80.9692 52.2222C82.0294 52.278 82.0294 50.604 80.9692 50.5482C63.0561 49.2647 45.0872 48.4277 27.1183 48.0371C26.0022 48.0371 26.0022 49.7112 27.1183 49.7112Z" fill="#161616"/>
<path d="M86.996 40.842C98.4358 39.8374 109.931 39.1678 121.371 38.7771C122.432 38.7213 122.432 37.0471 121.371 37.1029C109.876 37.4378 98.4358 38.1633 86.996 39.1678C85.9357 39.2236 85.8799 40.8978 86.996 40.842Z" fill="#161616"/>
<path d="M81.2561 52.2826C94.705 50.9432 108.21 49.6596 121.658 48.3202C122.719 48.2086 122.719 46.5343 121.658 46.646C108.21 47.9854 94.705 49.269 81.2561 50.6084C80.1959 50.72 80.1959 52.3942 81.2561 52.2826Z" fill="#161616"/>
<path d="M86.1781 40.6154C85.7874 41.2293 85.5083 41.8432 85.3967 42.5687C85.2293 43.7966 85.7316 44.7453 85.1176 45.9732C84.3921 47.5358 83.9456 48.7637 84.2246 50.4938C84.3921 51.5542 86.0107 51.1077 85.8432 50.0473C85.5641 48.2056 86.513 47.3684 87.0711 45.8616C87.5734 44.2989 86.6246 42.9594 87.6293 41.4525C88.1874 40.5596 86.7363 39.6666 86.1781 40.6154Z" fill="#161616"/>
<path d="M27.3455 38.1613C42.4127 36.0965 57.5356 34.6456 72.7702 33.697C73.8304 33.6412 73.8304 31.967 72.7702 32.0228C57.424 32.9715 42.1336 34.4782 26.9549 36.543C25.8388 36.7104 26.2853 38.2729 27.3455 38.1613Z" fill="#161616"/>
<path d="M71.6546 33.7611C87.8936 33.8727 104.077 35.3235 120.037 38.1135C121.097 38.2809 121.544 36.6627 120.483 36.4953C104.356 33.6495 88.0053 32.1429 71.6546 32.0312C70.5943 32.0871 70.5943 33.7611 71.6546 33.7611Z" fill="#161616"/>
<path d="M30.4188 43.8541C35.2179 44.9704 40.2403 43.7983 45.1511 43.8541C50.6199 43.9099 56.0887 44.5239 61.5575 45.1937C62.6178 45.3053 62.6178 43.6309 61.5575 43.5192C56.4793 42.9611 51.3453 42.3471 46.2114 42.2355C41.2448 42.1238 35.776 43.4076 30.8652 42.2913C29.8049 41.9564 29.3585 43.575 30.4188 43.8541Z" fill="#161616"/>
<path d="M52.514 47.48C61.052 47.759 69.6459 48.1496 78.184 48.6518C79.2443 48.7076 79.2443 47.0336 78.184 46.9778C69.6459 46.4757 61.052 46.085 52.514 45.8061C51.4537 45.7503 51.4537 47.4242 52.514 47.48Z" fill="#161616"/>
<path d="M66.4725 44.5288C71.3833 44.9194 76.3498 45.4215 81.2606 46.0353C82.3209 46.1468 82.3209 44.473 81.2606 44.3614C76.3498 43.7477 71.4391 43.2455 66.4725 42.8549C65.3564 42.7434 65.4122 44.4172 66.4725 44.5288Z" fill="#161616"/>
<path d="M90.2903 45.3625C94.1966 45.9206 97.9913 44.9719 101.842 44.4138C106.418 43.6884 111.049 43.1303 115.681 42.8513C116.742 42.7955 116.742 41.1213 115.681 41.1771C111.942 41.4004 108.203 41.8468 104.52 42.349C100.056 42.9629 95.3127 44.4139 90.7925 43.8C89.6764 43.5768 89.23 45.1951 90.2903 45.3625Z" fill="#161616"/>
<path d="M97.3108 48.2617C100.771 48.6523 103.952 47.4247 107.3 46.7551C111.206 45.9181 115.224 45.5833 119.186 45.5275C120.246 45.5275 120.246 43.8535 119.186 43.8535C115.726 43.9093 112.322 44.1883 108.918 44.7463C105.123 45.4159 101.217 47.0899 97.3108 46.6435C96.2506 46.4761 96.2506 48.1501 97.3108 48.2617Z" fill="#161616"/>
<path d="M119.922 39.4505C119.978 42.2969 120.033 45.0876 120.145 47.934C120.145 48.9945 121.819 48.9945 121.819 47.934C121.764 45.0876 121.708 42.2969 121.596 39.4505C121.596 38.3342 119.922 38.3342 119.922 39.4505Z" fill="#161616"/>
<path d="M0.336199 52.009C0.392004 55.748 0.280391 59.487 0.00136451 63.226C-0.0544407 64.2863 1.61972 64.2863 1.67552 63.226C1.95455 59.487 2.06616 55.748 2.01036 52.009C1.95455 50.8928 0.280394 50.8928 0.336199 52.009Z" fill="#161616"/>
<path d="M1.17565 64.8397C20.7071 67.2953 40.2944 69.416 59.9375 71.3135C60.9978 71.4251 60.9978 69.7508 59.9375 69.6392C40.2944 67.7417 20.7071 65.621 1.17565 63.1655C0.0595614 63.0539 0.115366 64.7281 1.17565 64.8397Z" fill="#161616"/>
<path d="M59.6063 59.3733C59.4389 62.9448 59.2157 66.4605 59.0482 70.0319C58.9924 71.0922 60.6666 71.0922 60.7224 70.0319C60.8898 66.4605 61.113 62.9448 61.2805 59.3733C61.3363 58.3131 59.6621 58.3131 59.6063 59.3733Z" fill="#161616"/>
<path d="M60.4358 59.7038C81.9762 58.8668 103.517 57.2485 124.945 54.9606C126.006 54.849 126.006 53.175 124.945 53.2866C103.517 55.5745 81.9762 57.1369 60.4358 58.0298C59.3756 58.0856 59.3756 59.7596 60.4358 59.7038Z" fill="#161616"/>
<path d="M60.7171 71.7571C81.9785 69.2461 103.296 67.0699 124.669 65.1169C125.729 65.0053 125.729 63.3312 124.669 63.4428C103.352 65.3959 82.0343 67.6279 60.7171 70.0831C59.6568 70.1947 59.6568 71.8687 60.7171 71.7571Z" fill="#161616"/>
<path d="M124.203 54.7337C124.203 57.7477 124.259 60.7617 124.259 63.7756C124.259 64.8361 125.933 64.8361 125.933 63.7756C125.933 60.7617 125.878 57.7477 125.878 54.7337C125.878 53.6174 124.203 53.6174 124.203 54.7337Z" fill="#161616"/>
<path d="M1.38862 51.8932C9.75923 50.7773 18.1298 49.7729 26.5562 48.9918C27.6165 48.8802 27.6165 47.2062 26.5562 47.3178C18.0182 48.099 9.48022 49.1033 0.942198 50.2751C-0.118079 50.3867 0.328347 52.0048 1.38862 51.8932Z" fill="#161616"/>
<path d="M2.23271 53.0076C21.541 54.4027 40.7935 56.4117 59.9901 59.0346C61.0504 59.202 61.4969 57.5836 60.4366 57.4162C41.1283 54.7933 21.7084 52.7285 2.23271 51.3334C1.17243 51.2776 1.17243 52.9518 2.23271 53.0076Z" fill="#161616"/>
<path d="M109.763 50.1611C114.785 51.1098 119.751 52.3935 124.606 54.0678C125.611 54.4027 126.057 52.7842 125.053 52.4493C120.198 50.8308 115.287 49.4913 110.209 48.5426C109.149 48.3193 108.702 49.9378 109.763 50.1611Z" fill="#161616"/>
<path d="M10.4983 60.7094C20.5431 60.2072 30.1415 63.7225 40.1304 63.8899C41.1907 63.8899 41.1907 62.2159 40.1304 62.2159C30.1415 62.0485 20.4873 58.5332 10.4983 59.0354C9.43805 59.0912 9.43805 60.7652 10.4983 60.7094Z" fill="#161616"/>
<path d="M29.7068 58.5281C37.073 61.2622 45.053 59.5883 52.6423 61.2622C53.7026 61.4854 54.149 59.8672 53.0887 59.644C45.4994 57.9701 37.5194 59.6441 30.1533 56.91C29.1488 56.5194 28.7024 58.1375 29.7068 58.5281Z" fill="#161616"/>
<path d="M64.0136 65.8415C82.5407 61.6561 101.793 61.2096 120.655 60.0935C121.715 60.0377 121.715 58.3635 120.655 58.4193C101.57 59.5913 82.2617 59.9819 63.5672 64.2231C62.5069 64.4463 62.9533 66.0647 64.0136 65.8415Z" fill="#161616"/>
<path d="M94.9827 64.4494C101.568 64.6168 108.152 64.003 114.57 62.608C115.63 62.3848 115.184 60.7666 114.124 60.9898C107.818 62.329 101.4 62.9428 94.9827 62.7754C93.9224 62.7196 93.9224 64.3936 94.9827 64.4494Z" fill="#161616"/>
<path d="M12.1641 65.7327C12.1641 69.918 12.1641 74.0475 12.1641 78.2328C12.1641 79.2931 13.8381 79.2931 13.8381 78.2328C13.8381 74.0475 13.8381 69.918 13.8381 65.7327C13.8381 64.6724 12.1641 64.6724 12.1641 65.7327Z" fill="#161616"/>
<path d="M12.785 79.2893C21.8253 81.968 31.8142 82.0238 41.1893 82.9167C51.1225 83.8654 61.1114 84.87 71.0446 85.8187C72.1049 85.9303 72.1049 84.2561 71.0446 84.1445C61.4463 83.1957 51.8479 82.3028 42.2496 81.3541C32.7071 80.4054 22.4391 80.4054 13.2315 77.6709C12.227 77.3918 11.7805 79.0102 12.785 79.2893Z" fill="#161616"/>
<path d="M70.9933 72.8781C71.0491 76.7285 71.0491 80.5232 70.9375 84.3736C70.9375 85.4339 72.6117 85.4339 72.6117 84.3736C72.7233 80.5232 72.7233 76.7285 72.6675 72.8781C72.6675 71.762 70.9933 71.762 70.9933 72.8781Z" fill="#161616"/>
<path d="M62.0559 72.5994C65.1256 72.8785 68.1953 73.3808 71.2092 74.1063C72.2697 74.3853 72.7162 72.7669 71.6557 72.4878C68.4744 71.7065 65.2931 71.2042 62.0559 70.9252C60.9397 70.8694 60.9397 72.5436 62.0559 72.5994Z" fill="#161616"/>
<path d="M72.0296 73.7645C87.6547 72.481 103.168 70.1373 118.514 66.6217C119.575 66.3985 119.128 64.7803 118.068 65.0035C102.889 68.4632 87.5431 70.8069 72.0296 72.0904C70.9693 72.1462 70.9693 73.8203 72.0296 73.7645Z" fill="#161616"/>
<path d="M72.0439 86.0505C89.7896 82.6464 107.424 78.461 124.779 73.4943C125.839 73.2153 125.393 71.5969 124.332 71.876C106.922 76.8426 89.3432 81.0838 71.5975 84.4321C70.593 84.6554 71.0394 86.2737 72.0439 86.0505Z" fill="#161616"/>
<path d="M123.947 64.5043C124.003 67.2951 123.947 70.0858 123.724 72.8207C123.612 73.8812 125.287 73.8812 125.398 72.8207C125.622 70.03 125.677 67.2392 125.622 64.5043C125.622 63.4439 123.947 63.4439 123.947 64.5043Z" fill="#161616"/>
<path d="M118.53 66.6224C120.427 66.6224 122.325 66.3433 124.167 65.8968C125.227 65.6178 124.781 63.9992 123.72 64.2783C121.99 64.7248 120.316 64.948 118.53 64.948C117.469 64.948 117.469 66.6224 118.53 66.6224Z" fill="#161616"/>
<path d="M22.1546 75.4978C35.6592 77.1161 49.1079 78.6786 62.6125 80.0737C63.6728 80.1853 63.6728 78.5112 62.6125 78.3996C49.1079 77.0045 35.6034 75.4978 22.1546 73.8237C21.0943 73.7121 21.0943 75.3862 22.1546 75.4978Z" fill="#161616"/>
<path d="M16.9671 70.8592C22.6591 71.4173 28.3512 71.8638 34.0432 72.1428C35.1035 72.1986 35.1035 70.5244 34.0432 70.4686C28.3512 70.1895 22.6591 69.743 16.9671 69.185C15.9068 69.1291 15.9068 70.8034 16.9671 70.8592Z" fill="#161616"/>
<path d="M41.1913 73.9378C48.39 73.9378 55.533 74.4401 62.676 75.5562C63.7363 75.7236 64.1827 74.1053 63.1224 73.9378C55.8678 72.8217 48.5575 72.2637 41.1913 72.2637C40.131 72.2637 40.0752 73.9378 41.1913 73.9378Z" fill="#161616"/>
<path d="M74.7714 79.3457C82.8072 78.0622 90.7871 76.6113 98.7671 74.9929C99.8274 74.7697 99.3809 73.1514 98.3207 73.3746C90.3407 74.9929 82.3608 76.4439 74.325 77.7274C73.2647 77.8948 73.7112 79.5132 74.7714 79.3457Z" fill="#161616"/>
<path d="M89.9658 80.0263C99.6199 76.7896 109.553 74.39 119.598 72.9391C120.658 72.7717 120.212 71.1533 119.151 71.3207C109.051 72.7717 99.1735 75.1155 89.5193 78.408C88.5149 78.7986 88.9613 80.4169 89.9658 80.0263Z" fill="#161616"/>
<path d="M114.388 71.4282C117.123 70.5909 119.857 70.0886 122.704 69.8653C123.764 69.8095 123.764 68.135 122.704 68.1908C119.746 68.4141 116.788 68.9164 113.941 69.8095C112.937 70.1444 113.383 71.7631 114.388 71.4282Z" fill="#161616"/>
<path d="M24.8873 81.4652C24.8315 85.4274 24.7199 89.3896 24.6641 93.3519C24.6641 94.4122 26.3381 94.4122 26.3381 93.3519C26.3939 89.3896 26.5055 85.4274 26.5613 81.4652C26.6171 80.4048 24.9431 80.4048 24.8873 81.4652Z" fill="#161616"/>
<path d="M25.6702 94.4671C47.3222 97.3689 69.03 100.271 90.682 103.117C91.7423 103.284 91.7423 101.61 90.682 101.443C69.03 98.5408 47.3222 95.639 25.6702 92.793C24.6099 92.6256 24.6099 94.2997 25.6702 94.4671Z" fill="#161616"/>
<path d="M73.3875 86.3843C79.8608 87.3888 86.3341 88.2259 92.8631 88.8397C93.9234 88.9513 93.9234 87.2772 92.8631 87.1656C86.5015 86.5518 80.1398 85.7705 73.8339 84.766C72.7737 84.5986 72.3272 86.2169 73.3875 86.3843Z" fill="#161616"/>
<path d="M93.0765 88.6683C109.706 87.1057 124.941 79.5164 141.291 76.7262C142.352 76.5588 141.905 74.9404 140.845 75.1078C124.606 77.8422 109.539 85.3758 93.0765 86.9383C92.0162 87.1058 92.0162 88.7799 93.0765 88.6683Z" fill="#161616"/>
<path d="M124.669 73.775C130.305 74.6121 135.997 75.2259 141.689 75.5607C142.749 75.6165 142.749 73.9424 141.689 73.8866C136.109 73.5518 130.584 72.9937 125.115 72.1567C124.055 71.9892 123.608 73.6076 124.669 73.775Z" fill="#161616"/>
<path d="M91.1353 88.4992C90.9679 92.852 90.8563 97.2606 90.6889 101.613C90.6331 102.674 92.3072 102.674 92.363 101.613C92.5304 97.2606 92.642 92.852 92.8094 88.4992C92.8652 87.3831 91.1911 87.3831 91.1353 88.4992Z" fill="#161616"/>
<path d="M91.5683 103.172C108.254 99.1539 124.716 94.4106 141.011 88.9976C142.015 88.6628 141.569 87.0445 140.565 87.3793C124.27 92.7923 107.807 97.4798 91.1219 101.553C90.0616 101.777 90.508 103.395 91.5683 103.172Z" fill="#161616"/>
<path d="M140.568 75.9398C141.014 80.0136 141.126 84.0875 140.903 88.1614C140.847 89.2217 142.521 89.2217 142.577 88.1614C142.744 84.0875 142.633 80.0136 142.242 75.9398C142.13 74.8795 140.456 74.8795 140.568 75.9398Z" fill="#161616"/>
<path d="M29.966 89.7885C29.5753 89.8443 29.2405 89.9002 28.8499 89.9002C27.7896 90.0118 27.7896 91.4626 28.8499 91.5742C43.0241 93.0809 57.0867 95.3688 71.2052 97.6009C72.2654 97.7683 72.7119 96.1501 71.6516 95.9827C57.4216 93.6948 43.1915 91.4068 28.8499 89.9002C28.8499 90.4582 28.8499 91.0162 28.8499 91.5742C29.2405 91.5184 29.5753 91.4626 29.966 91.4626C31.0263 91.351 31.0263 89.6769 29.966 89.7885Z" fill="#161616"/>
<path d="M34.3162 87.329C38.5573 88.3893 42.7984 89.3938 47.0953 90.231C48.1556 90.4542 48.6021 88.8358 47.5418 88.6125C43.2449 87.7754 39.0037 86.8267 34.7626 85.7105C33.7582 85.4873 33.3117 87.1057 34.3162 87.329Z" fill="#161616"/>
<path d="M52.0125 89.5067C63.2292 91.2366 74.39 92.9667 85.6067 94.6966C86.6669 94.864 87.1134 93.2457 86.0531 93.0782C74.8364 91.3483 63.6756 89.6183 52.4589 87.8883C51.3987 87.7767 50.9522 89.3951 52.0125 89.5067Z" fill="#161616"/>
<path d="M100.389 92.0092C109.708 91.786 118.135 87.2658 127.287 85.8707C128.347 85.7033 127.901 84.0849 126.84 84.2524C117.856 85.6475 109.597 90.1119 100.389 90.3351C99.3287 90.3909 99.3287 92.065 100.389 92.0092Z" fill="#161616"/>
<path d="M97.373 97.6458C101.447 96.6413 105.52 95.6367 109.594 94.5764C110.655 94.2974 110.208 92.6789 109.148 92.958C105.074 93.9625 101 94.967 96.9266 96.0274C95.8663 96.2506 96.3127 97.869 97.373 97.6458Z" fill="#161616"/>
<path d="M125.115 90.1783C129.914 88.8947 134.714 87.6111 139.513 86.2717C140.573 85.9927 140.127 84.3743 139.066 84.6533C134.267 85.9369 129.468 87.2205 124.669 88.5599C123.608 88.8389 124.055 90.4573 125.115 90.1783Z" fill="#161616"/>
<path d="M3.39677 100.555C12.2697 99.6059 21.0309 97.7644 29.5132 94.9742C30.5176 94.6394 30.0712 93.0211 29.0667 93.3559C20.6961 96.0903 12.158 97.9318 3.39677 98.8804C2.33649 98.992 2.33649 100.666 3.39677 100.555Z" fill="#161616"/>
<path d="M2.75136 100.385C2.91879 104.18 3.14202 107.919 3.30944 111.713C3.36525 112.774 5.03949 112.774 4.98368 111.713C4.81625 107.919 4.59302 104.18 4.4256 100.385C4.36979 99.3248 2.69556 99.3248 2.75136 100.385Z" fill="#161616"/>
<path d="M4.22755 112.836C30.0091 116.24 55.7347 119.645 81.5162 122.993C82.5765 123.16 82.5765 121.43 81.5162 121.319C55.7347 117.915 30.0091 114.51 4.22755 111.162C3.16727 110.995 3.22307 112.669 4.22755 112.836Z" fill="#161616"/>
<path d="M3.73889 101.28C28.6276 104.796 53.5162 107.977 78.4607 110.878C79.521 110.99 79.521 109.316 78.4607 109.204C53.6836 106.358 28.9066 103.177 4.18532 99.6618C3.18084 99.5502 2.67861 101.168 3.73889 101.28Z" fill="#161616"/>
<path d="M81.5919 123.324C101.514 117.576 121.324 111.438 140.968 104.853C141.972 104.518 141.526 102.9 140.521 103.235C120.822 109.764 101.068 115.958 81.1454 121.706C80.0852 121.985 80.5316 123.603 81.5919 123.324Z" fill="#161616"/>
<path d="M88.2168 110.214C105.907 106.252 123.318 101.23 140.394 95.0914C141.398 94.7566 140.952 93.1382 139.947 93.4731C122.871 99.6116 105.46 104.634 87.7703 108.596C86.71 108.819 87.1565 110.438 88.2168 110.214Z" fill="#161616"/>
<path d="M139.392 94.5824C139.448 97.7638 139.504 100.889 139.559 104.071C139.559 105.131 141.234 105.131 141.234 104.071C141.178 100.889 141.122 97.7638 141.066 94.5824C141.011 93.522 139.336 93.522 139.392 94.5824Z" fill="#161616"/>
<path d="M126.733 93.6365C131.03 94.0829 135.271 94.5293 139.568 94.9199C140.628 95.0315 140.628 93.3574 139.568 93.2458C135.271 92.7994 131.03 92.353 126.733 91.9624C125.672 91.8508 125.672 93.5249 126.733 93.6365Z" fill="#161616"/>
<path d="M9.8319 109.654C22.1646 110.379 34.3858 111.886 46.5511 114.062C47.6114 114.23 48.0578 112.611 46.9975 112.444C34.7206 110.212 22.3321 108.761 9.8319 107.98C8.71581 107.924 8.77162 109.598 9.8319 109.654Z" fill="#161616"/>
<path d="M42.2469 109.486C52.1242 110.937 62.0015 112.611 71.823 114.452C72.8833 114.675 73.3297 113.057 72.2695 112.834C62.448 110.992 52.5706 109.318 42.6933 107.868C41.633 107.7 41.1866 109.318 42.2469 109.486Z" fill="#161616"/>
<path d="M80.7514 113.5C80.863 115.956 81.0304 118.412 81.1421 120.812C81.1979 121.873 82.8723 121.873 82.8165 120.812C82.7049 118.356 82.5374 115.9 82.4258 113.5C82.37 112.44 80.6955 112.44 80.7514 113.5Z" fill="#161616"/>
<path d="M90.0605 114.006C98.3195 112.164 106.523 110.099 114.726 107.867C115.786 107.588 115.34 105.97 114.28 106.249C106.132 108.481 97.8731 110.546 89.6141 112.387C88.5538 112.611 89.0002 114.229 90.0605 114.006Z" fill="#161616"/>
<path d="M89.7953 117.075C91.972 116.852 94.0929 116.517 96.158 115.903C97.2184 115.624 96.7719 114.005 95.7115 114.284C93.758 114.842 91.8046 115.177 89.7953 115.401C88.7349 115.512 88.7349 117.187 89.7953 117.075Z" fill="#161616"/>
<path d="M119.919 108.199C125.109 106.525 130.298 104.85 135.432 103.232C136.437 102.897 135.991 101.279 134.986 101.614C129.796 103.288 124.606 104.962 119.472 106.58C118.468 106.915 118.914 108.534 119.919 108.199Z" fill="#161616"/>
<path d="M129.966 102.335C132.199 101.665 134.487 101.051 136.72 100.381C137.78 100.102 137.334 98.4836 136.273 98.7627C134.041 99.4324 131.752 100.046 129.52 100.716C128.515 100.995 128.906 102.614 129.966 102.335Z" fill="#161616"/>
<path d="M29.0757 115.959C29.6337 120.312 29.857 124.665 29.6895 129.073C29.6337 130.134 31.308 130.134 31.3638 129.073C31.5312 124.665 31.308 120.312 30.7499 115.959C30.6383 114.899 28.964 114.899 29.0757 115.959Z" fill="#161616"/>
<path d="M31.1233 130.248C56.9049 133.597 82.6306 136.889 108.412 140.237C109.472 140.349 109.472 138.675 108.412 138.563C82.6306 135.215 56.9049 131.922 31.1233 128.574C30.0631 128.407 30.0631 130.081 31.1233 130.248Z" fill="#161616"/>
<path d="M107.142 126.055C107.421 130.407 107.644 134.816 107.923 139.168C107.979 140.229 109.653 140.229 109.597 139.168C109.318 134.816 109.095 130.407 108.816 126.055C108.76 124.994 107.086 124.938 107.142 126.055Z" fill="#161616"/>
<path d="M108.193 140.118C124.321 132.306 140.504 124.549 156.631 116.736C157.58 116.29 156.743 114.839 155.794 115.285C139.667 123.098 123.483 130.855 107.356 138.667C106.352 139.17 107.244 140.621 108.193 140.118Z" fill="#161616"/>
<path d="M107.966 125.832C124.484 119.917 140.555 112.886 156.125 104.739C157.073 104.236 156.236 102.785 155.288 103.288C139.886 111.323 123.926 118.299 107.519 124.214C106.515 124.605 106.961 126.223 107.966 125.832Z" fill="#161616"/>
<path d="M154.641 104.069C154.752 108.255 154.864 112.44 154.975 116.57C155.031 117.63 156.705 117.63 156.649 116.57C156.538 112.384 156.426 108.199 156.315 104.069C156.315 102.953 154.641 102.953 154.641 104.069Z" fill="#161616"/>
<path d="M141.061 103.176C145.693 103.232 150.324 103.566 154.9 104.236C155.961 104.403 156.407 102.785 155.347 102.618C150.603 101.948 145.86 101.558 141.061 101.502C140.001 101.502 140.001 103.176 141.061 103.176Z" fill="#161616"/>
<path d="M82.4813 123.495C88.1175 124.499 93.8095 125.113 99.5573 125.336C100.618 125.392 100.618 123.718 99.5573 123.662C93.9769 123.439 88.4523 122.881 82.9277 121.877C81.8674 121.653 81.421 123.272 82.4813 123.495Z" fill="#161616"/>
<path d="M112.892 128.339C119.031 126.832 124.89 124.711 130.582 121.977C131.531 121.53 130.694 120.079 129.745 120.526C124.221 123.204 118.473 125.213 112.502 126.72C111.386 126.943 111.832 128.562 112.892 128.339Z" fill="#161616"/>
<path d="M113.568 132.697C118.478 130.856 123.222 128.679 127.798 126.168C128.746 125.666 127.909 124.215 126.961 124.717C122.496 127.173 117.92 129.293 113.121 131.079C112.117 131.469 112.507 133.088 113.568 132.697Z" fill="#161616"/>
<path d="M133.583 118.748C139.777 116.572 145.916 114.061 151.943 111.326C152.947 110.88 152.054 109.429 151.105 109.875C145.246 112.554 139.275 114.953 133.137 117.074C132.132 117.465 132.578 119.083 133.583 118.748Z" fill="#161616"/>
<path d="M135.994 122.43C142.076 119.807 147.88 116.682 153.46 113.055C154.353 112.441 153.516 111.046 152.623 111.604C147.099 115.231 141.239 118.356 135.157 120.979C134.152 121.425 134.989 122.82 135.994 122.43Z" fill="#161616"/>
<path d="M48.9742 20.7037C61.4404 12.2742 67.6932 8.03967 69.3158 7.5252C73.2733 6.25879 86.0957 2.18255 97.2954 9.02905C105.329 13.9364 112.73 24.5821 109.643 31.7056C107.427 36.7712 100.659 38.3542 94.5252 39.8185C85.4625 41.9556 77.7057 40.7683 73.3525 39.7393C71.6507 41.4015 68.92 43.6177 65.0813 45.082C58.7097 47.5356 51.3487 47.1003 50.9925 45.636C50.8342 44.8841 52.4172 43.4199 60.0948 40.4121C59.1846 39.4228 57.839 38.2355 55.9394 37.4044C50.3197 34.8321 44.7001 37.3253 43.6316 37.8398C49.1325 41.0453 50.3197 42.7075 50.0427 43.6177C49.3304 45.9131 38.1306 46.665 35.1229 41.4015C34.8063 40.887 33.9356 39.1061 34.648 35.7423C36.0727 29.5685 41.2175 25.9672 48.9742 20.7037Z" fill="#161616"/>
<path d="M103.264 29.4896C104.531 26.8777 110.229 27.5109 112.446 27.7483C115.295 28.0649 117.828 28.3419 120.123 30.3603C121.864 31.8641 124.397 35.1489 123.487 37.8004C122.656 40.3332 119.53 40.1353 113.475 43.1035C112.446 43.6179 102.552 48.4857 103.225 51.6913C103.502 52.9973 105.282 52.9577 110.942 55.3717C115.849 57.4297 118.738 58.6961 121.152 61.4663C122.339 62.8515 124.714 65.5821 124.081 68.3524C122.893 73.4576 112.287 74.3282 112.01 73.5367C111.773 72.864 119.213 71.004 119.292 67.5213C119.371 64.8698 115.216 62.7328 112.604 61.3476C104.926 57.3505 99.7419 58.7752 97.7236 54.9364C96.5759 52.7598 97.2091 50.4249 97.3279 49.9895C97.9215 47.8525 99.5837 46.0321 107.697 41.9558C115.097 38.2358 118.382 37.3651 118.342 35.7029C118.303 34.1595 115.453 32.8931 113.712 32.4578C108.805 31.1518 105.203 34.2387 103.541 32.4973C102.829 31.7058 102.868 30.3603 103.264 29.4896Z" fill="#161616"/>
<path d="M35.6719 10.3332C38.1651 12.1932 40.6584 14.0533 43.1516 15.9133C46.7133 15.5571 50.2355 15.2405 53.7973 14.8844C56.0135 12.7473 58.2297 10.5707 60.4459 8.43359C60.6042 9.77915 60.9208 12.8265 61.0395 14.2907C62.4247 27.4692 62.5434 28.6169 61.7123 30.1208C58.9816 34.9885 49.7606 36.9673 44.4576 33.5638C41.8852 31.9016 40.8958 29.4084 39.0358 24.6198C36.78 18.8419 35.9885 13.7763 35.6719 10.3332Z" fill="#161616"/>
<path d="M45.7449 24.0265C45.1512 25.2533 43.8453 26.0053 42.4997 25.7678C42.1435 25.6887 41.9852 26.2823 42.3414 26.3218C43.964 26.5989 45.5866 25.8074 46.2593 24.3035C46.4176 23.9869 45.9427 23.6703 45.7449 24.0265Z" fill="white"/>
<path d="M51.2191 23.6305C52.5251 24.8969 54.2664 25.451 56.0473 25.174C56.4431 25.1344 56.2452 24.5407 55.889 24.6199C54.306 24.8573 52.7626 24.3429 51.6149 23.2348C51.3379 22.9577 50.9421 23.3535 51.2191 23.6305Z" fill="white"/>
<path d="M49.1448 27.3899C49.0261 27.3899 48.9469 27.3504 48.8282 27.3504C48.8678 27.3108 48.8678 27.2316 48.9074 27.1921C48.9865 27.2712 49.1052 27.3504 49.1844 27.4295C49.1844 27.3504 49.1448 27.3108 49.1448 27.2316C49.0261 26.8755 48.472 27.0338 48.5908 27.3899C48.7886 28.2606 49.1052 29.6062 48.0367 30.0415C47.6805 30.1998 47.8388 30.7538 48.195 30.5955C49.6197 30.0019 49.4614 28.4585 49.1844 27.1921C48.9865 27.2316 48.7886 27.3108 48.6303 27.3504C48.6303 27.4295 48.6699 27.4691 48.6699 27.5483C48.7095 27.667 48.8282 27.7857 48.9469 27.7857C49.9759 27.7066 49.1448 26.2818 48.6699 27.1129C48.472 27.3899 48.9469 27.7066 49.1448 27.3899Z" fill="white"/>
<path d="M48.7343 27.6638C48.9322 28.3365 48.9717 29.0885 49.4071 29.6821C49.7632 30.157 50.3173 30.3944 50.9109 30.2757C51.2671 30.1966 51.1088 29.6425 50.7526 29.7217C49.6445 29.9591 49.4862 28.2178 49.2883 27.5055C49.2092 27.1493 48.6551 27.3076 48.7343 27.6638Z" fill="white"/>
<path d="M46.8435 28.2228C45.6958 27.7084 44.5085 27.4709 43.2421 27.5501C42.8464 27.5897 42.8464 28.1833 43.2421 28.1437C44.3898 28.0646 45.4979 28.2624 46.5269 28.7373C46.883 28.8956 47.1996 28.3811 46.8435 28.2228Z" fill="white"/>
<path d="M45.809 29.0156C44.8197 29.0947 43.949 29.4905 43.2762 30.1633C42.9992 30.4403 43.4345 30.836 43.7115 30.5986C44.3052 30.0445 45.0175 29.6883 45.8486 29.6092C46.1652 29.5696 46.1652 28.976 45.809 29.0156Z" fill="white"/>
<path d="M51.4643 27.9462C52.612 27.5109 53.7596 27.3526 54.9865 27.4713C55.3822 27.5109 55.3822 26.9173 54.9865 26.8777C53.7201 26.759 52.4932 26.9568 51.306 27.3922C50.9498 27.5109 51.0685 28.1045 51.4643 27.9462Z" fill="white"/>
<path d="M52.2499 29.0185C53.1206 28.8998 53.9517 28.979 54.7827 29.2956C55.1389 29.4143 55.2972 28.8603 54.941 28.7415C54.0704 28.4249 53.1602 28.3458 52.2499 28.4645C51.8542 28.4645 51.8542 29.0977 52.2499 29.0185Z" fill="white"/>
<path d="M42.9187 22.2843C43.5124 21.9281 44.2247 21.9281 44.8184 22.2843C45.135 22.4822 45.4516 21.9677 45.135 21.7699C44.3435 21.3345 43.4332 21.3345 42.6417 21.7699C42.2856 21.9677 42.6021 22.4822 42.9187 22.2843Z" fill="white"/>
<path d="M51.2259 21.4985C51.8195 21.1819 52.4923 21.1028 53.2046 21.1819C53.5608 21.2215 53.7587 20.6675 53.363 20.6279C52.5319 20.5092 51.7008 20.6279 50.9489 21.0237C50.5531 21.1424 50.8697 21.6568 51.2259 21.4985Z" fill="white"/>
<path d="M41.7773 9.07264C43.0041 8.55816 44.231 8.04369 45.4182 7.48964C45.1808 7.33134 44.9829 7.17304 44.7454 6.97516C44.2705 8.47902 43.5582 9.82456 42.6084 11.091C42.3709 11.4076 42.7667 11.8825 43.1229 11.7637C44.4684 11.2493 45.814 10.7744 47.1595 10.2599C47.674 10.062 47.4761 9.19136 46.9221 9.38924C45.5765 9.90371 44.231 10.3786 42.8854 10.8931C43.0437 11.1305 43.202 11.3284 43.3999 11.5659C44.4288 10.2599 45.1412 8.83518 45.6557 7.25217C45.7744 6.85642 45.3391 6.61897 44.9829 6.7377C43.7561 7.25218 42.5292 7.76665 41.342 8.3207C40.7879 8.55816 41.2628 9.31009 41.7773 9.07264Z" fill="#161616"/>
<path d="M43.7441 1.87025C44.5752 1.39535 45.4063 1.07875 46.3165 0.880871C46.1582 0.64342 45.9999 0.44554 45.802 0.208089C45.4459 0.999592 45.0105 1.79109 44.496 2.50344C44.2982 2.82004 44.5752 3.13665 44.8918 3.17622C45.9603 3.25537 46.9497 2.97836 47.7808 2.34516C48.2161 1.98898 47.7808 1.23704 47.3455 1.59322C46.6331 2.14727 45.8416 2.38472 44.9314 2.30557C45.0501 2.54302 45.1688 2.7409 45.3271 2.97835C45.8416 2.22642 46.2769 1.4745 46.6331 0.682996C46.7914 0.326819 46.5144 -0.0689367 46.1186 0.0102136C45.1293 0.208089 44.1794 0.56427 43.3088 1.07875C42.7943 1.39535 43.2297 2.14728 43.7441 1.87025Z" fill="#161616"/>
<path d="M50.2844 11.4376C48.9785 10.1316 51.2342 9.37966 51.4717 8.23198C51.7091 6.88642 50.1261 5.62004 51.907 4.59108C52.4215 4.31406 51.9466 3.52255 51.4717 3.83915C50.8385 4.19532 50.324 4.74938 50.1657 5.50131C49.9283 6.76771 51.0364 7.51964 50.0866 8.66732C49.6512 9.22137 49.1368 9.37967 48.9785 10.1316C48.8202 10.8835 49.1367 11.5167 49.6512 12.0708C50.0865 12.4665 50.7198 11.8333 50.2844 11.4376Z" fill="#161616"/>
</svg>
