<svg width="570" height="160" viewBox="0 0 570 160" fill="none" xmlns="http://www.w3.org/2000/svg">
<path d="M132.19 142.745C212.448 164.418 342.562 164.418 422.81 142.745C503.059 121.071 503.068 85.9289 422.81 64.2552C342.552 42.5816 212.438 42.5816 132.19 64.2552C51.9415 85.9289 51.9319 121.071 132.19 142.745Z" fill="#FAFAFA"/>
<path d="M302.398 113.049C292.534 118.665 292.534 127.777 302.398 133.397C312.262 139.017 328.246 139.017 338.11 133.397C347.974 127.777 347.969 118.665 338.11 113.049C328.251 107.434 312.257 107.429 302.398 113.049Z" fill="#EBEBEB"/>
<path d="M198.547 32.4962L224.971 24.3867L204.642 38.2844L198.547 32.4962Z" fill="#0071BC"/>
<path d="M224.97 24.3872L196.51 29.0198L190.414 23.2266L224.97 24.3872Z" fill="#0071BC"/>
<path d="M196.508 29.0193V35.9681L198.545 32.4962L224.969 24.3867L196.508 29.0193Z" fill="#455A64"/>
<path d="M196.508 35.968L200.577 34.4272L198.545 32.4961L196.508 35.968Z" fill="#0071BC"/>
<path d="M198.547 32.4961L200.579 34.4272L199.928 34.6692L198.547 32.4961Z" fill="#455A64"/>
<path d="M192.132 34.9197C192.048 34.9212 191.966 34.8948 191.899 34.8447C191.832 34.7946 191.784 34.7237 191.762 34.6433C191.741 34.563 191.748 34.4779 191.781 34.4017C191.815 34.3256 191.873 34.2627 191.947 34.2233C192.398 33.9764 192.853 33.7294 193.303 33.5368C193.348 33.513 193.397 33.4983 193.448 33.4937C193.498 33.4892 193.549 33.4948 193.598 33.5102C193.646 33.5256 193.691 33.5506 193.729 33.5835C193.767 33.6165 193.798 33.6568 193.82 33.7019C193.842 33.7471 193.855 33.7962 193.857 33.8462C193.859 33.8963 193.851 33.9463 193.833 33.9932C193.815 34.0401 193.788 34.0829 193.753 34.1191C193.718 34.1552 193.675 34.184 193.629 34.2036C193.193 34.411 192.748 34.6332 192.313 34.8752C192.257 34.9038 192.195 34.919 192.132 34.9197Z" fill="#E0E0E0"/>
<path d="M187.51 74.8077C187.434 74.8085 187.359 74.7861 187.295 74.7435C186.481 74.1773 185.71 73.5533 184.988 72.8766C184.942 72.8473 184.904 72.8085 184.875 72.7629C184.846 72.7173 184.827 72.666 184.82 72.6126C184.813 72.5592 184.818 72.5049 184.835 72.4536C184.851 72.4023 184.879 72.3552 184.916 72.3155C184.953 72.2758 184.998 72.2446 185.048 72.2239C185.099 72.2032 185.153 72.1937 185.208 72.1958C185.262 72.198 185.315 72.2119 185.364 72.2365C185.412 72.2611 185.455 72.2958 185.489 72.3383C186.185 72.9908 186.929 73.5917 187.716 74.136C187.78 74.1817 187.829 74.2466 187.854 74.3213C187.879 74.396 187.879 74.4765 187.854 74.5513C187.83 74.6261 187.782 74.6913 187.717 74.7373C187.653 74.7834 187.575 74.8081 187.495 74.8077H187.51ZM183.587 71.2123C183.531 71.2129 183.477 71.2012 183.426 71.1781C183.376 71.1551 183.332 71.1212 183.297 71.0789C182.666 70.3194 182.092 69.5155 181.58 68.6737C181.528 68.5892 181.513 68.4879 181.537 68.3921C181.56 68.2962 181.622 68.2136 181.708 68.1626C181.793 68.1115 181.896 68.0961 181.993 68.1197C182.09 68.1433 182.174 68.204 182.226 68.2885C182.719 69.1003 183.271 69.876 183.877 70.6097C183.94 70.6853 183.969 70.7821 183.96 70.8792C183.951 70.9762 183.903 71.0658 183.827 71.1283C183.76 71.1842 183.675 71.2141 183.587 71.2123ZM180.769 66.718C180.697 66.7187 180.625 66.6985 180.564 66.6599C180.503 66.6213 180.454 66.566 180.424 66.5007C180.015 65.6066 179.664 64.6878 179.373 63.7498C179.352 63.6585 179.366 63.5627 179.413 63.4815C179.461 63.4004 179.538 63.3399 179.628 63.3124C179.719 63.2849 179.817 63.2922 179.902 63.3331C179.988 63.3739 180.054 63.4451 180.089 63.5325C180.365 64.4397 180.7 65.3288 181.09 66.1945C181.111 66.2388 181.122 66.2869 181.124 66.3358C181.126 66.3848 181.119 66.4336 181.101 66.4795C181.084 66.5255 181.058 66.5676 181.024 66.6034C180.99 66.6393 180.95 66.6681 180.904 66.6883C180.862 66.707 180.816 66.7171 180.769 66.718ZM179.143 61.6755C179.056 61.6747 178.972 61.6443 178.906 61.5893C178.839 61.5344 178.794 61.4584 178.777 61.3742C178.586 60.4146 178.451 59.445 178.372 58.4702C178.364 58.372 178.396 58.2746 178.461 58.1996C178.526 58.1246 178.618 58.078 178.717 58.0702C178.817 58.0623 178.916 58.0938 178.992 58.1577C179.068 58.2216 179.115 58.3127 179.123 58.411C179.196 59.3577 179.327 60.2994 179.513 61.231C179.523 61.2787 179.524 61.328 179.514 61.3758C179.505 61.4237 179.486 61.4692 179.458 61.5097C179.431 61.5502 179.395 61.5849 179.354 61.6116C179.313 61.6384 179.266 61.6568 179.218 61.6656L179.143 61.6755ZM178.667 56.4009C178.618 56.4009 178.569 56.3911 178.523 56.3721C178.478 56.3532 178.436 56.3254 178.402 56.2904C178.367 56.2554 178.34 56.2139 178.322 56.1684C178.304 56.1229 178.296 56.0743 178.297 56.0255C178.309 55.048 178.376 54.0719 178.497 53.1018C178.498 53.0497 178.509 52.9983 178.532 52.951C178.554 52.9037 178.585 52.8615 178.625 52.8272C178.665 52.7929 178.711 52.7672 178.762 52.7518C178.812 52.7365 178.865 52.7318 178.918 52.7381C178.97 52.7444 179.021 52.7615 179.066 52.7883C179.111 52.8152 179.15 52.8511 179.18 52.8938C179.211 52.9365 179.231 52.985 179.241 53.0362C179.251 53.0873 179.25 53.14 179.238 53.1907C179.122 54.1348 179.059 55.0845 179.048 56.0354C179.047 56.084 179.037 56.1321 179.017 56.1768C178.998 56.2215 178.97 56.2619 178.934 56.2959C178.899 56.3298 178.857 56.3566 178.811 56.3746C178.766 56.3926 178.717 56.4015 178.667 56.4009ZM179.278 51.1411C179.25 51.1459 179.221 51.1459 179.193 51.1411C179.096 51.1198 179.012 51.0617 178.958 50.9793C178.905 50.897 178.887 50.7971 178.908 50.7015C179.127 49.7448 179.408 48.8029 179.748 47.8815C179.765 47.8334 179.791 47.7892 179.826 47.7516C179.861 47.714 179.903 47.6839 179.95 47.6631C179.997 47.6422 180.047 47.6311 180.099 47.6305C180.15 47.6298 180.201 47.6396 180.249 47.6592C180.297 47.6762 180.341 47.7026 180.379 47.7369C180.417 47.7712 180.447 47.8127 180.468 47.8588C180.489 47.9049 180.5 47.9548 180.501 48.0054C180.502 48.0559 180.493 48.1062 180.474 48.1531C180.146 49.044 179.875 49.9546 179.663 50.8793C179.639 50.9596 179.587 51.0291 179.517 51.0767C179.447 51.1242 179.363 51.1469 179.278 51.1411ZM181.06 46.1529C181.002 46.1552 180.945 46.1415 180.894 46.1134C180.85 46.0928 180.809 46.0636 180.776 46.0274C180.743 45.9913 180.718 45.9489 180.701 45.9029C180.685 45.8569 180.678 45.8081 180.681 45.7594C180.684 45.7108 180.697 45.6632 180.719 45.6195C181.156 44.7394 181.647 43.8866 182.191 43.0662C182.245 42.9897 182.327 42.9364 182.42 42.9172C182.513 42.898 182.61 42.9141 182.691 42.9625C182.77 43.0149 182.826 43.0956 182.847 43.1876C182.867 43.2796 182.851 43.3759 182.801 43.4563C182.273 44.2488 181.797 45.0736 181.375 45.9257C181.349 45.9888 181.306 46.0435 181.25 46.0836C181.194 46.1238 181.128 46.1478 181.06 46.1529ZM183.937 41.708C183.853 41.7089 183.772 41.6809 183.707 41.629C183.668 41.5987 183.635 41.561 183.611 41.5182C183.587 41.4754 183.572 41.4283 183.566 41.3796C183.561 41.3309 183.565 41.2816 183.579 41.2346C183.593 41.1875 183.616 41.1436 183.647 41.1055C184.272 40.343 184.941 39.6159 185.649 38.9275C185.719 38.8581 185.814 38.8192 185.914 38.8192C186.013 38.8192 186.109 38.8581 186.179 38.9275C186.249 38.9969 186.289 39.0911 186.289 39.1892C186.289 39.2874 186.249 39.3815 186.179 39.451C185.497 40.1225 184.852 40.8297 184.247 41.5697C184.209 41.612 184.16 41.6447 184.107 41.6653C184.053 41.6859 183.995 41.6938 183.937 41.6883V41.708ZM187.701 37.915C187.646 37.9149 187.592 37.9029 187.543 37.8799C187.493 37.8568 187.45 37.8233 187.415 37.7817C187.352 37.706 187.321 37.6087 187.33 37.5109C187.338 37.413 187.385 37.3223 187.46 37.2582C188.222 36.633 189.016 36.0461 189.837 35.5C189.918 35.4511 190.015 35.4342 190.107 35.4525C190.2 35.4708 190.283 35.5231 190.338 35.5987C190.394 35.6808 190.415 35.7812 190.396 35.8783C190.377 35.9754 190.32 36.0613 190.238 36.1173C189.436 36.6487 188.663 37.2207 187.921 37.8311C187.858 37.8808 187.781 37.9101 187.701 37.915Z" fill="#E0E0E0"/>
<path d="M190.954 76.7364C190.9 76.7368 190.847 76.725 190.799 76.7019C190.333 76.4944 189.873 76.2722 189.432 76.0351C189.389 76.0128 189.351 75.9822 189.32 75.9453C189.289 75.9084 189.265 75.8658 189.251 75.8199C189.237 75.774 189.231 75.7258 189.236 75.678C189.24 75.6302 189.254 75.5837 189.277 75.5412C189.324 75.4564 189.402 75.3929 189.496 75.3643C189.589 75.3357 189.69 75.3442 189.778 75.3881C190.208 75.6153 190.653 75.8326 191.104 76.0351C191.181 76.0706 191.244 76.1309 191.282 76.2062C191.32 76.2815 191.33 76.3673 191.312 76.4495C191.294 76.5316 191.248 76.6053 191.182 76.6583C191.116 76.7114 191.034 76.7407 190.949 76.7414L190.954 76.7364Z" fill="#E0E0E0"/>
<path d="M362.133 58.8156L383.302 45.4414L392.626 48.3948L362.133 58.8156Z" fill="#0071BC"/>
<path d="M362.133 58.8149L380.429 43.7615L376.361 39.1289L362.133 58.8149Z" fill="#0071BC"/>
<path d="M380.429 43.7617V47.2534L362.133 58.8151L380.429 43.7617Z" fill="#455A64"/>
<path d="M384.556 42.3039C384.465 42.3042 384.378 42.2707 384.311 42.21C384.237 42.1446 384.192 42.0532 384.185 41.9553C384.179 41.8575 384.211 41.761 384.276 41.6865C384.928 40.9691 385.506 40.19 386.002 39.3604C386.053 39.2752 386.135 39.2133 386.232 39.1883C386.329 39.1633 386.432 39.1772 386.518 39.227C386.604 39.2768 386.667 39.3583 386.692 39.4537C386.717 39.5491 386.703 39.6506 386.653 39.7357C386.129 40.6054 385.522 41.4239 384.841 42.1804C384.806 42.2199 384.762 42.2514 384.712 42.2727C384.663 42.294 384.61 42.3046 384.556 42.3039ZM387.419 37.7009C387.374 37.708 387.328 37.708 387.284 37.7009C387.236 37.6831 387.193 37.6559 387.156 37.6211C387.12 37.5863 387.091 37.5445 387.071 37.4984C387.052 37.4522 387.042 37.4026 387.042 37.3525C387.042 37.3024 387.053 37.253 387.073 37.2071C387.427 36.3075 387.692 35.3763 387.864 34.4265C387.882 34.3296 387.938 34.2437 388.02 34.1876C388.102 34.1316 388.204 34.1101 388.302 34.1277C388.4 34.1454 388.487 34.2009 388.544 34.2819C388.601 34.363 388.623 34.463 388.605 34.5599C388.42 35.5551 388.141 36.5308 387.769 37.4738C387.741 37.5421 387.692 37.6004 387.63 37.641C387.567 37.6815 387.493 37.7024 387.419 37.7009ZM388.49 32.4016C388.441 32.401 388.392 32.3907 388.347 32.3715C388.302 32.3522 388.261 32.3243 388.227 32.2894C388.193 32.2544 388.167 32.2132 388.149 32.168C388.131 32.1229 388.123 32.0747 388.124 32.0263C388.124 31.8979 388.124 31.7695 388.124 31.6411C388.122 30.8026 388.055 29.9655 387.924 29.1371C387.91 29.0396 387.935 28.9405 387.994 28.861C388.053 28.7816 388.141 28.7282 388.239 28.7124C388.338 28.6994 388.438 28.7246 388.518 28.7825C388.598 28.8405 388.653 28.9269 388.67 29.0235C388.805 29.8897 388.874 30.7647 388.875 31.6411C388.875 31.7744 388.875 31.9078 388.875 32.0411C388.871 32.1389 388.829 32.2314 388.757 32.2987C388.685 32.3661 388.589 32.403 388.49 32.4016ZM387.734 27.048C387.653 27.0477 387.575 27.0216 387.511 26.9734C387.447 26.9253 387.4 26.8579 387.379 26.7813C387.092 25.8546 386.732 24.9514 386.303 24.0798C386.281 24.0361 386.268 23.9886 386.265 23.9399C386.262 23.8912 386.268 23.8424 386.285 23.7964C386.301 23.7504 386.327 23.7081 386.36 23.6719C386.393 23.6358 386.433 23.6065 386.478 23.5859C386.567 23.5435 386.67 23.5378 386.764 23.5702C386.858 23.6026 386.935 23.6704 386.978 23.7588C387.426 24.6645 387.799 25.6042 388.094 26.5689C388.109 26.6153 388.114 26.6641 388.109 26.7124C388.105 26.7607 388.09 26.8076 388.067 26.8504C388.043 26.8931 388.012 26.9309 387.974 26.9614C387.935 26.992 387.891 27.0147 387.844 27.0282C387.809 27.0419 387.772 27.0487 387.734 27.048ZM385.412 22.1438C385.349 22.1444 385.286 22.1287 385.231 22.0984C385.176 22.0681 385.129 22.0242 385.097 21.9709C384.56 21.1582 383.97 20.3811 383.33 19.6448C383.298 19.6079 383.273 19.565 383.258 19.5187C383.242 19.4723 383.236 19.4235 383.24 19.3748C383.243 19.3262 383.257 19.2787 383.279 19.2352C383.302 19.1917 383.332 19.153 383.37 19.1213C383.407 19.0895 383.45 19.0654 383.497 19.0501C383.543 19.0349 383.592 19.029 383.641 19.0327C383.69 19.0363 383.738 19.0496 383.781 19.0716C383.825 19.0935 383.864 19.1239 383.895 19.1608C384.56 19.9229 385.172 20.7281 385.727 21.5709C385.773 21.6522 385.788 21.7475 385.767 21.8385C385.747 21.9296 385.694 22.0101 385.617 22.0648C385.557 22.1082 385.486 22.1339 385.412 22.1389V22.1438ZM381.909 17.9903C381.813 17.99 381.721 17.9527 381.653 17.8866C380.933 17.221 380.176 16.5945 379.386 16.0098C379.347 15.9807 379.314 15.9441 379.289 15.9022C379.263 15.8604 379.247 15.814 379.24 15.7659C379.233 15.7177 379.236 15.6687 379.248 15.6216C379.26 15.5745 379.282 15.5302 379.311 15.4913C379.341 15.4524 379.378 15.4196 379.42 15.3948C379.463 15.37 379.51 15.3537 379.559 15.3468C379.607 15.3399 379.657 15.3426 379.705 15.3547C379.752 15.3668 379.797 15.388 379.837 15.4172C380.65 16.0172 381.429 16.6619 382.169 17.3482C382.225 17.3992 382.263 17.4655 382.28 17.5386C382.297 17.6116 382.29 17.688 382.262 17.7575C382.234 17.827 382.185 17.8865 382.122 17.928C382.059 17.9696 381.985 17.9913 381.909 17.9903ZM377.52 14.7011C377.449 14.7004 377.379 14.6799 377.319 14.6418C376.979 14.4344 376.624 14.2269 376.264 14.0244C375.763 13.7479 375.263 13.4713 374.732 13.2096C374.684 13.1904 374.64 13.1615 374.603 13.1246C374.567 13.0878 374.539 13.0439 374.52 12.9957C374.502 12.9475 374.494 12.896 374.497 12.8446C374.5 12.7932 374.514 12.743 374.538 12.6971C374.561 12.6513 374.595 12.6108 374.635 12.5783C374.676 12.5459 374.722 12.5221 374.773 12.5085C374.823 12.4949 374.876 12.4918 374.927 12.4994C374.979 12.507 375.028 12.5252 375.072 12.5527C375.598 12.8194 376.123 13.096 376.634 13.3824C377.004 13.5849 377.365 13.7973 377.715 14.0146C377.796 14.0655 377.854 14.1451 377.877 14.2369C377.9 14.3288 377.887 14.4259 377.84 14.5084C377.808 14.5648 377.761 14.6121 377.705 14.6458C377.649 14.6795 377.585 14.6985 377.52 14.7011ZM332.654 14.4492C332.588 14.4485 332.523 14.4308 332.466 14.3979C332.409 14.365 332.362 14.318 332.329 14.2615C332.281 14.1781 332.269 14.0797 332.294 13.9874C332.319 13.895 332.38 13.8161 332.464 13.7676C333.335 13.2738 334.23 12.7799 335.136 12.365C335.225 12.3222 335.328 12.3158 335.421 12.3473C335.515 12.3787 335.593 12.4455 335.637 12.5329C335.678 12.6216 335.683 12.7227 335.651 12.815C335.618 12.9072 335.55 12.9832 335.461 13.0268C334.571 13.4565 333.69 13.9158 332.834 14.4047C332.778 14.4316 332.716 14.4436 332.654 14.4393V14.4492ZM372.64 12.1922C372.588 12.1925 372.537 12.1806 372.49 12.1576C371.589 11.7674 370.658 11.402 369.728 11.076C369.633 11.0426 369.556 10.9736 369.514 10.8842C369.471 10.7949 369.466 10.6924 369.5 10.5994C369.534 10.5064 369.604 10.4305 369.694 10.3883C369.785 10.3462 369.889 10.3413 369.983 10.3747C370.929 10.7105 371.875 11.0809 372.795 11.481C372.876 11.5147 372.942 11.5749 372.982 11.6513C373.022 11.7278 373.034 11.8156 373.015 11.8998C372.997 11.984 372.95 12.0592 372.881 12.1125C372.813 12.1659 372.727 12.1941 372.64 12.1922ZM337.583 12.0391C337.509 12.0396 337.437 12.0182 337.375 11.9777C337.314 11.9372 337.266 11.8794 337.238 11.8119C337.218 11.7666 337.206 11.7177 337.205 11.6681C337.204 11.6185 337.214 11.5692 337.232 11.5231C337.251 11.4771 337.279 11.4352 337.314 11.3999C337.35 11.3647 337.392 11.3368 337.438 11.318C338.364 10.9328 339.315 10.5772 340.266 10.2562C340.314 10.2366 340.365 10.227 340.417 10.228C340.468 10.229 340.519 10.2405 340.566 10.2619C340.613 10.2832 340.655 10.3139 340.69 10.352C340.724 10.3901 340.75 10.4348 340.766 10.4833C340.785 10.531 340.793 10.5817 340.791 10.6325C340.789 10.6834 340.776 10.7333 340.755 10.7794C340.733 10.8254 340.702 10.8667 340.663 10.9007C340.625 10.9346 340.58 10.9607 340.531 10.9772C339.595 11.2933 338.654 11.644 337.749 12.0193C337.695 12.0341 337.639 12.0374 337.583 12.0292V12.0391ZM367.476 10.3302C367.441 10.335 367.405 10.335 367.37 10.3302C366.425 10.0586 365.454 9.83637 364.488 9.60425C364.44 9.59387 364.394 9.5742 364.353 9.54637C364.313 9.51854 364.278 9.48309 364.251 9.44205C364.224 9.401 364.206 9.35517 364.197 9.30716C364.189 9.25914 364.19 9.2099 364.2 9.16223C364.211 9.11456 364.231 9.0694 364.259 9.02933C364.287 8.98926 364.323 8.95506 364.364 8.92869C364.406 8.90232 364.452 8.88429 364.501 8.87564C364.55 8.86698 364.6 8.86787 364.648 8.87825C365.649 9.09061 366.62 9.34249 367.581 9.61906C367.667 9.64403 367.742 9.69903 367.791 9.77397C367.84 9.84892 367.86 9.93877 367.847 10.027C367.834 10.1153 367.79 10.1961 367.721 10.2545C367.653 10.3129 367.566 10.3451 367.476 10.3451V10.3302ZM342.778 10.2562C342.696 10.2559 342.617 10.2292 342.552 10.1801C342.487 10.1311 342.44 10.0624 342.418 9.98453C342.404 9.93816 342.4 9.88956 342.405 9.84155C342.411 9.79353 342.426 9.74706 342.449 9.7048C342.473 9.66255 342.505 9.62536 342.543 9.59538C342.582 9.56541 342.626 9.54324 342.673 9.53016C343.639 9.26347 344.63 9.03628 345.616 8.81898C345.666 8.80324 345.718 8.79801 345.771 8.80363C345.823 8.80924 345.873 8.82558 345.918 8.85158C345.964 8.87757 346.003 8.91266 346.034 8.95457C346.065 8.99649 346.086 9.0443 346.097 9.09492C346.108 9.14554 346.108 9.19786 346.097 9.24849C346.086 9.29912 346.065 9.34695 346.034 9.38889C346.003 9.43082 345.964 9.46594 345.919 9.49198C345.873 9.51801 345.823 9.53439 345.771 9.54004C344.8 9.74253 343.829 9.97959 342.878 10.2413L342.778 10.2562ZM362.111 9.14H362.036C361.06 8.9869 360.064 8.86343 359.083 8.77453C359.031 8.77397 358.98 8.76288 358.933 8.74196C358.886 8.72103 358.844 8.69072 358.809 8.65292C358.774 8.61513 358.748 8.57066 358.731 8.52231C358.715 8.47396 358.709 8.42277 358.713 8.37195C358.718 8.32113 358.733 8.27177 358.757 8.22697C358.782 8.18217 358.816 8.14289 358.857 8.1116C358.898 8.08031 358.945 8.05768 358.995 8.04512C359.045 8.03257 359.097 8.03037 359.148 8.03866C360.149 8.12755 361.15 8.25102 362.151 8.40906C362.248 8.42602 362.335 8.47989 362.393 8.55922C362.451 8.63855 362.476 8.73706 362.461 8.8338C362.443 8.91372 362.399 8.98565 362.336 9.03836C362.273 9.09107 362.193 9.1216 362.111 9.12518V9.14ZM348.153 9.10543C348.064 9.10539 347.978 9.07407 347.91 9.01706C347.842 8.96006 347.797 8.88109 347.783 8.79429C347.768 8.69683 347.793 8.59767 347.852 8.51821C347.911 8.43876 347.999 8.38537 348.098 8.36955C349.099 8.22139 350.1 8.09792 351.101 8.01396C351.15 8.00974 351.2 8.01515 351.247 8.02987C351.294 8.04459 351.338 8.06833 351.376 8.09975C351.414 8.13116 351.445 8.16964 351.468 8.21296C351.49 8.25629 351.504 8.30362 351.509 8.35226C351.513 8.40091 351.507 8.4499 351.492 8.49646C351.478 8.54301 351.453 8.58621 351.422 8.62359C351.39 8.66096 351.351 8.69179 351.307 8.7143C351.263 8.73681 351.215 8.75056 351.166 8.75478C350.165 8.83874 349.189 8.95233 348.213 9.10543H348.153ZM356.636 8.61155C355.635 8.57698 354.634 8.57204 353.658 8.61155C353.609 8.61422 353.56 8.60703 353.513 8.59042C353.467 8.57381 353.424 8.54813 353.388 8.51491C353.352 8.48168 353.324 8.44162 353.304 8.39711C353.284 8.35261 353.273 8.3046 353.273 8.25596C353.271 8.20715 353.279 8.15843 353.296 8.11269C353.313 8.06695 353.34 8.02512 353.374 7.98967C353.408 7.95421 353.449 7.92586 353.494 7.90628C353.54 7.8867 353.588 7.87629 353.638 7.87567C354.639 7.8411 355.64 7.84604 356.641 7.87567C356.69 7.87695 356.739 7.88781 356.784 7.90762C356.829 7.92742 356.869 7.95579 356.903 7.99111C356.937 8.02643 356.964 8.06799 356.981 8.11344C356.999 8.15888 357.007 8.20731 357.006 8.25596C356.999 8.3486 356.957 8.43524 356.888 8.49911C356.82 8.56297 356.73 8.59952 356.636 8.60168V8.61155Z" fill="#E0E0E0"/>
<path d="M65.25 33.6446L91.674 25.5352L71.3455 39.4329L65.25 33.6446Z" fill="#0071BC"/>
<path d="M91.6736 25.5356L63.2127 30.1682L57.1172 24.375L91.6736 25.5356Z" fill="#0071BC"/>
<path d="M63.2109 30.1677V37.1166L65.2478 33.6446L91.6718 25.5352L63.2109 30.1677Z" fill="#455A64"/>
<path d="M63.2109 37.1165L67.2796 35.5756L65.2478 33.6445L63.2109 37.1165Z" fill="#0071BC"/>
<path d="M65.25 33.6445L67.2818 35.5756L66.6313 35.8176L65.25 33.6445Z" fill="#455A64"/>
<path d="M58.8355 36.0681C58.7513 36.0697 58.6691 36.0433 58.602 35.9932C58.5349 35.943 58.4868 35.8721 58.4654 35.7918C58.4441 35.7115 58.4507 35.6264 58.4842 35.5502C58.5177 35.474 58.5762 35.4112 58.6503 35.3717C59.1007 35.1248 59.5561 34.8779 60.0065 34.6852C60.0512 34.6614 60.1003 34.6467 60.1509 34.6422C60.2014 34.6376 60.2524 34.6432 60.3007 34.6586C60.3491 34.6741 60.3937 34.699 60.4319 34.732C60.4702 34.7649 60.5013 34.8052 60.5233 34.8503C60.5453 34.8955 60.5579 34.9446 60.5601 34.9947C60.5623 35.0447 60.5543 35.0947 60.5364 35.1416C60.5185 35.1885 60.4911 35.2313 60.456 35.2675C60.4208 35.3037 60.3786 35.3324 60.3318 35.352C59.8964 35.5594 59.451 35.7817 59.0156 36.0237C58.9599 36.0522 58.8982 36.0674 58.8355 36.0681Z" fill="#E0E0E0"/>
<path d="M54.2135 75.9561C54.1368 75.9569 54.0617 75.9345 53.9983 75.8919C53.1844 75.3257 52.4133 74.7018 51.6912 74.0251C51.6454 73.9957 51.6067 73.9569 51.5777 73.9113C51.5487 73.8657 51.5301 73.8145 51.5232 73.761C51.5163 73.7076 51.5213 73.6534 51.5379 73.6021C51.5544 73.5508 51.5821 73.5036 51.619 73.464C51.6559 73.4243 51.7011 73.393 51.7514 73.3723C51.8018 73.3517 51.8562 73.3421 51.9107 73.3443C51.9652 73.3464 52.0186 73.3603 52.0671 73.3849C52.1156 73.4095 52.1581 73.4443 52.1917 73.4867C52.8882 74.1392 53.6325 74.7401 54.4187 75.2845C54.4835 75.3302 54.5318 75.3951 54.5568 75.4697C54.5817 75.5444 54.582 75.6249 54.5574 75.6997C54.5329 75.7745 54.4849 75.8397 54.4204 75.8858C54.3559 75.9319 54.2781 75.9565 54.1985 75.9561H54.2135ZM50.2899 72.3607C50.2345 72.3613 50.1797 72.3497 50.1294 72.3266C50.0792 72.3035 50.0349 72.2696 49.9997 72.2273C49.3691 71.4678 48.7954 70.664 48.2831 69.8222C48.2314 69.7377 48.2157 69.6364 48.2396 69.5405C48.2636 69.4446 48.3251 69.3621 48.4107 69.311C48.4963 69.2599 48.599 69.2445 48.6961 69.2681C48.7933 69.2917 48.8769 69.3525 48.9287 69.4369C49.4221 70.2487 49.9741 71.0245 50.5802 71.7582C50.6427 71.8337 50.6725 71.9305 50.6632 72.0276C50.6538 72.1247 50.606 72.2142 50.5302 72.2767C50.4631 72.3327 50.3777 72.3625 50.2899 72.3607ZM47.4724 67.8664C47.3997 67.8671 47.3283 67.8469 47.267 67.8083C47.2057 67.7698 47.1571 67.7144 47.1271 67.6491C46.7181 66.755 46.3671 65.8362 46.0761 64.8982C46.0548 64.807 46.0692 64.7111 46.1166 64.63C46.164 64.5488 46.2407 64.4884 46.3314 64.4608C46.4222 64.4333 46.5201 64.4407 46.6055 64.4815C46.6909 64.5223 46.7574 64.5936 46.7918 64.6809C47.0684 65.5881 47.4027 66.4772 47.7927 67.3429C47.8136 67.3873 47.8255 67.4353 47.8275 67.4843C47.8296 67.5332 47.8217 67.582 47.8045 67.628C47.7873 67.6739 47.761 67.716 47.7272 67.7518C47.6934 67.7877 47.6527 67.8166 47.6075 67.8368C47.5649 67.8554 47.519 67.8655 47.4724 67.8664ZM45.8459 62.8239C45.7591 62.8231 45.6753 62.7927 45.6086 62.7378C45.542 62.6828 45.4968 62.6068 45.4806 62.5227C45.2895 61.5631 45.1542 60.5935 45.0752 59.6187C45.0672 59.5204 45.0991 59.4231 45.1639 59.3481C45.2287 59.273 45.321 59.2265 45.4205 59.2186C45.5201 59.2108 45.6187 59.2422 45.6947 59.3062C45.7707 59.3701 45.8179 59.4612 45.8259 59.5594C45.8995 60.5062 46.0298 61.4478 46.2162 62.3794C46.2264 62.4272 46.2268 62.4764 46.2174 62.5243C46.208 62.5721 46.1889 62.6177 46.1614 62.6582C46.1339 62.6987 46.0985 62.7333 46.0572 62.7601C46.0159 62.7869 45.9696 62.8052 45.921 62.814L45.8459 62.8239ZM45.3705 57.5493C45.321 57.5493 45.272 57.5396 45.2264 57.5206C45.1808 57.5016 45.1395 57.4738 45.105 57.4388C45.0705 57.4038 45.0434 57.3623 45.0254 57.3169C45.0074 57.2714 44.9988 57.2228 45.0001 57.174C45.0118 56.1965 45.0787 55.2204 45.2003 54.2502C45.2009 54.1981 45.2126 54.1468 45.2346 54.0994C45.2567 54.0521 45.2886 54.0099 45.3283 53.9756C45.368 53.9413 45.4146 53.9156 45.465 53.9003C45.5154 53.8849 45.5686 53.8802 45.621 53.8865C45.6733 53.8928 45.7238 53.9099 45.769 53.9368C45.8143 53.9636 45.8532 53.9995 45.8834 54.0423C45.9136 54.085 45.9344 54.1335 45.9443 54.1846C45.9542 54.2358 45.9531 54.2884 45.941 54.3391C45.8253 55.2832 45.7618 56.2329 45.7508 57.1838C45.7502 57.2325 45.7398 57.2805 45.7203 57.3252C45.7009 57.3699 45.6727 57.4104 45.6374 57.4443C45.602 57.4783 45.5603 57.505 45.5145 57.523C45.4687 57.541 45.4198 57.55 45.3705 57.5493ZM45.981 52.2895C45.9529 52.2943 45.9241 52.2943 45.8959 52.2895C45.7992 52.2682 45.715 52.2101 45.6615 52.1277C45.6081 52.0454 45.5898 51.9456 45.6107 51.85C45.83 50.8933 46.1108 49.9514 46.4515 49.0299C46.468 48.9818 46.4945 48.9376 46.5291 48.9001C46.5637 48.8625 46.6058 48.8323 46.6527 48.8115C46.6997 48.7906 46.7505 48.7796 46.8019 48.7789C46.8534 48.7782 46.9044 48.788 46.9519 48.8077C47.0002 48.8246 47.0445 48.8511 47.0822 48.8854C47.1199 48.9197 47.1501 48.9611 47.1712 49.0073C47.1922 49.0534 47.2036 49.1032 47.2046 49.1538C47.2056 49.2044 47.1963 49.2546 47.1771 49.3016C46.8487 50.1925 46.578 51.103 46.3664 52.0278C46.3417 52.108 46.2901 52.1776 46.2201 52.2251C46.1501 52.2727 46.0658 52.2954 45.981 52.2895ZM47.7626 47.3013C47.7049 47.3036 47.6477 47.2899 47.5975 47.2618C47.5527 47.2412 47.5126 47.212 47.4794 47.1758C47.4462 47.1397 47.4208 47.0974 47.4044 47.0513C47.3881 47.0053 47.3813 46.9565 47.3844 46.9079C47.3874 46.8592 47.4003 46.8116 47.4223 46.768C47.8591 45.8878 48.3505 45.0351 48.8937 44.2146C48.9484 44.1381 49.0304 44.0849 49.1232 44.0656C49.2161 44.0464 49.3129 44.0626 49.3941 44.1109C49.4735 44.1633 49.5292 44.244 49.5497 44.336C49.5702 44.428 49.5539 44.5243 49.5042 44.6048C48.9763 45.3973 48.4999 46.2221 48.0779 47.0742C48.052 47.1373 48.0088 47.1919 47.9531 47.2321C47.8974 47.2722 47.8314 47.2962 47.7626 47.3013ZM50.6403 42.8564C50.5565 42.8573 50.4752 42.8294 50.41 42.7774C50.371 42.7471 50.3385 42.7095 50.3143 42.6667C50.2902 42.6239 50.2748 42.5767 50.2693 42.5281C50.2637 42.4794 50.2679 42.4301 50.2818 42.383C50.2956 42.3359 50.3188 42.2921 50.35 42.2539C50.9754 41.4915 51.6437 40.7643 52.3518 40.0759C52.4222 40.0066 52.5176 39.9676 52.617 39.9676C52.7165 39.9676 52.8119 40.0066 52.8823 40.0759C52.9526 40.1454 52.9921 40.2395 52.9921 40.3377C52.9921 40.4358 52.9526 40.53 52.8823 40.5994C52.2003 41.2709 51.5554 41.9782 50.9505 42.7182C50.9118 42.7604 50.8635 42.7932 50.8096 42.8138C50.7558 42.8343 50.6978 42.8422 50.6403 42.8367V42.8564ZM54.4037 39.0635C54.3491 39.0634 54.2952 39.0513 54.2459 39.0283C54.1966 39.0052 54.1531 38.9717 54.1184 38.9301C54.055 38.8544 54.0242 38.7572 54.0326 38.6593C54.0411 38.5614 54.088 38.4707 54.1635 38.4066C54.9253 37.7814 55.7187 37.1946 56.5406 36.6484C56.6213 36.5996 56.7177 36.5826 56.8105 36.6009C56.9033 36.6193 56.9856 36.6715 57.0411 36.7472C57.0969 36.8292 57.1177 36.9297 57.099 37.0268C57.0803 37.1239 57.0235 37.2097 56.941 37.2658C56.1391 37.7971 55.3657 38.3691 54.6239 38.9795C54.561 39.0293 54.4841 39.0586 54.4037 39.0635Z" fill="#E0E0E0"/>
<path d="M57.6568 77.8849C57.6031 77.8852 57.55 77.8734 57.5016 77.8503C57.0362 77.6429 56.5758 77.4206 56.1354 77.1836C56.0923 77.1612 56.0542 77.1307 56.023 77.0938C55.9919 77.0568 55.9685 77.0142 55.9541 76.9684C55.9397 76.9225 55.9346 76.8743 55.9391 76.8264C55.9436 76.7786 55.9576 76.7322 55.9802 76.6897C56.027 76.6048 56.1054 76.5413 56.1989 76.5127C56.2924 76.4841 56.3935 76.4927 56.4807 76.5366C56.9111 76.7638 57.3565 76.9811 57.8069 77.1836C57.8841 77.219 57.9469 77.2794 57.9848 77.3547C58.0227 77.4299 58.0335 77.5157 58.0154 77.5979C57.9974 77.6801 57.9515 77.7537 57.8854 77.8068C57.8194 77.8598 57.7369 77.8891 57.6518 77.8898L57.6568 77.8849Z" fill="#E0E0E0"/>
<path d="M228.836 59.9641L250.005 46.5898L259.329 49.5432L228.836 59.9641Z" fill="#0071BC"/>
<path d="M228.836 59.9633L247.133 44.9099L243.064 40.2773L228.836 59.9633Z" fill="#0071BC"/>
<path d="M247.133 44.9102V48.4019L228.836 59.9636L247.133 44.9102Z" fill="#455A64"/>
<path d="M251.259 43.4523C251.168 43.4526 251.081 43.4191 251.014 43.3585C250.94 43.293 250.895 43.2016 250.888 43.1038C250.882 43.0059 250.914 42.9095 250.979 42.835C251.631 42.1176 252.209 41.3384 252.706 40.5088C252.756 40.4237 252.839 40.3618 252.935 40.3368C253.032 40.3118 253.135 40.3257 253.221 40.3755C253.307 40.4252 253.37 40.5068 253.395 40.6022C253.421 40.6976 253.407 40.799 253.356 40.8842C252.832 41.7538 252.225 42.5724 251.544 43.3288C251.509 43.3684 251.465 43.3999 251.415 43.4212C251.366 43.4425 251.313 43.4531 251.259 43.4523ZM254.122 38.8494C254.077 38.8564 254.031 38.8564 253.987 38.8494C253.939 38.8315 253.896 38.8043 253.86 38.7695C253.823 38.7347 253.794 38.693 253.775 38.6468C253.755 38.6006 253.745 38.551 253.745 38.501C253.746 38.4509 253.756 38.4014 253.776 38.3555C254.13 37.4559 254.395 36.5248 254.567 35.575C254.585 35.478 254.641 35.3921 254.723 35.3361C254.806 35.28 254.907 35.2585 255.005 35.2762C255.103 35.2939 255.19 35.3493 255.247 35.4304C255.304 35.5114 255.326 35.6114 255.308 35.7083C255.123 36.7036 254.844 37.6792 254.472 38.6222C254.444 38.6906 254.395 38.7489 254.333 38.7894C254.27 38.83 254.197 38.8509 254.122 38.8494ZM255.193 33.5501C255.144 33.5494 255.095 33.5392 255.05 33.5199C255.005 33.5006 254.965 33.4727 254.931 33.4378C254.897 33.4029 254.87 33.3616 254.852 33.3165C254.835 33.2713 254.826 33.2231 254.827 33.1747C254.827 33.0463 254.827 32.9179 254.827 32.7895C254.825 31.951 254.758 31.114 254.627 30.2855C254.613 30.1881 254.638 30.0889 254.697 30.0095C254.756 29.93 254.844 29.8766 254.943 29.8608C255.041 29.8479 255.141 29.873 255.221 29.931C255.301 29.989 255.356 30.0753 255.373 30.1719C255.508 31.0381 255.577 31.9131 255.578 32.7895C255.578 32.9228 255.578 33.0562 255.578 33.1895C255.574 33.2874 255.532 33.3798 255.46 33.4471C255.388 33.5145 255.292 33.5514 255.193 33.5501ZM254.437 28.1964C254.357 28.1962 254.278 28.17 254.214 28.1219C254.15 28.0737 254.104 28.0063 254.082 27.9297C253.795 27.0031 253.435 26.0998 253.006 25.2282C252.984 25.1846 252.971 25.137 252.968 25.0883C252.965 25.0397 252.972 24.9909 252.988 24.9449C253.004 24.8988 253.03 24.8565 253.063 24.8204C253.096 24.7842 253.136 24.755 253.181 24.7344C253.271 24.6919 253.374 24.6863 253.467 24.7187C253.561 24.7511 253.638 24.8189 253.681 24.9072C254.129 25.8129 254.502 26.7527 254.797 27.7174C254.812 27.7637 254.817 27.8125 254.812 27.8608C254.808 27.9092 254.793 27.9561 254.77 27.9988C254.747 28.0416 254.715 28.0793 254.677 28.1099C254.638 28.1404 254.594 28.1631 254.547 28.1767C254.512 28.1904 254.475 28.1971 254.437 28.1964ZM252.115 23.2922C252.052 23.2928 251.989 23.2772 251.934 23.2469C251.879 23.2166 251.833 23.1726 251.8 23.1194C251.263 22.3066 250.673 21.5295 250.033 20.7932C250.001 20.7563 249.976 20.7134 249.961 20.6671C249.945 20.6208 249.939 20.5719 249.943 20.5232C249.947 20.4746 249.96 20.4272 249.982 20.3837C250.005 20.3401 250.036 20.3014 250.073 20.2697C250.11 20.238 250.153 20.2138 250.2 20.1986C250.246 20.1834 250.295 20.1774 250.344 20.1811C250.393 20.1848 250.441 20.198 250.484 20.22C250.528 20.242 250.567 20.2723 250.599 20.3092C251.263 21.0714 251.875 21.8766 252.43 22.7193C252.476 22.8007 252.491 22.8959 252.47 22.9869C252.45 23.078 252.397 23.1585 252.32 23.2132C252.26 23.2567 252.189 23.2824 252.115 23.2873V23.2922ZM248.612 19.1387C248.516 19.1384 248.425 19.1012 248.357 19.035C247.636 18.3694 246.879 17.7429 246.09 17.1583C246.05 17.1291 246.017 17.0925 245.992 17.0507C245.967 17.0088 245.95 16.9625 245.943 16.9143C245.936 16.8662 245.939 16.8171 245.951 16.77C245.963 16.7229 245.985 16.6786 246.014 16.6397C246.044 16.6008 246.081 16.568 246.123 16.5432C246.166 16.5184 246.213 16.5021 246.262 16.4953C246.31 16.4884 246.36 16.4911 246.408 16.5031C246.456 16.5152 246.5 16.5364 246.54 16.5656C247.353 17.1656 248.132 17.8103 248.872 18.4967C248.928 18.5476 248.966 18.6139 248.983 18.687C249 18.7601 248.994 18.8364 248.965 18.9059C248.937 18.9754 248.888 19.0349 248.825 19.0765C248.762 19.118 248.688 19.1397 248.612 19.1387ZM244.223 15.8495C244.152 15.8488 244.082 15.8283 244.023 15.7902C243.682 15.5828 243.327 15.3754 242.967 15.1729C242.466 14.8963 241.966 14.6197 241.435 14.358C241.387 14.3388 241.343 14.3099 241.307 14.2731C241.27 14.2363 241.242 14.1923 241.223 14.1441C241.205 14.0959 241.197 14.0445 241.2 13.993C241.203 13.9416 241.217 13.8914 241.241 13.8456C241.265 13.7997 241.298 13.7593 241.338 13.7268C241.379 13.6943 241.426 13.6705 241.476 13.6569C241.526 13.6433 241.579 13.6402 241.63 13.6478C241.682 13.6555 241.731 13.6736 241.776 13.7011C242.301 13.9678 242.827 14.2444 243.337 14.5308C243.707 14.7333 244.068 14.9457 244.418 15.163C244.499 15.214 244.557 15.2935 244.58 15.3854C244.603 15.4772 244.59 15.5744 244.543 15.6569C244.511 15.7133 244.464 15.7605 244.408 15.7942C244.352 15.828 244.288 15.847 244.223 15.8495ZM199.357 15.5976C199.291 15.5969 199.226 15.5792 199.169 15.5463C199.112 15.5134 199.065 15.4664 199.032 15.4099C198.984 15.3265 198.972 15.2281 198.997 15.1358C199.022 15.0435 199.083 14.9646 199.167 14.9161C200.038 14.4222 200.934 13.9283 201.839 13.5135C201.928 13.4707 202.031 13.4643 202.125 13.4957C202.218 13.5272 202.296 13.5939 202.34 13.6814C202.381 13.77 202.386 13.8712 202.354 13.9634C202.321 14.0556 202.253 14.1316 202.165 14.1753C201.274 14.6049 200.393 15.0642 199.537 15.5532C199.481 15.5801 199.419 15.592 199.357 15.5877V15.5976ZM239.343 13.3406C239.291 13.3409 239.24 13.3291 239.193 13.306C238.292 12.9159 237.362 12.5504 236.431 12.2244C236.336 12.191 236.26 12.1221 236.217 12.0327C236.174 11.9433 236.169 11.8408 236.203 11.7478C236.237 11.6548 236.307 11.5789 236.397 11.5368C236.488 11.4946 236.592 11.4897 236.686 11.5231C237.632 11.859 238.578 12.2294 239.499 12.6294C239.579 12.6631 239.645 12.7234 239.685 12.7998C239.725 12.8762 239.737 12.9641 239.719 13.0482C239.7 13.1324 239.653 13.2076 239.584 13.261C239.516 13.3143 239.431 13.3425 239.343 13.3406ZM204.287 13.1875C204.213 13.188 204.14 13.1666 204.079 13.1261C204.017 13.0856 203.969 13.0279 203.941 12.9603C203.921 12.915 203.91 12.8661 203.909 12.8165C203.908 12.7669 203.917 12.7176 203.935 12.6716C203.954 12.6255 203.982 12.5836 204.017 12.5484C204.053 12.5131 204.095 12.4853 204.141 12.4664C205.067 12.0812 206.018 11.7256 206.969 11.4046C207.017 11.3851 207.068 11.3755 207.12 11.3765C207.172 11.3774 207.223 11.389 207.27 11.4103C207.316 11.4316 207.359 11.4623 207.393 11.5004C207.427 11.5385 207.453 11.5833 207.469 11.6318C207.488 11.6794 207.496 11.7301 207.494 11.781C207.492 11.8318 207.48 11.8818 207.458 11.9278C207.436 11.9739 207.405 12.0151 207.366 12.0491C207.328 12.0831 207.283 12.1091 207.234 12.1257C206.298 12.4417 205.358 12.7924 204.452 13.1677C204.398 13.1825 204.342 13.1859 204.287 13.1776V13.1875ZM234.179 11.4787C234.144 11.4835 234.108 11.4835 234.074 11.4787C233.128 11.2071 232.157 10.9848 231.191 10.7527C231.143 10.7423 231.097 10.7226 231.056 10.6948C231.016 10.667 230.981 10.6315 230.954 10.5905C230.928 10.5494 230.909 10.5036 230.901 10.4556C230.892 10.4076 230.893 10.3583 230.903 10.3107C230.914 10.263 230.934 10.2178 230.962 10.1778C230.99 10.1377 231.026 10.1035 231.068 10.0771C231.109 10.0508 231.156 10.0327 231.204 10.0241C231.253 10.0154 231.303 10.0163 231.351 10.0267C232.352 10.2391 233.323 10.4909 234.284 10.7675C234.371 10.7925 234.445 10.8475 234.494 10.9224C234.543 10.9974 234.563 11.0872 234.55 11.1755C234.537 11.2637 234.493 11.3445 234.425 11.4029C234.356 11.4613 234.269 11.4935 234.179 11.4935V11.4787ZM209.481 11.4046C209.399 11.4043 209.32 11.3776 209.255 11.3285C209.19 11.2795 209.143 11.2108 209.121 11.133C209.107 11.0866 209.103 11.038 209.108 10.99C209.114 10.942 209.129 10.8955 209.152 10.8532C209.176 10.811 209.208 10.7738 209.247 10.7438C209.285 10.7138 209.329 10.6917 209.376 10.6786C210.342 10.4119 211.333 10.1847 212.319 9.96742C212.369 9.95168 212.422 9.94645 212.474 9.95207C212.526 9.95768 212.576 9.97401 212.622 10C212.667 10.026 212.706 10.0611 212.737 10.103C212.768 10.1449 212.789 10.1927 212.8 10.2434C212.811 10.294 212.811 10.3463 212.8 10.3969C212.789 10.4476 212.768 10.4954 212.737 10.5373C212.706 10.5793 212.667 10.6144 212.622 10.6404C212.576 10.6665 212.526 10.6828 212.474 10.6885C211.503 10.891 210.532 11.128 209.581 11.3898L209.481 11.4046ZM228.814 10.2884H228.739C227.763 10.1353 226.767 10.0119 225.786 9.92297C225.734 9.92241 225.683 9.91132 225.636 9.89039C225.589 9.86947 225.547 9.83916 225.512 9.80136C225.477 9.76356 225.451 9.7191 225.434 9.67075C225.418 9.6224 225.412 9.57121 225.416 9.52039C225.421 9.46956 225.436 9.42021 225.461 9.37541C225.485 9.3306 225.519 9.29133 225.56 9.26004C225.601 9.22875 225.648 9.20611 225.698 9.19356C225.748 9.18101 225.8 9.17881 225.851 9.18709C226.852 9.27599 227.853 9.39946 228.854 9.5575C228.951 9.57446 229.038 9.62833 229.096 9.70766C229.154 9.78699 229.179 9.8855 229.164 9.98224C229.147 10.0622 229.103 10.1341 229.039 10.1868C228.976 10.2395 228.897 10.27 228.814 10.2736V10.2884ZM214.856 10.2539C214.767 10.2538 214.681 10.2225 214.613 10.1655C214.545 10.1085 214.5 10.0295 214.486 9.94272C214.471 9.84526 214.496 9.74611 214.555 9.66665C214.614 9.58719 214.703 9.5338 214.801 9.51799C215.802 9.36983 216.803 9.24636 217.804 9.1624C217.853 9.15818 217.903 9.16359 217.95 9.17831C217.997 9.19303 218.041 9.21677 218.079 9.24819C218.117 9.2796 218.148 9.31807 218.171 9.3614C218.193 9.40473 218.207 9.45206 218.212 9.5007C218.216 9.54934 218.21 9.59834 218.196 9.6449C218.181 9.69145 218.157 9.73465 218.125 9.77202C218.093 9.8094 218.054 9.84022 218.01 9.86273C217.966 9.88524 217.918 9.899 217.869 9.90321C216.868 9.98717 215.892 10.1008 214.916 10.2539H214.856ZM223.339 9.75999C222.338 9.72542 221.337 9.72048 220.361 9.75999C220.312 9.76266 220.263 9.75547 220.216 9.73886C220.17 9.72225 220.128 9.69657 220.092 9.66334C220.056 9.63012 220.027 9.59005 220.007 9.54555C219.987 9.50105 219.976 9.45303 219.976 9.4044C219.974 9.35558 219.982 9.30687 219.999 9.26113C220.017 9.21539 220.043 9.17356 220.077 9.1381C220.111 9.10265 220.152 9.0743 220.197 9.05472C220.243 9.03514 220.292 9.02473 220.341 9.02411C221.342 8.98954 222.343 8.99448 223.344 9.02411C223.393 9.02539 223.442 9.03625 223.487 9.05605C223.532 9.07586 223.572 9.10423 223.606 9.13955C223.64 9.17486 223.667 9.21643 223.684 9.26188C223.702 9.30732 223.711 9.35575 223.709 9.4044C223.702 9.49704 223.66 9.58368 223.591 9.64754C223.523 9.71141 223.433 9.74796 223.339 9.75011V9.75999Z" fill="#E0E0E0"/>
<path d="M354.762 66.0372V65.247H354.567C354.269 64.7118 353.818 64.2753 353.27 63.9926C352.152 63.4325 350.916 63.1406 349.662 63.1406C348.408 63.1406 347.172 63.4325 346.054 63.9926C345.506 64.2753 345.055 64.7118 344.758 65.247H344.562V66.0125C344.562 66.7682 345.063 67.5288 346.064 68.1066C347.183 68.664 348.419 68.9544 349.672 68.9544C350.926 68.9544 352.161 68.664 353.28 68.1066C354.271 67.5485 354.767 66.7879 354.762 66.0372Z" fill="#37474F"/>
<path d="M349.662 68.1577C352.479 68.1577 354.762 66.8554 354.762 65.2488C354.762 63.6422 352.479 62.3398 349.662 62.3398C346.846 62.3398 344.562 63.6422 344.562 65.2488C344.562 66.8554 346.846 68.1577 349.662 68.1577Z" fill="#455A64"/>
<path d="M348.344 41.0273V64.9063C348.354 65.0196 348.395 65.1282 348.462 65.2209C348.529 65.3137 348.619 65.3875 348.724 65.4348C349.012 65.5784 349.33 65.6533 349.652 65.6533C349.975 65.6533 350.293 65.5784 350.581 65.4348C350.687 65.3886 350.779 65.3152 350.846 65.2223C350.914 65.1294 350.955 65.0203 350.966 64.9063V41.0273H348.344Z" fill="#37474F"/>
<path d="M355.533 23.1545C354.257 22.4285 353.096 22.3692 352.225 22.8483L336.016 32.0937L344.148 48.1892L360.413 38.9043V31.8616C360.413 28.5872 358.226 24.6905 355.533 23.1545Z" fill="#455A64"/>
<path d="M344.144 41.1442V48.1918L334.391 42.6308V35.5881C334.391 32.3137 336.573 30.9061 339.265 32.4421C340.992 33.4298 342.508 35.3757 343.374 37.5092C343.858 38.6629 344.12 39.8957 344.144 41.1442Z" fill="#37474F"/>
<path d="M344.144 41.1428V48.1904L334.391 42.6293L343.374 37.5078C343.858 38.6614 344.12 39.8943 344.144 41.1428Z" fill="#263238"/>
<path d="M342.524 43.5562C341.628 40.9979 338.715 37.679 336.018 36.148C333.32 34.617 331.869 35.4418 332.765 38.0001L334.391 42.6326L344.15 48.1937C344.15 48.1937 343.424 46.1145 342.524 43.5562Z" fill="#455A64"/>
<path d="M349.238 41.4082L348.693 41.0971C348.575 41.044 348.446 41.0224 348.318 41.0345C348.189 41.0467 348.067 41.0921 347.962 41.1662C347.66 41.3609 347.41 41.6228 347.23 41.9308C347.05 42.2388 346.946 42.5843 346.926 42.9393C346.912 43.0664 346.933 43.1949 346.987 43.3112C347.041 43.4276 347.125 43.5277 347.231 43.601L347.732 43.8875L347.827 43.7344C347.931 43.7122 348.03 43.6739 348.122 43.6208C348.423 43.4272 348.674 43.1662 348.854 42.859C349.034 42.5518 349.138 42.2071 349.158 41.8527C349.157 41.7644 349.146 41.6764 349.123 41.591L349.238 41.4082Z" fill="#263238"/>
<path d="M348.473 41.4683C348.172 41.6618 347.921 41.9228 347.741 42.23C347.561 42.5372 347.457 42.882 347.438 43.2363C347.438 43.8882 347.903 44.15 348.473 43.824C348.775 43.6307 349.026 43.3698 349.206 43.0626C349.386 42.7553 349.49 42.4104 349.509 42.056C349.524 41.404 349.024 41.1423 348.473 41.4683Z" fill="#37474F"/>
<path d="M348.48 42.922C348.441 42.922 348.401 42.9143 348.365 42.8994C348.329 42.8845 348.296 42.8627 348.268 42.8352C348.24 42.8077 348.218 42.775 348.203 42.7391C348.187 42.7031 348.18 42.6646 348.18 42.6257V32.437C348.18 32.3584 348.211 32.283 348.268 32.2274C348.324 32.1718 348.4 32.1406 348.48 32.1406C348.56 32.1406 348.636 32.1718 348.692 32.2274C348.749 32.283 348.78 32.3584 348.78 32.437V42.6257C348.78 42.7042 348.749 42.7796 348.692 42.8352C348.636 42.8908 348.56 42.922 348.48 42.922Z" fill="#263238"/>
<path d="M348.75 32.7042V35.3613L351.638 32.4375L348.75 32.7042Z" fill="#37474F"/>
<path d="M196.926 120.842C196.676 120.975 192.081 122.259 190.38 120.042C188.678 117.824 191.506 114.367 189.909 113.093C188.313 111.819 183.839 113.093 182.763 110.416C181.687 107.739 184.875 106.584 183.083 103.882C181.952 102.178 178.789 101.24 178.935 99.6545C179.145 97.3382 183.469 96.6913 187.242 99.1952C191.015 101.699 192.777 99.6446 193.973 99.4767C195.169 99.3088 197.752 99.6792 197.672 103.828C197.591 107.976 196.926 120.842 196.926 120.842Z" fill="#0071BC"/>
<path d="M197.228 114.962C197.169 114.961 197.111 114.941 197.065 114.903C197.02 114.865 196.989 114.812 196.978 114.754C195.662 106.852 186.389 100.466 181.564 99.0934C181.532 99.0849 181.502 99.0701 181.476 99.05C181.451 99.0298 181.429 99.0047 181.413 98.9761C181.397 98.9475 181.387 98.916 181.384 98.8835C181.381 98.8511 181.384 98.8183 181.394 98.7872C181.413 98.7243 181.456 98.6713 181.514 98.6398C181.572 98.6083 181.641 98.6009 181.704 98.6193C186.634 100.027 196.122 106.59 197.474 114.675C197.484 114.739 197.468 114.805 197.43 114.858C197.391 114.91 197.333 114.946 197.268 114.957L197.228 114.962Z" fill="white"/>
<path d="M186.292 108.35C186.237 108.35 186.183 108.333 186.139 108.3C186.095 108.268 186.063 108.222 186.048 108.169C186.033 108.117 186.037 108.061 186.057 108.011C186.078 107.96 186.114 107.918 186.162 107.89C186.312 107.801 189.885 105.742 193.398 106.705C193.465 106.722 193.521 106.764 193.556 106.823C193.591 106.881 193.601 106.951 193.583 107.016C193.566 107.082 193.523 107.138 193.464 107.172C193.405 107.206 193.334 107.216 193.268 107.199C189.955 106.29 186.452 108.31 186.417 108.33C186.378 108.348 186.335 108.355 186.292 108.35Z" fill="white"/>
<path d="M327.751 79.1165C329.723 79.3832 333.081 78.2571 333.321 75.0173C333.562 71.7775 334.918 70.8984 337.405 70.3699C339.892 69.8415 340.623 68.9871 340.908 67.4462C341.194 65.9053 339.302 64.0631 339.832 61.7419C340.363 59.4207 342.134 59.4256 343.876 56.8031C344.992 55.1141 342.705 52.536 338.896 53.6423C335.088 54.7486 335.393 57.1735 331.585 57.4847C327.776 57.7958 325.389 60.0775 325.314 62.9173C325.239 65.7571 327.751 79.1165 327.751 79.1165Z" fill="#0071BC"/>
<path opacity="0.2" d="M327.751 79.1165C329.723 79.3832 333.081 78.2571 333.321 75.0173C333.562 71.7775 334.918 70.8984 337.405 70.3699C339.892 69.8415 340.623 68.9871 340.908 67.4462C341.194 65.9053 339.302 64.0631 339.832 61.7419C340.363 59.4207 342.134 59.4256 343.876 56.8031C344.992 55.1141 342.705 52.536 338.896 53.6423C335.088 54.7486 335.393 57.1735 331.585 57.4847C327.776 57.7958 325.389 60.0775 325.314 62.9173C325.239 65.7571 327.751 79.1165 327.751 79.1165Z" fill="#131313"/>
<path d="M327.027 72.9054H326.997C326.965 72.899 326.934 72.8863 326.907 72.8681C326.88 72.85 326.856 72.8267 326.838 72.7997C326.82 72.7726 326.808 72.7423 326.801 72.7104C326.795 72.6786 326.795 72.6458 326.802 72.6141C328.644 63.6304 338.688 55.4074 341.135 54.5678C341.201 54.5462 341.274 54.5515 341.336 54.5825C341.399 54.6135 341.446 54.6677 341.468 54.7332C341.49 54.7987 341.484 54.8701 341.453 54.9317C341.421 54.9933 341.366 55.0401 341.3 55.0617C338.908 55.8815 329.094 63.9515 327.287 72.7375C327.269 72.7899 327.233 72.8347 327.186 72.8651C327.139 72.8955 327.083 72.9097 327.027 72.9054Z" fill="white"/>
<path d="M194.828 69.7155C194.853 69.2702 194.983 68.8368 195.209 68.4507C195.435 68.0645 195.751 67.7364 196.129 67.4931L262.645 29.5929C263.048 29.3931 263.492 29.2891 263.943 29.2891C264.394 29.2891 264.839 29.3931 265.242 29.5929L266.708 30.4325C267.088 30.675 267.404 31.0028 267.63 31.3892C267.856 31.7755 267.986 32.2094 268.01 32.655V82.9712C267.984 83.4163 267.853 83.8492 267.627 84.2352C267.401 84.6212 267.086 84.9495 266.708 85.1937L200.193 123.089C199.79 123.291 199.344 123.396 198.892 123.396C198.44 123.396 197.994 123.291 197.591 123.089L196.129 122.254C195.751 122.01 195.436 121.682 195.21 121.296C194.984 120.91 194.853 120.477 194.828 120.032V69.7155Z" fill="#0071BC"/>
<path opacity="0.3" d="M194.828 69.7155C194.853 69.2702 194.983 68.8368 195.209 68.4507C195.435 68.0645 195.751 67.7364 196.129 67.4931L262.645 29.5929C263.048 29.3931 263.492 29.2891 263.943 29.2891C264.394 29.2891 264.839 29.3931 265.242 29.5929L266.708 30.4325C267.088 30.675 267.404 31.0028 267.63 31.3892C267.856 31.7755 267.986 32.2094 268.01 32.655V82.9712C267.984 83.4163 267.853 83.8492 267.627 84.2352C267.401 84.6212 267.086 84.9495 266.708 85.1937L200.193 123.089C199.79 123.291 199.344 123.396 198.892 123.396C198.44 123.396 197.994 123.291 197.591 123.089L196.129 122.254C195.751 122.01 195.436 121.682 195.21 121.296C194.984 120.91 194.853 120.477 194.828 120.032V69.7155Z" fill="#131313"/>
<path d="M200.924 71.7088L195.208 68.4492C194.975 68.8319 194.844 69.267 194.828 69.7135V120.03C194.853 120.475 194.984 120.908 195.21 121.294C195.436 121.68 195.751 122.008 196.129 122.252L197.591 123.087C197.994 123.289 198.44 123.394 198.892 123.394C199.344 123.394 199.79 123.289 200.193 123.087L200.924 122.672V71.7088Z" fill="#0071BC"/>
<path opacity="0.5" d="M200.924 71.7088L195.208 68.4492C194.975 68.8319 194.844 69.267 194.828 69.7135V120.03C194.853 120.475 194.984 120.908 195.21 121.294C195.436 121.68 195.751 122.008 196.129 122.252L197.591 123.087C197.994 123.289 198.44 123.394 198.892 123.394C199.344 123.394 199.79 123.289 200.193 123.087L200.924 122.672V71.7088Z" fill="#131313"/>
<path d="M268.011 32.6559V82.9722C267.994 83.4328 267.855 83.8809 267.606 84.2711C267.414 84.5997 267.155 84.8856 266.845 85.1107L266.795 85.1403L266.71 85.1946L200.195 123.09C200.067 123.179 199.92 123.234 199.765 123.251C199.61 123.269 199.453 123.247 199.309 123.189C199.17 123.102 199.058 122.981 198.985 122.836C198.912 122.691 198.88 122.53 198.894 122.369V72.0328C198.882 71.8526 198.915 71.6725 198.99 71.5077C199.065 71.343 199.179 71.1986 199.323 71.0869C199.466 70.9752 199.635 70.8996 199.815 70.8665C199.995 70.8334 200.18 70.8438 200.355 70.8969L228.325 77.4605L231.989 78.3198C232.421 78.3998 232.867 78.3615 233.279 78.2092C233.691 78.0568 234.053 77.7962 234.326 77.4556L238.57 71.6229L267.136 32.3744C267.616 31.7126 268.011 31.8361 268.011 32.6559Z" fill="#0071BC"/>
<path opacity="0.2" d="M268.011 32.6559V82.9722C267.994 83.4328 267.855 83.8809 267.606 84.2711C267.414 84.5997 267.155 84.8856 266.845 85.1107L266.795 85.1403L266.71 85.1946L200.195 123.09C200.067 123.179 199.92 123.234 199.765 123.251C199.61 123.269 199.453 123.247 199.309 123.189C199.17 123.102 199.058 122.981 198.985 122.836C198.912 122.691 198.88 122.53 198.894 122.369V72.0328C198.882 71.8526 198.915 71.6725 198.99 71.5077C199.065 71.343 199.179 71.1986 199.323 71.0869C199.466 70.9752 199.635 70.8996 199.815 70.8665C199.995 70.8334 200.18 70.8438 200.355 70.8969L228.325 77.4605L231.989 78.3198C232.421 78.3998 232.867 78.3615 233.279 78.2092C233.691 78.0568 234.053 77.7962 234.326 77.4556L238.57 71.6229L267.136 32.3744C267.616 31.7126 268.011 31.8361 268.011 32.6559Z" fill="#131313"/>
<path d="M266.703 85.1947L266.788 85.1403L266.838 85.1107C267.148 84.8856 267.407 84.5998 267.599 84.2711C267.845 83.887 267.985 83.446 268.004 82.992L238.562 71.6328L258.28 90.005L266.703 85.1947Z" fill="#0071BC"/>
<path opacity="0.6" d="M266.703 85.1947L266.788 85.1403L266.838 85.1107C267.148 84.8856 267.407 84.5998 267.599 84.2711C267.845 83.887 267.985 83.446 268.004 82.992L238.562 71.6328L258.28 90.005L266.703 85.1947Z" fill="#131313"/>
<path d="M198.896 122.369C198.877 122.533 198.905 122.699 198.977 122.848C199.049 122.997 199.161 123.124 199.302 123.213C199.446 123.272 199.603 123.293 199.758 123.276C199.912 123.259 200.06 123.203 200.188 123.114L223.098 110.022L228.328 77.4258L198.896 121.514V122.369Z" fill="#0071BC"/>
<path opacity="0.6" d="M198.896 122.369C198.877 122.533 198.905 122.699 198.977 122.848C199.049 122.997 199.161 123.124 199.302 123.213C199.446 123.272 199.603 123.293 199.758 123.276C199.912 123.259 200.06 123.203 200.188 123.114L223.098 110.022L228.328 77.4258L198.896 121.514V122.369Z" fill="#131313"/>
<path d="M267.61 84.2712C267.417 84.5999 267.158 84.8857 266.849 85.1108L266.799 85.1404L200.198 123.09C200.071 123.179 199.923 123.234 199.768 123.251C199.613 123.269 199.457 123.247 199.312 123.189L231.166 73.0059C231.807 72.0007 232.792 71.2568 233.943 70.9103C235.094 70.5638 236.332 70.638 237.432 71.1193L267.61 84.2712Z" fill="#0071BC"/>
<path opacity="0.2" d="M267.61 84.2712C267.417 84.5999 267.158 84.8857 266.849 85.1108L266.799 85.1404L200.198 123.09C200.071 123.179 199.923 123.234 199.768 123.251C199.613 123.269 199.457 123.247 199.312 123.189L231.166 73.0059C231.807 72.0007 232.792 71.2568 233.943 70.9103C235.094 70.5638 236.332 70.638 237.432 71.1193L267.61 84.2712Z" fill="#131313"/>
<path d="M198.891 70.5489L229.483 83.8835C230.585 84.3634 231.825 84.4354 232.976 84.0861C234.126 83.7369 235.111 82.9899 235.749 81.9821L267.873 31.2461L198.891 70.5489Z" fill="#0071BC"/>
<path opacity="0.6" d="M198.891 70.5489L229.483 83.8835C230.585 84.3634 231.825 84.4354 232.976 84.0861C234.126 83.7369 235.111 82.9899 235.749 81.9821L267.873 31.2461L198.891 70.5489Z" fill="#131313"/>
<path d="M198.891 70.5489L229.699 81.9081C230.763 82.3003 231.931 82.3233 233.011 81.9732C234.091 81.6232 235.018 80.9209 235.639 79.9819L267.873 31.2461L198.891 70.5489Z" fill="#0071BC"/>
<path opacity="0.2" d="M198.891 70.5489L229.699 81.9081C230.763 82.3003 231.931 82.3233 233.011 81.9732C234.091 81.6232 235.018 80.9209 235.639 79.9819L267.873 31.2461L198.891 70.5489Z" fill="#131313"/>
<path d="M206.188 75.9145C206.211 75.4689 206.341 75.035 206.567 74.6487C206.793 74.2623 207.109 73.9345 207.489 73.692L274.004 35.7919C274.407 35.5897 274.853 35.4844 275.305 35.4844C275.757 35.4844 276.203 35.5897 276.606 35.7919L278.073 36.6265C278.451 36.8704 278.765 37.1987 278.99 37.5849C279.215 37.971 279.345 38.4041 279.369 38.849V89.1652C279.344 89.6099 279.214 90.0427 278.989 90.4287C278.764 90.8147 278.45 91.1432 278.073 91.3876L211.552 129.283C211.149 129.483 210.705 129.587 210.254 129.587C209.803 129.587 209.358 129.483 208.955 129.283L207.489 128.448C207.111 128.204 206.796 127.876 206.57 127.49C206.344 127.104 206.213 126.671 206.188 126.226V75.9145Z" fill="#455A64"/>
<path d="M206.188 75.9145C206.211 75.4689 206.341 75.035 206.567 74.6487C206.793 74.2623 207.109 73.9345 207.489 73.692L274.004 35.7919C274.407 35.5897 274.853 35.4844 275.305 35.4844C275.757 35.4844 276.203 35.5897 276.606 35.7919L278.073 36.6265C278.451 36.8704 278.765 37.1987 278.99 37.5849C279.215 37.971 279.345 38.4041 279.369 38.849V89.1652C279.344 89.6099 279.214 90.0427 278.989 90.4287C278.764 90.8147 278.45 91.1432 278.073 91.3876L211.552 129.283C211.149 129.483 210.705 129.587 210.254 129.587C209.803 129.587 209.358 129.483 208.955 129.283L207.489 128.448C207.111 128.204 206.796 127.876 206.57 127.49C206.344 127.104 206.213 126.671 206.188 126.226V75.9145Z" fill="#455A64"/>
<path d="M212.288 77.9187L206.568 74.6641C206.334 75.0465 206.203 75.4818 206.188 75.9284V126.23C206.213 126.675 206.344 127.108 206.57 127.494C206.796 127.88 207.111 128.208 207.489 128.452L208.955 129.287C209.358 129.487 209.803 129.591 210.254 129.591C210.705 129.591 211.149 129.487 211.552 129.287L212.288 128.867V77.9187Z" fill="#263238"/>
<path d="M279.379 38.8471V89.1633C279.362 89.624 279.223 90.072 278.974 90.4622C278.782 90.7909 278.523 91.0767 278.213 91.3018L278.163 91.3315L278.078 91.3858L211.563 129.281C211.435 129.37 211.287 129.425 211.133 129.443C210.978 129.46 210.821 129.438 210.677 129.38C210.536 129.29 210.424 129.164 210.352 129.015C210.28 128.865 210.252 128.699 210.271 128.535V78.224C210.26 78.0438 210.293 77.8636 210.368 77.6989C210.443 77.5342 210.557 77.3897 210.7 77.2781C210.844 77.1664 211.013 77.0907 211.193 77.0577C211.373 77.0246 211.558 77.035 211.733 77.088L239.703 83.6517L243.367 84.511C243.799 84.591 244.245 84.5527 244.657 84.4003C245.069 84.248 245.431 83.9874 245.704 83.6467L249.943 77.814L278.508 38.5656C278.969 37.9137 279.379 38.0273 279.379 38.8471Z" fill="#37474F"/>
<path d="M278.078 91.3851L278.163 91.3307L278.213 91.3011C278.523 91.076 278.782 90.7902 278.974 90.4615C279.217 90.0781 279.355 89.6391 279.374 89.1873L249.938 77.8281L269.65 96.1905L278.078 91.3851Z" fill="#263238"/>
<path d="M210.26 128.539C210.241 128.703 210.269 128.869 210.34 129.018C210.412 129.168 210.525 129.294 210.665 129.384C210.81 129.442 210.966 129.464 211.121 129.446C211.276 129.429 211.424 129.373 211.551 129.285L234.452 116.237L239.682 83.6406L210.25 127.694L210.26 128.539Z" fill="#263238"/>
<path d="M278.964 90.4615C278.772 90.7902 278.513 91.076 278.203 91.3011L278.153 91.3307L211.558 129.28C211.43 129.369 211.282 129.425 211.128 129.442C210.973 129.459 210.816 129.438 210.672 129.379L242.521 79.2011C243.159 78.1942 244.145 77.4482 245.295 77.0999C246.446 76.7516 247.686 76.8243 248.786 77.3046L278.964 90.4615Z" fill="#37474F"/>
<path d="M210.258 76.7493L240.851 90.084C241.951 90.5626 243.19 90.6338 244.34 90.2846C245.49 89.9354 246.474 89.1892 247.111 88.1826L279.235 37.4219L210.258 76.7493Z" fill="#263238"/>
<path d="M210.258 76.7494L241.061 88.1085C242.126 88.5021 243.295 88.5257 244.376 88.1756C245.457 87.8255 246.385 87.1225 247.006 86.1824L279.235 37.4219L210.258 76.7494Z" fill="#37474F"/>
<path d="M254.977 115.852V65.5357C255.023 64.5811 255.325 63.6557 255.852 62.854L287.576 19.2594C288.155 18.463 288.961 17.8545 289.891 17.5115C290.822 17.1685 291.835 17.1065 292.801 17.3333L322.633 24.3315C323.594 24.584 324.522 24.9488 325.395 25.4181L326.862 26.2527C327.239 26.4975 327.552 26.826 327.778 27.2119C328.003 27.5979 328.133 28.0305 328.158 28.4752V78.7914C328.132 79.2359 328.002 79.6682 327.776 80.0541C327.551 80.4399 327.238 80.7686 326.862 81.0139L260.341 118.909C259.939 119.11 259.494 119.215 259.043 119.215C258.592 119.215 258.147 119.11 257.744 118.909L256.278 118.074C255.9 117.831 255.585 117.502 255.359 117.116C255.133 116.73 255.002 116.297 254.977 115.852Z" fill="#0071BC"/>
<path opacity="0.3" d="M254.977 115.852V65.5357C255.023 64.5811 255.325 63.6557 255.852 62.854L287.576 19.2594C288.155 18.463 288.961 17.8545 289.891 17.5115C290.822 17.1685 291.835 17.1065 292.801 17.3333L322.633 24.3315C323.594 24.584 324.522 24.9488 325.395 25.4181L326.862 26.2527C327.239 26.4975 327.552 26.826 327.778 27.2119C328.003 27.5979 328.133 28.0305 328.158 28.4752V78.7914C328.132 79.2359 328.002 79.6682 327.776 80.0541C327.551 80.4399 327.238 80.7686 326.862 81.0139L260.341 118.909C259.939 119.11 259.494 119.215 259.043 119.215C258.592 119.215 258.147 119.11 257.744 118.909L256.278 118.074C255.9 117.831 255.585 117.502 255.359 117.116C255.133 116.73 255.002 116.297 254.977 115.852Z" fill="white"/>
<path d="M261.078 41.2192V105.423C261.078 106.238 261.664 106.574 262.379 106.164L324.831 70.6049C325.21 70.3619 325.525 70.0339 325.752 69.6477C325.978 69.2614 326.108 68.8279 326.132 68.3825V4.1784C326.132 3.35856 325.552 3.02767 324.831 3.43759L262.379 38.9968C262.001 39.2401 261.685 39.5682 261.459 39.9543C261.233 40.3405 261.103 40.7739 261.078 41.2192Z" fill="#FAFAFA"/>
<path d="M261.794 106.593C261.633 106.595 261.474 106.554 261.334 106.475C261.163 106.362 261.026 106.206 260.938 106.022C260.849 105.839 260.813 105.635 260.834 105.433V41.2286C260.857 40.7393 260.999 40.2626 261.247 39.8382C261.495 39.4139 261.842 39.0541 262.26 38.7889L324.712 3.22967C324.875 3.09864 325.074 3.01965 325.284 3.00321C325.493 2.98678 325.703 3.03366 325.885 3.13764C326.067 3.24162 326.212 3.39777 326.302 3.58535C326.392 3.77292 326.422 3.98305 326.388 4.1878V68.3919C326.365 68.8807 326.223 69.3568 325.975 69.7804C325.727 70.2041 325.379 70.5628 324.962 70.8267L262.51 106.386C262.294 106.516 262.047 106.588 261.794 106.593ZM325.407 3.48155C325.246 3.49068 325.089 3.53994 324.952 3.62478L262.5 39.2086C262.16 39.4313 261.877 39.7287 261.673 40.0774C261.469 40.4262 261.349 40.8168 261.324 41.2187V105.423C261.294 105.539 261.303 105.661 261.35 105.771C261.397 105.881 261.479 105.973 261.584 106.033C261.689 106.093 261.811 106.117 261.931 106.103C262.051 106.088 262.163 106.035 262.25 105.951L324.702 70.3921C325.042 70.1697 325.325 69.8724 325.529 69.5236C325.733 69.1748 325.853 68.784 325.878 68.382V4.17792C325.892 4.0621 325.876 3.94463 325.831 3.83661C325.786 3.7286 325.715 3.6336 325.622 3.56058C325.559 3.51549 325.485 3.48818 325.407 3.48155Z" fill="#E0E0E0"/>
<path d="M259.729 66.7635L255.225 64.1953C255.079 64.6292 254.998 65.0817 254.984 65.5387V115.855C255.01 116.3 255.141 116.733 255.367 117.119C255.593 117.505 255.907 117.833 256.286 118.077L257.747 118.912C258.149 119.114 258.594 119.219 259.046 119.219C259.497 119.219 259.942 119.114 260.344 118.912L260.97 118.561L259.729 66.7635Z" fill="#0071BC"/>
<g opacity="0.1">
<path opacity="0.1" d="M259.729 66.7635L255.225 64.1953C255.079 64.6292 254.998 65.0817 254.984 65.5387V115.855C255.01 116.3 255.141 116.733 255.367 117.119C255.593 117.505 255.907 117.833 256.286 118.077L257.747 118.912C258.149 119.114 258.594 119.219 259.046 119.219C259.497 119.219 259.942 119.114 260.344 118.912L260.97 118.561L259.729 66.7635Z" fill="#131313"/>
</g>
<path d="M328.161 28.476V78.7923C328.144 79.2529 328.004 79.701 327.755 80.0912C327.563 80.4198 327.304 80.7057 326.994 80.9308L326.944 80.9604L326.859 81.0147L260.344 118.91C260.217 118.999 260.069 119.054 259.914 119.071C259.759 119.089 259.602 119.067 259.458 119.009C259.317 118.919 259.205 118.793 259.133 118.644C259.061 118.494 259.034 118.328 259.053 118.164V67.8529C259.041 67.6727 259.075 67.4926 259.149 67.3278C259.224 67.1631 259.338 67.0187 259.482 66.907C259.625 66.7953 259.794 66.7197 259.974 66.6866C260.154 66.6535 260.339 66.6639 260.514 66.717L288.469 73.2806L292.133 74.1399C292.566 74.2208 293.013 74.183 293.426 74.0307C293.839 73.8783 294.202 73.6172 294.475 73.2757L298.719 67.443L327.285 28.1945C327.765 27.5426 328.161 27.6562 328.161 28.476Z" fill="#0071BC"/>
<path opacity="0.3" d="M328.161 28.476V78.7923C328.144 79.2529 328.004 79.701 327.755 80.0912C327.563 80.4198 327.304 80.7057 326.994 80.9308L326.944 80.9604L326.859 81.0147L260.344 118.91C260.217 118.999 260.069 119.054 259.914 119.071C259.759 119.089 259.602 119.067 259.458 119.009C259.317 118.919 259.205 118.793 259.133 118.644C259.061 118.494 259.034 118.328 259.053 118.164V67.8529C259.041 67.6727 259.075 67.4926 259.149 67.3278C259.224 67.1631 259.338 67.0187 259.482 66.907C259.625 66.7953 259.794 66.7197 259.974 66.6866C260.154 66.6535 260.339 66.6639 260.514 66.717L288.469 73.2806L292.133 74.1399C292.566 74.2208 293.013 74.183 293.426 74.0307C293.839 73.8783 294.202 73.6172 294.475 73.2757L298.719 67.443L327.285 28.1945C327.765 27.5426 328.161 27.6562 328.161 28.476Z" fill="white"/>
<path d="M326.867 81.015L326.952 80.9607L327.002 80.931C327.312 80.706 327.571 80.4201 327.763 80.0915C328.006 79.7063 328.144 79.2657 328.163 78.8123L298.727 67.4531L318.439 85.8204L326.867 81.015Z" fill="#0071BC"/>
<path d="M259.049 118.172C259.03 118.336 259.058 118.502 259.129 118.651C259.201 118.801 259.314 118.927 259.454 119.016C259.599 119.075 259.755 119.096 259.91 119.079C260.065 119.062 260.213 119.006 260.34 118.918L283.241 105.869L288.471 73.2734L259.039 117.327L259.049 118.172Z" fill="#0071BC"/>
<path d="M327.758 80.0926C327.566 80.4213 327.307 80.7071 326.997 80.9322L326.947 80.9619L260.347 118.911C260.219 119 260.072 119.056 259.917 119.073C259.762 119.09 259.605 119.069 259.461 119.01L291.31 68.8322C291.948 67.8265 292.933 67.0813 294.082 66.733C295.232 66.3848 296.47 66.4567 297.571 66.9357L327.758 80.0926Z" fill="#0071BC"/>
<path opacity="0.3" d="M327.758 80.0926C327.566 80.4213 327.307 80.7071 326.997 80.9322L326.947 80.9619L260.347 118.911C260.219 119 260.072 119.056 259.917 119.073C259.762 119.09 259.605 119.069 259.461 119.01L291.31 68.8322C291.948 67.8265 292.933 67.0813 294.082 66.733C295.232 66.3848 296.47 66.4567 297.571 66.9357L327.758 80.0926Z" fill="white"/>
<path d="M288.568 56.0051C287.984 56.0942 287.387 56.0419 286.828 55.8526C286.269 55.6634 285.765 55.3428 285.36 54.9185C284.599 54.0839 284.219 52.7949 284.219 51.0614C284.22 49.1054 284.645 47.1723 285.465 45.3916C286.307 43.5593 287.469 41.8875 288.898 40.4529C290.435 38.8802 292.187 37.5271 294.103 36.4327C295.981 35.3659 297.584 34.7749 298.912 34.6597C300.248 34.5412 301.254 34.8819 301.945 35.6721C302.635 36.4623 302.976 37.6723 302.976 39.2922C303.005 40.8988 302.619 42.4863 301.855 43.9051C301.181 45.19 300.154 46.2615 298.892 46.9967C298.456 47.3023 297.922 47.4394 297.391 47.382C297.202 47.345 297.027 47.255 296.889 47.1227C296.75 46.9904 296.654 46.8215 296.61 46.6362C296.193 47.4141 295.664 48.1278 295.039 48.7549C294.406 49.3991 293.685 49.9527 292.897 50.3996C291.535 51.1601 290.449 51.3873 289.649 51.1256C288.848 50.8638 288.468 50.0637 288.468 48.7303C288.479 47.0545 289.002 45.4211 289.969 44.0434C291.021 42.5159 292.419 41.2512 294.053 40.3491C294.735 39.9483 295.476 39.655 296.25 39.4799C296.825 39.3261 297.431 39.3261 298.006 39.4799V44.6805C298.006 45.1003 298.081 45.3571 298.226 45.4558C298.372 45.5546 298.612 45.5052 298.952 45.3126C299.586 44.9056 300.055 44.2922 300.278 43.5791C300.617 42.6158 300.778 41.6005 300.754 40.5813C300.754 39.284 300.467 38.3407 299.893 37.7514C299.586 37.4555 299.212 37.2365 298.802 37.1128C298.392 36.989 297.958 36.9641 297.536 37.0402C296.314 37.2244 295.144 37.6547 294.098 38.3045C291.885 39.5157 289.978 41.2039 288.518 43.2433C287.168 45.1571 286.452 47.4359 286.466 49.7674C286.466 51.1865 286.761 52.222 287.352 52.8739C287.658 53.2002 288.041 53.4467 288.467 53.5915C288.893 53.7363 289.349 53.7748 289.794 53.7036C291.039 53.5295 292.233 53.0969 293.297 52.4343C294.031 52.0153 294.726 51.5327 295.374 50.9922C295.977 50.5009 296.525 49.948 297.01 49.3427C297.061 49.2789 297.12 49.2224 297.186 49.1747C297.231 49.1501 297.276 49.1747 297.316 49.234L297.866 50.2218C297.886 50.2609 297.901 50.3024 297.911 50.3452C297.894 50.4552 297.839 50.5562 297.756 50.6317C297.151 51.3492 296.481 52.0104 295.754 52.6072C294.989 53.241 294.17 53.8093 293.307 54.3061C291.869 55.2021 290.253 55.7816 288.568 56.0051ZM295.074 46.7202C295.55 46.1653 295.828 45.471 295.864 44.7447V41.732C295.15 41.7915 294.462 42.0258 293.863 42.4136C292.908 42.9435 292.095 43.6901 291.49 44.5916C290.923 45.4186 290.619 46.3933 290.615 47.3918C290.615 48.2265 290.825 48.7253 291.25 48.8735C291.676 49.0216 292.331 48.8735 293.227 48.345C293.952 47.931 294.587 47.3786 295.094 46.7202H295.074Z" fill="#E0E0E0"/>
<path d="M224.833 60.956L219.953 58.1656H219.918C218.252 57.2371 215.955 57.3754 213.412 58.8225C208.303 61.7314 204.164 68.8087 204.164 74.6266C204.164 77.5355 205.195 79.5653 206.862 80.5531L211.401 83.1163L212.221 81.768C213.152 81.5621 214.046 81.2192 214.874 80.7507C219.978 77.8368 224.122 70.7595 224.122 64.9466C224.119 64.1609 224.022 63.3784 223.832 62.6155L224.833 60.956Z" fill="#F28F8F"/>
<path d="M224.833 60.956L219.953 58.1656H219.918C218.252 57.2371 215.955 57.3754 213.412 58.8225C208.303 61.7314 204.164 68.8087 204.164 74.6266C204.164 77.5355 205.195 79.5653 206.862 80.5531L211.401 83.1163L212.221 81.768C213.152 81.5621 214.046 81.2192 214.874 80.7507C219.978 77.8368 224.122 70.7595 224.122 64.9466C224.119 64.1609 224.022 63.3784 223.832 62.6155L224.833 60.956Z" fill="#0071BC"/>
<path opacity="0.4" d="M224.833 60.956L219.953 58.1656H219.918C218.252 57.2371 215.955 57.3754 213.412 58.8225C208.303 61.7314 204.164 68.8087 204.164 74.6266C204.164 77.5355 205.195 79.5653 206.862 80.5531L211.401 83.1163L212.221 81.768C213.152 81.5621 214.046 81.2192 214.874 80.7507C219.978 77.8368 224.122 70.7595 224.122 64.9466C224.119 64.1609 224.022 63.3784 223.832 62.6155L224.833 60.956Z" fill="#131313"/>
<path d="M218.108 61.472C212.998 64.3859 208.859 71.4632 208.859 77.2761C208.859 83.089 212.998 85.4547 218.108 82.5458C223.217 79.6368 227.356 72.5596 227.356 66.7417C227.356 60.9238 223.217 58.5631 218.108 61.472Z" fill="#0071BC"/>
<path d="M214.489 78.6692C214.394 78.6692 214.344 78.6149 214.344 78.5309C214.354 78.4379 214.381 78.3475 214.424 78.2642L214.889 77.232C214.92 77.131 214.981 77.0414 215.064 76.9752C215.134 76.9443 215.209 76.9275 215.285 76.9258C215.701 76.9014 216.112 76.8199 216.506 76.6838C217.029 76.5098 217.532 76.2813 218.007 76.0023C218.745 75.6075 219.393 75.066 219.909 74.412C220.296 73.9173 220.511 73.3131 220.524 72.6884C220.524 71.5969 219.849 71.4388 218.498 72.1945L217.181 72.9797C216.966 73.0983 216.816 73.1427 216.726 73.1032C216.636 73.0637 216.591 72.9452 216.591 72.7476V72.3377C216.584 72.1633 216.631 71.991 216.726 71.8438C216.846 71.6832 217.002 71.5516 217.181 71.4586L218.488 70.7128C219.011 70.4318 219.455 70.026 219.779 69.5325C220.05 69.1184 220.199 68.6378 220.209 68.1447C220.209 67.0878 219.455 66.989 217.947 67.8483C217.02 68.3699 216.185 69.0371 215.475 69.8239C215.408 69.8981 215.334 69.9659 215.255 70.0264C215.225 70.0401 215.192 70.0437 215.16 70.0366C215.128 70.0294 215.1 70.0119 215.079 69.9868L214.634 69.493C214.609 69.4702 214.589 69.4427 214.575 69.4122C214.562 69.3816 214.554 69.3486 214.554 69.3152C214.564 69.2018 214.614 69.0954 214.694 69.0139C215.137 68.4667 215.641 67.9698 216.195 67.5323C216.841 67.013 217.529 66.5472 218.252 66.1395C218.905 65.7385 219.626 65.4559 220.379 65.3049C220.616 65.2478 220.863 65.2426 221.103 65.2895C221.342 65.3364 221.568 65.4344 221.765 65.5765C221.943 65.7456 222.08 65.9518 222.167 66.1799C222.254 66.4081 222.287 66.6524 222.266 66.8952C222.255 67.4389 222.132 67.9748 221.906 68.4706C221.664 69.0429 221.325 69.5706 220.905 70.0313C221.121 69.9598 221.352 69.9437 221.576 69.9843C221.8 70.0249 222.01 70.1209 222.186 70.2634C222.34 70.4405 222.457 70.6461 222.53 70.8683C222.603 71.0904 222.631 71.3246 222.611 71.5574C222.573 72.6522 222.184 73.707 221.5 74.57C220.661 75.681 219.589 76.6007 218.357 77.2666C216.596 78.284 215.306 78.7515 214.489 78.6692Z" fill="white"/>
<path d="M301.988 131.686C300.627 130.126 301.838 127.533 303.159 124.17C304.611 120.47 306.853 114.183 306.853 114.183L322.772 110.939C322.772 110.939 339.733 110.618 341.289 113.818C342.55 116.381 331.38 120.238 329.779 120.377L319.975 120.885L318.944 121.379L312.057 129.978L301.988 131.686Z" fill="#0071BC"/>
<path d="M331.324 116.442C330.087 117.683 328.936 119.002 327.875 120.393C325.008 124.344 320.469 131.52 320.469 131.52C320.469 131.52 321.174 133.792 323.341 133.693C323.341 133.693 338.255 119.948 339.476 118.679C341.323 116.753 342.804 113.577 339.611 113.316C336.418 113.054 332.565 115.118 331.324 116.442Z" fill="#0071BC"/>
<path d="M327.789 120.472C327.789 120.472 330.451 116.629 333.209 115.039C333.209 115.039 330.466 115.572 326.312 120.561L327.789 120.472Z" fill="#0071BC"/>
<path opacity="0.1" d="M327.789 120.472C327.789 120.472 330.451 116.629 333.209 115.039C333.209 115.039 330.466 115.572 326.312 120.561L327.789 120.472Z" fill="#131313"/>
<path d="M329.601 125.33L328.555 125.528L329.526 129.069C329.526 129.069 330.466 128.98 330.792 129C331.266 128.889 331.722 128.714 332.148 128.481L331.898 126.318L330.747 125.133L329.601 125.33Z" fill="#FFA8A7"/>
<path d="M337.851 126.168C338.35 126.367 338.803 126.665 339.18 127.044C339.557 127.423 339.851 127.875 340.043 128.371C340.266 128.89 340.448 129.425 340.589 129.971C340.754 130.544 340.674 131.517 339.938 131.675C339.699 131.703 339.457 131.66 339.243 131.552C337.766 130.989 336.325 130.337 334.813 129.863C333.518 129.389 332.162 129.098 330.785 128.998C331.098 128.523 331.254 127.963 331.233 127.397C331.211 126.83 331.013 126.284 330.665 125.832C330.368 125.562 329.994 125.389 329.594 125.339C329.974 125.171 330.329 124.953 330.695 124.751C331.375 124.281 332.208 124.079 333.032 124.183C333.662 124.316 334.143 124.81 334.678 125.171C335.699 125.828 336.685 125.783 337.851 126.168Z" fill="#263238"/>
<path d="M304.133 128.294C305.449 127.894 307.551 127.538 313.786 127.222C320.022 126.906 328.555 125.523 328.555 125.523C330.006 126.901 329.526 129.065 329.526 129.065C329.526 129.065 318.451 132.522 314.842 132.981C309.097 133.712 307.115 133.658 304.523 133.109C301.61 132.492 299.774 129.613 304.133 128.294Z" fill="#0071BC"/>
<path d="M326.927 98.9844L331.611 110.032L328.258 112.067L321.812 101.296L326.927 98.9844Z" fill="#F28F8F"/>
<path d="M317.234 88.5742C319.797 88.6039 322.614 89.5225 323.585 91.5029L327.589 99.6519C327.589 99.6519 325.327 102.921 321.733 102.689L317.234 88.5742Z" fill="#E0E0E0"/>
<path d="M300.199 105.744C300.229 105.314 300.855 103.215 301.525 100.953L306.39 102.613L305.083 106.677L300.985 110.515C300.097 109.088 299.815 107.374 300.199 105.744Z" fill="#FFA8A7"/>
<path d="M311.991 88.7273C308.938 89.4533 304.779 90.3966 303.573 93.6661C302.367 96.9356 300.641 102.709 300.641 102.709C301.311 103.855 304.99 104.803 306.266 104.141L306.866 102.166V114.177C309.253 116.74 321.029 116.083 322.786 110.932V94.5699C322.786 91.9523 321.314 88.8063 317.246 88.5742L311.991 88.7273Z" fill="#FAFAFA"/>
<path d="M306.859 102.174L308.391 97.418L306.859 104.303V102.174Z" fill="#E0E0E0"/>
<path d="M310.839 75.3352C310.567 75.3004 310.291 75.3268 310.031 75.4123C309.771 75.4978 309.534 75.6403 309.338 75.8291C308.692 76.481 308.837 77.686 309.338 80.4518L311.34 80.674L310.839 75.3352Z" fill="#263238"/>
<path d="M322.451 74.5363C322.88 74.5382 323.304 74.4524 323.697 74.2844C324.308 73.9387 324.468 74.6252 324.133 75.2179C323.911 75.6452 323.582 76.0094 323.177 76.2756C322.773 76.5419 322.305 76.7014 321.821 76.739C321.821 76.655 321.25 75.203 321.25 75.203L322.451 74.5363Z" fill="#263238"/>
<path d="M311.773 80.7072C311.478 80.88 311.052 80.322 310.687 79.9417C310.544 79.7799 310.361 79.6569 310.156 79.5842C309.951 79.5115 309.731 79.4915 309.516 79.5261C309.302 79.5607 309.099 79.6488 308.928 79.782C308.758 79.9152 308.624 80.0891 308.54 80.2874C307.935 81.5468 309.311 83.221 310.117 83.7742C310.343 83.9666 310.625 84.0836 310.922 84.1084C311.22 84.1332 311.517 84.0646 311.773 83.9125L311.983 88.7278C312.34 89.4995 312.885 90.1718 313.57 90.6846C314.255 91.1974 315.058 91.5347 315.907 91.6663C318.769 92.0466 318.179 89.7155 317.238 88.5747V86.8115C317.955 86.9624 318.692 86.9991 319.42 86.9202C319.79 86.8214 320.681 85.7596 321.257 84.5693C321.902 83.2358 322.978 80.8652 322.022 76.85C320.992 72.5434 316.302 72.4051 313.515 74.1485C310.727 75.8919 311.773 80.7072 311.773 80.7072Z" fill="#FFA8A7"/>
<path d="M311.767 81.1946C311.617 81.1946 311.052 80.271 310.681 79.9402C310.181 79.4808 310.832 75.3372 310.832 75.3372C310.832 75.3372 310.331 73.7618 311.332 72.7197C312.333 71.6776 314.295 71.8504 315.726 71.8011C317.48 71.8105 319.217 71.466 320.831 70.7886C322.862 69.9194 323.013 69.8009 323.263 70.6948C323.513 71.5887 323.613 73.5889 322.402 74.9372L321.741 75.999C321.741 75.999 321.126 76.4929 319.239 76.7398C317.352 76.9868 314.12 75.9644 313.734 75.9101C313.184 75.836 313.069 76.3595 312.773 77.7918C312.493 79.0512 312.268 81.1847 311.767 81.1946Z" fill="#263238"/>
<path d="M310.839 75.658L309.047 74.7098C309.106 74.5923 309.188 74.4875 309.288 74.4016C309.389 74.3157 309.505 74.2504 309.632 74.2095C309.758 74.1686 309.891 74.1529 310.024 74.1633C310.156 74.1737 310.285 74.2101 310.403 74.2702C310.642 74.4028 310.82 74.6205 310.901 74.8786C310.982 75.1367 310.959 75.4156 310.839 75.658Z" fill="#263238"/>
<path d="M317.234 86.8125C317.234 86.8125 314.582 86.2841 313.656 85.8248C313.111 85.5428 312.665 85.1058 312.375 84.5703C312.516 85.1074 312.764 85.6112 313.106 86.0519C313.781 86.9063 317.234 87.5336 317.234 87.5336V86.8125Z" fill="#F28F8F"/>
<path d="M317.311 80.6058C317.307 80.7084 317.272 80.8076 317.212 80.891C317.151 80.9745 317.067 81.0385 316.97 81.0751C316.872 81.1117 316.766 81.1193 316.665 81.0969C316.563 81.0746 316.471 81.0232 316.398 80.9493C316.326 80.8753 316.278 80.7821 316.259 80.6811C316.24 80.5801 316.252 80.4759 316.292 80.3814C316.333 80.2869 316.401 80.2062 316.488 80.1495C316.574 80.0928 316.676 80.0626 316.78 80.0625C316.851 80.0638 316.921 80.0789 316.986 80.1069C317.051 80.1349 317.11 80.1752 317.159 80.2257C317.209 80.2761 317.247 80.3357 317.273 80.4009C317.299 80.4661 317.312 80.5357 317.311 80.6058Z" fill="#263238"/>
<path d="M316.754 78.6304L315.613 79.2477C315.534 79.0933 315.518 78.9151 315.567 78.7491C315.616 78.5831 315.728 78.4418 315.878 78.3538C315.954 78.3132 316.037 78.2882 316.122 78.2802C316.208 78.2721 316.294 78.2813 316.376 78.3072C316.458 78.333 316.534 78.375 316.599 78.4306C316.664 78.4861 316.717 78.5541 316.754 78.6304Z" fill="#263238"/>
<path d="M316.992 84.1133L318.209 84.5676C318.182 84.6478 318.139 84.7217 318.082 84.7852C318.026 84.8486 317.957 84.9003 317.88 84.9371C317.803 84.9739 317.72 84.9952 317.634 84.9996C317.549 85.004 317.463 84.9915 317.383 84.9628C317.219 84.8986 317.087 84.7742 317.014 84.6158C316.941 84.4573 316.933 84.2772 316.992 84.1133Z" fill="#F28F8F"/>
<path d="M322.052 79.0653L321.016 78.2751C321.065 78.2065 321.127 78.1484 321.2 78.1043C321.272 78.0602 321.353 78.0311 321.437 78.0186C321.521 78.0061 321.607 78.0106 321.69 78.0318C321.772 78.0529 321.849 78.0903 321.916 78.1417C322.055 78.2491 322.146 78.4049 322.171 78.5768C322.196 78.7488 322.153 78.9236 322.052 79.0653Z" fill="#263238"/>
<path d="M321.732 80.4573C321.729 80.5599 321.694 80.6592 321.633 80.7426C321.573 80.8261 321.489 80.8901 321.391 80.9267C321.294 80.9633 321.188 80.9709 321.087 80.9485C320.985 80.9261 320.893 80.8748 320.82 80.8008C320.748 80.7269 320.7 80.6336 320.681 80.5327C320.662 80.4317 320.673 80.3275 320.714 80.2329C320.755 80.1384 320.823 80.0578 320.909 80.0011C320.996 79.9444 321.098 79.9141 321.202 79.9141C321.273 79.9153 321.343 79.9304 321.408 79.9584C321.473 79.9864 321.532 80.0268 321.581 80.0772C321.631 80.1277 321.669 80.1872 321.695 80.2525C321.721 80.3177 321.734 80.3873 321.732 80.4573Z" fill="#263238"/>
<path d="M319.235 80.3945L318.734 83.5158L320.486 83.3133L319.235 80.3945Z" fill="#F28F8F"/>
<path d="M337.489 115.842L326.705 109.698C326.61 109.645 326.503 109.617 326.394 109.617C326.285 109.617 326.179 109.645 326.084 109.698L307.172 120.475L318.262 126.816L337.489 115.842Z" fill="#37474F"/>
<path d="M318.159 125.889L312.344 122.581L329.349 112.891L335.194 116.185L318.159 125.889Z" fill="#263238"/>
<path d="M315.297 116.683L315.407 116.742L318.255 118.367L323.324 115.478L323.429 115.418L320.472 113.734L315.297 116.683Z" fill="#263238"/>
<path d="M315.414 116.745L318.262 118.37L323.331 115.48L320.479 113.855L315.414 116.745Z" fill="#263238"/>
<path d="M307.172 120.472V120.723C307.17 120.902 307.216 121.077 307.304 121.233C307.391 121.389 307.518 121.52 307.672 121.612L317.721 127.336C317.88 127.427 318.059 127.475 318.242 127.475C318.425 127.475 318.604 127.427 318.762 127.336L336.949 116.965C337.103 116.872 337.23 116.741 337.317 116.585C337.405 116.43 337.45 116.254 337.449 116.076V115.824L318.262 126.813L307.172 120.472Z" fill="#263238"/>
<path d="M318.258 126.813V127.494C318.434 127.492 318.607 127.445 318.758 127.356L336.945 116.985C337.099 116.891 337.225 116.76 337.313 116.605C337.401 116.449 337.446 116.274 337.445 116.096V115.844L318.258 126.813Z" fill="#263238"/>
<path d="M318.555 126.946C318.727 127.011 318.911 127.038 319.095 127.023C319.278 127.008 319.456 126.954 319.616 126.863L337.722 116.545C337.879 116.457 338.014 116.334 338.117 116.187C338.22 116.04 338.289 115.872 338.318 115.696L340.319 104.036C340.324 103.968 340.324 103.9 340.319 103.833C340.319 103.509 340.187 103.198 339.954 102.969L321.137 113.691C321.021 113.757 320.922 113.847 320.846 113.956C320.769 114.064 320.719 114.188 320.697 114.318L318.555 126.946Z" fill="#263238"/>
<path d="M318.258 126.813L318.383 126.882C318.438 126.913 318.495 126.941 318.553 126.966L320.695 114.338C320.717 114.208 320.768 114.084 320.844 113.975C320.92 113.867 321.02 113.777 321.135 113.711L339.953 102.988C339.876 102.918 339.792 102.855 339.702 102.801L320.85 113.523C320.734 113.589 320.634 113.679 320.557 113.788C320.48 113.896 320.428 114.02 320.405 114.15L318.258 126.813Z" fill="#455A64"/>
<path d="M328.752 116.177C329.037 115.202 329.691 114.373 330.579 113.861C331.455 113.367 332.055 113.589 331.925 114.355C331.64 115.329 330.986 116.159 330.098 116.671C329.223 117.189 328.622 116.938 328.752 116.177Z" fill="#37474F"/>
<path d="M305.083 106.67C305.083 106.67 308.331 119.017 309.702 119.901C311.074 120.785 313.626 121.432 314.847 121.876C316.068 122.321 316.624 122.928 316.413 123.096C316.203 123.264 314.442 123.447 313.831 123.659C313.22 123.872 314.011 124.845 315.362 125.877C316.714 126.909 317.865 126.815 317.715 127.502C317.564 128.188 314.552 128.875 312.009 127.403C309.467 125.931 308.696 123.946 307.18 122.262C305.664 120.578 302.2 113.579 300.984 110.517C300.984 110.517 301.099 104.828 302.986 105.188C304.873 105.549 305.083 106.67 305.083 106.67Z" fill="#FFA8A7"/>
<path d="M320.531 131.689C320.761 132.237 321.557 133.749 323.329 133.665L327.683 129.645L320.531 131.689Z" fill="#0071BC"/>
<path opacity="0.1" d="M320.531 131.689C320.761 132.237 321.557 133.749 323.329 133.665L327.683 129.645L320.531 131.689Z" fill="#131313"/>
<path d="M323.164 134.145C323.166 134.163 323.166 134.181 323.164 134.199C323.166 134.181 323.166 134.163 323.164 134.145Z" fill="#263238"/>
<path d="M321.853 138.76C321.811 137.467 322.027 136.178 322.488 134.967C322.279 135.111 322.037 135.204 321.783 135.236C321.53 135.269 321.272 135.241 321.032 135.155C319.576 134.725 319.21 132.72 319.441 132.285C319.23 132.468 319.01 132.641 318.795 132.819C318.105 133.276 317.614 133.972 317.419 134.769C317.319 135.397 317.614 136.014 317.759 136.636C318.039 137.822 317.759 139.056 317.714 140.271C317.724 140.801 317.844 141.324 318.067 141.806C318.29 142.289 318.611 142.721 319.01 143.076C319.42 143.471 319.862 143.833 320.331 144.158C320.502 144.347 320.728 144.48 320.978 144.537C321.229 144.594 321.491 144.574 321.728 144.478C321.966 144.382 322.168 144.215 322.306 144.002C322.444 143.788 322.511 143.537 322.498 143.284C322.308 141.743 321.943 140.365 321.853 138.76Z" fill="#263238"/>
<path d="M323.509 133.406C323.374 133.658 323.254 133.9 323.148 134.142C323.274 133.905 323.394 133.658 323.509 133.406Z" fill="#37474F"/>
<path d="M319.43 132.287L319.525 132.203L319.43 132.287Z" fill="#37474F"/>
</svg>
