<svg width="200" height="191" viewBox="0 0 200 191" fill="none" xmlns="http://www.w3.org/2000/svg">
<g clip-path="url(#clip0_802_10757)">
<path d="M124.186 167.58C145.658 163.373 164.896 153.565 178.331 136.523C199.725 109.389 203.88 58.4973 175.124 28.8859C161.948 15.316 142.336 7.86522 124.829 3.68906C106.005 -0.803169 84.7093 -2.21768 67.8337 5.37817C40.5902 17.6165 28.4037 61.6942 10.9322 80.1398C-6.53935 98.5854 -4.09375 137.855 27.5902 152.363C44.3467 160.036 62.098 165.627 79.9218 168.357C88.0915 169.695 96.3742 170.216 104.647 169.912C111.209 169.617 117.739 168.838 124.186 167.58V167.58Z" fill="#0071BC"/>
<path opacity="0.7" d="M124.186 167.58C145.658 163.373 164.896 153.565 178.331 136.523C199.725 109.389 203.88 58.4973 175.124 28.8859C161.948 15.316 142.336 7.86522 124.829 3.68906C106.005 -0.803169 84.7093 -2.21768 67.8337 5.37817C40.5902 17.6165 28.4037 61.6942 10.9322 80.1398C-6.53935 98.5854 -4.09375 137.855 27.5902 152.363C44.3467 160.036 62.098 165.627 79.9218 168.357C88.0915 169.695 96.3742 170.216 104.647 169.912C111.209 169.617 117.739 168.838 124.186 167.58V167.58Z" fill="white"/>
<path d="M168.006 1.03613H62.4258V157.43H168.006V1.03613Z" fill="white" stroke="#263238" stroke-linecap="round" stroke-linejoin="round"/>
<path d="M168.001 1.03613H164.664V157.43H168.001V1.03613Z" fill="#0071BC" stroke="#263238" stroke-linecap="round" stroke-linejoin="round"/>
<path d="M168.001 65.5596H164.664V96.2176H168.001V65.5596Z" fill="white" stroke="#263238" stroke-linecap="round" stroke-linejoin="round"/>
<path d="M168.006 1.03613H62.4258V13.0983H168.006V1.03613Z" fill="#263238" stroke="#263238" stroke-linecap="round" stroke-linejoin="round"/>
<path d="M160.146 4.5752H72.7885C71.8956 4.5752 71.1719 5.29896 71.1719 6.19177V8.16587C71.1719 9.05868 71.8956 9.78244 72.7885 9.78244H160.146C161.039 9.78244 161.763 9.05868 161.763 8.16587V6.19177C161.763 5.29896 161.039 4.5752 160.146 4.5752Z" fill="white" stroke="#263238" stroke-linecap="round" stroke-linejoin="round"/>
<path d="M150.104 107.897C150.104 109.358 133.254 110.539 112.467 110.539C91.6791 110.539 74.8242 109.358 74.8242 107.897C74.8242 106.436 91.6791 105.249 112.467 105.249C133.254 105.249 150.104 106.436 150.104 107.897Z" fill="#263238"/>
<path d="M151.856 55.1293L151.975 55.036H151.742L113.545 26.3262L75.3536 55.036H75.1152L75.2396 55.1241L75.1152 55.2174H75.3639L113.887 82.9272L151.732 55.2174H151.975L151.856 55.1293Z" fill="#0071BC" stroke="#263238" stroke-linecap="round" stroke-linejoin="round"/>
<path d="M138.705 29.1963H87.1504V93.1859H138.705V29.1963Z" fill="white" stroke="#263238" stroke-linecap="round" stroke-linejoin="round"/>
<path d="M123.923 46.6323C123.923 54.0468 120.555 58.3162 117.073 58.3162C115.275 58.3162 114.228 57.4147 114.114 55.767C113.363 57.4147 112.093 58.3577 110.254 58.3162C107.451 58.2748 106.477 55.9173 106.814 52.5857L107.223 48.8396C107.56 45.4354 109.093 43.3007 111.886 43.3732C112.631 43.3303 113.365 43.5563 113.957 44.01C114.549 44.4637 114.957 45.1148 115.109 45.8447L115.368 43.5235H117.917L116.793 54.2696C116.679 55.1297 116.943 55.881 117.876 55.881C120.762 55.881 121.736 50.3732 121.7 46.7048C121.7 41.5235 119.264 38.1297 113.648 38.1297C106.161 38.1297 102.679 44.3473 102.679 52.7359C102.679 59.2126 105.632 63.0986 112.15 63.0986C114.772 63.0986 117.166 62.5805 119.524 60.7359L119.301 63.3266C117.016 64.881 114.638 65.3473 112 65.3473C103.762 65.3473 100.166 60.2955 100.166 52.5805C100.166 43.6686 104.435 35.8447 113.72 35.8447C121.244 35.8344 123.923 40.4147 123.923 46.6323ZM109.731 49.1038L109.394 52.4717C109.171 54.4199 109.772 55.8033 111.529 55.8447C113.285 55.8862 114.187 54.5339 114.415 52.508L114.788 48.9173C114.974 47.1556 114.27 45.9225 112.617 45.9225C110.881 45.8655 109.959 47.0675 109.731 49.0883V49.1038Z" fill="#263238"/>
<path d="M75.1152 55.0361V99.5905H151.975V55.0361L113.545 77.3159L75.1152 55.0361Z" fill="#0071BC" stroke="#263238" stroke-linecap="round" stroke-linejoin="round"/>
<path d="M75.1152 99.59L113.545 77.3154L151.975 99.59" stroke="#263238" stroke-linecap="round" stroke-linejoin="round"/>
<path d="M134.109 119.16H91.3164V128.212H134.109V119.16Z" fill="#0071BC" stroke="#263238" stroke-linecap="round" stroke-linejoin="round"/>
<path d="M134.109 131.912H91.3164V140.964H134.109V131.912Z" fill="#0071BC" stroke="#263238" stroke-linecap="round" stroke-linejoin="round"/>
<path d="M75.6953 42.2852L79.5502 45.2126" stroke="#263238" stroke-linecap="round" stroke-linejoin="round"/>
<path d="M72.5137 39.8652L74.0836 41.0569" stroke="#263238" stroke-linecap="round" stroke-linejoin="round"/>
<path d="M77.582 21.0156L84.0535 27.2073" stroke="#263238" stroke-linecap="round" stroke-linejoin="round"/>
<path d="M97.8613 21.1035L98.68 23.5491" stroke="#263238" stroke-linecap="round" stroke-linejoin="round"/>
<path d="M96.9902 18.4873L97.4669 19.9174" stroke="#263238" stroke-linecap="round" stroke-linejoin="round"/>
<path d="M152.976 39.8652L145.939 45.2124" stroke="#263238" stroke-linecap="round" stroke-linejoin="round"/>
<path d="M145.752 23.083L141.441 27.2074" stroke="#263238" stroke-linecap="round" stroke-linejoin="round"/>
<path d="M147.907 21.0156L146.467 22.399" stroke="#263238" stroke-linecap="round" stroke-linejoin="round"/>
<path d="M128.498 18.4873L126.809 23.5495" stroke="#263238" stroke-linecap="round" stroke-linejoin="round"/>
<path d="M113.586 18.4873V22.4251" stroke="#263238" stroke-linecap="round" stroke-linejoin="round"/>
<path d="M176.201 188.368C184.139 188.368 190.574 186.651 190.574 184.533C190.574 182.416 184.139 180.699 176.201 180.699C168.263 180.699 161.828 182.416 161.828 184.533C161.828 186.651 168.263 188.368 176.201 188.368Z" fill="#0071BC"/>
<path opacity="0.5" d="M176.201 188.368C184.139 188.368 190.574 186.651 190.574 184.533C190.574 182.416 184.139 180.699 176.201 180.699C168.263 180.699 161.828 182.416 161.828 184.533C161.828 186.651 168.263 188.368 176.201 188.368Z" fill="white"/>
<path d="M154.705 101.818C154.621 101.534 154.6 101.236 154.642 100.943C154.684 100.649 154.788 100.369 154.948 100.119C155.107 99.8699 155.319 99.6576 155.567 99.4967C155.816 99.3357 156.096 99.2299 156.388 99.1863C158.15 98.948 160.311 101.311 160.995 102.741C161.052 102.865 161.756 104.907 161.72 104.907C161.684 104.907 158.611 104.974 157.331 104.419C156.243 103.943 154.995 103.041 154.705 101.818ZM199.901 96.3987C199.642 97.6267 198.414 98.5645 197.347 99.0671C196.28 99.5697 193.72 99.6578 193.109 99.6682C192.772 100.072 192.414 100.502 192.031 100.989C191.357 101.85 190.611 102.829 189.865 103.948C189.668 104.243 189.466 104.575 189.264 104.886C189.715 104.43 190.342 103.808 190.409 103.751C191.648 102.767 194.622 101.585 196.109 102.565C196.35 102.735 196.553 102.954 196.705 103.207C196.856 103.461 196.952 103.744 196.986 104.038C197.02 104.331 196.992 104.629 196.903 104.91C196.815 105.192 196.667 105.452 196.471 105.673C195.679 106.642 194.16 106.912 192.974 106.865C191.787 106.818 189.425 105.694 188.922 105.44C188.487 106.145 188.057 106.875 187.653 107.663C186.901 109.09 186.279 110.581 185.793 112.119L185.881 112.166C186.243 111.689 187.026 110.71 187.103 110.611C188.223 109.492 191.052 108.02 192.632 108.808C192.89 108.95 193.115 109.145 193.292 109.38C193.47 109.615 193.596 109.885 193.662 110.172C193.729 110.459 193.734 110.756 193.678 111.045C193.622 111.334 193.506 111.608 193.337 111.849C192.653 112.886 191.171 113.337 189.99 113.404C188.632 113.497 185.813 112.435 185.71 112.394C185.264 113.933 184.918 115.499 184.673 117.083C184.492 118.254 184.357 119.451 184.228 120.647C184.471 120.305 185.502 119.02 185.585 118.938C186.71 117.818 189.539 116.321 191.114 117.134C191.375 117.273 191.604 117.466 191.784 117.701C191.965 117.935 192.093 118.206 192.16 118.494C192.227 118.782 192.232 119.081 192.174 119.371C192.116 119.661 191.997 119.936 191.824 120.176C191.14 121.212 189.658 121.663 188.477 121.73C187.145 121.824 184.445 120.818 184.217 120.73L184.047 122.368C183.876 124.15 183.71 125.938 183.492 127.699C183.414 128.305 183.316 128.906 183.223 129.508C183.606 128.989 184.321 128.114 184.394 128.046C185.518 126.927 188.347 125.425 189.922 126.238C190.18 126.381 190.405 126.576 190.583 126.812C190.76 127.047 190.886 127.317 190.953 127.605C191.019 127.892 191.025 128.19 190.968 128.479C190.912 128.769 190.796 129.043 190.627 129.285C189.943 130.321 188.461 130.772 187.28 130.839C186.098 130.906 183.803 130.124 183.166 129.891C183 130.886 182.813 131.87 182.585 132.834C182.477 133.243 182.394 133.673 182.269 134.062C182.145 134.451 182.036 134.849 181.917 135.238C181.648 136.031 181.399 136.767 181.135 137.497C181 137.87 180.865 138.217 180.736 138.575C181.047 138.015 181.559 137.129 181.611 137.057C182.554 135.777 185.124 133.87 186.793 134.435C187.072 134.533 187.327 134.69 187.54 134.895C187.753 135.1 187.92 135.348 188.03 135.623C188.139 135.898 188.189 136.193 188.175 136.489C188.16 136.784 188.083 137.073 187.948 137.337C187.43 138.476 186.036 139.129 184.881 139.409C183.606 139.694 180.876 139.14 180.539 139.072C180.207 139.948 179.876 140.798 179.549 141.585C178.513 144.088 177.58 146.134 176.896 147.559L176.787 147.787H181.767L180.067 181.347C180.005 182.573 179.474 183.728 178.584 184.574C177.694 185.42 176.513 185.891 175.285 185.891V185.891C174.057 185.891 172.875 185.42 171.984 184.574C171.093 183.729 170.561 182.573 170.497 181.347L168.782 147.834H174.124C174.098 147.601 174.072 147.352 174.041 147.077C173.86 145.523 173.575 143.316 173.109 140.684C172.979 139.922 172.824 139.129 172.658 138.29C172.316 138.337 169.549 138.689 168.306 138.29C167.176 137.943 165.829 137.186 165.399 136.01C165.289 135.737 165.237 135.443 165.248 135.149C165.259 134.854 165.331 134.565 165.46 134.3C165.59 134.036 165.773 133.801 165.999 133.612C166.225 133.423 166.489 133.283 166.772 133.202C168.492 132.761 170.917 134.86 171.756 136.202C171.808 136.29 172.331 137.378 172.585 137.938C172.487 137.419 172.388 136.943 172.274 136.43C172.114 135.684 171.922 134.875 171.756 134.145C171.648 133.751 171.534 133.357 171.425 132.963C171.316 132.57 171.171 132.186 171.047 131.792C170.85 131.217 170.622 130.637 170.394 130.052C169.642 130.259 167.435 130.834 166.3 130.668C165.166 130.502 163.684 129.953 163.083 128.855C162.927 128.602 162.828 128.32 162.791 128.026C162.754 127.731 162.781 127.433 162.87 127.15C162.958 126.867 163.106 126.607 163.304 126.386C163.501 126.165 163.744 125.989 164.015 125.87C165.648 125.176 168.357 126.881 169.394 128.083C169.425 128.119 169.622 128.399 169.844 128.725C169.606 128.166 169.363 127.606 169.104 127.041C168.357 125.456 167.549 123.855 166.741 122.254C166.57 121.922 166.409 121.585 166.223 121.248C165.591 121.425 163.207 122.067 162.021 121.891C160.834 121.715 159.43 121.181 158.798 120.083C158.648 119.829 158.552 119.547 158.518 119.254C158.484 118.961 158.512 118.664 158.6 118.383C158.688 118.101 158.834 117.842 159.029 117.62C159.223 117.399 159.462 117.221 159.73 117.098C161.363 116.404 164.072 118.109 165.109 119.311C165.145 119.352 165.378 119.684 165.627 120.052C165.202 119.176 164.787 118.295 164.404 117.409C163.739 115.894 163.177 114.336 162.72 112.746C162.497 112.808 159.715 113.616 158.394 113.425C157.223 113.254 155.777 112.71 155.176 111.611C155.025 111.358 154.929 111.076 154.894 110.783C154.859 110.49 154.886 110.193 154.973 109.912C155.061 109.63 155.207 109.37 155.401 109.149C155.596 108.927 155.835 108.749 156.104 108.627C157.741 107.932 160.451 109.637 161.487 110.839C161.559 110.922 162.383 112.124 162.658 112.565V112.508C162.248 110.933 161.977 109.326 161.85 107.704C161.734 106.257 161.7 104.804 161.746 103.352C161.777 102.005 161.891 100.761 162 99.6837C162.062 99.0982 162.129 98.5594 162.202 98.0568H162.171C162.14 98.0568 161.549 95.9842 161.523 95.8702C161.264 94.3158 161.679 91.1293 163.254 90.3158C163.519 90.1883 163.809 90.1179 164.103 90.1093C164.398 90.1007 164.691 90.154 164.963 90.2659C165.236 90.3778 165.482 90.5456 165.685 90.7586C165.889 90.9716 166.046 91.225 166.145 91.5024C166.606 92.6682 166.104 94.1293 165.487 95.1293C164.87 96.1293 162.803 97.6112 162.29 97.9687C162.228 98.4868 162.166 99.0464 162.114 99.663C162.031 100.751 161.943 101.979 161.943 103.326C161.943 103.684 161.943 104.067 161.943 104.44C162.067 103.808 162.243 102.943 162.269 102.886C162.756 101.378 164.591 98.7407 166.363 98.7407C166.657 98.7504 166.947 98.8217 167.212 98.9502C167.477 99.0786 167.713 99.2613 167.903 99.4864C168.094 99.7114 168.235 99.9739 168.317 100.257C168.4 100.54 168.423 100.837 168.383 101.129C168.254 102.378 167.135 103.44 166.124 104.052C165.114 104.663 162.497 105.031 161.953 105.088C161.979 105.917 162.026 106.761 162.124 107.647C162.282 109.25 162.583 110.835 163.026 112.383H163.129C163.166 111.787 163.28 110.539 163.3 110.44C163.622 108.886 165.155 106.072 166.927 105.881C167.221 105.857 167.517 105.896 167.795 105.994C168.072 106.092 168.327 106.248 168.541 106.451C168.755 106.653 168.924 106.899 169.037 107.171C169.15 107.443 169.204 107.736 169.197 108.031C169.197 109.285 168.212 110.466 167.274 111.186C166.192 112.015 163.254 112.684 163.129 112.71C163.61 114.236 164.188 115.729 164.86 117.181C165.378 118.259 165.896 119.331 166.456 120.404C166.456 119.984 166.622 118.331 166.642 118.228C166.964 116.673 168.497 113.86 170.269 113.668C170.564 113.645 170.86 113.684 171.138 113.782C171.416 113.881 171.671 114.037 171.885 114.24C172.099 114.443 172.268 114.689 172.38 114.962C172.493 115.235 172.547 115.528 172.539 115.824C172.539 117.072 171.554 118.254 170.611 118.974C169.575 119.787 166.751 120.435 166.513 120.492C166.767 120.974 167.031 121.461 167.274 121.948C168.109 123.528 168.958 125.114 169.746 126.704C170.021 127.254 170.264 127.803 170.523 128.357C170.57 127.73 170.673 126.59 170.694 126.492C171.01 124.938 172.544 122.129 174.321 121.938C174.616 121.91 174.913 121.946 175.192 122.042C175.472 122.139 175.727 122.295 175.942 122.498C176.156 122.702 176.325 122.949 176.436 123.223C176.547 123.498 176.598 123.792 176.585 124.088C176.585 125.342 175.601 126.523 174.663 127.243C173.725 127.963 171.368 128.565 170.705 128.725C171.114 129.647 171.508 130.57 171.844 131.497C171.984 131.901 172.15 132.3 172.259 132.694C172.368 133.088 172.497 133.482 172.616 133.87C172.829 134.679 173.031 135.425 173.207 136.191C173.306 136.575 173.383 136.938 173.471 137.311C173.42 136.668 173.357 135.647 173.363 135.554C173.445 133.974 174.534 130.963 176.249 130.502C176.537 130.432 176.837 130.424 177.129 130.477C177.421 130.531 177.698 130.646 177.943 130.814C178.187 130.982 178.393 131.2 178.548 131.454C178.702 131.707 178.802 131.99 178.839 132.285C178.861 132.439 178.869 132.595 178.865 132.751C179.564 133.958 179.941 135.325 179.958 136.72C179.958 136.818 179.798 138.015 179.699 138.627C179.891 138.155 180.078 137.684 180.269 137.191C180.549 136.482 180.819 135.725 181.083 134.995C181.207 134.606 181.331 134.217 181.461 133.824C181.591 133.43 181.679 133.041 181.793 132.642C181.948 132.057 182.072 131.44 182.202 130.829C181.466 130.59 179.311 129.849 178.456 129.088C177.601 128.326 176.668 127.046 176.767 125.798C176.781 125.503 176.858 125.215 176.991 124.952C177.124 124.689 177.311 124.457 177.54 124.271C177.768 124.085 178.033 123.949 178.318 123.872C178.603 123.795 178.9 123.778 179.192 123.824C180.938 124.145 182.254 127.062 182.461 128.632C182.461 128.684 182.461 129.02 182.461 129.419C182.57 128.818 182.679 128.223 182.767 127.606C183.021 125.87 183.228 124.093 183.44 122.311C183.482 121.938 183.534 121.57 183.58 121.197C182.958 121 180.616 120.217 179.72 119.414C178.824 118.611 177.933 117.378 178.031 116.129C178.046 115.835 178.122 115.547 178.255 115.284C178.388 115.021 178.575 114.789 178.804 114.602C179.033 114.416 179.298 114.28 179.582 114.203C179.867 114.126 180.165 114.11 180.456 114.155C182.202 114.476 183.518 117.394 183.72 118.963C183.72 119.02 183.72 119.425 183.746 119.875C183.876 118.906 184.015 117.943 184.186 116.995C184.468 115.364 184.857 113.755 185.352 112.176C185.135 112.103 182.368 111.243 181.373 110.357C180.492 109.565 179.585 108.316 179.689 107.067C179.699 106.771 179.772 106.481 179.903 106.216C180.034 105.951 180.221 105.717 180.45 105.53C180.679 105.343 180.946 105.207 181.232 105.132C181.518 105.057 181.817 105.043 182.109 105.093C183.855 105.414 185.171 108.331 185.378 109.901C185.378 110.015 185.414 111.456 185.404 111.974V111.917C185.931 110.378 186.593 108.888 187.383 107.466C188.083 106.194 188.857 104.964 189.699 103.782C190.466 102.673 191.254 101.71 191.927 100.86C192.306 100.404 192.663 99.9946 192.995 99.6164H192.958C192.922 99.6164 193.57 97.5438 193.627 97.435C194.269 95.9842 196.368 93.5645 198.135 93.7562C198.434 93.793 198.722 93.8939 198.979 94.052C199.236 94.2102 199.456 94.4219 199.623 94.6727C199.791 94.9235 199.903 95.2075 199.951 95.5054C199.999 95.8033 199.982 96.108 199.901 96.3987V96.3987ZM179.544 138.989C179.243 138.844 176.917 137.689 176.005 136.71C175.219 137.136 174.41 137.516 173.58 137.849C173.787 138.761 173.979 139.653 174.145 140.492C174.663 143.145 175.01 145.373 175.223 146.938C175.269 147.269 175.306 147.565 175.342 147.839H175.461C175.58 147.606 175.71 147.362 175.85 147.077C176.554 145.689 177.539 143.684 178.601 141.228C178.912 140.523 179.228 139.767 179.544 138.989ZM188.87 105.103C188.87 105.103 189.435 103.031 189.456 102.896C189.673 101.342 189.176 98.1656 187.575 97.3936C187.306 97.2729 187.015 97.2101 186.72 97.2093C186.425 97.2084 186.133 97.2696 185.863 97.3888C185.594 97.508 185.352 97.6826 185.154 97.9012C184.956 98.1198 184.807 98.3776 184.715 98.6578C184.29 99.8391 184.834 101.28 185.477 102.285C186.207 103.44 188.844 105.103 188.844 105.103H188.87Z" fill="#263238"/>
<path d="M47.182 190.258C59.71 190.258 69.8659 187.89 69.8659 184.968C69.8659 182.046 59.71 179.678 47.182 179.678C34.654 179.678 24.498 182.046 24.498 184.968C24.498 187.89 34.654 190.258 47.182 190.258Z" fill="#0071BC"/>
<path opacity="0.5" d="M47.182 190.258C59.71 190.258 69.8659 187.89 69.8659 184.968C69.8659 182.046 59.71 179.678 47.182 179.678C34.654 179.678 24.498 182.046 24.498 184.968C24.498 187.89 34.654 190.258 47.182 190.258Z" fill="white"/>
<path d="M55.5435 60.1025C55.5435 60.1025 58.6523 61.916 59.1705 65.543C59.6886 69.1699 61.1912 84.7139 61.1912 84.7139C61.1912 84.7139 66.5176 87.2787 66.6834 88.3409C66.8492 89.4031 66.8337 92.6259 62.357 94.7554C57.8803 96.8849 56.2585 94.8486 53.9891 90.4134C51.7197 85.9782 55.5435 60.1025 55.5435 60.1025Z" fill="#263238" stroke="#263238" stroke-linecap="round" stroke-linejoin="round"/>
<path d="M66.8401 89.3928C66.8401 89.3928 65.8038 92.0664 63.8349 92.0664C61.866 92.0664 62.5396 87.9991 63.5292 87.0094C64.5188 86.0198 65.5706 85.1493 67.1251 86.5638C68.6795 87.9783 66.8401 89.3928 66.8401 89.3928Z" fill="white" stroke="#263238" stroke-linecap="round" stroke-linejoin="round"/>
<path d="M60.4035 85.8955C59.6248 86.1249 58.9267 86.5695 58.3895 87.1782C57.8524 87.7868 57.498 88.5348 57.3672 89.3359" stroke="#263238" stroke-linecap="round" stroke-linejoin="round"/>
<path d="M68.9743 84.8692V81.6102C68.9743 80.6206 69.6842 79.2061 68.8344 79.2061C67.9847 79.2061 67.4199 80.3408 67.4199 81.0454V82.9003L68.9743 84.8692Z" fill="white" stroke="#263238" stroke-linecap="round" stroke-linejoin="round"/>
<path d="M46.3889 177.347C46.3889 177.347 54.8397 180.119 55.9589 180.31C57.078 180.502 56.7361 181.663 55.4407 182.502C54.1454 183.341 52.2127 183.595 47.6376 182.953C43.0625 182.31 42.2231 181.471 41.8967 181.595C41.5703 181.72 40.8034 182.373 39.705 181.854C38.6065 181.336 38.0936 179.264 39.1868 178.31C40.2801 177.357 46.3889 177.347 46.3889 177.347Z" fill="#263238" stroke="#263238" stroke-linecap="round" stroke-linejoin="round"/>
<path d="M56.5949 180.963C54.1079 182.948 47.5742 182.274 44.31 181.373C42.5275 180.877 40.666 180.731 38.8281 180.943C39.0043 181.334 39.3048 181.657 39.683 181.86C40.7815 182.378 41.5535 181.73 41.8748 181.601C42.196 181.471 43.0354 182.311 47.6157 182.958C52.196 183.606 54.1286 183.342 55.4188 182.507C56.1701 182.015 56.5898 181.414 56.5949 180.963Z" fill="#263238" stroke="#263238" stroke-linecap="round" stroke-linejoin="round"/>
<path d="M40.523 179.346C42.1808 180.862 43.9722 182.225 45.8753 183.419C48.2587 184.771 49.0981 185.673 47.9479 187.046C46.7976 188.419 45.8753 188.082 41.1137 187.046C38.4141 186.51 35.8359 185.482 33.5074 184.015C33.5074 184.015 33.3105 184.657 31.7665 184.207C30.2225 183.756 30.3468 182.533 30.7302 181.502C31.1137 180.471 36.0722 177.201 40.523 179.346Z" fill="#263238" stroke="#263238" stroke-linecap="round" stroke-linejoin="round"/>
<path d="M47.9377 187.046C48.0953 186.867 48.2262 186.666 48.3263 186.45C47.627 186.836 46.8449 187.047 46.0465 187.067C44.1553 187.092 38.1812 185.217 35.7512 183.828C33.7512 182.688 31.29 182.719 30.4766 182.766C30.4883 183.118 30.6226 183.454 30.8564 183.717C31.0901 183.98 31.4085 184.153 31.7564 184.206C33.3108 184.657 33.4973 184.015 33.4973 184.015C35.8258 185.482 38.4039 186.51 41.1035 187.046C45.8755 188.051 46.7771 188.372 47.9377 187.046Z" fill="#263238" stroke="#263238" stroke-linecap="round" stroke-linejoin="round"/>
<path d="M54.923 111.32C54.923 111.32 54.4049 119.056 52.6018 130.792C50.7987 142.527 46.1147 151.294 45.8764 155.745C45.638 160.196 45.7468 168.963 45.7468 170.771C45.7468 172.579 46.3272 171.994 46.3893 173.605C46.4515 175.216 46.3893 177.346 46.3893 177.346C45.3303 177.862 44.2318 178.294 43.1044 178.636C42.4671 178.806 41.8199 178.936 41.1665 179.025C41.1665 179.025 41.4256 179.543 40.0733 176.253C38.7209 172.963 38.1406 167.222 38.1406 161.615C38.1406 156.009 40.5862 146.009 41.493 140.336C42.3997 134.662 44.9748 120.128 45.2287 117.123C45.4362 115.087 45.8475 113.077 46.4567 111.123C48.0824 111.353 49.7325 111.353 51.3582 111.123C53.9334 110.74 54.923 111.32 54.923 111.32Z" fill="#263238" stroke="#263238" stroke-linecap="round" stroke-linejoin="round"/>
<path d="M28.5284 110.419C28.5284 110.419 30.0154 138.207 29.0465 142.72C28.0776 147.233 27.4921 148.01 27.5646 151.813C27.6372 155.616 28.2745 170.513 29.0465 174.896C29.8185 179.279 30.6009 179.476 30.4662 180.637C30.3315 181.798 30.7201 182.637 30.9843 182.829C31.2486 183.02 31.1812 183.798 34.7253 182.507C36.9859 181.674 39.203 180.726 41.3678 179.668C41.5352 178.321 41.5993 176.963 41.5595 175.606C41.5595 172.575 40.0051 170.321 40.0051 168C40.0051 165.678 39.4869 155.233 41.4247 147.943C43.3626 140.653 45.8755 124.989 46.518 120.409C47.1605 115.829 47.4248 113.254 47.4248 113.254C44.0016 113.202 40.5998 112.704 37.3056 111.772C31.8237 110.217 28.404 109.383 28.2797 109.839C28.2571 109.893 28.2456 109.952 28.2459 110.011C28.2462 110.069 28.2583 110.128 28.2815 110.182C28.3047 110.236 28.3385 110.285 28.3809 110.326C28.4233 110.366 28.4734 110.398 28.5284 110.419V110.419Z" fill="#263238" stroke="#263238" stroke-linecap="round" stroke-linejoin="round"/>
<path d="M42.3839 176.891C42.332 177.647 42.332 178.176 42.332 178.176" stroke="white" stroke-width="0.75" stroke-linecap="round" stroke-linejoin="round"/>
<path d="M47.4706 117.968C47.4706 117.968 44.7296 132.279 43.17 142.439C41.6104 152.6 38.8591 162.75 41.999 172.538C42.4417 173.387 42.622 174.348 42.5172 175.299" stroke="white" stroke-width="0.75" stroke-linecap="round" stroke-linejoin="round"/>
<path d="M35.2907 52.5432C35.2907 52.5432 24.6689 56.7401 22.5394 57.8334C20.4098 58.9266 20.0627 60.9422 20.0005 62.3567C19.9383 63.7712 25.7518 89.6365 25.7518 89.6365L24.2751 111.191C24.2751 111.191 38.9124 116.414 41.9435 116.543C44.9746 116.673 47.2285 116.673 47.2285 116.673L48.7829 112.864L49.6223 116.491C49.6223 116.491 52.2647 115.528 54.6482 114.419C57.0316 113.31 59.9383 110.424 60.13 110.486C60.3217 110.548 56.7725 93.2634 56.7725 93.2634C56.7725 93.2634 57.2907 63.1753 56.4616 60.7246C55.6326 58.2738 45.3166 54.3049 45.3166 54.3049C45.3166 54.3049 41.5549 53.994 39.4254 53.6728C37.2958 53.3515 35.871 52.222 35.2907 52.5432Z" fill="#263238" stroke="#263238" stroke-linecap="round" stroke-linejoin="round"/>
<path d="M29.0625 112.994C29.0625 112.994 35.1247 115.175 38.534 115.859C41.2541 116.314 44.0045 116.563 46.762 116.605L48.7775 112.864L49.6169 116.491L53.99 114.75" stroke="white" stroke-width="0.75" stroke-linecap="round" stroke-linejoin="round"/>
<path d="M56.3418 65.9219C56.3418 65.9219 58.0827 73.953 57.8133 78.6317" stroke="white" stroke-width="0.75" stroke-linecap="round" stroke-linejoin="round"/>
<path d="M39.4247 53.6729C37.3003 53.3516 35.7511 53.1547 35.1708 53.4812L34.834 53.6936L42.2018 78.6936L44.8443 82.6884L46.9687 76.6936C46.9687 76.6936 47.6682 67.2791 47.6682 63.1547C47.6478 60.7533 47.5025 58.3546 47.2329 55.9682C46.1967 55.5071 45.5438 55.2221 45.5438 55.2221C43.5331 54.5974 41.4904 54.0803 39.4247 53.6729V53.6729Z" fill="white" stroke="#263238" stroke-linecap="round" stroke-linejoin="round"/>
<path d="M40.0723 60.8339L43.4868 65.0878L42.2018 78.694L44.8443 82.6888C44.8443 82.6888 46.7148 76.6318 46.7148 76.8235C46.7148 77.0152 44.523 64.3883 44.523 64.3883L46.7148 60.4557L44.3262 56.0049L40.0723 60.8339Z" fill="#263238" stroke="#263238" stroke-linecap="round" stroke-linejoin="round"/>
<path d="M44.5859 58.1856L47.6792 63.1546L47.5497 54.8333L45.2958 52.6416L44.5859 58.1856Z" fill="white" stroke="#263238" stroke-linecap="round" stroke-linejoin="round"/>
<path d="M37.3633 42.9055C37.3633 42.9055 37.4306 53.0921 37.4306 53.5428C37.4306 53.9936 44.1353 61.3459 44.1353 61.3459L46.7778 49.9988C46.7778 49.9988 41.7467 48.3874 40.3322 46.3252C38.9177 44.2631 37.6845 42.4548 37.3633 42.9055Z" fill="white" stroke="#263238" stroke-linecap="round" stroke-linejoin="round"/>
<path d="M36.9743 50.3877L43.0364 57.2841L39.5546 64.0561L34.6582 53.0924L36.9743 50.3877Z" fill="white" stroke="#263238" stroke-linecap="round" stroke-linejoin="round"/>
<path d="M43.0362 57.2842L44.1347 61.3463L41.7461 59.8645L43.0362 57.2842Z" fill="white" stroke="#263238" stroke-linecap="round" stroke-linejoin="round"/>
<path d="M44.5756 91.1443L44.617 90.8749L45.0419 88.165L42.7051 88.6624L44.5756 91.1443Z" fill="white" stroke="#263238" stroke-linecap="round" stroke-linejoin="round"/>
<path d="M43.1457 92.1698L43.7208 91.0869L42.3633 91.1957L43.1457 92.1698Z" fill="#0071BC" stroke="#263238" stroke-linecap="round" stroke-linejoin="round"/>
<path d="M42.2738 84.942C42.5329 84.7089 45.5018 84.3669 46.7713 84.0197C48.2168 83.755 49.6805 83.6009 51.1495 83.5586L57.1391 86.3254C57.1391 86.3254 57.9474 86.7866 56.9112 87.1337C55.8749 87.4809 51.7298 85.9783 51.7298 85.9783C51.7298 85.9783 53.5744 87.9368 53.5744 88.398C53.5744 88.8591 50.6935 91.1648 49.7713 91.5068C48.849 91.8488 46.7764 91.5068 46.4293 91.3928C46.0821 91.2788 45.507 90.5845 46.3153 90.5845H47.1184C46.3695 90.2341 45.6014 89.9262 44.8179 89.6622C44.1976 89.4085 43.6443 89.0149 43.2013 88.512H41.7039C41.7039 88.512 41.0096 86.0923 42.2738 84.942Z" fill="white" stroke="#263238" stroke-linecap="round" stroke-linejoin="round"/>
<path d="M49.6523 86.4395C49.6523 86.4395 51.958 88.17 51.958 88.6312C51.958 89.0923 51.8389 90.0146 51.8389 90.0146" stroke="#263238" stroke-linecap="round" stroke-linejoin="round"/>
<path d="M48.1562 87.5947C48.8332 88.0978 49.4504 88.6767 49.9956 89.3201C50.3427 89.8952 49.7676 91.5118 49.7676 91.5118" stroke="#263238" stroke-linecap="round" stroke-linejoin="round"/>
<path d="M51.7257 85.9789L50.6895 85.1758" stroke="#263238" stroke-linecap="round" stroke-linejoin="round"/>
<path d="M41.2287 84.5225L43.5966 84.6105C43.5966 84.6105 42.9179 85.5432 43.3168 87.5846C43.5648 88.8251 43.9888 90.0237 44.5759 91.1442L41.752 91.2945C41.752 91.2945 38.7054 87.6416 41.2287 84.5225Z" fill="white" stroke="#263238" stroke-linecap="round" stroke-linejoin="round"/>
<path d="M31.6061 71.5023L30.1657 85.0308L41.632 84.4556C41.632 84.4556 41.1139 87.4038 41.5491 89.0722C41.8765 90.2014 42.4183 91.2568 43.145 92.181C39.7911 93.5227 36.2729 94.4097 32.6838 94.8184C29.1773 95.2003 25.6512 95.3734 22.1242 95.3365C21.1625 95.2769 20.2554 94.8689 19.5726 94.189C18.8898 93.5091 18.478 92.6037 18.4144 91.6422C17.8703 83.3261 19.4506 61.8494 19.5698 60.4142C19.746 58.6266 21.7874 57.9738 22.8185 58.0878C23.8496 58.2017 27.3056 60.5593 28.6165 63.6111" fill="#263238"/>
<path d="M31.6061 71.5023L30.1657 85.0308L41.632 84.4556C41.632 84.4556 41.1139 87.4038 41.5491 89.0722C41.8765 90.2014 42.4183 91.2568 43.145 92.181C39.7911 93.5227 36.2729 94.4097 32.6838 94.8184C29.1773 95.2003 25.6512 95.3734 22.1242 95.3365C21.1625 95.2769 20.2554 94.8689 19.5726 94.189C18.8898 93.5091 18.478 92.6037 18.4144 91.6422C17.8703 83.3261 19.4506 61.8494 19.5698 60.4142C19.746 58.6266 21.7874 57.9738 22.8185 58.0878C23.8496 58.2017 27.3056 60.5593 28.6165 63.6111" stroke="#263238" stroke-linecap="round" stroke-linejoin="round"/>
<path d="M31.5539 73.9785L30.1602 85.0148L41.2275 84.5226" stroke="white" stroke-width="0.75" stroke-linecap="round" stroke-linejoin="round"/>
<path d="M30.161 85.0146C30.161 85.0146 26.6895 85.4447 25.1973 87.1908" stroke="white" stroke-width="0.75" stroke-linecap="round" stroke-linejoin="round"/>
<path d="M25.5704 85.3203C25.5704 85.3203 22.5807 86.6934 22.0781 88.6882" stroke="white" stroke-width="0.75" stroke-linecap="round" stroke-linejoin="round"/>
<path d="M42.8967 92.5488C42.8967 92.5488 31.6791 95.0411 26.6895 95.1706" stroke="white" stroke-width="0.75" stroke-linecap="round" stroke-linejoin="round"/>
<path d="M55.0162 33.2528C55.0162 33.2528 54.6535 36.7243 53.4048 43.6155C52.1561 50.5067 50.6224 54.315 48.0732 53.9212C45.524 53.5275 39.7468 51.0456 38.4981 49.258C37.7114 47.9844 37.2736 46.5263 37.2286 45.03C37.2286 45.03 35.1043 45.1699 34.7157 42.6104C34.3271 40.0508 35.5654 38.6363 36.5965 38.3668C37.6276 38.0974 39.6483 39.2425 40.1146 37.0352C40.581 34.828 38.5602 32.8228 40.0836 31.3927C41.6069 29.9627 45.41 29.4705 48.8919 30.1648C51.0694 30.6336 53.1143 31.5843 54.8763 32.9471L55.0162 33.2528Z" fill="white" stroke="#263238" stroke-linecap="round" stroke-linejoin="round"/>
<path d="M48.4196 41.4863V42.7039C47.9587 42.9858 47.4073 43.0801 46.8789 42.9673C46.3506 42.8545 45.8858 42.5432 45.5802 42.0977" stroke="#263238" stroke-linecap="round" stroke-linejoin="round"/>
<path d="M53.2851 42.0928V43.3104C53.003 43.4742 52.6885 43.5744 52.3636 43.604C52.0387 43.6335 51.7113 43.5917 51.4043 43.4814" stroke="#263238" stroke-linecap="round" stroke-linejoin="round"/>
<path d="M50.0416 48.3825C50.0416 48.3825 48.6219 47.9784 47.4043 47.5742" stroke="#263238" stroke-linecap="round" stroke-linejoin="round"/>
<path d="M51.0462 42.1025C51.0462 42.1025 51.7146 46.0196 51.4866 46.5689C51.2586 47.1181 49.4141 46.3564 49.4141 46.3564" stroke="#263238" stroke-linecap="round" stroke-linejoin="round"/>
<path d="M45.125 38.6053C45.125 38.6053 46.41 36.9369 48.7519 38.0871" stroke="#263238" stroke-linecap="round" stroke-linejoin="round"/>
<path d="M51.4922 38.9062C51.4922 38.9062 52.9792 37.9269 53.6787 39.4969" stroke="#263238" stroke-linecap="round" stroke-linejoin="round"/>
<path d="M57.1347 72.3463L51.2953 91.709C51.2161 91.9723 51.2032 92.2511 51.2578 92.5206C51.3123 92.7901 51.4326 93.0419 51.608 93.2537C51.7834 93.4655 52.0084 93.6306 52.263 93.7345C52.5176 93.8383 52.7939 93.8776 53.0674 93.8489L62.8601 92.8126C63.1773 92.7796 63.4783 92.656 63.7273 92.4566C63.9763 92.2573 64.1626 91.9906 64.2643 91.6883L70.342 73.6572C70.4244 73.411 70.4482 73.1491 70.4115 72.8921C70.3749 72.6351 70.2788 72.3903 70.1309 72.177C69.983 71.9637 69.7874 71.7878 69.5596 71.6634C69.3318 71.539 69.0781 71.4694 68.8187 71.4603L58.7668 71.1183C58.3972 71.1133 58.0363 71.2311 57.7409 71.4534C57.4455 71.6756 57.2323 71.9897 57.1347 72.3463V72.3463Z" fill="#0071BC" stroke="#263238" stroke-linecap="round" stroke-linejoin="round"/>
<path d="M68.1234 82.6051C68.1234 82.6051 65.5793 81.1854 64.5897 81.4704C64.3149 81.5403 64.0754 81.7088 63.9168 81.9439C63.7582 82.1789 63.6916 82.464 63.7296 82.745L67.1234 84.1595C67.1234 84.1595 62.3151 83.3098 61.6052 83.3098C60.8954 83.3098 60.4757 84.4445 61.1804 84.7243C61.9368 85.0144 65.9731 85.8486 65.9731 85.8486C65.9731 85.8486 60.8747 84.7139 60.7348 85.4238C60.5949 86.1336 62.2892 86.5533 62.2892 86.5533C62.2892 86.5533 62.0042 87.688 62.569 87.8279C63.1337 87.9678 65.1182 88.8175 65.1182 88.8175C65.1182 88.8175 65.8229 89.1025 66.8125 89.3823C67.8021 89.6621 68.6571 86.6984 69.0767 85.5637C69.4964 84.429 68.1234 82.6051 68.1234 82.6051Z" fill="white" stroke="#263238" stroke-linecap="round" stroke-linejoin="round"/>
<path d="M62.3262 86.5645L65.435 87.5541" stroke="#263238" stroke-linecap="round" stroke-linejoin="round"/>
<path d="M37.3049 38.248C37.3049 38.248 38.8593 39.4811 38.994 40.0977C39.1287 40.7143 39.6106 41.4811 40.3826 40.7091C41.1546 39.9371 40.8438 38.8646 42.3826 37.1703C43.9215 35.476 41.9215 34.3982 41.9215 33.0252C41.9215 31.6521 44.5122 30.7143 47.1546 31.02C49.7971 31.3257 49.9267 32.7143 51.1598 32.8697C52.4025 32.9688 53.6494 33.0034 54.8956 32.9734L54.6987 34.564C54.6987 34.564 55.7764 34.8697 57.9318 32.7143C60.0873 30.5589 56.5484 28.2532 56.5484 28.2532C56.5484 28.2532 56.5484 27.9423 53.9318 25.1444C51.3153 22.3464 48.3878 22.0666 42.9992 23.4552C37.6106 24.8438 34.222 28.3775 33.2997 29.9164C32.3774 31.4552 35.766 38.2065 35.766 38.2065L37.3049 38.248Z" fill="#263238" stroke="#263238" stroke-linecap="round" stroke-linejoin="round"/>
<path d="M51.1353 32.8591C51.9074 32.6982 52.6193 32.3248 53.1905 31.781C53.7618 31.2372 54.1698 30.5446 54.3685 29.7814C54.985 27.1907 53.5964 24.8539 50.3633 23.9316" stroke="white" stroke-linecap="round" stroke-linejoin="round"/>
<path d="M50.6725 31.9374C50.6725 31.9374 51.4393 27.3156 47.9004 26.0876C44.3616 24.8596 39.2787 27.1653 36.6621 29.471" stroke="white" stroke-linecap="round" stroke-linejoin="round"/>
<path d="M36.5136 35.3047C36.0421 35.8695 35.752 36.2684 35.752 36.2684" stroke="white" stroke-linecap="round" stroke-linejoin="round"/>
<path d="M45.2858 31.0093C45.2858 31.0093 41.9594 29.6518 40.1045 31.4082C39.3169 32.144 38.4309 33.1077 37.6641 33.9989" stroke="white" stroke-linecap="round" stroke-linejoin="round"/>
</g>
<defs>
<clipPath id="clip0_802_10757">
<rect width="200" height="190.674" fill="white"/>
</clipPath>
</defs>
</svg>
