<svg width="569" height="427" viewBox="0 0 569 427" fill="none" xmlns="http://www.w3.org/2000/svg">
<path d="M123.289 358.077C135.914 358.077 148.538 358.077 161.163 358.077C161.839 358.077 161.839 357.009 161.163 357.009C148.538 357.009 135.914 357.009 123.289 357.009C122.613 357.009 122.613 358.077 123.289 358.077Z" fill="#161616"/>
<path d="M163.442 368.395C190.22 368.395 216.963 368.395 243.742 368.395C244.417 368.395 244.417 367.328 243.742 367.328C216.963 367.328 190.22 367.328 163.442 367.328C162.766 367.328 162.766 368.395 163.442 368.395Z" fill="#161616"/>
<path d="M265.539 358.645C291.678 358.645 317.78 358.645 343.919 358.645C369.915 358.645 395.947 358.645 421.943 358.645C436.737 358.645 451.495 358.645 466.289 358.645C466.965 358.645 466.965 357.577 466.289 357.577C440.151 357.577 414.048 357.577 387.91 357.577C361.914 357.577 335.882 357.577 309.886 357.577C295.092 357.577 280.333 357.577 265.539 357.577C264.863 357.577 264.863 358.645 265.539 358.645Z" fill="#161616"/>
<path d="M381.401 351.173C411.772 351.173 442.142 351.173 472.512 351.173C481.154 351.173 489.76 351.173 498.402 351.173C499.077 351.173 499.077 350.106 498.402 350.106C468.031 350.106 437.661 350.106 407.291 350.106C398.649 350.106 390.043 350.106 381.401 350.106C380.726 350.106 380.726 351.173 381.401 351.173Z" fill="#161616"/>
<path d="M441.646 370.102C468.531 370.102 495.452 370.102 522.337 370.102C530.054 370.102 537.736 370.102 545.453 370.102C546.129 370.102 546.129 369.034 545.453 369.034C518.568 369.034 491.647 369.034 464.762 369.034C457.045 369.034 449.363 369.034 441.646 369.034C440.935 369.034 440.935 370.102 441.646 370.102Z" fill="#161616"/>
<path d="M447.735 27.7909C454.954 31.3137 457.23 39.6402 458.048 47.0059C459.151 56.8981 458.902 67.1105 458.831 77.0383C458.688 98.7441 457.408 120.45 456.234 142.12C453.923 185.425 451.576 228.73 449.264 272.035C447.948 296.409 446.633 320.784 445.352 345.159C445.317 345.835 446.384 345.835 446.419 345.159C448.802 300.893 451.185 256.627 453.532 212.397C454.705 190.371 455.879 168.381 457.088 146.355C458.262 124.435 459.613 102.516 459.897 80.561C459.969 74.4407 459.969 68.3204 459.826 62.1644C459.72 56.9337 459.684 51.6674 459.079 46.4722C458.155 38.8929 455.701 30.4241 448.304 26.8302C447.664 26.5811 447.13 27.5063 447.735 27.7909Z" fill="#E8E8E8"/>
<path d="M429.061 20.7451C437.169 22.0972 444.779 25.2286 451.501 29.9256C452.07 30.317 452.603 29.3918 452.034 29.0004C445.242 24.2678 437.489 21.1009 429.345 19.7131C428.67 19.5708 428.385 20.6027 429.061 20.7451Z" fill="#E8E8E8"/>
<path d="M397.585 10.3551C408.645 11.4938 420.559 12.9527 429.058 20.8878C429.556 21.3503 430.303 20.6031 429.805 20.1405C421.092 11.9919 408.965 10.4618 397.585 9.28758C396.874 9.21642 396.91 10.2839 397.585 10.3551Z" fill="#E8E8E8"/>
<path d="M428.812 20.9231C427.283 32.3097 420.989 42.8068 411.636 49.4609C411.067 49.8523 411.6 50.7775 412.169 50.3861C421.878 43.4473 428.315 32.7367 429.879 20.9231C429.986 20.247 428.919 20.247 428.812 20.9231Z" fill="#E8E8E8"/>
<path d="M396.91 9.7507C406.228 21.0662 411.242 35.5486 410.958 50.2089C410.958 50.885 412.024 50.885 412.024 50.2089C412.273 35.2639 407.152 20.5324 397.657 9.00345C397.23 8.4697 396.484 9.21695 396.91 9.7507Z" fill="#E8E8E8"/>
<path d="M402.499 22.1691C398.231 21.8844 394.284 27.2575 396.347 31.2428C397.876 34.1962 403.672 35.7619 405.7 32.5594C406.055 31.9901 405.13 31.4563 404.775 32.0256C403.175 34.5876 398.196 32.8441 397.236 30.5311C395.813 27.1863 399.085 22.9875 402.534 23.2366C403.175 23.2721 403.175 22.2046 402.499 22.1691Z" fill="#E8E8E8"/>
<path d="M396.628 9.53685C397.019 14.5185 397.801 19.4646 399.01 24.3039C399.188 24.98 400.219 24.6953 400.041 24.0193C398.868 19.2511 398.086 14.4118 397.694 9.53685C397.623 8.86076 396.556 8.86076 396.628 9.53685Z" fill="#E8E8E8"/>
<path d="M403.28 34.4805C405.627 39.818 407.974 45.1555 410.285 50.493C410.57 51.1335 411.494 50.5642 411.21 49.9593C408.863 44.6218 406.516 39.2843 404.204 33.9468C403.955 33.3418 403.031 33.8756 403.28 34.4805Z" fill="#E8E8E8"/>
<path d="M403.563 34.0189C404.95 38.0042 406.373 41.9895 408.542 45.6546C408.898 46.2595 409.787 45.7258 409.467 45.1209C407.546 41.5269 406.159 37.7551 405.27 33.8054C404.986 33.9833 404.666 34.1612 404.381 34.3391C404.417 34.3747 404.417 34.3747 404.452 34.4103C404.417 34.1968 404.381 33.9833 404.381 33.7698C404.346 33.8054 404.346 33.8409 404.31 33.8765C404.595 33.8409 404.879 33.8054 405.164 33.7698C405.128 33.6986 408.293 30.8164 408.507 30.6384C408.222 30.5673 407.902 30.4961 407.617 30.3894C408.364 33.6274 408.862 36.9011 409.182 40.2104C409.538 40.1748 409.893 40.1036 410.214 40.068C409.609 37.7551 408.827 35.4778 407.902 33.2716C407.653 32.6667 406.728 32.8802 406.871 33.5563C407.475 36.4385 408.044 39.3208 408.649 42.2386C409.004 42.1319 409.324 42.0607 409.68 41.9539C408.898 39.5343 408.044 37.1858 407.084 34.8373C406.835 34.1968 405.875 34.4459 406.053 35.1219C406.764 37.7907 407.475 40.495 408.186 43.1638C408.507 43.0214 408.827 42.8791 409.147 42.7368C408.151 40.4239 407.191 38.1109 406.195 35.7624C405.946 35.2287 405.021 35.6201 405.235 36.1894C406.657 40.0324 408.08 43.8754 409.431 47.754C409.645 48.3945 410.64 48.1454 410.462 47.4694C409.929 45.5834 409.538 43.6619 409.36 41.7049C409.004 41.7404 408.649 41.8116 408.329 41.8472C408.969 44.0534 409.609 46.2595 410.249 48.4657C410.427 49.1418 411.423 48.8571 411.28 48.181C410.711 45.6902 410.32 43.1638 410.071 40.6018C409.716 40.6374 409.36 40.7085 409.04 40.7441C409.502 43.3417 409.929 45.9393 410.569 48.5013C410.711 49.0706 411.672 48.9639 411.6 48.3589C411.316 45.1564 410.783 41.9895 410 38.8582C409.822 38.1821 408.827 38.4668 408.969 39.1429C409.218 40.2459 409.218 41.3134 409.076 42.4521C409.396 42.3454 409.751 42.2742 410.071 42.1674C409.182 40.6374 408.613 39.0717 408.4 37.3281C408.329 36.7944 407.724 36.5809 407.404 37.0434C407.155 37.3993 406.942 37.7551 406.693 38.1109C407.013 38.1109 407.297 38.1109 407.617 38.1109C407.155 37.0434 406.977 36.0471 407.013 34.8729C406.657 34.8729 406.302 34.8729 405.946 34.8729C405.875 35.1219 405.804 35.371 405.733 35.6201C406.017 35.6913 406.337 35.7624 406.622 35.8692C406.444 34.944 406.444 34.2324 406.515 33.3428C406.159 33.3784 405.804 33.4495 405.484 33.4851C405.413 33.8765 405.377 34.2679 405.306 34.6594C405.626 34.6594 405.911 34.6594 406.231 34.6594C406.373 34.1612 406.551 33.663 406.693 33.1649C406.444 33.0581 406.159 32.9514 405.91 32.8446C405.733 33.4139 405.555 33.9833 405.377 34.5526C405.662 34.7305 405.982 34.9084 406.266 35.0864C406.515 33.9477 407.013 33.1293 407.866 32.3109C407.582 32.2397 407.262 32.1685 406.977 32.0618C407.12 33.0225 407.013 33.8054 406.693 34.7305C407.048 34.7661 407.404 34.8373 407.724 34.8729C407.724 34.09 407.831 33.4139 408.115 32.6667C407.76 32.6311 407.404 32.5599 407.084 32.5244C407.084 33.1649 407.12 33.8054 407.12 34.4459C407.12 35.0152 408.08 35.1931 408.151 34.5882C408.258 33.9477 408.364 33.3072 408.471 32.6667C408.115 32.6667 407.795 32.6667 407.44 32.6667C407.44 33.0225 407.404 33.3784 407.404 33.7698C407.12 34.4103 408.044 34.944 408.329 34.3035C408.649 33.5919 408.72 33.1649 408.471 32.382C408.329 31.9194 407.546 31.8483 407.44 32.382C407.333 33.0225 407.226 33.663 407.12 34.3035C407.475 34.3391 407.831 34.4103 408.151 34.4459C408.151 33.8054 408.115 33.1649 408.115 32.5244C408.115 31.9194 407.262 31.8127 407.084 32.382C406.764 33.236 406.657 33.9833 406.657 34.8729C406.657 35.4778 407.511 35.5845 407.689 35.0152C408.08 33.9121 408.151 32.9514 407.973 31.7771C407.902 31.3501 407.333 31.3145 407.084 31.528C406.124 32.4176 405.519 33.4851 405.199 34.7661C405.093 35.2643 405.697 35.6913 406.088 35.2999C406.835 34.4814 407.084 33.663 406.871 32.5599C406.8 32.2397 406.337 32.0618 406.088 32.2397C405.021 32.9514 404.737 34.0189 405.235 35.1931C405.413 35.5845 405.946 35.4778 406.159 35.1931C406.622 34.517 406.693 33.9477 406.444 33.2004C406.231 32.5955 405.448 32.7379 405.413 33.3428C405.306 34.3035 405.377 35.1931 405.555 36.1539C405.626 36.5453 406.195 36.652 406.444 36.4029C406.871 35.9404 407.048 35.5845 406.977 34.9084C406.906 34.2324 405.91 34.1968 405.91 34.9084C405.875 36.2606 406.124 37.4349 406.657 38.6803C406.835 39.0717 407.369 38.9649 407.582 38.6803C407.831 38.3244 408.044 37.9686 408.293 37.6128C407.973 37.506 407.617 37.4349 407.297 37.3281C407.546 39.2852 408.115 41.0288 409.111 42.7012C409.396 43.1994 410.036 42.9147 410.107 42.4165C410.285 41.1711 410.214 40.068 409.965 38.8226C409.609 38.9294 409.289 39.0005 408.933 39.1073C409.716 42.1319 410.214 45.2276 410.498 48.3234C410.854 48.2878 411.209 48.2166 411.529 48.181C410.925 45.619 410.462 43.0214 410 40.4239C409.893 39.8189 408.898 39.9613 408.969 40.5662C409.218 43.2349 409.609 45.8325 410.214 48.4301C410.569 48.3234 410.889 48.2522 411.245 48.1454C410.605 45.9393 409.965 43.7331 409.324 41.5269C409.147 40.9576 408.222 41.0644 408.293 41.6693C408.507 43.7331 408.862 45.7258 409.431 47.7184C409.787 47.6117 410.107 47.5405 410.462 47.4338C409.076 43.5552 407.689 39.7122 406.266 35.8692C405.946 36.0115 405.626 36.1539 405.306 36.2962C406.302 38.6091 407.262 40.922 408.258 43.2705C408.507 43.8399 409.396 43.4129 409.218 42.8435C408.507 40.1748 407.795 37.4704 407.084 34.8017C406.728 34.9084 406.408 34.9796 406.053 35.0864C406.977 37.4349 407.831 39.8189 408.649 42.203C408.862 42.8435 409.822 42.5944 409.68 41.9184C409.076 39.0361 408.507 36.1539 407.902 33.236C407.546 33.3428 407.226 33.4139 406.871 33.5207C407.795 35.7269 408.578 38.0042 409.182 40.3171C409.324 40.8864 410.285 40.7797 410.214 40.1748C409.893 36.7588 409.36 33.4139 408.613 30.0691C408.507 29.6777 408.009 29.5709 407.724 29.82C406.728 30.7452 404.986 31.8483 404.31 33.0581C403.99 33.663 403.99 33.9833 404.381 34.4459C404.63 34.7305 405.021 34.5882 405.235 34.3391C405.27 34.3035 405.27 34.2679 405.306 34.2324C405.448 34.0544 405.377 33.7342 405.235 33.5919C405.199 33.5563 405.199 33.5563 405.164 33.5207C404.773 33.1293 404.168 33.5207 404.275 34.0544C405.164 38.1109 406.586 41.9895 408.578 45.619C408.898 45.4411 409.182 45.2632 409.502 45.0853C407.404 41.4914 405.982 37.6128 404.63 33.6986C404.346 33.0937 403.314 33.3784 403.563 34.0189Z" fill="#E8E8E8"/>
<path d="M397.197 11.0657C398.228 14.8731 398.975 18.7161 399.473 22.5947C399.508 22.9861 399.9 23.2708 400.291 23.0573C401.464 22.4168 402.638 21.9542 403.954 21.634C404.274 21.5628 404.452 21.1358 404.274 20.8511C402.638 18.3959 401.109 15.8695 399.686 13.3075C399.366 12.7025 398.477 13.2363 398.762 13.8412C399.722 15.9406 400.469 18.1112 401.073 20.3174C401.393 20.175 401.713 20.0327 402.033 19.8904C401.215 18.3247 400.646 16.7235 400.291 14.9799C399.971 15.1222 399.651 15.2645 399.331 15.4069C400.646 17.3284 401.358 19.4278 401.464 21.7407C401.784 21.5984 402.069 21.4916 402.389 21.3493C401.571 20.602 401.109 19.7836 400.86 18.6805C400.611 18.894 400.326 19.072 400.077 19.2855C400.824 19.8548 401.073 20.4953 400.895 21.2425C401.215 21.1358 401.571 21.0646 401.891 20.9579C401.002 19.7836 400.291 18.5382 399.651 17.2216C399.402 17.4707 399.153 17.7198 398.904 17.9689C399.9 18.6094 401.215 24.9788 403.74 22.0965C404.665 21.029 404.131 19.6769 403.527 18.5738C402.531 16.7235 401.286 15.0154 400.006 13.3786C399.615 12.8804 398.868 13.521 399.153 14.0191C400.54 16.4032 401.571 18.894 402.247 21.5628C402.567 21.4205 402.887 21.2781 403.207 21.1358C403.065 20.8155 402.922 20.5309 402.78 20.2106C402.531 20.4597 402.282 20.7088 402.033 20.9579C402.033 20.9223 402.033 20.9223 402.033 20.8867C401.82 21.0646 401.571 21.2425 401.358 21.3849C401.82 21.5628 402.318 21.7407 402.78 21.9186C403.42 22.1677 403.705 21.1358 403.065 20.8867C402.602 20.7088 402.104 20.5309 401.642 20.353C401.322 20.2106 400.966 20.5665 400.966 20.8511C400.931 23.6622 404.914 21.4205 402.567 19.9971C402.069 19.7125 401.607 20.2818 401.82 20.7444C401.962 21.0646 402.104 21.3493 402.247 21.6695C402.496 22.2389 403.349 21.8119 403.207 21.2425C402.496 18.467 401.464 15.905 400.006 13.4498C399.722 13.6633 399.437 13.8768 399.153 14.0903C399.935 15.1222 400.682 16.1541 401.393 17.2216C401.678 17.6486 401.962 18.0756 402.211 18.5382C402.424 18.8584 402.602 19.2143 402.745 19.5701C403.314 20.3174 402.887 20.7444 401.429 20.8155C400.931 20.4241 400.86 19.1075 400.646 18.5382C400.362 17.8265 400.006 17.364 399.366 16.9725C398.868 16.6879 398.441 17.2572 398.619 17.7198C399.259 19.072 399.971 20.2818 400.86 21.456C401.18 21.883 401.784 21.7407 401.855 21.1714C401.998 19.926 401.535 19.0008 400.504 18.2891C400.113 18.0045 399.615 18.467 399.722 18.894C400.006 20.1395 400.611 21.1714 401.535 22.0254C401.855 22.31 402.46 22.1321 402.46 21.634C402.353 19.1075 401.571 16.8302 400.184 14.7664C399.828 14.2682 399.082 14.5885 399.224 15.1934C399.615 17.0081 400.22 18.7161 401.073 20.353C401.358 20.8867 402.211 20.5309 402.033 19.926C401.429 17.613 400.611 15.3713 399.615 13.2007C399.295 13.3786 399.01 13.5565 398.69 13.7344C400.113 16.332 401.642 18.8229 403.278 21.2781C403.385 21.029 403.491 20.7444 403.598 20.4953C402.211 20.8155 400.931 21.3137 399.686 22.0254C399.971 22.1677 400.22 22.3456 400.504 22.488C400.006 18.5026 399.259 14.5529 398.193 10.6743C398.05 10.1049 397.019 10.3896 397.197 11.0657Z" fill="#E8E8E8"/>
<path d="M397.231 29.2141C396.413 27.1859 398.369 25.3 399.934 24.3748C401.463 23.4496 403.17 23.1294 404.948 23.2361C405.446 23.2717 405.589 22.6668 405.34 22.311C405.02 21.9195 404.735 21.5281 404.415 21.1367C404.131 20.7809 403.455 21.0655 403.49 21.5281C403.384 20.8165 402.388 21.2435 401.926 21.2435C400.219 21.2079 400.894 20.8876 400.823 19.9269C400.681 18.7526 400.005 17.5428 399.721 16.4041C399.294 14.7317 399.081 13.0593 398.938 11.3513C398.903 10.6752 397.836 10.6752 397.872 11.3513C398.014 13.3796 398.298 15.3722 398.832 17.3293C399.081 18.1833 399.685 19.2508 399.579 20.1404C399.543 20.5318 399.258 20.8165 399.258 21.2079C399.294 22.0263 400.112 22.5245 400.859 22.5245C401.677 22.5245 402.495 22.3466 403.348 22.3821C403.81 22.4177 403.882 22.5245 404.308 22.2398C404.451 22.133 404.593 21.9551 404.557 21.7772C404.557 21.706 404.522 21.5993 404.522 21.5281C404.202 21.6705 403.917 21.7772 403.597 21.9195C403.917 22.311 404.202 22.7024 404.522 23.0938C404.664 22.7736 404.771 22.4889 404.913 22.1686C401.428 21.9551 394.28 24.8374 396.165 29.4988C396.449 30.1393 397.48 29.8546 397.231 29.2141Z" fill="#E8E8E8"/>
<path d="M399.261 23.2354C397.696 24.5164 396.487 26.3312 396.238 28.395C396.025 30.2097 397.127 31.811 398.478 32.9497C402.106 36.0454 405.982 32.5938 408.258 29.676C408.685 29.1422 407.938 28.395 407.511 28.9287C405.662 31.3128 402.426 34.8 399.261 32.2024C397.874 31.0637 397.02 29.4981 397.483 27.6833C397.874 26.1888 398.834 24.9434 400.043 23.9827C400.577 23.5557 399.794 22.8084 399.261 23.2354Z" fill="#E8E8E8"/>
<path d="M409.894 36.4013C409.894 36.3657 409.894 36.3301 409.858 36.2945C409.787 36.508 409.68 36.6859 409.609 36.8994C409.645 36.8639 409.68 36.8639 409.716 36.8283C409.467 36.7571 409.218 36.6859 408.969 36.6504C409.467 37.4332 409.467 38.8565 409.609 39.7461C409.787 40.9204 409.965 42.1302 410.107 43.3044C410.321 45.3327 410.427 47.3609 410.498 49.4248C410.498 50.1009 411.565 50.1009 411.565 49.4248C411.494 46.9339 411.352 44.4431 411.032 41.9523C410.925 40.9915 410.783 40.0664 410.605 39.1056C410.463 38.1449 410.427 36.8994 409.894 36.081C409.752 35.8319 409.431 35.7608 409.147 35.9031C409.111 35.9387 409.076 35.9387 409.04 35.9743C408.827 36.081 408.72 36.3657 408.791 36.5792C408.791 36.6148 408.791 36.6504 408.827 36.6859C409.04 37.362 410.072 37.0774 409.894 36.4013Z" fill="#E8E8E8"/>
<path d="M397.552 11.2804C398.797 12.8463 399.722 14.5902 400.327 16.512C400.54 17.1526 401.572 16.8679 401.358 16.2273C400.682 14.1275 399.686 12.2413 398.299 10.533C397.908 9.9636 397.126 10.7466 397.552 11.2804Z" fill="#E8E8E8"/>
<path d="M368.858 16.761C373.73 18.1488 378.637 19.3586 383.616 20.3549C384.292 20.4973 384.576 19.4654 383.901 19.323C378.922 18.3267 374.014 17.1169 369.142 15.7291C368.502 15.5156 368.218 16.5475 368.858 16.761Z" fill="#E8E8E8"/>
<path d="M356.41 33.3776C365.728 32.6303 374.939 30.8867 383.936 28.1824C384.576 27.9689 384.327 26.937 383.651 27.1505C374.761 29.8192 365.657 31.5628 356.41 32.2745C355.735 32.3457 355.735 33.4132 356.41 33.3776Z" fill="#E8E8E8"/>
<path d="M390.261 33.9126C388.127 35.2294 386.135 36.7241 384.25 38.3612C383.717 38.8238 384.499 39.5712 384.997 39.1086C386.811 37.5426 388.767 36.1191 390.795 34.8379C391.399 34.482 390.866 33.5567 390.261 33.9126Z" fill="#E8E8E8"/>
<path d="M390.945 45.3335C383.334 51.9164 375.688 58.4993 368.078 65.0822C367.544 65.5448 368.327 66.2921 368.825 65.8295C376.435 59.2466 384.081 52.6636 391.691 46.0807C392.225 45.6537 391.478 44.8709 390.945 45.3335Z" fill="#E8E8E8"/>
<path d="M393.819 53.4468C391.508 57.8591 389.161 62.307 386.849 66.7193C386.529 67.3243 387.454 67.858 387.774 67.2531C390.085 62.8408 392.432 58.3928 394.744 53.9805C395.064 53.3756 394.139 52.8418 393.819 53.4468Z" fill="#E8E8E8"/>
<path d="M400.082 55.9393C398.908 62.8781 398.197 69.888 397.913 76.9335C397.877 77.6096 398.944 77.6096 398.98 76.9335C399.264 69.9947 399.975 63.056 401.113 56.224C401.22 55.5479 400.189 55.2632 400.082 55.9393Z" fill="#E8E8E8"/>
<path d="M431.945 21.8123C441.049 20.6024 449.264 26.5449 453.745 34.0885C459.044 42.9844 459.222 53.9796 458.973 64.0497C458.439 86.8586 457.479 109.632 456.554 132.405C454.705 178.272 452.394 224.139 449.691 270.006C448.162 295.768 446.49 321.495 444.676 347.257C444.57 348.645 446.704 348.61 446.81 347.257C450.118 300.252 452.963 253.246 455.345 206.205C457.728 159.271 459.826 112.301 461.106 65.3307C461.391 54.3354 461.32 42.2727 455.345 32.594C450.473 24.6945 441.618 18.4319 431.981 19.7129C430.594 19.8552 430.594 21.9902 431.945 21.8123Z" fill="#E8E8E8"/>
<path d="M430.017 21.3497C432.578 21.4208 435.138 21.4564 437.628 22.0257C440.224 22.6307 442.215 24.0896 444.527 25.2638C445.132 25.5841 445.665 24.6589 445.06 24.3387C442.642 23.1288 440.58 21.6343 437.912 20.9938C435.316 20.3889 432.649 20.3177 430.017 20.2466C429.342 20.2466 429.342 21.3141 430.017 21.3497Z" fill="#E8E8E8"/>
<path d="M430.017 22.0641C437.628 22.8113 444.847 25.5868 451.035 30.1059C451.604 30.4973 452.137 29.5721 451.568 29.1807C445.203 24.5905 437.806 21.7794 430.017 20.9966C429.342 20.9254 429.342 21.9929 430.017 22.0641Z" fill="#E8E8E8"/>
<path d="M428.495 19.5693C431.838 20.2098 435.109 21.0638 438.31 22.0601C438.95 22.2736 439.235 21.2417 438.594 21.0282C435.358 19.9963 432.086 19.1779 428.779 18.5374C428.103 18.395 427.819 19.4269 428.495 19.5693Z" fill="#E8E8E8"/>
<path d="M429.269 19.4645C433.43 19.927 437.484 20.8166 441.432 22.0976C442.072 22.3111 442.356 21.2792 441.716 21.0657C437.662 19.7491 433.501 18.8595 429.269 18.397C428.594 18.3258 428.594 19.3933 429.269 19.4645Z" fill="#E8E8E8"/>
<path d="M416.188 13.3084C421.665 15.2299 426.893 17.6496 431.872 20.5674C432.476 20.9232 433.01 19.9981 432.405 19.6422C427.32 16.6532 421.985 14.198 416.437 12.2765C415.833 12.063 415.548 13.0949 416.188 13.3084Z" fill="#E8E8E8"/>
<path d="M414.698 12.9534C420.281 15.0172 425.651 17.5081 430.808 20.4615C431.412 20.8173 431.946 19.8922 431.341 19.5363C426.078 16.5473 420.637 14.0209 414.947 11.9215C414.342 11.708 414.058 12.7399 414.698 12.9534Z" fill="#E8E8E8"/>
<path d="M422.945 39.4639C426.181 33.7705 428.99 27.8637 431.373 21.7434C431.622 21.1029 430.59 20.8182 430.342 21.4587C427.994 27.4723 425.221 33.3079 422.02 38.9301C421.7 39.4994 422.625 40.0332 422.945 39.4639Z" fill="#E8E8E8"/>
<path d="M429.915 21.314C429.275 22.3817 428.812 23.4849 428.492 24.6949C428.314 25.3711 429.346 25.6558 429.524 24.9797C429.808 23.8764 430.235 22.8443 430.84 21.8478C431.195 21.2428 430.271 20.709 429.915 21.314Z" fill="#E8E8E8"/>
<path d="M153.811 204.356C153.811 206.064 153.811 207.772 153.811 209.481C153.811 210.157 154.879 210.157 154.879 209.481C154.879 207.772 154.879 206.064 154.879 204.356C154.879 203.68 153.811 203.68 153.811 204.356Z" fill="#E8E8E8"/>
<path d="M154.341 210.225C179.27 210.225 204.2 210.225 229.129 210.225C229.805 210.225 229.805 209.158 229.129 209.158C204.2 209.158 179.27 209.158 154.341 209.158C153.665 209.158 153.665 210.225 154.341 210.225Z" fill="#E8E8E8"/>
<path d="M154.911 204.712C179.52 204.712 204.165 204.712 228.774 204.712C229.45 204.712 229.45 203.644 228.774 203.644C204.165 203.644 179.52 203.644 154.911 203.644C154.235 203.644 154.235 204.712 154.911 204.712Z" fill="#E8E8E8"/>
<path d="M228.206 204.568C228.277 206.276 228.242 207.985 228.028 209.693C227.957 210.369 229.024 210.369 229.096 209.693C229.309 207.985 229.38 206.276 229.273 204.568C229.238 203.856 228.171 203.856 228.206 204.568Z" fill="#E8E8E8"/>
<path d="M196.698 180.585C194.671 188.271 195.809 196.206 197.658 203.786C197.836 204.462 198.832 204.177 198.69 203.501C196.876 196.064 195.738 188.378 197.73 180.87C197.907 180.194 196.876 179.909 196.698 180.585Z" fill="#E8E8E8"/>
<path d="M213.658 182.009C213.907 183.61 214.156 185.176 214.405 186.778C214.512 187.454 215.543 187.169 215.436 186.493C215.187 184.891 214.938 183.326 214.689 181.724C214.583 181.048 213.551 181.333 213.658 182.009Z" fill="#E8E8E8"/>
<path d="M215.014 186.958C217.895 184.787 219.531 189.021 219.566 191.228C219.602 194.003 218.286 196.494 215.263 196.707C214.588 196.743 214.588 197.811 215.263 197.775C219.388 197.526 220.953 193.896 220.562 190.196C220.278 187.349 217.539 183.755 214.481 186.068C213.912 186.459 214.445 187.385 215.014 186.958Z" fill="#E8E8E8"/>
<path d="M214.8 197.062C214.586 199.197 214.195 201.261 213.697 203.36C213.519 204.036 214.551 204.321 214.728 203.645C215.262 201.474 215.653 199.304 215.902 197.062C215.938 196.35 214.871 196.386 214.8 197.062Z" fill="#E8E8E8"/>
<path d="M215.752 188.626C216.89 187.701 217.352 190.619 217.388 191.01C217.423 191.473 217.352 191.971 217.245 192.433C216.961 193.536 216.356 194.426 215.503 195.138C214.969 195.565 215.716 196.312 216.25 195.885C217.886 194.533 218.739 192.362 218.383 190.263C218.134 188.697 216.748 186.42 215.005 187.879C214.472 188.306 215.218 189.053 215.752 188.626Z" fill="#E8E8E8"/>
<path d="M214.87 187.736C214.728 190.227 214.764 192.718 214.942 195.244C214.977 195.921 216.044 195.921 216.008 195.244C215.831 192.754 215.795 190.263 215.937 187.736C215.973 187.025 214.906 187.025 214.87 187.736Z" fill="#E8E8E8"/>
<path d="M198.472 181.793C202.775 183.181 207.256 183.536 211.737 182.86C212.412 182.754 212.128 181.722 211.452 181.828C207.149 182.469 202.882 182.113 198.756 180.761C198.116 180.547 197.832 181.579 198.472 181.793Z" fill="#E8E8E8"/>
<path d="M200.927 179.091C198.829 177.775 201.283 174.892 201.638 173.22C201.994 171.548 201.034 170.729 200.394 169.306C199.469 167.242 201.603 165.712 201.923 163.719C202.207 161.976 200.785 160.517 202.705 159.093C203.239 158.702 202.741 157.777 202.172 158.168C200.998 159.022 200.287 160.339 200.536 161.833C200.714 162.936 200.998 163.506 200.465 164.644C200.216 165.214 199.86 165.712 199.576 166.281C199.22 167.064 198.9 167.883 199.007 168.772C199.078 169.662 199.54 170.053 199.967 170.765C201.212 172.864 200.074 173.932 199.362 175.924C198.829 177.419 198.971 179.056 200.394 179.945C200.963 180.372 201.496 179.447 200.927 179.091Z" fill="#E8E8E8"/>
<path d="M207.259 153.577C206.725 154.965 206.049 156.531 205.943 158.025C205.836 159.377 206.832 160.125 207.152 161.335C207.543 162.793 206.156 164.003 206.014 165.427C205.836 167.277 207.472 168.487 205.872 170.266C205.409 170.764 206.156 171.547 206.618 171.013C207.436 170.124 207.863 169.056 207.721 167.846C207.614 166.957 206.974 166.209 207.116 165.249C207.223 164.501 207.792 163.825 208.041 163.114C208.468 161.975 208.29 161.085 207.721 160.054C206.583 157.919 207.508 155.961 208.29 153.862C208.539 153.222 207.508 152.937 207.259 153.577Z" fill="#E8E8E8"/>
<path d="M212.519 164.183C210.847 165.926 210.065 168.311 210.527 170.73C210.67 171.513 211.061 172.296 211.096 173.114C211.167 174.146 210.527 174.644 210.243 175.534C209.852 176.673 211.238 178.309 210.385 179.199C209.923 179.697 210.67 180.444 211.132 179.946C211.665 179.377 211.808 178.736 211.665 177.954C211.523 177.1 211.025 176.495 211.381 175.605C211.594 175.071 212.021 174.787 212.163 174.182C212.448 172.83 211.736 171.549 211.523 170.232C211.203 168.275 211.914 166.353 213.266 164.93C213.763 164.432 212.981 163.685 212.519 164.183Z" fill="#E8E8E8"/>
<path d="M160.246 203.644C160.139 202.256 160.103 200.904 160.139 199.516C159.961 199.694 159.783 199.872 159.606 200.05C165.331 199.48 171.092 199.196 176.853 199.125C179.627 199.089 182.401 199.125 185.139 199.231C185.815 199.267 186.526 199.267 187.202 199.302C187.664 199.338 188.838 199.16 189.265 199.409C190.296 200.014 189.869 203.288 189.905 204.32C189.94 204.996 191.007 204.996 190.972 204.32C190.936 202.861 191.185 200.939 190.794 199.552C190.616 198.947 190.403 198.626 189.763 198.377C188.482 197.915 186.455 198.164 185.104 198.128C183.504 198.057 181.868 198.021 180.267 198.021C173.368 197.95 166.434 198.271 159.57 198.947C159.286 198.982 159.037 199.16 159.037 199.48C158.965 200.868 159.001 202.22 159.143 203.608C159.214 204.32 160.281 204.32 160.246 203.644Z" fill="#E8E8E8"/>
<path d="M169.133 198.517C169.133 197.877 168.885 196.524 169.169 195.955C169.631 194.923 171.552 195.208 172.476 195.172C174.503 195.101 176.495 194.994 178.522 194.923C180.407 194.852 182.292 194.781 184.212 194.71C185.421 194.674 186.772 194.318 187.27 195.67C187.555 196.453 187.448 197.663 187.519 198.481C187.59 199.158 188.657 199.158 188.586 198.481C188.444 197.058 188.871 194.069 187.021 193.571C185.99 193.286 184.568 193.607 183.465 193.642C181.794 193.713 180.158 193.784 178.486 193.856C175.57 193.962 172.37 193.713 169.525 194.247C167.498 194.603 168.067 196.987 168.031 198.517C168.067 199.193 169.133 199.193 169.133 198.517Z" fill="#E8E8E8"/>
<path d="M180.725 199.196C181.329 200.833 181.543 202.47 181.329 204.178C181.258 204.854 182.325 204.854 182.396 204.178C182.645 202.363 182.432 200.619 181.756 198.911C181.507 198.27 180.476 198.555 180.725 199.196Z" fill="#E8E8E8"/>
<path d="M180.8 194.572C181.44 196.031 181.583 197.562 181.298 199.127C181.156 199.804 182.187 200.088 182.33 199.412C182.685 197.562 182.472 195.782 181.725 194.038C181.44 193.398 180.551 193.931 180.8 194.572Z" fill="#E8E8E8"/>
<path d="M184.818 194.251C185.067 195.532 185.316 196.849 185.459 198.13C185.53 198.806 186.597 198.806 186.526 198.13C186.348 196.742 186.134 195.319 185.85 193.966C185.708 193.29 184.676 193.575 184.818 194.251Z" fill="#E8E8E8"/>
<path d="M186.632 199.372C187.166 200.796 187.272 202.22 186.952 203.679C186.81 204.355 187.806 204.64 187.984 203.963C188.375 202.326 188.268 200.654 187.664 199.088C187.415 198.447 186.383 198.732 186.632 199.372Z" fill="#E8E8E8"/>
<path d="M148.082 107.675C148.082 109.134 148.153 110.593 148.26 112.017C148.331 112.693 149.398 112.693 149.327 112.017C149.184 110.558 149.113 109.134 149.149 107.675C149.149 106.999 148.082 106.999 148.082 107.675Z" fill="#E8E8E8"/>
<path d="M149.079 113.19C174.72 113.19 200.325 113.19 225.965 113.19C226.641 113.19 226.641 112.123 225.965 112.123C200.325 112.123 174.72 112.123 149.079 112.123C148.403 112.123 148.403 113.19 149.079 113.19Z" fill="#E8E8E8"/>
<path d="M148.938 108.065C174.579 108.065 200.184 108.065 225.824 108.065C226.5 108.065 226.5 106.997 225.824 106.997C200.184 106.997 174.579 106.997 148.938 106.997C148.227 106.997 148.227 108.065 148.938 108.065Z" fill="#E8E8E8"/>
<path d="M225.608 107.675C225.608 109.348 225.608 110.985 225.608 112.658C225.608 113.334 226.676 113.334 226.676 112.658C226.676 110.985 226.676 109.348 226.676 107.675C226.676 106.999 225.608 106.999 225.608 107.675Z" fill="#E8E8E8"/>
<path d="M151.994 92.305C153.167 97.2867 154.341 102.268 155.586 107.214C155.763 107.891 156.795 107.606 156.617 106.93C155.372 101.984 154.199 97.002 153.025 92.0204C152.883 91.3443 151.851 91.6289 151.994 92.305Z" fill="#E8E8E8"/>
<path d="M152.496 92.2325C155.128 92.1613 157.724 92.0546 160.32 91.8767C161.565 91.8055 162.81 91.6987 164.054 91.592C165.477 91.4496 167.042 91.1294 168.393 91.7699C168.997 92.0546 169.566 91.1294 168.926 90.8447C166.721 89.7772 163.983 90.5245 161.636 90.7024C158.578 90.9159 155.519 91.0938 152.425 91.165C151.785 91.165 151.785 92.2325 152.496 92.2325Z" fill="#E8E8E8"/>
<path d="M168.034 91.3767C167.607 96.643 166.683 101.838 165.331 106.962C165.154 107.638 166.185 107.923 166.363 107.247C167.75 102.052 168.674 96.7498 169.101 91.3767C169.137 90.7006 168.07 90.7006 168.034 91.3767Z" fill="#E8E8E8"/>
<path d="M155.73 90.9506C153.667 88.4953 152.031 85.9689 151 82.9087C150.111 80.3111 149.613 77.6068 149.115 74.9025C148.902 75.116 148.688 75.3295 148.475 75.543C155.018 77.7847 158.29 84.1541 159.57 90.5591C159.713 91.2352 160.744 90.9506 160.602 90.2745C159.25 83.4781 155.658 76.8951 148.759 74.5466C148.333 74.4043 148.048 74.8313 148.119 75.1871C148.688 78.2829 149.257 81.3786 150.395 84.2965C151.462 87.0364 153.098 89.4205 154.983 91.6622C155.409 92.2316 156.156 91.4843 155.73 90.9506Z" fill="#E8E8E8"/>
<path d="M158.892 84.1904C157.967 80.8811 161.061 78.4614 162.839 76.1129C164.546 73.8712 165.933 71.4159 167.071 68.8184C166.751 68.7828 166.431 68.7472 166.111 68.676C167.854 75.8283 169.525 84.4039 163.977 90.3819C163.515 90.88 164.262 91.6273 164.724 91.1291C170.521 84.8309 168.956 75.935 167.107 68.3914C167 67.9644 166.324 67.822 166.147 68.249C164.724 71.5939 162.804 74.5829 160.457 77.3584C158.714 79.3866 157.114 81.6639 157.896 84.475C158.038 85.1155 159.07 84.8664 158.892 84.1904Z" fill="#E8E8E8"/>
<path d="M183.936 107.213C183.936 105.184 183.936 103.155 183.936 101.162C183.936 100.486 182.868 100.486 182.868 101.162C182.868 103.191 182.868 105.22 182.868 107.213C182.868 107.924 183.936 107.924 183.936 107.213Z" fill="#E8E8E8"/>
<path d="M183.393 101.555C196.302 101.555 209.175 101.555 222.085 101.555C222.76 101.555 222.76 100.487 222.085 100.487C209.175 100.487 196.302 100.487 183.393 100.487C182.717 100.487 182.717 101.555 183.393 101.555Z" fill="#E8E8E8"/>
<path d="M221.698 101.484C221.698 103.441 221.698 105.434 221.698 107.391C221.698 108.067 222.765 108.067 222.765 107.391C222.765 105.434 222.765 103.441 222.765 101.484C222.765 100.772 221.698 100.772 221.698 101.484Z" fill="#E8E8E8"/>
<path d="M191.076 100.845C191.076 99.6709 191.076 98.4609 191.076 97.2864C191.076 96.6102 190.009 96.6102 190.009 97.2864C190.009 98.4609 190.009 99.6709 190.009 100.845C190.009 101.557 191.076 101.557 191.076 100.845Z" fill="#E8E8E8"/>
<path d="M190.542 97.3561C200.677 97.3561 210.848 97.3561 220.984 97.3561C221.659 97.3561 221.659 96.2886 220.984 96.2886C210.848 96.2886 200.677 96.2886 190.542 96.2886C189.866 96.2886 189.866 97.3561 190.542 97.3561Z" fill="#E8E8E8"/>
<path d="M220.627 96.8224C220.627 98.1748 220.627 99.5272 220.627 100.88C220.627 101.556 221.694 101.556 221.694 100.88C221.694 99.5272 221.694 98.1748 221.694 96.8224C221.694 96.1106 220.627 96.1106 220.627 96.8224Z" fill="#E8E8E8"/>
<path d="M199.329 96.3607C199.329 94.5101 199.329 92.6239 199.329 90.7733C199.329 90.0971 198.261 90.0971 198.261 90.7733C198.261 92.6239 198.261 94.5101 198.261 96.3607C198.261 97.0369 199.329 97.0369 199.329 96.3607Z" fill="#E8E8E8"/>
<path d="M199.255 90.9859C206.047 90.9859 212.804 90.9859 219.596 90.9859C220.272 90.9859 220.272 89.9185 219.596 89.9185C212.804 89.9185 206.047 89.9185 199.255 89.9185C198.579 89.9185 198.579 90.9859 199.255 90.9859Z" fill="#E8E8E8"/>
<path d="M219.388 90.2772C219.388 92.3057 219.388 94.3343 219.388 96.3273C219.388 97.0035 220.456 97.0035 220.456 96.3273C220.456 94.2987 220.456 92.2701 220.456 90.2772C220.456 89.601 219.388 89.601 219.388 90.2772Z" fill="#E8E8E8"/>
<path d="M212.272 90.7397C212.77 92.6615 212.876 94.5477 212.699 96.5051C212.627 97.1813 213.695 97.1813 213.766 96.5051C213.979 94.441 213.837 92.448 213.303 90.455C213.125 89.7788 212.094 90.0635 212.272 90.7397Z" fill="#E8E8E8"/>
<path d="M215.476 91.0574C215.654 92.6234 215.725 94.1537 215.654 95.7196C215.618 96.3958 216.685 96.3958 216.721 95.7196C216.792 94.1537 216.756 92.6234 216.543 91.0574C216.472 90.3812 215.405 90.3812 215.476 91.0574Z" fill="#E8E8E8"/>
<path d="M211.135 97.1079C211.313 98.2823 211.278 99.4923 211.135 100.702C211.064 101.379 212.131 101.379 212.202 100.702C212.38 99.4212 212.345 98.14 212.167 96.8232C212.06 96.147 211.029 96.4317 211.135 97.1079Z" fill="#E8E8E8"/>
<path d="M213.843 96.9311C214.056 97.8922 213.985 98.8176 213.665 99.7787C213.452 100.419 214.483 100.704 214.697 100.063C215.088 98.96 215.124 97.821 214.874 96.6463C214.732 96.0056 213.701 96.2904 213.843 96.9311Z" fill="#E8E8E8"/>
<path d="M205.8 101.023C206.014 103.158 206.049 105.257 205.907 107.392C205.871 108.068 206.938 108.068 206.974 107.392C207.116 105.257 207.08 103.158 206.867 101.023C206.796 100.347 205.729 100.347 205.8 101.023Z" fill="#E8E8E8"/>
<path d="M216.754 101.164C217.003 103.157 217.003 105.114 216.683 107.107C216.576 107.783 217.608 108.068 217.715 107.392C218.035 105.328 218.106 103.264 217.821 101.164C217.75 100.488 216.683 100.488 216.754 101.164Z" fill="#E8E8E8"/>
<path d="M255.267 42.4854C255.267 48.6769 255.267 54.8684 255.267 61.0599C255.267 61.736 256.334 61.736 256.334 61.0599C256.334 54.8684 256.334 48.6769 256.334 42.4854C256.334 41.7737 255.267 41.7737 255.267 42.4854Z" fill="#E8E8E8"/>
<path d="M240.331 61.8434C250.111 61.8434 259.926 61.8434 269.706 61.8434C270.382 61.8434 270.382 60.7759 269.706 60.7759C259.926 60.7759 250.111 60.7759 240.331 60.7759C239.656 60.7759 239.656 61.8434 240.331 61.8434Z" fill="#E8E8E8"/>
<path d="M264.545 62.0578C264.545 68.1426 264.545 74.2629 264.545 80.3477C264.545 81.0238 265.613 81.0238 265.613 80.3477C265.613 74.2629 265.613 68.1426 265.613 62.0578C265.613 61.3818 264.545 61.3818 264.545 62.0578Z" fill="#E8E8E8"/>
<path d="M422.483 341.817C421.558 343.347 422.874 345.126 425.897 351.816C430.52 362.028 430.307 364.377 429.56 365.942C428.315 368.504 425.648 368.825 425.897 370.07C426.252 371.885 432.12 373.273 434.183 371.031C435.107 370.034 434.965 368.647 434.681 365.907C433.4 354.556 433.152 353.737 432.725 350.286C431.978 344.165 432.369 342.6 430.769 341.248C428.386 339.362 423.763 339.753 422.483 341.817Z" fill="#161616" stroke="#161616" stroke-width="0.937649" stroke-miterlimit="10"/>
<path d="M477.817 340.247C480.484 338.361 485.143 340.354 487.561 342.703C489.588 344.624 489.126 345.905 491.473 347.577C492.006 347.969 494.46 349.712 497.554 349.535C499.937 349.392 500.399 348.218 502.177 348.574C503.422 348.787 503.955 349.499 506.338 351.741C510.072 355.299 511.459 356.117 511.21 356.616C510.961 357.078 509.787 356.829 504.631 356.117C500.861 355.584 498.905 355.335 497.554 355.264C494.46 355.121 494.318 355.513 489.766 355.619C485.071 355.762 482.689 355.762 480.982 354.872C477.177 352.879 476.181 348.467 476.11 348.04C476.003 347.471 474.972 342.24 477.817 340.247Z" fill="#161616" stroke="#161616" stroke-width="0.937649" stroke-miterlimit="10"/>
<path d="M426.144 326.691C428.456 326.762 429.451 329.467 431.514 331.815C436.884 338.007 446.237 338.22 453.918 338.398C468.428 338.718 472.34 333.203 479.275 336.939C483.08 339.003 486.672 343.237 486.6 347.899C486.494 353.983 480.128 358.289 475.647 359.855C471.664 361.242 469.495 360.388 458.577 358.396C441.009 355.158 437.524 355.656 430.803 351.813C426.962 349.607 423.512 346.796 421.308 342.561C420.383 340.782 418.925 337.829 419.601 334.27C420.276 330.534 423.264 326.584 426.144 326.691Z" fill="#161616" stroke="#161616" stroke-width="0.937649" stroke-miterlimit="10"/>
<path d="M477.314 337.188C478.06 336.156 481.012 338.753 484.142 337.437C486.809 336.298 488.018 332.989 488.765 330.854C490.152 327.046 489.227 325.694 490.721 324.271C492.143 322.883 493.388 323.773 497.549 322.563C500.358 321.745 502.634 321.104 503.879 319.147C504.875 317.581 504.163 316.798 504.839 312.813C505.052 311.603 505.87 306.764 507.044 306.728C507.897 306.693 508.929 309.255 509 311.603C509.035 312.564 508.893 313.24 507.542 317.688C506.688 320.464 506.261 321.851 506.084 322.065C504.341 324.235 502.03 323.168 497.549 325.232C495.379 326.228 493.281 327.189 492.179 329.359C491.183 331.352 492.036 332.242 490.97 335.195C489.974 337.899 488.374 339.501 488.053 339.821C486.88 340.995 484.497 343.308 481.723 342.739C478.594 342.169 476.567 338.22 477.314 337.188Z" fill="#161616" stroke="#161616" stroke-width="0.937649" stroke-miterlimit="10"/>
<path d="M469.034 354.017C468.607 354.871 467.398 357.326 467.825 360.35C468.252 363.446 470.172 366.115 471.488 367.894C473.302 370.421 474.368 370.954 474.155 372.022C473.764 374.37 468.501 374.548 468.536 375.687C468.607 376.826 473.942 377.395 478.031 377.146C481.09 376.968 481.801 376.434 482.192 375.936C483.046 374.726 482.086 373.303 481.694 370.1C481.41 367.823 481.623 366.222 481.943 363.517C482.477 359.069 483.33 358.785 483.65 355.476C483.899 352.842 484.326 348.466 482.192 346.936C479.276 344.872 471.843 348.466 469.034 354.017Z" fill="#161616" stroke="#161616" stroke-width="0.937649" stroke-miterlimit="10"/>
<path d="M396.664 331.563C397.233 334.445 400.363 336.26 404.95 338.146C409.822 340.174 423.621 345.867 426.146 342.06C426.786 341.099 426.572 339.747 426.146 338.893C425.079 336.865 422.163 337.078 417.113 336.224C412.703 335.477 408.613 334.801 404.452 332.559C400.612 330.531 398.336 328.076 397.126 328.894C396.273 329.499 396.629 331.385 396.664 331.563Z" fill="#161616" stroke="#161616" stroke-width="0.937649" stroke-miterlimit="10"/>
<path d="M391.119 319.004C392.222 320.855 393.574 322.527 395.174 324.022C395.672 324.485 396.419 323.737 395.921 323.275C394.392 321.851 393.111 320.25 392.044 318.47C391.688 317.865 390.764 318.399 391.119 319.004Z" fill="#161616"/>
<path d="M386.531 321.671C387.634 323.024 389.056 323.985 390.657 324.554C391.297 324.803 391.582 323.771 390.941 323.522C389.483 322.988 388.238 322.098 387.278 320.924C386.851 320.39 386.104 321.137 386.531 321.671Z" fill="#161616"/>
<path d="M386.706 328.683C387.702 328.79 388.698 328.861 389.73 328.968C390.406 329.039 390.406 327.971 389.73 327.9C388.734 327.793 387.737 327.722 386.706 327.615C386.03 327.544 386.03 328.612 386.706 328.683Z" fill="#161616"/>
<path d="M415.898 321.568C414.654 322.067 412.698 322.992 410.777 324.735C409.142 326.23 407.577 327.653 407.363 329.61C406.972 333.169 411.311 336.549 414.689 337.901C415.294 338.15 422.442 340.855 426.389 336.691C429.057 333.845 428.452 329.788 428.345 329.148C427.527 323.846 422.762 321.355 422.264 321.106C421.055 319.469 419.81 317.868 418.601 316.231C417.712 318.01 416.823 319.789 415.898 321.568Z" fill="#161616" stroke="#161616" stroke-width="0.937649" stroke-miterlimit="10"/>
<path d="M412.593 326.373C413.127 327.904 414.55 328.936 416.187 328.9C416.862 328.865 416.862 327.797 416.187 327.832C415.048 327.868 413.981 327.156 413.625 326.088C413.376 325.447 412.344 325.732 412.593 326.373Z" fill="white"/>
<path d="M407.401 328.898C407.722 328.898 407.864 329.005 407.899 329.254C407.793 329.361 407.722 329.504 407.615 329.61C407.401 329.682 407.366 329.575 407.295 329.504C407.259 329.468 407.295 329.432 407.259 329.468C407.223 329.504 407.223 329.61 407.188 329.682C407.401 329.575 407.615 329.432 407.828 329.326C407.864 329.361 407.864 329.361 407.828 329.326C407.864 329.326 407.864 329.361 407.864 329.361C407.899 329.397 407.864 329.397 407.864 329.326C407.899 329.361 407.899 329.361 407.864 329.326C407.828 329.041 407.473 328.898 407.223 328.97C406.939 329.041 406.797 329.326 406.868 329.61C406.939 329.966 407.223 330.251 407.579 330.358C407.864 330.465 408.113 330.251 408.22 330.002C408.362 329.682 408.398 329.326 408.22 329.041C408.042 328.72 407.65 328.542 407.295 328.649C406.939 328.756 406.761 329.148 406.832 329.504C406.939 329.86 407.295 330.109 407.65 330.002C407.935 329.931 408.113 329.646 408.006 329.361C407.971 329.005 407.686 328.827 407.401 328.898Z" fill="white"/>
<path d="M407.186 329.824C407.72 331.639 409.854 332.529 411.49 331.675C412.095 331.355 411.561 330.429 410.957 330.75C409.89 331.283 408.538 330.643 408.218 329.539C408.04 328.863 407.009 329.148 407.186 329.824Z" fill="white"/>
<path d="M167.465 299.789C168.247 299.931 169.385 300.145 170.808 300.323C177.6 301.319 182.437 301.284 188.411 301.355C192.003 301.39 197.302 301.497 203.952 301.746C211.029 301.248 218.141 300.75 225.218 300.216C215.439 299.22 205.659 298.188 195.879 297.191C186.384 298.045 176.924 298.899 167.465 299.789Z" fill="#0071BC"/>
<path d="M188.372 321.885C190.399 322.312 192.426 322.739 194.453 323.166C201.494 322.739 209.212 321.671 217.355 319.536C218.92 319.145 220.449 318.718 221.907 318.255C210.741 319.465 199.574 320.675 188.372 321.885Z" fill="#0071BC"/>
<path d="M167.925 349.961C167.961 352.95 167.996 355.975 168.032 358.964C184.462 361.063 200.927 363.162 217.357 365.262C217.357 362.273 217.357 359.248 217.357 356.259C227.421 351.776 237.45 347.292 247.514 342.809C244.705 342.382 241.895 341.955 239.086 341.528C238.766 342.026 238.446 342.524 238.161 343.058C225.963 346.83 213.765 350.637 201.567 354.409C190.365 352.914 179.127 351.42 167.925 349.961Z" fill="#0071BC"/>
<path d="M149.646 309.287C161.951 310.781 174.291 312.276 186.596 313.77C200.323 312.81 214.05 311.813 227.777 310.853C224.79 309.892 221.803 308.967 218.816 308.006C212.628 308.468 206.404 308.931 200.216 309.394C188.516 308.575 176.852 307.721 165.152 306.903C159.995 307.686 154.803 308.468 149.646 309.287Z" fill="#FF6871"/>
<path d="M195.844 331.102C199.649 331.671 203.49 332.241 207.295 332.81C217.822 330.07 228.313 327.366 238.839 324.626C235.354 324.092 231.905 323.594 228.419 323.06C217.537 325.764 206.691 328.433 195.844 331.102Z" fill="#FF6871"/>
<path d="M152.063 340.14C168.28 342.453 184.461 344.802 200.677 347.115C205.691 346.047 210.919 344.802 216.36 343.307C223.828 341.279 230.763 339.037 237.2 336.76C234.782 336.333 232.363 335.906 229.945 335.479C222.37 337.578 214.795 339.678 207.185 341.777C193.742 339.927 180.3 338.112 166.857 336.262C161.95 337.578 157.006 338.859 152.063 340.14Z" fill="#FF6871"/>
<path d="M165.221 300.819C165.221 302.954 165.221 305.125 165.221 307.26C165.221 307.936 166.288 307.936 166.288 307.26C166.288 305.125 166.288 302.954 166.288 300.819C166.288 300.143 165.221 300.143 165.221 300.819Z" fill="#161616"/>
<path d="M165.936 301.033C178.525 301.46 191.15 301.851 203.739 302.278C204.415 302.314 204.415 301.246 203.739 301.211C191.15 300.784 178.525 300.392 165.936 299.965C165.225 299.93 165.225 300.997 165.936 301.033Z" fill="#161616"/>
<path d="M165.936 308.08C177.387 308.293 188.838 308.827 200.254 309.681C200.93 309.717 200.93 308.649 200.254 308.613C188.838 307.795 177.387 307.261 165.936 307.012C165.225 307.012 165.225 308.08 165.936 308.08Z" fill="#161616"/>
<path d="M204.094 302.422C211.385 301.781 218.71 301.354 226.001 301.105C226.676 301.069 226.676 300.002 226.001 300.037C218.675 300.251 211.385 300.714 204.094 301.354C203.419 301.39 203.383 302.457 204.094 302.422Z" fill="#161616"/>
<path d="M200.431 309.717C209.002 308.863 217.608 308.044 226.178 307.19C226.854 307.119 226.854 306.051 226.178 306.123C217.608 306.977 209.002 307.795 200.431 308.649C199.755 308.72 199.755 309.788 200.431 309.717Z" fill="#161616"/>
<path d="M203.564 302.278C203.315 302.67 203.137 303.061 203.066 303.524C202.959 304.307 203.279 304.912 202.888 305.695C202.425 306.691 202.141 307.474 202.319 308.577C202.425 309.254 203.457 308.969 203.35 308.293C203.172 307.118 203.777 306.584 204.133 305.624C204.453 304.627 203.848 303.773 204.488 302.812C204.844 302.243 203.919 301.673 203.564 302.278Z" fill="#161616"/>
<path d="M166.075 300.713C175.677 299.396 185.314 298.471 195.023 297.866C195.698 297.831 195.698 296.763 195.023 296.799C185.243 297.404 175.499 298.364 165.826 299.681C165.115 299.788 165.399 300.784 166.075 300.713Z" fill="#161616"/>
<path d="M194.312 297.903C204.661 297.974 214.974 298.899 225.144 300.678C225.82 300.785 226.105 299.753 225.429 299.646C215.151 297.832 204.732 296.871 194.312 296.8C193.636 296.835 193.636 297.903 194.312 297.903Z" fill="#161616"/>
<path d="M168.033 304.342C171.091 305.054 174.292 304.306 177.421 304.342C180.906 304.378 184.392 304.769 187.877 305.196C188.552 305.267 188.552 304.2 187.877 304.129C184.641 303.773 181.369 303.381 178.097 303.31C174.932 303.239 171.447 304.057 168.317 303.346C167.642 303.132 167.357 304.164 168.033 304.342Z" fill="#161616"/>
<path d="M182.117 306.656C187.558 306.834 193.035 307.083 198.476 307.404C199.152 307.439 199.152 306.372 198.476 306.336C193.035 306.016 187.558 305.767 182.117 305.589C181.441 305.553 181.441 306.621 182.117 306.656Z" fill="#161616"/>
<path d="M191.005 304.77C194.135 305.019 197.3 305.339 200.429 305.731C201.105 305.802 201.105 304.735 200.429 304.663C197.3 304.272 194.17 303.952 191.005 303.703C190.294 303.631 190.33 304.699 191.005 304.77Z" fill="#161616"/>
<path d="M206.191 305.301C208.681 305.657 211.099 305.052 213.553 304.696C216.469 304.233 219.421 303.878 222.372 303.7C223.048 303.664 223.048 302.597 222.372 302.632C219.99 302.775 217.607 303.059 215.26 303.379C212.415 303.771 209.392 304.696 206.512 304.305C205.8 304.162 205.516 305.194 206.191 305.301Z" fill="#161616"/>
<path d="M210.673 307.153C212.878 307.402 214.905 306.619 217.039 306.192C219.528 305.658 222.089 305.445 224.614 305.409C225.289 305.409 225.289 304.342 224.614 304.342C222.409 304.377 220.239 304.555 218.07 304.911C215.652 305.338 213.162 306.406 210.673 306.121C209.997 306.014 209.997 307.082 210.673 307.153Z" fill="#161616"/>
<path d="M225.072 301.532C225.108 303.347 225.143 305.127 225.214 306.942C225.214 307.618 226.281 307.618 226.281 306.942C226.246 305.127 226.21 303.347 226.139 301.532C226.139 300.821 225.072 300.821 225.072 301.532Z" fill="#161616"/>
<path d="M148.866 309.539C148.901 311.923 148.83 314.307 148.652 316.691C148.617 317.367 149.684 317.367 149.719 316.691C149.897 314.307 149.968 311.923 149.933 309.539C149.897 308.827 148.83 308.827 148.866 309.539Z" fill="#161616"/>
<path d="M149.401 317.724C161.848 319.289 174.33 320.642 186.848 321.851C187.524 321.923 187.524 320.855 186.848 320.784C174.33 319.574 161.848 318.222 149.401 316.656C148.69 316.585 148.725 317.653 149.401 317.724Z" fill="#161616"/>
<path d="M186.635 314.237C186.528 316.514 186.386 318.756 186.279 321.033C186.243 321.71 187.31 321.71 187.346 321.033C187.452 318.756 187.595 316.514 187.701 314.237C187.737 313.561 186.67 313.561 186.635 314.237Z" fill="#161616"/>
<path d="M187.166 314.449C200.893 313.915 214.62 312.883 228.276 311.424C228.952 311.353 228.952 310.286 228.276 310.357C214.62 311.816 200.893 312.812 187.166 313.381C186.49 313.417 186.49 314.485 187.166 314.449Z" fill="#161616"/>
<path d="M187.342 322.135C200.892 320.534 214.476 319.146 228.097 317.9C228.773 317.829 228.773 316.762 228.097 316.833C214.512 318.078 200.927 319.502 187.342 321.067C186.667 321.139 186.667 322.206 187.342 322.135Z" fill="#161616"/>
<path d="M227.812 311.281C227.812 313.203 227.847 315.124 227.847 317.046C227.847 317.722 228.914 317.722 228.914 317.046C228.914 315.124 228.879 313.203 228.879 311.281C228.879 310.569 227.812 310.569 227.812 311.281Z" fill="#161616"/>
<path d="M149.539 309.466C154.874 308.754 160.208 308.114 165.578 307.615C166.254 307.544 166.254 306.477 165.578 306.548C160.137 307.046 154.696 307.687 149.255 308.434C148.579 308.505 148.864 309.537 149.539 309.466Z" fill="#161616"/>
<path d="M150.074 310.179C162.379 311.069 174.648 312.35 186.881 314.022C187.557 314.129 187.841 313.097 187.166 312.99C174.861 311.318 162.485 310.001 150.074 309.112C149.398 309.076 149.398 310.144 150.074 310.179Z" fill="#161616"/>
<path d="M218.602 308.365C221.802 308.97 224.967 309.788 228.061 310.856C228.702 311.069 228.986 310.037 228.346 309.824C225.252 308.792 222.122 307.938 218.886 307.333C218.211 307.19 217.926 308.222 218.602 308.365Z" fill="#161616"/>
<path d="M155.339 315.088C161.741 314.768 167.857 317.009 174.223 317.116C174.899 317.116 174.899 316.049 174.223 316.049C167.857 315.942 161.705 313.7 155.339 314.021C154.664 314.056 154.664 315.124 155.339 315.088Z" fill="#161616"/>
<path d="M167.573 313.701C172.268 315.444 177.353 314.377 182.19 315.444C182.865 315.587 183.15 314.555 182.474 314.412C177.638 313.345 172.552 314.412 167.858 312.669C167.218 312.42 166.933 313.452 167.573 313.701Z" fill="#161616"/>
<path d="M189.445 318.365C201.252 315.696 213.521 315.411 225.541 314.7C226.217 314.664 226.217 313.597 225.541 313.632C213.378 314.379 201.074 314.629 189.16 317.333C188.485 317.475 188.769 318.507 189.445 318.365Z" fill="#161616"/>
<path d="M209.177 317.475C213.373 317.581 217.57 317.19 221.66 316.3C222.335 316.158 222.051 315.126 221.375 315.268C217.356 316.122 213.267 316.514 209.177 316.407C208.501 316.371 208.501 317.439 209.177 317.475Z" fill="#161616"/>
<path d="M156.404 318.293C156.404 320.962 156.404 323.595 156.404 326.264C156.404 326.94 157.472 326.94 157.472 326.264C157.472 323.595 157.472 320.962 157.472 318.293C157.472 317.617 156.404 317.617 156.404 318.293Z" fill="#161616"/>
<path d="M156.795 326.938C162.556 328.646 168.922 328.682 174.897 329.251C181.227 329.856 187.592 330.497 193.923 331.101C194.598 331.173 194.598 330.105 193.923 330.034C187.806 329.429 181.689 328.86 175.572 328.255C169.491 327.65 162.948 327.65 157.08 325.906C156.44 325.728 156.155 326.76 156.795 326.938Z" fill="#161616"/>
<path d="M193.888 322.847C193.924 325.302 193.924 327.722 193.853 330.177C193.853 330.853 194.92 330.853 194.92 330.177C194.991 327.722 194.991 325.302 194.955 322.847C194.955 322.136 193.888 322.136 193.888 322.847Z" fill="#161616"/>
<path d="M188.196 322.667C190.152 322.845 192.109 323.165 194.029 323.628C194.705 323.806 194.99 322.774 194.314 322.596C192.287 322.098 190.259 321.777 188.196 321.6C187.485 321.564 187.485 322.632 188.196 322.667Z" fill="#161616"/>
<path d="M194.559 323.416C204.516 322.597 214.403 321.103 224.182 318.861C224.858 318.719 224.574 317.687 223.898 317.829C214.225 320.036 204.445 321.53 194.559 322.348C193.883 322.384 193.883 323.451 194.559 323.416Z" fill="#161616"/>
<path d="M194.569 331.245C205.877 329.075 217.115 326.406 228.175 323.239C228.851 323.061 228.566 322.029 227.891 322.207C216.795 325.374 205.593 328.078 194.284 330.213C193.644 330.356 193.928 331.388 194.569 331.245Z" fill="#161616"/>
<path d="M227.635 317.51C227.67 319.289 227.635 321.068 227.492 322.812C227.421 323.488 228.488 323.488 228.559 322.812C228.702 321.033 228.737 319.253 228.702 317.51C228.702 316.833 227.635 316.833 227.635 317.51Z" fill="#161616"/>
<path d="M224.185 318.862C225.395 318.862 226.604 318.684 227.778 318.399C228.454 318.221 228.169 317.189 227.493 317.367C226.391 317.652 225.324 317.794 224.185 317.794C223.51 317.794 223.51 318.862 224.185 318.862Z" fill="#161616"/>
<path d="M162.768 324.519C171.374 325.551 179.944 326.547 188.551 327.437C189.226 327.508 189.226 326.441 188.551 326.369C179.944 325.48 171.338 324.519 162.768 323.452C162.092 323.38 162.092 324.448 162.768 324.519Z" fill="#161616"/>
<path d="M159.464 321.564C163.091 321.92 166.718 322.204 170.346 322.382C171.022 322.418 171.022 321.35 170.346 321.315C166.718 321.137 163.091 320.852 159.464 320.496C158.788 320.461 158.788 321.528 159.464 321.564Z" fill="#161616"/>
<path d="M174.9 323.522C179.488 323.522 184.039 323.842 188.591 324.554C189.267 324.661 189.552 323.629 188.876 323.522C184.253 322.81 179.594 322.455 174.9 322.455C174.224 322.455 174.189 323.522 174.9 323.522Z" fill="#161616"/>
<path d="M196.307 326.973C201.428 326.154 206.513 325.229 211.599 324.197C212.275 324.055 211.99 323.023 211.314 323.165C206.229 324.197 201.143 325.122 196.022 325.941C195.347 326.047 195.631 327.079 196.307 326.973Z" fill="#161616"/>
<path d="M205.98 327.401C212.132 325.337 218.462 323.807 224.864 322.882C225.539 322.775 225.255 321.743 224.579 321.85C218.142 322.775 211.848 324.27 205.695 326.369C205.055 326.618 205.34 327.65 205.98 327.401Z" fill="#161616"/>
<path d="M221.555 321.922C223.297 321.388 225.04 321.067 226.854 320.925C227.53 320.889 227.53 319.822 226.854 319.857C224.969 320 223.084 320.32 221.27 320.889C220.63 321.103 220.914 322.135 221.555 321.922Z" fill="#161616"/>
<path d="M164.515 328.325C164.479 330.852 164.408 333.378 164.372 335.905C164.372 336.581 165.439 336.581 165.439 335.905C165.475 333.378 165.546 330.852 165.582 328.325C165.617 327.649 164.55 327.649 164.515 328.325Z" fill="#161616"/>
<path d="M165.012 336.616C178.81 338.466 192.644 340.316 206.442 342.131C207.118 342.238 207.118 341.17 206.442 341.063C192.644 339.213 178.81 337.363 165.012 335.548C164.336 335.441 164.336 336.509 165.012 336.616Z" fill="#161616"/>
<path d="M195.416 331.458C199.541 332.099 203.666 332.632 207.827 333.024C208.503 333.095 208.503 332.027 207.827 331.956C203.773 331.565 199.719 331.067 195.7 330.426C195.024 330.319 194.74 331.351 195.416 331.458Z" fill="#161616"/>
<path d="M207.971 332.918C218.568 331.922 228.277 327.082 238.697 325.303C239.372 325.197 239.088 324.165 238.412 324.271C228.063 326.015 218.462 330.819 207.971 331.815C207.295 331.922 207.295 332.989 207.971 332.918Z" fill="#161616"/>
<path d="M228.096 323.419C231.688 323.952 235.315 324.344 238.942 324.557C239.618 324.593 239.618 323.525 238.942 323.49C235.386 323.276 231.865 322.92 228.38 322.387C227.705 322.28 227.42 323.312 228.096 323.419Z" fill="#161616"/>
<path d="M206.726 332.809C206.619 335.585 206.548 338.396 206.442 341.171C206.406 341.847 207.473 341.847 207.508 341.171C207.615 338.396 207.686 335.585 207.793 332.809C207.828 332.097 206.762 332.097 206.726 332.809Z" fill="#161616"/>
<path d="M207.009 342.166C217.642 339.604 228.133 336.579 238.518 333.128C239.158 332.914 238.873 331.882 238.233 332.096C227.849 335.547 217.358 338.536 206.725 341.134C206.049 341.276 206.334 342.308 207.009 342.166Z" fill="#161616"/>
<path d="M238.23 324.802C238.514 327.4 238.585 329.998 238.443 332.595C238.408 333.271 239.475 333.271 239.51 332.595C239.617 329.998 239.546 327.4 239.297 324.802C239.226 324.126 238.159 324.126 238.23 324.802Z" fill="#161616"/>
<path d="M167.75 333.629C167.501 333.664 167.287 333.7 167.038 333.7C166.363 333.771 166.363 334.696 167.038 334.768C176.071 335.728 185.033 337.187 194.03 338.611C194.706 338.717 194.991 337.685 194.315 337.579C185.246 336.12 176.178 334.661 167.038 333.7C167.038 334.056 167.038 334.412 167.038 334.768C167.287 334.732 167.501 334.696 167.75 334.696C168.425 334.625 168.425 333.558 167.75 333.629Z" fill="#161616"/>
<path d="M170.525 332.064C173.227 332.74 175.93 333.381 178.668 333.914C179.344 334.057 179.629 333.025 178.953 332.882C176.215 332.349 173.512 331.744 170.809 331.032C170.169 330.89 169.884 331.922 170.525 332.064Z" fill="#161616"/>
<path d="M181.797 333.45C188.945 334.553 196.058 335.656 203.206 336.759C203.882 336.866 204.166 335.834 203.491 335.727C196.342 334.624 189.23 333.521 182.082 332.418C181.406 332.347 181.122 333.379 181.797 333.45Z" fill="#161616"/>
<path d="M212.624 335.049C218.563 334.907 223.933 332.024 229.765 331.135C230.441 331.028 230.156 329.996 229.481 330.103C223.755 330.993 218.492 333.839 212.624 333.982C211.948 334.017 211.948 335.085 212.624 335.049Z" fill="#161616"/>
<path d="M210.708 338.644C213.304 338.003 215.9 337.363 218.497 336.687C219.172 336.509 218.888 335.477 218.212 335.655C215.616 336.295 213.02 336.936 210.424 337.612C209.748 337.754 210.033 338.786 210.708 338.644Z" fill="#161616"/>
<path d="M228.38 333.879C231.439 333.06 234.497 332.242 237.555 331.388C238.231 331.21 237.946 330.178 237.271 330.356C234.212 331.174 231.154 331.993 228.096 332.847C227.42 333.025 227.705 334.057 228.38 333.879Z" fill="#161616"/>
<path d="M150.818 340.493C156.473 339.888 162.056 338.714 167.462 336.935C168.102 336.721 167.817 335.689 167.177 335.903C161.843 337.647 156.402 338.821 150.818 339.426C150.143 339.497 150.143 340.564 150.818 340.493Z" fill="#161616"/>
<path d="M150.395 340.39C150.502 342.81 150.644 345.194 150.751 347.613C150.787 348.289 151.853 348.289 151.818 347.613C151.711 345.194 151.569 342.81 151.462 340.39C151.427 339.714 150.36 339.714 150.395 340.39Z" fill="#161616"/>
<path d="M151.352 348.327C167.782 350.498 184.176 352.668 200.606 354.803C201.282 354.91 201.282 353.807 200.606 353.736C184.176 351.565 167.782 349.394 151.352 347.259C150.676 347.153 150.712 348.22 151.352 348.327Z" fill="#161616"/>
<path d="M151.037 340.957C166.898 343.199 182.759 345.227 198.655 347.077C199.331 347.148 199.331 346.081 198.655 346.01C182.866 344.195 167.076 342.167 151.322 339.925C150.681 339.854 150.361 340.886 151.037 340.957Z" fill="#161616"/>
<path d="M200.646 355.016C213.342 351.351 225.967 347.437 238.485 343.238C239.125 343.025 238.841 341.993 238.2 342.206C225.647 346.369 213.058 350.319 200.362 353.984C199.686 354.162 199.971 355.194 200.646 355.016Z" fill="#161616"/>
<path d="M204.877 346.652C216.15 344.126 227.245 340.923 238.127 337.009C238.768 336.796 238.483 335.764 237.843 335.977C226.961 339.891 215.865 343.094 204.592 345.62C203.916 345.763 204.201 346.794 204.877 346.652Z" fill="#161616"/>
<path d="M237.485 336.69C237.52 338.719 237.556 340.712 237.591 342.74C237.591 343.417 238.658 343.417 238.658 342.74C238.623 340.712 238.587 338.719 238.552 336.69C238.516 336.014 237.449 336.014 237.485 336.69Z" fill="#161616"/>
<path d="M229.412 336.086C232.15 336.37 234.853 336.655 237.592 336.904C238.267 336.975 238.267 335.908 237.592 335.836C234.853 335.552 232.15 335.267 229.412 335.018C228.736 334.947 228.736 336.014 229.412 336.086Z" fill="#161616"/>
<path d="M154.91 346.295C162.769 346.758 170.558 347.719 178.31 349.106C178.986 349.213 179.27 348.181 178.595 348.075C170.771 346.651 162.876 345.726 154.91 345.228C154.199 345.192 154.234 346.26 154.91 346.295Z" fill="#161616"/>
<path d="M175.572 346.189C181.867 347.114 188.161 348.182 194.42 349.356C195.096 349.498 195.381 348.466 194.705 348.324C188.446 347.15 182.151 346.082 175.857 345.157C175.181 345.05 174.897 346.082 175.572 346.189Z" fill="#161616"/>
<path d="M200.11 348.753C200.182 350.319 200.288 351.885 200.359 353.415C200.395 354.091 201.462 354.091 201.427 353.415C201.355 351.849 201.249 350.283 201.178 348.753C201.142 348.077 200.075 348.077 200.11 348.753Z" fill="#161616"/>
<path d="M206.05 349.071C211.313 347.897 216.541 346.58 221.768 345.157C222.444 344.979 222.159 343.947 221.484 344.125C216.292 345.548 211.028 346.865 205.765 348.039C205.089 348.182 205.374 349.214 206.05 349.071Z" fill="#161616"/>
<path d="M205.868 351.029C207.255 350.886 208.607 350.673 209.923 350.281C210.598 350.103 210.314 349.071 209.638 349.249C208.393 349.605 207.148 349.818 205.868 349.961C205.192 350.032 205.192 351.1 205.868 351.029Z" fill="#161616"/>
<path d="M225.072 345.371C228.379 344.303 231.686 343.236 234.958 342.204C235.598 341.99 235.314 340.958 234.674 341.172C231.366 342.239 228.059 343.307 224.787 344.339C224.147 344.552 224.432 345.584 225.072 345.371Z" fill="#161616"/>
<path d="M231.477 341.634C232.899 341.207 234.358 340.815 235.78 340.388C236.456 340.21 236.172 339.178 235.496 339.356C234.073 339.783 232.615 340.175 231.192 340.602C230.552 340.78 230.801 341.812 231.477 341.634Z" fill="#161616"/>
<path d="M167.181 350.316C167.536 353.092 167.679 355.867 167.572 358.678C167.536 359.354 168.603 359.354 168.639 358.678C168.745 355.867 168.603 353.092 168.248 350.316C168.176 349.64 167.11 349.64 167.181 350.316Z" fill="#161616"/>
<path d="M168.494 359.427C184.924 361.562 201.318 363.661 217.748 365.796C218.423 365.868 218.423 364.8 217.748 364.729C201.318 362.594 184.924 360.495 168.494 358.36C167.818 358.253 167.818 359.32 168.494 359.427Z" fill="#161616"/>
<path d="M216.932 356.756C217.11 359.532 217.252 362.343 217.43 365.118C217.466 365.794 218.532 365.794 218.497 365.118C218.319 362.343 218.177 359.532 217.999 356.756C217.963 356.08 216.897 356.045 216.932 356.756Z" fill="#161616"/>
<path d="M217.605 365.724C227.883 360.743 238.196 355.797 248.474 350.815C249.078 350.53 248.545 349.605 247.94 349.89C237.663 354.871 227.349 359.817 217.072 364.799C216.432 365.119 217.001 366.045 217.605 365.724Z" fill="#161616"/>
<path d="M217.462 356.614C227.988 352.842 238.23 348.359 248.152 343.163C248.757 342.843 248.223 341.918 247.619 342.238C237.804 347.362 227.633 351.81 217.177 355.582C216.537 355.831 216.822 356.863 217.462 356.614Z" fill="#161616"/>
<path d="M247.196 342.736C247.268 345.405 247.339 348.073 247.41 350.707C247.445 351.383 248.512 351.383 248.477 350.707C248.406 348.038 248.334 345.369 248.263 342.736C248.263 342.024 247.196 342.024 247.196 342.736Z" fill="#161616"/>
<path d="M238.553 342.166C241.505 342.202 244.457 342.415 247.373 342.842C248.048 342.949 248.333 341.917 247.657 341.81C244.634 341.383 241.612 341.134 238.553 341.099C237.878 341.099 237.878 342.166 238.553 342.166Z" fill="#161616"/>
<path d="M201.212 355.121C204.804 355.761 208.431 356.153 212.094 356.295C212.77 356.33 212.77 355.263 212.094 355.227C208.538 355.085 205.017 354.729 201.497 354.089C200.821 353.946 200.536 354.978 201.212 355.121Z" fill="#161616"/>
<path d="M220.595 358.214C224.507 357.253 228.241 355.901 231.868 354.158C232.473 353.873 231.94 352.948 231.335 353.232C227.814 354.94 224.151 356.221 220.346 357.182C219.635 357.325 219.919 358.356 220.595 358.214Z" fill="#161616"/>
<path d="M221.025 360.992C224.154 359.817 227.177 358.43 230.093 356.828C230.698 356.508 230.164 355.583 229.56 355.903C226.715 357.469 223.799 358.821 220.74 359.96C220.1 360.209 220.349 361.241 221.025 360.992Z" fill="#161616"/>
<path d="M233.784 352.095C237.732 350.707 241.644 349.106 245.484 347.362C246.124 347.078 245.555 346.152 244.951 346.437C241.217 348.145 237.412 349.675 233.5 351.027C232.86 351.276 233.144 352.308 233.784 352.095Z" fill="#161616"/>
<path d="M235.314 354.445C239.191 352.773 242.889 350.78 246.445 348.467C247.014 348.076 246.481 347.186 245.912 347.542C242.391 349.855 238.657 351.848 234.781 353.52C234.141 353.805 234.674 354.694 235.314 354.445Z" fill="#161616"/>
<path d="M366.578 256.165C373.869 283.066 381.159 309.967 388.414 336.868C390.476 344.554 392.574 352.205 394.637 359.891C394.993 361.207 397.055 360.638 396.7 359.321C389.409 332.42 382.119 305.519 374.864 278.618C372.802 270.932 370.704 263.282 368.641 255.596C368.285 254.279 366.223 254.848 366.578 256.165Z" fill="#161616"/>
<path d="M345.56 257.304C345.88 286.909 346.2 316.55 346.484 346.156C346.555 354.518 346.662 362.915 346.733 371.278C346.733 372.665 348.867 372.665 348.867 371.278C348.547 341.672 348.227 312.031 347.942 282.426C347.871 274.064 347.764 265.666 347.693 257.304C347.693 255.952 345.56 255.952 345.56 257.304Z" fill="#161616"/>
<path d="M315.794 253.496C309.464 282.426 303.347 311.39 297.443 340.426C295.772 348.646 294.136 356.866 292.5 365.05C292.216 366.402 294.278 366.972 294.563 365.619C300.36 336.583 306.334 307.583 312.557 278.618C314.3 270.434 316.078 262.25 317.892 254.066C318.141 252.713 316.078 252.144 315.794 253.496Z" fill="#161616"/>
<path d="M301 329.716C316.398 329.858 331.761 330.214 347.124 330.819C348.511 330.89 348.511 328.755 347.124 328.684C331.761 328.079 316.363 327.723 301 327.581C299.648 327.581 299.648 329.716 301 329.716Z" fill="#161616"/>
<path d="M347.908 330.356C349.33 330.569 350.432 330 351.748 329.466C353.349 328.825 354.949 328.149 356.549 327.473C359.394 326.263 362.239 325.054 365.084 323.808C371.237 321.104 377.318 318.293 383.328 315.411C384.572 314.806 383.47 312.991 382.261 313.56C376.749 316.229 371.201 318.791 365.582 321.282C362.773 322.527 359.963 323.737 357.118 324.947C355.66 325.552 354.238 326.157 352.78 326.762C351.642 327.224 349.686 328.47 348.441 328.292C347.125 328.114 346.521 330.178 347.908 330.356Z" fill="#161616"/>
<path d="M337.698 257.906C334.853 283.17 332.008 308.435 329.163 333.734C328.345 340.887 327.562 348.074 326.744 355.227C326.602 356.579 328.736 356.579 328.878 355.227C331.723 329.962 334.568 304.698 337.413 279.399C338.231 272.246 339.013 265.058 339.831 257.906C340.009 256.554 337.875 256.554 337.698 257.906Z" fill="#161616"/>
<path d="M331.83 318.149C348.722 317.757 365.543 316.69 382.4 315.587C383.751 315.515 383.787 313.345 382.4 313.452C365.543 314.555 348.722 315.587 331.83 316.014C330.443 316.049 330.443 318.184 331.83 318.149Z" fill="#161616"/>
<path d="M301.391 329.607C312.024 326.511 322.266 322.312 332.543 318.185C333.788 317.687 333.255 315.623 331.974 316.121C321.697 320.249 311.455 324.447 300.822 327.543C299.506 327.899 300.075 329.963 301.391 329.607Z" fill="#161616"/>
<path d="M354.168 228.978C363.308 230.188 370.883 232.715 376.68 235.205C376.786 241.646 376.857 248.051 376.964 254.492C370.278 257.481 360.036 261.074 347.127 262.106C330.591 263.423 317.326 259.9 309.68 257.231C309.36 250.008 309.075 242.785 308.755 235.561C317.148 231.932 333.684 226.274 354.168 228.978Z" fill="white" stroke="#161616" stroke-width="0.937649" stroke-miterlimit="10"/>
<path d="M311.67 237.234C314.444 240.33 318.427 241.433 322.445 241.931C327.637 242.607 332.972 242.821 338.235 242.999C349.046 243.355 359.999 242.75 370.277 239.049C370.917 238.836 370.632 237.804 369.992 238.017C360.213 241.54 349.828 242.252 339.551 241.967C334.643 241.825 329.736 241.54 324.828 241.113C320.383 240.721 315.582 239.974 312.452 236.487C311.954 235.953 311.207 236.736 311.67 237.234Z" fill="#161616"/>
<path d="M306.411 114.187C303.993 114.436 302.499 116.287 299.548 120.13C291.582 130.449 285.821 139.523 285.323 140.305C284.291 141.907 280.771 146.746 273.694 156.425C260.642 174.323 257.62 177.632 258.758 182.294C260.073 187.738 266.012 192.577 270.386 191.794C272.947 191.332 274.476 189.019 276.788 185.14C279.775 180.088 283.616 173.256 287.705 164.751C298.374 157.492 305.38 149.877 309.754 144.362C318.645 133.153 318.36 128.314 318.04 126.321C317.044 119.987 311.283 113.725 306.411 114.187Z" fill="white" stroke="#161616" stroke-width="0.937649" stroke-miterlimit="10"/>
<path opacity="0.09" d="M313.881 118.672C312.138 118.886 311.747 123.938 311.071 127.07C308.724 137.887 300.225 138.99 286.142 155.038C280.238 161.799 276.042 168.062 272.166 173.933C268.396 179.626 265.444 184.608 263.311 188.38C263.666 189.056 264.591 190.479 266.334 191.191C268.681 192.116 270.957 191.084 271.703 190.728C274.513 189.412 275.011 187.384 279.634 179.555C282.586 174.538 282.55 175.072 283.83 172.545C286.177 167.884 286 166.496 288.027 164.148C289.805 162.048 291.085 162.155 294.535 159.486C296.313 158.134 299.442 155.714 302.927 152.263C303.959 151.266 308.119 147.068 312.494 140.591C315.943 135.503 316.761 133.083 317.152 131.731C318.575 126.821 317.686 123.938 317.401 123.12C316.761 121.305 315.232 118.494 313.881 118.672Z" fill="#3D3D3D"/>
<path opacity="0.18" d="M288.026 163.646C287.564 163.361 285.714 166.315 281.518 171.118C271.027 183.039 263.132 186.739 264.27 189.764C264.946 191.508 268.218 192.113 270.565 191.614C273.908 190.903 275.686 187.629 279.171 181.117C287.706 165.14 288.31 163.824 288.026 163.646Z" fill="#3D3D3D"/>
<path d="M257.263 321.175C258.258 332.277 259.218 343.379 260.214 354.481C244.745 362.238 237.348 367.149 238.094 369.248C238.983 371.81 252.213 370.067 277.711 363.982C277.213 348.539 276.715 333.06 276.253 317.617C269.923 318.791 263.593 319.965 257.263 321.175Z" fill="#161616" stroke="#161616" stroke-width="0.937649" stroke-miterlimit="10"/>
<path d="M308.012 194.141C302.571 198.162 294.925 203.82 285.821 210.723C257.158 232.464 253.566 235.774 250.401 241.858C247.272 247.836 246.205 257.906 244.035 278.082C242.542 291.924 242.435 302.599 242.506 308.684C242.577 315.48 242.933 321.28 243.289 325.764C244.96 327.258 251.29 332.489 260.892 332.667C272.236 332.845 279.491 325.799 280.771 324.518C279.669 317.971 278.78 310.89 278.211 303.346C277.18 289.54 277.5 277.015 278.46 266.091C286.07 260.077 296.739 251.395 309.044 240.328C335.324 216.701 337.067 211.114 336.071 207.165C333.795 198.34 316.938 195.244 308.012 194.141Z" fill="white" stroke="#161616" stroke-width="0.937649" stroke-miterlimit="10"/>
<path opacity="0.12" d="M319.856 196.845C316.05 198.126 318.078 206.737 315.517 214.744C312.601 223.889 305.88 226.344 289.236 239.011C283.831 243.104 276.114 249.402 267.294 258.084C267.436 274.061 266.939 291.034 265.552 308.933C264.912 317.046 264.129 324.981 263.24 332.631C265.587 332.311 268.574 331.635 271.917 330.318C275.651 328.824 278.568 326.938 280.595 325.408C279.457 318.647 278.568 311.317 277.999 303.453C277.003 289.647 277.358 277.121 278.283 266.162C284.613 260.824 289.77 256.625 293.29 253.743C298.056 249.864 300.474 247.978 304.564 244.491C306.911 242.499 309.294 240.399 315.233 234.955C330.524 221.006 334.721 216.594 335.752 210.402C336.25 207.236 335.61 205.528 335.183 204.638C333.867 202.04 331.129 200.866 325.652 198.553C322.381 197.237 320.745 196.525 319.856 196.845Z" fill="#3D3D3D"/>
<path opacity="0.15" d="M277.96 265.913C276.324 272.994 274.866 280.502 273.621 288.437C271.239 303.667 270.172 317.829 269.852 330.639C273.515 328.824 277.178 326.974 280.84 325.159C279.525 316.406 278.493 306.727 277.96 296.266C277.426 285.27 277.498 275.129 277.96 265.913Z" fill="#3D3D3D"/>
<path opacity="0.09" d="M332.834 202.61C330.309 202.397 328.033 208.197 326.468 211.577C323.09 218.979 313.915 228.657 295.564 247.979C291.155 252.64 285.216 258.69 277.961 265.593C279.881 264.205 282.477 262.355 285.465 260.113C292.221 255.024 296.24 251.608 309.149 240.471C309.149 240.471 313.808 236.45 332.834 216.488C333.83 215.456 336.248 212.823 336.283 209.264C336.354 206.275 334.719 202.788 332.834 202.61Z" fill="#3D3D3D"/>
<path d="M319.284 110.521C319.142 110.521 318.573 110.556 317.79 110.627C316.19 110.77 313.665 111.054 310.678 111.837C308.26 112.442 306.339 113.154 305.201 113.616C303.174 117.78 300.614 124.22 299.654 132.369C298.267 143.969 301.04 151.441 302.925 163.006C304.206 170.941 305.272 182.435 303.814 196.988C306.873 199.835 314.839 206.489 327.001 208.197C344.178 210.652 356.802 201.4 359.399 199.408C360.181 194.497 360.928 189.516 361.675 184.463C361.675 184.463 362.777 176.848 363.844 168.486C366.369 149.022 368.965 122.797 369.285 119.523C360.145 110.272 352.571 108.137 347.307 107.959C340.479 107.71 324.832 110.236 319.284 110.521Z" fill="#FF6871"/>
<path opacity="0.17" d="M332.728 118.24C334.612 120.197 337.137 123.186 339.413 127.243C350.367 146.671 343.574 169.338 340.551 179.408C338.453 186.454 334.47 196.808 326.575 207.946C329.598 208.48 333.368 208.764 337.671 208.337C347.948 207.305 355.381 202.537 359.115 199.726C361.675 182.753 364.058 165.353 366.192 147.561C367.294 138.381 368.29 129.342 369.25 120.34C367.65 118.347 365.018 115.465 361.071 113.01C357.941 111.053 353.425 108.206 347.806 108.491C338.987 108.989 333.545 117.031 332.728 118.24Z" fill="#3D3D3D"/>
<path d="M252.033 138.31C252.389 138.31 252.78 138.31 253.136 138.31C253.243 137.919 253.349 137.492 253.456 137.1C253.883 137.99 254.594 139.449 255.483 141.263C259.395 149.198 260.177 150.515 260.888 152.899C261.457 154.856 262.133 157.667 262.347 161.261C263.022 160.799 264.018 160.158 265.298 159.446C272.197 155.675 277.958 155.639 283.151 154.714C287.027 154.002 292.468 152.437 298.834 148.629C298.442 149.163 298.051 149.732 297.66 150.266C298.265 150.479 298.905 150.729 299.509 150.942C299.865 151.405 300.327 152.152 300.718 153.113C302.781 158.201 299.723 163.788 296.771 168.912C284.715 190.119 283.471 191.222 281.301 192.29C280.412 192.752 271.451 197.129 265.085 193.073C263.769 192.254 261.386 190.297 258.328 176.455C256.23 167.026 255.981 161.759 253.989 149.376C253.207 144.679 252.496 140.836 252.033 138.31Z" fill="white" stroke="#191919" stroke-width="0.625099" stroke-miterlimit="10"/>
<path d="M254.06 140.266C257.083 146.743 260.07 153.325 260.995 160.442C261.031 160.62 261.28 160.62 261.28 160.442C260.355 153.254 257.368 146.636 254.309 140.124C254.203 139.982 253.989 140.088 254.06 140.266Z" fill="#191919"/>
<path d="M252.886 139.132C254.664 142.903 256.122 146.782 257.331 150.767C257.367 150.945 257.651 150.874 257.58 150.696C256.371 146.675 254.877 142.797 253.099 138.989C253.064 138.847 252.815 138.954 252.886 139.132Z" fill="#191919"/>
<path d="M257.761 150.551C258.935 153.754 259.717 157.063 260.179 160.443C260.215 160.621 260.464 160.621 260.464 160.443C260.002 157.027 259.219 153.718 258.046 150.48C257.974 150.302 257.726 150.373 257.761 150.551Z" fill="#191919"/>
<path d="M254.701 145.463C256.337 149.484 257.759 153.612 258.933 157.811C258.968 157.989 259.253 157.917 259.182 157.739C258.008 153.541 256.586 149.413 254.95 145.392C254.879 145.25 254.63 145.321 254.701 145.463Z" fill="#191919"/>
<path d="M262.953 162.152C267.398 159.199 272.377 157.277 277.676 156.53C277.854 156.494 277.783 156.245 277.605 156.281C272.27 157.028 267.292 158.95 262.811 161.903C262.704 162.01 262.811 162.259 262.953 162.152Z" fill="#191919"/>
<path d="M265.189 161.689C269.813 158.878 275.04 157.81 280.232 156.636C285.745 155.39 291.115 153.718 296.342 151.583C296.484 151.512 296.413 151.263 296.271 151.334C290.866 153.576 285.282 155.248 279.557 156.529C274.542 157.668 269.493 158.771 265.047 161.475C264.905 161.546 265.047 161.795 265.189 161.689Z" fill="#191919"/>
<path d="M264.341 162.972C269.817 160.374 275.401 158.773 281.269 157.349C287.03 155.926 292.613 153.72 298.232 151.798C298.41 151.727 298.339 151.478 298.161 151.549C292.364 153.542 286.567 155.855 280.593 157.243C274.938 158.595 269.497 160.267 264.199 162.758C264.021 162.794 264.163 163.043 264.341 162.972Z" fill="#191919"/>
<path d="M251.82 138.239C254.416 146.459 257.048 154.643 259.644 162.862C260.924 163.289 262.204 163.716 263.485 164.143C275.647 160.123 287.774 156.137 299.936 152.116C300.363 152.472 300.79 152.828 301.217 153.219C302.604 170.121 304.026 186.988 305.413 203.89C304.915 204.21 304.453 204.495 303.955 204.815C291.615 206.701 279.31 208.587 266.97 210.473C265.192 210.046 263.449 209.619 261.671 209.192C260.106 202.253 258.506 195.35 256.941 188.411C254.63 172.007 252.318 155.603 250.007 139.2C250.611 138.844 251.216 138.523 251.82 138.239Z" fill="white" stroke="#191919" stroke-width="0.625099" stroke-miterlimit="10"/>
<path d="M259.078 163.076C259.647 178.484 260.75 193.927 261.603 209.334C261.639 209.833 262.421 209.833 262.421 209.334C261.568 193.927 260.465 178.519 259.896 163.076C259.861 162.542 259.043 162.542 259.078 163.076Z" fill="#191919"/>
<path d="M262.775 164.036C263.273 168.412 263.487 172.789 263.487 177.202C263.487 177.7 264.269 177.7 264.305 177.202C264.305 172.789 264.091 168.412 263.593 164.036C263.487 163.538 262.704 163.538 262.775 164.036Z" fill="#191919"/>
<path opacity="0.16" d="M284.893 157.454C285.035 161.013 284.929 168.983 280.377 177.559C275.54 186.668 268.463 191.365 265.405 193.144C265.263 190.227 265.085 187.309 264.943 184.427C263.734 186.455 262.56 188.483 261.351 190.511C261.6 196.845 261.884 203.179 262.133 209.548C263.84 209.904 265.547 210.26 267.29 210.651C279.274 208.73 291.295 206.808 303.279 204.887C303.919 204.638 304.524 204.353 305.164 204.104C303.812 186.989 302.461 169.909 301.11 152.793C295.704 154.323 290.299 155.889 284.893 157.454Z" fill="#6C6D6D"/>
<path opacity="0.1" d="M262.953 164.393C262.704 164.393 262.419 170.976 262.597 178.128C262.811 188.305 263.771 192.753 263.486 202.467C263.38 205.634 263.202 208.232 263.059 209.904C264.375 210.082 265.727 210.26 267.042 210.438C266.794 208.694 266.438 206.168 266.082 203.143C263.273 180.512 263.344 164.393 262.953 164.393Z" fill="#6C6D6D"/>
<path d="M272.519 166.386C280.982 164.393 289.304 161.902 297.483 158.913C298.124 158.664 297.839 157.632 297.199 157.881C289.02 160.835 280.698 163.326 272.234 165.354C271.594 165.532 271.878 166.564 272.519 166.386Z" fill="#191919"/>
<path d="M253.312 167.455C252.921 167.597 252.957 168.309 252.637 171.618C252.423 173.86 252.352 173.895 252.423 174.429C252.601 175.923 253.135 176.208 253.312 177.916C253.419 179.019 253.206 179.161 253.384 180.087C253.597 181.225 254.095 182.079 254.486 182.613C254.486 182.969 254.557 183.574 254.842 184.179C255.411 185.282 256.726 186.243 257.438 185.887C257.829 185.709 257.936 184.962 258.113 183.503C258.291 182.15 258.185 182.079 258.327 180.514C258.469 179.233 258.576 178.984 258.469 178.343C258.362 177.56 258.078 177.311 257.793 176.493C257.402 175.354 257.58 174.927 257.331 173.753C256.975 171.796 256.051 170.408 255.553 169.661C255.055 168.878 253.988 167.241 253.312 167.455Z" fill="white"/>
<path d="M253.065 167.135C251.145 171.298 253.065 175.959 257.404 177.489C257.901 177.667 258.115 176.884 257.617 176.707C253.776 175.354 252.069 171.227 253.776 167.526C253.954 167.063 253.278 166.672 253.065 167.135Z" fill="#191919"/>
<path d="M253.206 167.773C255.766 170.157 257.26 173.289 257.473 176.776C257.509 177.274 258.291 177.274 258.291 176.776C258.078 173.075 256.513 169.73 253.775 167.204C253.383 166.848 252.814 167.417 253.206 167.773Z" fill="#191919"/>
<path d="M252.139 172.114C251.215 176.277 253.668 180.227 257.9 181.116C258.398 181.223 258.612 180.44 258.114 180.334C254.344 179.551 252.068 176.099 252.922 172.292C253.028 171.794 252.246 171.58 252.139 172.114Z" fill="#191919"/>
<path d="M252.924 177.344C252.178 180.512 254.098 183.537 257.299 184.142C257.797 184.248 258.011 183.465 257.513 183.359C254.738 182.86 253.031 180.334 253.671 177.558C253.814 177.059 253.067 176.846 252.924 177.344Z" fill="#191919"/>
<path d="M253.955 182.434C253.813 183.964 254.702 185.495 256.125 186.064C256.729 186.313 257.512 186.349 257.974 185.815C258.472 185.246 258.259 184.391 257.974 183.786C257.797 183.324 257.014 183.537 257.192 184C257.37 184.391 257.725 185.174 257.156 185.423C256.729 185.601 256.054 185.174 255.734 184.925C254.987 184.32 254.631 183.395 254.738 182.434C254.809 181.9 253.991 181.936 253.955 182.434Z" fill="#191919"/>
<path d="M257.614 184.107C258.397 184.107 258.717 183.324 258.824 182.648C258.966 181.829 258.824 180.975 258.397 180.263C258.148 179.8 257.436 180.227 257.721 180.654C257.97 181.082 258.112 181.544 258.112 182.007C258.112 182.256 258.041 183.288 257.614 183.288C257.116 183.288 257.116 184.107 257.614 184.107Z" fill="#191919"/>
<path d="M258.612 180.833C259.11 180.37 259.11 179.481 259.003 178.84C258.897 178.022 258.541 177.31 257.972 176.705C257.616 176.313 257.047 176.883 257.403 177.274C257.758 177.666 258.043 178.128 258.15 178.698C258.221 179.089 258.327 179.943 258.007 180.264C257.652 180.62 258.221 181.189 258.612 180.833Z" fill="#191919"/>
<path d="M295.631 295.448C296.947 303.419 298.227 311.425 299.543 319.396C284.926 329.786 278.134 335.906 279.165 337.828C280.374 340.07 292.323 336.476 315.012 327.046C314.194 314.023 313.376 301.035 312.523 288.011C306.904 290.502 301.25 292.957 295.631 295.448Z" fill="#161616" stroke="#161616" stroke-width="0.937649" stroke-miterlimit="10"/>
<path d="M359.573 199.159C360.142 203.892 360.355 211.471 357.546 220.011C356.337 223.64 354.31 229.583 348.975 235.169C345.561 238.728 339.587 244.99 330.874 244.741C323.832 244.528 318.854 240.222 317.04 238.479C316.507 245.168 316.222 252.427 316.364 260.22C316.578 272.212 317.751 283.065 319.316 292.53C315.049 300.429 306.869 305.304 298.227 305.055C287.132 304.735 280.837 296.159 280.126 295.163C277.566 271.073 277.352 251.04 277.815 236.166C278.206 224.032 279.059 213.997 286.385 205.849C293.533 197.878 302.993 196.063 305.482 195.636C323.69 192.398 337.453 205.244 339.089 206.845C341.72 207.023 346.877 206.952 352.425 204.283C355.696 202.682 358.044 200.689 359.573 199.159Z" fill="white" stroke="#161616" stroke-width="0.937649" stroke-miterlimit="10"/>
<path d="M317.604 228.125C316.608 232.573 316.075 237.092 315.968 241.647C315.968 242.323 317.035 242.323 317.035 241.647C317.142 237.164 317.64 232.751 318.6 228.41C318.778 227.734 317.746 227.449 317.604 228.125Z" fill="#161616"/>
<path d="M317.859 233.818C318.357 232.715 318.819 231.612 319.317 230.473C319.602 229.832 318.677 229.298 318.392 229.939C317.894 231.042 317.432 232.146 316.934 233.284C316.649 233.889 317.574 234.423 317.859 233.818Z" fill="#161616"/>
<path d="M337.768 206.313C340.151 208.591 341.787 211.864 343.565 214.64C343.92 215.209 344.845 214.675 344.489 214.106C342.64 211.259 340.969 207.95 338.515 205.566C338.017 205.068 337.27 205.815 337.768 206.313Z" fill="#161616"/>
<path opacity="0.09" d="M348.226 205.565C348.297 207.273 348.297 209.621 348.013 212.432C347.337 219.015 346.768 224.602 343.141 227.022C338.909 229.868 332.472 227.164 330.089 226.132C321.839 222.645 320.879 216.809 316.149 216.382C310.565 215.884 304.769 223.356 301.995 229.228C295.131 243.639 302.919 254.919 303.773 280.788C304.093 291.178 303.168 299.576 302.457 304.7C304.306 304.486 306.725 303.953 309.321 302.707C315.331 299.825 318.354 294.879 319.492 292.744C319.243 290.787 318.887 287.762 318.389 284.097C317.18 275.166 316.789 274.205 316.398 270.362C316.22 268.618 316.078 266.661 316.398 253.994C316.504 250.257 316.611 245.098 316.824 238.942C317.785 239.618 319.1 240.472 320.807 241.362C321.981 241.967 326.106 244.137 329.876 244.671C335.886 245.525 341.007 242.144 343.603 240.472C350.68 235.811 353.738 229.263 355.765 224.744C360.282 214.745 360.424 205.351 359.962 199.516C358.717 200.868 356.405 203.038 352.885 204.391C351.107 205.102 349.506 205.422 348.226 205.565Z" fill="#3D3D3D"/>
<path opacity="0.11" d="M358.609 206.883C357.791 206.598 355.337 211.402 355.052 211.971C352.741 216.561 352.812 219.515 351.958 222.362C350.287 228.055 344.881 233.784 339.369 235.207C330.087 237.591 322.299 227.308 318.138 230.546C316.182 232.076 316.289 235.563 317.036 237.627C319.17 243.569 328.843 243.996 330.087 244.032C338.516 244.316 344.704 239.086 346.66 237.378C359.178 226.56 360.102 207.417 358.609 206.883Z" fill="#3D3D3D"/>
<path opacity="0.11" d="M317.679 230.118C317.074 230.011 315.19 235.989 313.909 241.86C311.313 253.816 311.633 263.032 311.704 267.516C311.811 275.842 311.1 287.763 307.508 302.921C308.966 302.565 311.207 301.782 313.483 300.039C316.968 297.37 318.461 294.025 318.995 292.531C318.284 284.738 317.786 278.12 317.43 273.067C316.576 260.862 316.15 254.635 316.328 248.941C316.719 237.59 318.355 230.26 317.679 230.118Z" fill="#3D3D3D"/>
<path d="M301.675 171.9C301.995 170.975 304.129 170.975 304.698 170.975C307.187 170.975 309.179 172.611 309.819 173.999C309.997 174.391 310.032 174.711 310.032 174.889C310.103 175.85 309.534 176.81 309.037 177.131C307.187 178.305 301.035 173.715 301.675 171.9Z" fill="white" stroke="#161616" stroke-width="0.937649" stroke-miterlimit="10"/>
<path d="M366.548 117.102C372.203 120.589 371.527 130.446 370.674 142.793C369.713 156.422 366.442 165.994 365.197 169.481C362.992 175.494 360.538 180.369 358.511 183.856C351.185 186.988 339.521 190.688 325.082 190.048C319.855 189.799 315.196 189.052 311.178 188.091C306.377 191.4 302.5 191.365 300.829 191.187C298.233 190.938 294.819 189.763 294.854 188.625C294.854 187.842 296.526 187.201 297.273 186.917C299.086 186.205 300.687 186.276 300.687 186.205C300.687 186.134 299.371 186.205 297.984 186.063C297.059 185.956 295.246 185.814 293.681 184.995C293.112 184.71 290.302 183.323 289.769 180.618C289.271 178.163 290.765 175.388 293.503 173.751C296.028 173.075 300.473 172.256 305.843 173.217C309.826 173.929 312.885 175.352 314.912 176.455C324.478 174.107 334.044 171.723 343.575 169.374C343.753 167.381 344.073 164.464 344.464 160.87C345.709 149.519 346.313 143.825 347.273 139.021C349.621 127.208 351.15 119.486 357.124 116.782C359.791 115.608 363.668 115.323 366.548 117.102Z" fill="white" stroke="#161616" stroke-width="0.937649" stroke-miterlimit="10"/>
<path opacity="0.18" d="M360.962 116.284C362.136 123.578 363.203 134.36 362.243 147.312C361.176 161.581 360.571 168.698 355.521 174.605C347.946 183.465 331.623 187.913 318.927 184.319C314.02 182.931 306.943 179.764 298.266 181.543C295.776 182.042 291.971 183.216 292.042 184.141C292.113 184.853 294.674 185.564 296.487 185.778C297.874 185.92 298.763 185.813 298.835 186.098C299.048 186.774 295.029 187.913 295.136 189.087C295.207 190.083 298.372 190.866 300.968 190.937C302.96 191.009 306.481 190.76 310.748 188.304C314.518 189.194 318.821 189.941 323.551 190.226C338.665 191.151 351.04 187.201 358.757 183.856C360.322 181.045 362.314 177.096 364.234 172.185C370.173 157.098 370.849 144.537 370.955 141.121C371.169 135.997 370.991 128.809 369.32 120.305C369.071 119.771 368.004 117.743 365.55 116.675C363.487 115.785 361.602 116.141 360.962 116.284Z" fill="#3D3D3D"/>
<path opacity="0.21" d="M351.47 184.035C345.957 184.889 342.757 185.779 340.267 186.277C330.168 188.412 321.988 187.451 319.108 187.095C316.156 186.775 313.738 186.277 312.066 185.921C310.039 186.739 307.016 187.771 303.247 188.198C298.41 188.732 294.961 188.02 294.854 188.625C294.747 189.195 297.699 190.689 300.829 191.045C305.594 191.579 309.47 189.266 311.213 188.056C313.418 188.661 316.583 189.444 320.459 189.906C341.05 192.433 359.151 183.893 358.938 183.11C358.902 182.861 356.413 183.252 351.47 184.035Z" fill="#3D3D3D"/>
<path d="M291.9 184.106C295.243 182.682 298.87 182.398 302.391 183.216C303.067 183.358 303.351 182.326 302.676 182.184C298.835 181.295 294.994 181.615 291.367 183.18C290.727 183.465 291.296 184.39 291.9 184.106Z" fill="#161616"/>
<path d="M290.014 180.69C293.961 179.266 298.087 178.804 302.247 179.338C302.923 179.409 302.923 178.341 302.247 178.27C298.016 177.736 293.748 178.199 289.73 179.658C289.089 179.907 289.374 180.939 290.014 180.69Z" fill="#161616"/>
<path d="M291.008 177.06C294.92 175.922 298.903 175.495 302.957 175.779C303.633 175.815 303.633 174.747 302.957 174.712C298.832 174.427 294.707 174.89 290.724 176.028C290.048 176.206 290.332 177.238 291.008 177.06Z" fill="#161616"/>
<path d="M309.822 60.2067C299.9 68.2485 300.292 84.6169 304.203 95.1851C306.657 101.875 310.64 106.465 313.201 108.991C313.841 111.696 314.445 114.436 315.086 117.14C318.215 117.816 322.34 118.35 327.141 117.923C337.952 116.927 345.563 111.66 348.941 108.92C346.558 103.013 344.176 97.1066 341.793 91.1642C341.473 88.9936 341.011 85.6488 340.442 81.5923C338.984 70.9529 339.055 70.3835 338.415 68.6755C338.13 67.9639 334.112 57.787 324.687 55.9723C317.042 54.5134 310.747 59.4239 309.822 60.2067Z" fill="white" stroke="#161616" stroke-width="0.937649" stroke-miterlimit="10"/>
<path d="M301.644 87.4283C301.075 89.6701 300.471 93.1572 300.897 97.3917C301.182 100.203 301.644 105.078 305.165 109.775C308.97 114.863 314.127 116.785 316.296 117.496C316.118 116.927 315.94 116.215 315.834 115.397C315.727 114.507 315.763 113.724 315.834 113.119C318.181 114.365 320.528 115.646 322.84 116.891C328.743 111.483 330.699 106.572 331.375 102.978C331.908 100.167 332.228 95.0076 333.508 85.6136C333.722 83.9412 334.184 80.9166 336.104 80.1693C336.993 79.8135 338.203 79.9558 339.021 80.6319C341.368 82.589 338.985 88.1756 339.483 88.3535C339.981 88.4958 344.07 82.8737 342.683 76.3975C341.972 73.0527 340.016 70.7397 338.878 69.6011C336.318 73.622 333.473 77.7497 330.343 81.9841C328.352 84.6884 326.36 87.2504 324.404 89.7057C323.657 90.0971 322.555 90.5597 321.275 90.4529C320.279 90.3817 319.923 90.0259 319.177 89.8124C316.403 89.0296 314.909 92.2677 312.206 91.8407C309.966 91.4848 309.753 89.1007 307.299 89.0296C306.125 88.994 305.627 89.5277 304.418 89.2787C303.138 88.994 302.249 88.14 301.644 87.4283Z" fill="#161616" stroke="#161616" stroke-width="0.937649" stroke-miterlimit="10"/>
<path d="M313.099 77.9252C312.245 81.8037 311.712 85.7179 311.498 89.6676C311.463 90.0946 311.961 90.3082 312.316 90.1302C313.703 89.4186 315.09 88.7069 316.513 87.9952C317.117 87.675 316.584 86.7498 315.979 87.0701C314.592 87.7817 313.205 88.4934 311.783 89.2051C312.067 89.3474 312.316 89.5253 312.601 89.6676C312.85 85.7891 313.348 81.9817 314.165 78.2098C314.272 77.5337 313.241 77.2491 313.099 77.9252Z" fill="#161616"/>
<path d="M307.511 80.0969C307.902 80.7019 307.973 81.6272 307.653 81.8052C307.262 82.0187 306.159 81.2002 306.017 80.2749C305.981 79.9901 306.017 79.4919 306.266 79.3495C306.621 79.1716 307.226 79.6343 307.511 80.0969Z" fill="#161616" stroke="#161616" stroke-width="0.937649" stroke-miterlimit="10"/>
<path d="M305.667 76.4287C306.912 75.7881 308.406 75.8948 309.544 76.7846C310.077 77.2116 310.824 76.4643 310.291 76.0372C308.797 74.8272 306.841 74.6136 305.133 75.5034C304.529 75.8237 305.062 76.749 305.667 76.4287Z" fill="#161616"/>
<path d="M318.073 76.964C319.851 75.7898 322.27 76.1812 323.479 77.9604C323.87 78.5297 324.794 77.996 324.403 77.4266C322.874 75.2205 319.816 74.5444 317.54 76.0389C316.971 76.4303 317.504 77.3555 318.073 76.964Z" fill="#161616"/>
<path d="M293.823 70.169C308.012 70.9874 322.202 72.1972 336.32 73.7273C338.382 73.9408 338.347 70.7383 336.32 70.5248C322.202 68.9947 308.012 67.7849 293.823 66.9665C291.76 66.8597 291.76 70.0622 293.823 70.169Z" fill="#161616"/>
<path d="M303.033 67.9985C303.246 65.8279 304.135 60.2413 308.474 55.7223C314.128 49.8154 324.548 47.3246 332.656 52.3418C339.022 56.2916 342.4 63.9064 341.262 71.6636C328.496 70.4537 315.764 69.2083 303.033 67.9985Z" fill="#0071BC"/>
<path opacity="0.69" d="M320.953 50.7768C319.282 52.1645 319.282 55.0468 319.886 58.1425C320.526 61.5229 322.162 65.6506 324.652 69.8494C330.164 70.4899 335.712 71.1304 341.224 71.7709C341.473 70.5967 341.686 68.8531 341.473 66.7537C341.473 66.7537 341.117 62.9463 339.09 59.4947C335.036 52.6627 324.438 47.8589 320.953 50.7768Z" fill="#3A1DA3"/>
<path opacity="0.24" d="M338.278 90.0244C337.033 90.7005 335.789 90.5226 335.362 90.4514C335.895 91.4833 336.998 93.6895 337.78 96.7852C338.492 99.7031 339.523 103.688 338.171 108.279C336.962 112.371 334.402 115.075 332.659 116.57C334.793 116.178 337.602 115.431 340.696 113.901C344.288 112.122 346.849 109.987 348.52 108.35C345.889 100.913 343.292 93.476 340.661 86.0391C340.661 86.1814 340.519 88.8501 338.278 90.0244Z" fill="#3D3D3D"/>
<path opacity="0.19" d="M325.825 72.5186C326.216 74.2266 326.572 76.7886 326.145 79.8131C325.434 84.9016 322.98 88.4243 321.664 90.0256C322.447 89.7765 323.229 89.5274 324.011 89.2783C325.576 87.3924 327.141 85.3997 328.706 83.3359C331.266 79.9555 333.649 76.6462 335.783 73.4081C332.475 73.1591 329.132 72.8388 325.825 72.5186Z" fill="#3D3D3D"/>
<path d="M320.993 80.4182C321.384 81.0232 321.455 81.9485 321.135 82.1265C320.744 82.34 319.641 81.5215 319.499 80.5961C319.464 80.3114 319.499 79.8132 319.748 79.6708C320.104 79.4929 320.673 79.9555 320.993 80.4182Z" fill="#161616" stroke="#161616" stroke-width="0.937649" stroke-miterlimit="10"/>
<path d="M305.416 89.3128C308.971 89.3128 311.853 86.4293 311.853 82.8722C311.853 79.3152 308.971 76.4316 305.416 76.4316C301.861 76.4316 298.979 79.3152 298.979 82.8722C298.979 86.4293 301.861 89.3128 305.416 89.3128Z" stroke="#161616" stroke-width="0.625099" stroke-miterlimit="10"/>
<path d="M320.389 89.3128C323.944 89.3128 326.826 86.4293 326.826 82.8722C326.826 79.3152 323.944 76.4316 320.389 76.4316C316.834 76.4316 313.952 79.3152 313.952 82.8722C313.952 86.4293 316.834 89.3128 320.389 89.3128Z" stroke="#161616" stroke-width="0.625099" stroke-miterlimit="10"/>
<path d="M312.593 83.0876C312.736 82.9096 313.02 82.8384 313.198 82.9808C313.412 83.1588 313.732 83.1944 313.945 82.9808C314.123 82.8028 314.159 82.4113 313.945 82.2333C313.341 81.6993 312.38 81.6993 311.846 82.3401C311.668 82.5536 311.633 82.874 311.846 83.0876C312.024 83.3012 312.416 83.3012 312.593 83.0876Z" fill="#161616"/>
<path d="M299.51 83.2994C300.186 82.9435 300.862 82.5521 301.502 82.125C302.071 81.7691 301.538 80.8438 300.969 81.1997C300.328 81.6267 299.653 82.0182 298.977 82.3741C298.337 82.6944 298.906 83.6197 299.51 83.2994Z" fill="#161616"/>
<path d="M327.214 83.1922C330.166 82.445 333.153 81.7333 336.105 80.986C336.781 80.8081 336.496 79.7762 335.82 79.9541C332.869 80.7014 329.881 81.413 326.93 82.1603C326.254 82.3382 326.539 83.3701 327.214 83.1922Z" fill="#161616"/>
</svg>
